<svg width="1273" height="46" viewBox="0 0 1273 46" fill="none" xmlns="http://www.w3.org/2000/svg">
<line x1="0.5" y1="22.5" x2="260.5" y2="22.5" stroke="url(#paint0_linear_4658_8678)"/>
<path d="M350.82 1.624H363.436V5.728H355.342V25.906H350.82V1.624ZM376.47 3.486H390.036V7.476H376.47V3.486ZM380.65 15.266H388.934V32.556H380.65V28.642H385.134V19.18H380.65V15.266ZM380.46 5.69L384.526 6.26C384.197 8.97067 383.753 11.6307 383.196 14.24C382.639 16.824 381.942 19.2433 381.106 21.498C380.295 23.7527 379.282 25.7413 378.066 27.464C377.939 27.1093 377.737 26.6787 377.458 26.172C377.179 25.64 376.888 25.108 376.584 24.576C376.28 24.0187 376.001 23.5753 375.748 23.246C376.66 21.8527 377.42 20.2313 378.028 18.382C378.661 16.5073 379.168 14.4933 379.548 12.34C379.928 10.1613 380.232 7.94467 380.46 5.69ZM378.94 15.266H382.626V35.368H378.94V15.266ZM396.344 20.244L399.422 20.738C399.321 22.0553 399.093 23.4107 398.738 24.804C398.409 26.1973 397.915 27.3627 397.256 28.3L394.406 26.78C394.938 26.0453 395.369 25.07 395.698 23.854C396.027 22.638 396.243 21.4347 396.344 20.244ZM407.706 19.598L411.544 20.928C410.911 22.0933 410.265 23.284 409.606 24.5C408.973 25.716 408.377 26.7547 407.82 27.616L404.932 26.4C405.261 25.792 405.603 25.0953 405.958 24.31C406.313 23.4993 406.642 22.6887 406.946 21.878C407.25 21.042 407.503 20.282 407.706 19.598ZM391.556 2.878H395.318V7.552H406.642V2.878H410.594V11.238H391.556V2.878ZM389.694 13.556H411.886V17.394H389.694V13.556ZM398.852 1.7H402.88V10.098H398.852V1.7ZM400.866 17.926H404.59C404.514 20.4847 404.362 22.79 404.134 24.842C403.931 26.894 403.526 28.718 402.918 30.314C402.31 31.8847 401.398 33.2527 400.182 34.418C398.991 35.6087 397.395 36.6093 395.394 37.42C395.191 36.9387 394.862 36.3813 394.406 35.748C393.95 35.1147 393.519 34.6207 393.114 34.266C394.887 33.582 396.281 32.7713 397.294 31.834C398.307 30.8967 399.067 29.7693 399.574 28.452C400.081 27.1347 400.41 25.6147 400.562 23.892C400.739 22.144 400.841 20.1553 400.866 17.926ZM404.438 19.522C404.514 21.0673 404.653 22.562 404.856 24.006C405.084 25.45 405.464 26.8053 405.996 28.072C406.553 29.3133 407.339 30.4407 408.352 31.454C409.391 32.4673 410.771 33.316 412.494 34C412.038 34.4053 411.569 34.9373 411.088 35.596C410.607 36.2547 410.239 36.8627 409.986 37.42C408.137 36.5333 406.655 35.444 405.54 34.152C404.451 32.8853 403.615 31.4667 403.032 29.896C402.475 28.3253 402.069 26.6787 401.816 24.956C401.588 23.208 401.423 21.46 401.322 19.712L404.438 19.522ZM391.214 12.036H395.052V18.572C395.052 20.5733 394.963 22.6633 394.786 24.842C394.609 26.9953 394.241 29.136 393.684 31.264C393.127 33.392 392.227 35.406 390.986 37.306C390.606 36.926 390.074 36.4953 389.39 36.014C388.706 35.5327 388.085 35.178 387.528 34.95C388.668 33.2527 389.491 31.4667 389.998 29.592C390.505 27.7173 390.834 25.8427 390.986 23.968C391.138 22.068 391.214 20.2567 391.214 18.534V12.036ZM431.874 1.776H435.978V6.374H431.874V1.776ZM425.908 4.322H441.83V7.742H425.908V4.322ZM425.186 10.782H442.134V14.316H425.186V10.782ZM442.894 10.782H460.412V14.316H442.894V10.782ZM449.012 1.776H453.306V6.374H449.012V1.776ZM443.274 4.322H459.918V7.742H443.274V4.322ZM430.734 19.104V22.296H436.852V19.104H430.734ZM426.782 15.76H440.994V25.716H426.782V15.76ZM448.176 19.104V22.334H454.446V19.104H448.176ZM444.072 15.76H458.816V25.754H444.072V15.76ZM434.572 25.07H438.562V32.252L434.572 33.772V25.07ZM433.508 32.29C434.572 31.986 435.839 31.5807 437.308 31.074C438.803 30.5673 440.323 30.0353 441.868 29.478L442.628 33.202C441.285 33.734 439.93 34.266 438.562 34.798C437.194 35.33 435.877 35.8367 434.61 36.318L433.508 32.29ZM427.884 7.78L431.342 7.172C431.595 7.704 431.811 8.312 431.988 8.996C432.191 9.65467 432.33 10.2247 432.406 10.706L428.796 11.466C428.745 10.9593 428.631 10.364 428.454 9.68C428.302 8.97067 428.112 8.33733 427.884 7.78ZM436.282 7.02L440.12 7.818C439.816 8.52733 439.55 9.186 439.322 9.794C439.094 10.402 438.879 10.9467 438.676 11.428L435.142 10.706C435.319 10.1487 435.522 9.528 435.75 8.844C436.003 8.16 436.181 7.552 436.282 7.02ZM445.174 7.742L448.708 6.944C448.987 7.52667 449.227 8.17267 449.43 8.882C449.658 9.566 449.81 10.174 449.886 10.706L446.162 11.618C446.137 11.086 446.023 10.4653 445.82 9.756C445.617 9.02133 445.402 8.35 445.174 7.742ZM453.952 6.868L458.018 7.704C457.663 8.464 457.334 9.16066 457.03 9.794C456.726 10.4273 456.447 10.9847 456.194 11.466L452.698 10.668C452.926 10.1107 453.154 9.47733 453.382 8.768C453.61 8.05867 453.8 7.42533 453.952 6.868ZM445.744 25.298H449.696C449.595 27.274 449.341 29.0347 448.936 30.58C448.531 32.1 447.809 33.4173 446.77 34.532C445.731 35.672 444.199 36.622 442.172 37.382C441.944 36.8753 441.589 36.28 441.108 35.596C440.652 34.912 440.209 34.3673 439.778 33.962C441.45 33.4553 442.691 32.8093 443.502 32.024C444.313 31.2387 444.87 30.2887 445.174 29.174C445.478 28.0593 445.668 26.7673 445.744 25.298ZM428.872 25.146H432.71C432.609 26.9193 432.381 28.5787 432.026 30.124C431.697 31.644 431.139 33.0247 430.354 34.266C429.569 35.5073 428.416 36.5587 426.896 37.42C426.744 37.0907 426.516 36.7107 426.212 36.28C425.908 35.8493 425.591 35.4313 425.262 35.026C424.933 34.6207 424.629 34.304 424.35 34.076C425.566 33.468 426.478 32.7207 427.086 31.834C427.719 30.922 428.15 29.9087 428.378 28.794C428.631 27.6793 428.796 26.4633 428.872 25.146ZM451.368 25.26H455.396V32.1C455.396 32.2013 455.396 32.3027 455.396 32.404C455.421 32.48 455.459 32.5433 455.51 32.594C455.637 32.746 455.827 32.822 456.08 32.822C456.181 32.822 456.295 32.822 456.422 32.822C456.574 32.822 456.701 32.822 456.802 32.822C457.081 32.822 457.283 32.7587 457.41 32.632C457.486 32.5813 457.549 32.5053 457.6 32.404C457.651 32.2773 457.689 32.138 457.714 31.986C457.765 31.682 457.803 31.226 457.828 30.618C457.879 30.01 457.891 29.3133 457.866 28.528C458.221 28.8827 458.727 29.25 459.386 29.63C460.07 30.01 460.678 30.276 461.21 30.428C461.185 31.3147 461.121 32.1633 461.02 32.974C460.919 33.7847 460.805 34.38 460.678 34.76C460.399 35.5453 459.943 36.128 459.31 36.508C459.057 36.6853 458.727 36.812 458.322 36.888C457.942 36.9893 457.549 37.04 457.144 37.04C456.84 37.04 456.46 37.04 456.004 37.04C455.548 37.04 455.181 37.04 454.902 37.04C454.395 37.04 453.901 36.964 453.42 36.812C452.939 36.6853 452.533 36.4573 452.204 36.128C451.875 35.7733 451.647 35.368 451.52 34.912C451.419 34.456 451.368 33.6707 451.368 32.556V25.26ZM488.798 13.746H493.434V32.366C493.434 33.582 493.269 34.5193 492.94 35.178C492.636 35.862 492.041 36.3687 491.154 36.698C490.318 37.0527 489.279 37.268 488.038 37.344C486.797 37.42 485.327 37.458 483.63 37.458C483.503 36.8247 483.275 36.0647 482.946 35.178C482.617 34.3167 482.275 33.5947 481.92 33.012C482.731 33.0373 483.529 33.0627 484.314 33.088C485.125 33.1133 485.834 33.126 486.442 33.126C487.075 33.1007 487.519 33.088 487.772 33.088C488.152 33.0627 488.418 32.9993 488.57 32.898C488.722 32.7967 488.798 32.594 488.798 32.29V13.746ZM479.45 12.226H504.758V30.808H500.16V16.026H479.45V12.226ZM473.826 18.572H509.014V22.486H473.826V18.572ZM478.538 25.26H502.668V29.06H478.538V25.26ZM501.756 1.776L505.29 5.31C503.542 5.69 501.655 6.01933 499.628 6.298C497.627 6.57666 495.549 6.83 493.396 7.058C491.243 7.286 489.102 7.48867 486.974 7.666C484.846 7.818 482.769 7.94467 480.742 8.046C480.666 7.514 480.514 6.88066 480.286 6.146C480.058 5.41133 479.83 4.80333 479.602 4.322C481.553 4.22067 483.541 4.094 485.568 3.942C487.62 3.76467 489.621 3.562 491.572 3.334C493.548 3.106 495.397 2.86533 497.12 2.612C498.868 2.35867 500.413 2.08 501.756 1.776ZM478.956 3.258L483.592 4.322C483.161 5.71533 482.629 7.08333 481.996 8.426C481.388 9.76867 480.729 11.0353 480.02 12.226C479.311 13.3913 478.589 14.4173 477.854 15.304C477.55 15.0507 477.157 14.7593 476.676 14.43C476.195 14.0753 475.688 13.746 475.156 13.442C474.649 13.1127 474.206 12.8593 473.826 12.682C474.941 11.542 475.954 10.1233 476.866 8.426C477.778 6.72867 478.475 5.006 478.956 3.258ZM488 8.084L492.066 7.058C492.446 7.76733 492.801 8.54 493.13 9.376C493.459 10.1867 493.675 10.896 493.776 11.504L489.482 12.644C489.381 12.036 489.191 11.3013 488.912 10.44C488.633 9.57867 488.329 8.79333 488 8.084ZM498.868 7.438L502.592 5.538C503.301 6.19667 504.011 6.944 504.72 7.78C505.455 8.616 506.126 9.452 506.734 10.288C507.367 11.0987 507.861 11.8333 508.216 12.492L504.226 14.62C503.897 13.9613 503.441 13.214 502.858 12.378C502.275 11.542 501.629 10.6933 500.92 9.832C500.236 8.97067 499.552 8.17267 498.868 7.438ZM523.91 9.642H553.056V14.316H523.91V9.642ZM551.156 9.642H555.906C555.906 9.642 555.906 9.78133 555.906 10.06C555.906 10.3387 555.893 10.6553 555.868 11.01C555.868 11.3393 555.855 11.6053 555.83 11.808C555.627 15.608 555.425 18.8633 555.222 21.574C555.019 24.2593 554.791 26.4887 554.538 28.262C554.31 30.0353 554.031 31.4413 553.702 32.48C553.398 33.5187 553.031 34.2913 552.6 34.798C552.017 35.5327 551.422 36.0393 550.814 36.318C550.231 36.5967 549.522 36.7867 548.686 36.888C548.002 36.9893 547.103 37.04 545.988 37.04C544.873 37.04 543.733 37.0273 542.568 37.002C542.543 36.318 542.378 35.52 542.074 34.608C541.795 33.696 541.441 32.9233 541.01 32.29C542.226 32.3913 543.341 32.4547 544.354 32.48C545.393 32.48 546.165 32.48 546.672 32.48C547.052 32.48 547.381 32.442 547.66 32.366C547.939 32.29 548.192 32.1253 548.42 31.872C548.749 31.5427 549.053 30.9093 549.332 29.972C549.611 29.0093 549.851 27.6793 550.054 25.982C550.282 24.2847 550.485 22.1693 550.662 19.636C550.839 17.0773 551.004 14.05 551.156 10.554V9.642ZM535.576 1.776H540.44V9.642C540.44 11.3647 540.351 13.2013 540.174 15.152C540.022 17.1027 539.693 19.0913 539.186 21.118C538.679 23.1193 537.907 25.108 536.868 27.084C535.829 29.06 534.449 30.9473 532.726 32.746C531.029 34.5447 528.888 36.166 526.304 37.61C526.051 37.23 525.709 36.7993 525.278 36.318C524.873 35.8367 524.429 35.3807 523.948 34.95C523.492 34.5193 523.074 34.1647 522.694 33.886C525.075 32.6193 527.039 31.2007 528.584 29.63C530.155 28.0593 531.409 26.4253 532.346 24.728C533.283 23.0053 533.98 21.27 534.436 19.522C534.917 17.7487 535.221 16.026 535.348 14.354C535.5 12.6567 535.576 11.086 535.576 9.642V1.776ZM571.41 34C571.055 34 570.878 33.8227 570.878 33.468V29.478C570.878 29.1233 571.055 28.946 571.41 28.946H576.692V15.152L571.676 16.71C571.321 16.8367 571.144 16.6973 571.144 16.292V12.416C571.144 12.112 571.271 11.9093 571.524 11.808L580.15 9.034C580.378 8.958 580.606 8.92 580.834 8.92H582.088C582.443 8.92 582.62 9.08467 582.62 9.414V28.946H587.484C587.839 28.946 588.016 29.1233 588.016 29.478V33.468C588.016 33.8227 587.839 34 587.484 34H571.41ZM610.176 34.418C607.086 34.418 604.73 33.6327 603.108 32.062C601.512 30.466 600.714 28.1733 600.714 25.184V17.926C600.714 14.9367 601.512 12.6567 603.108 11.086C604.73 9.49 607.086 8.692 610.176 8.692C613.292 8.692 615.648 9.49 617.244 11.086C618.866 12.6567 619.676 14.9367 619.676 17.926V25.184C619.676 28.1733 618.866 30.466 617.244 32.062C615.648 33.6327 613.292 34.418 610.176 34.418ZM610.176 29.288C611.342 29.288 612.216 28.9333 612.798 28.224C613.406 27.5147 613.71 26.4507 613.71 25.032V18.078C613.71 16.6593 613.406 15.5953 612.798 14.886C612.216 14.1767 611.342 13.822 610.176 13.822C609.036 13.822 608.162 14.1767 607.554 14.886C606.972 15.5953 606.68 16.6593 606.68 18.078V25.032C606.68 26.4507 606.972 27.5147 607.554 28.224C608.162 28.9333 609.036 29.288 610.176 29.288ZM643.045 34.418C639.954 34.418 637.598 33.6327 635.977 32.062C634.381 30.466 633.583 28.1733 633.583 25.184V17.926C633.583 14.9367 634.381 12.6567 635.977 11.086C637.598 9.49 639.954 8.692 643.045 8.692C646.161 8.692 648.517 9.49 650.113 11.086C651.734 12.6567 652.545 14.9367 652.545 17.926V25.184C652.545 28.1733 651.734 30.466 650.113 32.062C648.517 33.6327 646.161 34.418 643.045 34.418ZM643.045 29.288C644.21 29.288 645.084 28.9333 645.667 28.224C646.275 27.5147 646.579 26.4507 646.579 25.032V18.078C646.579 16.6593 646.275 15.5953 645.667 14.886C645.084 14.1767 644.21 13.822 643.045 13.822C641.905 13.822 641.031 14.1767 640.423 14.886C639.84 15.5953 639.549 16.6593 639.549 18.078V25.032C639.549 26.4507 639.84 27.5147 640.423 28.224C641.031 28.9333 641.905 29.288 643.045 29.288ZM685.717 1.662L690.619 2.802C690.062 3.84067 689.467 4.892 688.833 5.956C688.2 7.02 687.567 8.03333 686.933 8.996C686.325 9.93333 685.743 10.782 685.185 11.542L681.385 10.402C681.917 9.59133 682.449 8.67933 682.981 7.666C683.539 6.65267 684.045 5.62667 684.501 4.588C684.983 3.524 685.388 2.54867 685.717 1.662ZM678.991 9.034C680.613 8.958 682.487 8.86933 684.615 8.768C686.769 8.66667 689.036 8.55267 691.417 8.426C693.824 8.29933 696.218 8.17267 698.599 8.046L698.561 11.884C696.332 12.0867 694.077 12.2767 691.797 12.454C689.517 12.606 687.339 12.758 685.261 12.91C683.184 13.062 681.284 13.2013 679.561 13.328L678.991 9.034ZM692.481 5.956L696.281 4.246C697.041 5.05666 697.789 5.94333 698.523 6.906C699.258 7.86867 699.929 8.83133 700.537 9.794C701.145 10.7313 701.614 11.5927 701.943 12.378L697.839 14.316C697.561 13.556 697.143 12.6947 696.585 11.732C696.028 10.744 695.382 9.74333 694.647 8.73C693.938 7.71667 693.216 6.792 692.481 5.956ZM678.459 32.138C680.157 32.062 682.095 31.9607 684.273 31.834C686.477 31.682 688.783 31.53 691.189 31.378C693.621 31.2007 696.028 31.0233 698.409 30.846V34.988C696.104 35.1907 693.786 35.3807 691.455 35.558C689.15 35.7607 686.933 35.938 684.805 36.09C682.703 36.2673 680.777 36.4193 679.029 36.546L678.459 32.138ZM693.393 28.604L697.117 27.046C697.827 27.9327 698.511 28.908 699.169 29.972C699.853 31.0107 700.461 32.0493 700.993 33.088C701.551 34.1013 701.956 35.026 702.209 35.862L698.219 37.61C697.991 36.7993 697.624 35.8747 697.117 34.836C696.611 33.7973 696.028 32.7333 695.369 31.644C694.736 30.5547 694.077 29.5413 693.393 28.604ZM684.045 19.484V22.98H695.635V19.484H684.045ZM679.903 15.722H699.967V26.704H679.903V15.722ZM674.165 19.522H678.345C678.345 19.522 678.333 19.6233 678.307 19.826C678.307 20.0287 678.307 20.2693 678.307 20.548C678.307 20.8267 678.295 21.0673 678.269 21.27C678.143 24.3353 677.991 26.856 677.813 28.832C677.661 30.7827 677.459 32.3027 677.205 33.392C676.977 34.456 676.686 35.2287 676.331 35.71C675.901 36.2167 675.457 36.5713 675.001 36.774C674.571 36.9767 674.051 37.1287 673.443 37.23C672.911 37.3313 672.227 37.382 671.391 37.382C670.581 37.4073 669.719 37.3947 668.807 37.344C668.757 36.66 668.605 35.9 668.351 35.064C668.098 34.228 667.781 33.506 667.401 32.898C668.237 32.974 669.01 33.0247 669.719 33.05C670.454 33.05 671.011 33.05 671.391 33.05C671.695 33.0753 671.949 33.0627 672.151 33.012C672.354 32.936 672.544 32.7967 672.721 32.594C672.975 32.3407 673.19 31.7707 673.367 30.884C673.545 29.9973 673.697 28.6927 673.823 26.97C673.95 25.2473 674.064 22.98 674.165 20.168V19.522ZM667.401 12.036H671.391C671.29 13.48 671.176 15.0127 671.049 16.634C670.923 18.2553 670.783 19.8133 670.631 21.308C670.479 22.8027 670.327 24.1327 670.175 25.298L666.185 24.69C666.363 23.5753 666.527 22.296 666.679 20.852C666.857 19.408 667.009 17.9133 667.135 16.368C667.262 14.8227 667.351 13.3787 667.401 12.036ZM668.579 19.522H675.951V23.436H668.123L668.579 19.522ZM687.617 12.112H691.987V33.202L687.617 33.316V12.112ZM668.313 12.036H674.013V7.818H666.907V3.752H678.345V16.102H668.313V12.036ZM727.137 37.496H714.521V33.392H722.615V13.214H727.137V37.496ZM793.751 9.072L798.045 9.984C797.741 11.048 797.425 12.1373 797.095 13.252C796.766 14.3413 796.437 15.3927 796.107 16.406C795.778 17.394 795.461 18.268 795.157 19.028L791.661 18.154C791.94 17.318 792.206 16.3807 792.459 15.342C792.738 14.278 792.991 13.2013 793.219 12.112C793.447 10.9973 793.625 9.984 793.751 9.072ZM779.273 10.212L782.883 9.414C783.187 10.326 783.453 11.314 783.681 12.378C783.935 13.442 784.137 14.4807 784.289 15.494C784.467 16.5073 784.581 17.4067 784.631 18.192L780.793 19.104C780.768 18.2933 780.679 17.3813 780.527 16.368C780.375 15.3293 780.185 14.278 779.957 13.214C779.755 12.1247 779.527 11.124 779.273 10.212ZM778.893 3.6H798.273V7.856H778.893V3.6ZM777.563 20.092H798.957V24.386H777.563V20.092ZM785.999 5.082H790.483V37.382H785.999V5.082ZM765.061 13.366H776.841V16.824H765.061V13.366ZM765.213 2.916H776.765V6.336H765.213V2.916ZM765.061 18.572H776.841V21.992H765.061V18.572ZM763.237 8.008H778.171V11.618H763.237V8.008ZM767.151 23.816H776.765V35.406H767.151V31.796H772.851V27.426H767.151V23.816ZM764.947 23.816H768.823V36.888H764.947V23.816ZM827.457 11.504H831.789V23.246H827.457V11.504ZM827.457 25.412H831.751V34.95H827.457V25.412ZM817.425 23.664H842.277V37.23H837.793V26.742H821.719V37.306H817.425V23.664ZM812.865 15.95H846.685V19.636H812.865V15.95ZM819.971 28.566H839.845V31.264H819.971V28.566ZM819.971 33.164H839.845V36.318H819.971V33.164ZM838.325 8.73L840.719 11.77C839.225 11.998 837.603 12.2133 835.855 12.416C834.133 12.5933 832.334 12.7453 830.459 12.872C828.61 12.9733 826.748 13.062 824.873 13.138C822.999 13.1887 821.2 13.2267 819.477 13.252C819.427 12.796 819.3 12.2767 819.097 11.694C818.92 11.086 818.743 10.5793 818.565 10.174C820.263 10.1233 822.023 10.06 823.847 9.984C825.671 9.908 827.457 9.80666 829.205 9.68C830.953 9.55333 832.6 9.414 834.145 9.262C835.716 9.08467 837.109 8.90733 838.325 8.73ZM825.405 16.71L828.863 18.306C828.027 19.294 827.039 20.2567 825.899 21.194C824.785 22.106 823.594 22.98 822.327 23.816C821.061 24.6267 819.743 25.3613 818.375 26.02C817.033 26.6787 815.715 27.2487 814.423 27.73C814.195 27.3753 813.917 26.9827 813.587 26.552C813.258 26.096 812.903 25.6527 812.523 25.222C812.169 24.7913 811.827 24.424 811.497 24.12C813.245 23.6387 814.993 23.018 816.741 22.258C818.489 21.4727 820.123 20.6113 821.643 19.674C823.163 18.7113 824.417 17.7233 825.405 16.71ZM833.727 16.558C834.715 17.5713 835.969 18.5213 837.489 19.408C839.035 20.2693 840.707 21.042 842.505 21.726C844.304 22.41 846.103 22.942 847.901 23.322C847.445 23.778 846.939 24.3607 846.381 25.07C845.824 25.7793 845.393 26.4 845.089 26.932C843.265 26.4 841.441 25.6907 839.617 24.804C837.819 23.892 836.134 22.866 834.563 21.726C832.993 20.5607 831.625 19.3193 830.459 18.002L833.727 16.558ZM817.843 13.404L821.757 12.644C822.163 13.176 822.517 13.784 822.821 14.468C823.125 15.1267 823.328 15.722 823.429 16.254L819.325 17.204C819.249 16.672 819.072 16.0513 818.793 15.342C818.515 14.6327 818.198 13.9867 817.843 13.404ZM837.489 12.188L842.087 13.29C841.581 14.1007 841.074 14.8733 840.567 15.608C840.086 16.3173 839.655 16.938 839.275 17.47L835.665 16.33C835.995 15.722 836.324 15.038 836.653 14.278C837.008 13.4927 837.287 12.796 837.489 12.188ZM827.457 1.738H832.055V6.944H827.457V1.738ZM813.283 4.322H846.115V11.884H841.669V8.198H817.539V11.884H813.283V4.322ZM875.831 1.738H880.391V12.074C880.391 12.7833 880.543 13.2267 880.847 13.404C881.177 13.5813 881.886 13.67 882.975 13.67C883.203 13.67 883.52 13.67 883.925 13.67C884.356 13.67 884.837 13.67 885.369 13.67C885.927 13.67 886.484 13.67 887.041 13.67C887.599 13.67 888.105 13.67 888.561 13.67C889.017 13.67 889.372 13.67 889.625 13.67C890.259 13.67 890.727 13.5687 891.031 13.366C891.361 13.1633 891.589 12.7453 891.715 12.112C891.867 11.4787 891.981 10.5413 892.057 9.3C892.539 9.62933 893.197 9.95867 894.033 10.288C894.869 10.592 895.591 10.8073 896.199 10.934C896.022 12.7327 895.718 14.1387 895.287 15.152C894.857 16.14 894.223 16.824 893.387 17.204C892.551 17.584 891.399 17.774 889.929 17.774C889.701 17.774 889.334 17.774 888.827 17.774C888.346 17.774 887.789 17.774 887.155 17.774C886.547 17.774 885.927 17.774 885.293 17.774C884.66 17.774 884.09 17.774 883.583 17.774C883.102 17.774 882.76 17.774 882.557 17.774C880.784 17.774 879.403 17.6093 878.415 17.28C877.453 16.9507 876.781 16.368 876.401 15.532C876.021 14.696 875.831 13.556 875.831 12.112V1.738ZM890.537 3.372L893.919 6.678C892.526 7.23533 890.993 7.76733 889.321 8.274C887.649 8.75533 885.939 9.19867 884.191 9.604C882.469 10.0093 880.797 10.364 879.175 10.668C879.074 10.1867 878.884 9.61667 878.605 8.958C878.327 8.29933 878.073 7.742 877.845 7.286C879.365 6.95667 880.898 6.58933 882.443 6.184C884.014 5.75333 885.496 5.29733 886.889 4.816C888.308 4.30933 889.524 3.828 890.537 3.372ZM875.755 19.978H894.337V37.23H889.815V23.702H880.087V37.382H875.755V19.978ZM878.035 26.058H891.335V29.592H878.035V26.058ZM877.883 32.1H891.335V35.748H877.883V32.1ZM860.175 21.118C861.366 20.8647 862.709 20.5607 864.203 20.206C865.723 19.8513 867.307 19.4713 868.953 19.066C870.625 18.6353 872.285 18.2047 873.931 17.774L874.501 21.954C872.221 22.5873 869.916 23.208 867.585 23.816C865.28 24.424 863.177 24.9813 861.277 25.488L860.175 21.118ZM860.783 8.882H873.893V13.1H860.783V8.882ZM865.533 1.7H869.979V32.48C869.979 33.5947 869.865 34.456 869.637 35.064C869.409 35.672 868.966 36.166 868.307 36.546C867.674 36.8753 866.889 37.0907 865.951 37.192C865.014 37.2933 863.874 37.344 862.531 37.344C862.455 36.7613 862.291 36.0647 862.037 35.254C861.809 34.4433 861.556 33.7467 861.277 33.164C862.012 33.1893 862.721 33.2147 863.405 33.24C864.089 33.24 864.558 33.24 864.811 33.24C865.065 33.2147 865.242 33.1513 865.343 33.05C865.47 32.9487 865.533 32.7713 865.533 32.518V1.7ZM924.851 19.75H942.787V23.056H924.851V19.75ZM922.571 3.258H944.763V6.906H922.571V3.258ZM922.381 24.538H944.877V28.186H922.381V24.538ZM936.859 30.694L940.051 28.566C940.659 29.1233 941.293 29.7313 941.951 30.39C942.61 31.0487 943.218 31.7073 943.775 32.366C944.358 33.0247 944.814 33.6327 945.143 34.19L941.723 36.546C941.445 36.014 941.027 35.406 940.469 34.722C939.937 34.038 939.355 33.3413 938.721 32.632C938.088 31.9227 937.467 31.2767 936.859 30.694ZM927.435 11.96V15.076H939.861V11.96H927.435ZM923.673 8.692H943.775V18.382H923.673V8.692ZM931.463 26.362H935.681V33.392C935.681 34.2787 935.58 35.0007 935.377 35.558C935.2 36.1153 934.807 36.5333 934.199 36.812C933.617 37.0907 932.92 37.268 932.109 37.344C931.299 37.42 930.374 37.458 929.335 37.458C929.259 36.8753 929.095 36.242 928.841 35.558C928.613 34.8993 928.373 34.304 928.119 33.772C928.727 33.7973 929.297 33.8227 929.829 33.848C930.387 33.848 930.754 33.8353 930.931 33.81C931.134 33.7847 931.273 33.7467 931.349 33.696C931.425 33.6453 931.463 33.5313 931.463 33.354V26.362ZM926.219 28.49L929.715 30.39C928.93 31.5807 928.005 32.7207 926.941 33.81C925.877 34.8993 924.813 35.8113 923.749 36.546C923.42 36.1153 922.989 35.634 922.457 35.102C921.925 34.57 921.419 34.1267 920.937 33.772C921.951 33.1387 922.939 32.328 923.901 31.34C924.864 30.352 925.637 29.402 926.219 28.49ZM928.955 5.424H932.489V10.63H928.955V5.424ZM929.411 10.06H932.451V17.508H929.411V10.06ZM934.579 5.424H938.113V10.63H934.579V5.424ZM934.579 10.06H937.657V17.508H934.579V10.06ZM909.727 9.604H922.267V13.822H909.727V9.604ZM914.363 1.7H918.467V37.382H914.363V1.7ZM914.287 12.492L916.795 13.328C916.542 14.848 916.213 16.4187 915.807 18.04C915.402 19.636 914.946 21.2193 914.439 22.79C913.933 24.3353 913.375 25.7793 912.767 27.122C912.185 28.4647 911.551 29.6173 910.867 30.58C910.665 29.9973 910.348 29.3133 909.917 28.528C909.512 27.7427 909.145 27.0967 908.815 26.59C909.423 25.754 910.006 24.7787 910.563 23.664C911.121 22.5493 911.64 21.3587 912.121 20.092C912.603 18.8253 913.021 17.546 913.375 16.254C913.755 14.9367 914.059 13.6827 914.287 12.492ZM918.277 15.342C918.505 15.5953 918.835 16.064 919.265 16.748C919.721 17.4067 920.203 18.1413 920.709 18.952C921.241 19.7373 921.71 20.472 922.115 21.156C922.546 21.8147 922.837 22.2833 922.989 22.562L920.633 25.83C920.405 25.2473 920.101 24.5633 919.721 23.778C919.367 22.9927 918.974 22.182 918.543 21.346C918.138 20.51 917.745 19.7247 917.365 18.99C916.985 18.2553 916.656 17.6473 916.377 17.166L918.277 15.342Z" fill="white"/>
<line x1="1012.5" y1="22.5" x2="1272.5" y2="22.5" stroke="url(#paint1_linear_4658_8678)"/>
<defs>
<linearGradient id="paint0_linear_4658_8678" x1="0.5" y1="23.5" x2="260.5" y2="23.5" gradientUnits="userSpaceOnUse">
<stop stop-color="#FFFEFE" stop-opacity="0"/>
<stop offset="1" stop-color="white"/>
</linearGradient>
<linearGradient id="paint1_linear_4658_8678" x1="1012.5" y1="23.5" x2="1272.5" y2="23.5" gradientUnits="userSpaceOnUse">
<stop stop-color="white"/>
<stop offset="1" stop-color="#FFFEFE" stop-opacity="0"/>
</linearGradient>
</defs>
</svg>
