<svg width="414" height="88" viewBox="0 0 414 88" fill="none" xmlns="http://www.w3.org/2000/svg">
<path d="M73.5757 28.4V9.35H83.7757V13.25H77.8657V28.4H73.5757ZM124.501 10.25V17.12H108.601V10.25H112.471V13.64H114.541V9.35H118.351V13.64H120.421V10.25H124.501ZM115.621 28.37L113.251 29.96C112.981 29.42 112.531 28.67 112.021 27.89C111.871 30.08 111.511 32.39 110.851 34.52C113.851 33.08 115.081 31.07 115.621 28.37ZM104.011 30.47V23.72H102.631V30.47H104.011ZM121.591 29.69L120.271 28.58C121.471 31.19 123.361 33.38 125.881 34.58C125.041 35.3 123.931 36.68 123.391 37.67C121.261 36.44 119.641 34.55 118.381 32.24C117.421 34.58 115.801 36.44 113.011 37.82C112.621 36.89 111.631 35.51 110.791 34.73C110.401 35.87 109.951 36.95 109.351 37.88C108.661 37.25 106.951 36.14 106.051 35.75C106.351 35.27 106.591 34.76 106.831 34.25H102.631V36.41H99.0911V27.77C98.7611 28.22 98.4311 28.67 98.0711 29.06C97.9511 27.89 97.2311 25.04 96.6611 23.75C98.4011 21.44 99.5711 18.08 100.291 14.45H97.3511V10.52H107.761V14.45H104.341C103.951 16.28 103.441 18.14 102.871 19.94H107.161V33.41C108.241 30.32 108.361 26.72 108.361 23.99V18.14H125.071V21.74H112.171V24.02V24.98L113.371 24.23C114.121 25.25 115.111 26.6 115.771 27.59C115.981 26.18 116.041 24.62 116.101 22.88H119.851C119.791 24.32 119.731 25.7 119.611 26.96C119.641 27.11 119.701 27.26 119.761 27.41C120.631 26.42 121.711 24.98 122.311 23.93L125.461 26.27C123.931 27.5 122.641 28.85 121.591 29.69ZM151.441 14.42H148.471C148.801 15.23 149.131 16.19 149.371 17H150.691C150.991 16.16 151.261 15.2 151.441 14.42ZM157.171 17V20.33H143.521V17H145.651C145.471 16.28 145.231 15.53 145.021 14.9L147.481 14.42H143.881V11.18H148.021C147.931 10.76 147.811 10.34 147.691 9.98L151.501 9.29C151.711 9.86 151.921 10.55 152.101 11.18H156.601V14.42H152.851L155.221 14.78L154.231 17H157.171ZM138.121 14.39H135.031C135.331 15.2 135.631 16.16 135.871 16.97H137.461C137.701 16.13 137.971 15.17 138.121 14.39ZM143.161 16.97V20.3H129.781V16.97H132.121C131.941 16.25 131.701 15.5 131.491 14.87L133.891 14.39H130.321V11.15H134.761C134.641 10.73 134.491 10.28 134.371 9.92L138.211 9.17C138.451 9.77 138.691 10.49 138.901 11.15H143.041V14.39H139.501L141.991 14.78C141.661 15.56 141.361 16.31 141.061 16.97H143.161ZM134.521 23.75V25.58H138.421V23.75H134.521ZM140.881 30.86L142.591 29.9C142.741 30.92 143.101 32.42 143.401 33.2C139.141 35.78 138.241 36.41 137.731 36.98L137.581 36.26C137.341 35.18 136.861 33.74 136.411 32.93C136.921 32.66 137.221 32.24 137.221 31.16V28.31H136.411C136.051 32.21 135.121 35.54 131.371 37.7C130.921 36.77 129.871 35.33 129.031 34.67C131.791 33.2 132.391 30.89 132.631 28.31H130.981V21.02H142.201V28.31H140.881V30.86ZM147.601 23.78V25.52H152.311V23.78H147.601ZM154.261 34.25H154.621C154.711 34.25 154.831 34.22 154.891 34.16C154.981 34.1 155.041 33.95 155.101 33.59C155.161 33.23 155.191 32.42 155.221 31.43C155.881 32 157.201 32.66 158.131 32.99C158.071 34.13 157.921 35.36 157.681 35.87C157.441 36.44 157.051 36.86 156.511 37.1C156.091 37.34 155.341 37.46 154.831 37.46H153.181C152.401 37.46 151.471 37.19 150.961 36.62C150.391 36.05 150.151 35.36 150.151 33.38V28.25H149.401C148.981 32.45 147.901 35.9 143.431 38.06C143.011 37.13 141.991 35.72 141.181 35.03C144.661 33.53 145.351 31.13 145.651 28.25H144.061V21.05H156.091V28.25H153.991V33.41C153.991 33.77 153.991 33.98 154.021 34.1C154.081 34.19 154.141 34.25 154.261 34.25ZM182.401 27.74V26.27H178.081V27.74H182.401ZM178.081 21.47V22.85H182.401V21.47H178.081ZM173.311 14.75L176.101 14.03C174.331 14.15 172.561 14.24 170.821 14.3C171.481 15.32 172.171 16.49 172.501 17.33L170.491 18.02H174.541C174.271 17.03 173.761 15.74 173.311 14.75ZM176.461 18.02H179.791C180.751 16.79 181.861 14.99 182.611 13.49C180.961 13.67 179.221 13.82 177.451 13.94C178.051 15.02 178.621 16.4 178.861 17.33L176.461 18.02ZM190.231 22.85V26.27H186.811V31.1H178.081V33.17C178.081 35.42 177.601 36.53 176.011 37.16C174.451 37.79 172.351 37.88 169.651 37.88C169.411 36.65 168.661 34.76 168.031 33.62C169.801 33.71 172.141 33.71 172.771 33.71C173.401 33.68 173.611 33.56 173.611 33.05V31.1H164.941V27.74H173.611V26.27H161.731V22.85H173.611V21.47H165.541V18.02H167.911C167.491 17.09 166.891 15.98 166.351 15.11L168.751 14.39C167.341 14.42 165.961 14.45 164.611 14.45C164.521 13.46 163.951 11.96 163.471 11.06C171.211 10.88 179.881 10.31 185.641 9.32L188.101 12.74C186.991 12.92 185.821 13.1 184.591 13.25L187.531 14.12C186.571 15.47 185.551 16.85 184.591 18.02H186.811V22.85H190.231ZM209.041 15.44H221.071C221.071 15.44 221.041 16.88 220.981 17.45C220.411 29.24 219.841 33.83 218.491 35.48C217.501 36.77 216.541 37.16 215.131 37.37C213.961 37.58 212.101 37.58 210.301 37.52C210.241 36.23 209.611 34.25 208.771 32.99C210.601 33.14 212.281 33.14 213.121 33.14C213.721 33.14 214.081 33.02 214.501 32.63C215.371 31.76 215.941 27.98 216.361 19.91H208.891C208.411 26.15 206.251 33.53 197.971 38.03C197.251 36.95 195.601 35.24 194.521 34.46C201.631 30.86 203.671 24.95 204.211 19.91H195.511V15.44H204.391V9.41H209.041V15.44ZM228.121 35V30.68H232.861V17.99H228.751V14.69C231.151 14.24 232.711 13.64 234.271 12.68H238.201V30.68H242.221V35H228.121ZM255.582 35.42C250.872 35.42 247.692 31.4 247.692 23.72C247.692 16.04 250.872 12.26 255.582 12.26C260.292 12.26 263.502 16.1 263.502 23.72C263.502 31.4 260.292 35.42 255.582 35.42ZM255.582 31.28C257.172 31.28 258.462 29.84 258.462 23.72C258.462 17.63 257.172 16.37 255.582 16.37C253.992 16.37 252.732 17.63 252.732 23.72C252.732 29.84 253.992 31.28 255.582 31.28ZM276.264 35.42C271.554 35.42 268.374 31.4 268.374 23.72C268.374 16.04 271.554 12.26 276.264 12.26C280.974 12.26 284.184 16.1 284.184 23.72C284.184 31.4 280.974 35.42 276.264 35.42ZM276.264 31.28C277.854 31.28 279.144 29.84 279.144 23.72C279.144 17.63 277.854 16.37 276.264 16.37C274.674 16.37 273.414 17.63 273.414 23.72C273.414 29.84 274.674 31.28 276.264 31.28ZM317.075 18.02L313.745 20.12C313.505 19.58 313.175 18.98 312.785 18.32C303.635 19.07 302.105 19.22 301.055 19.61C300.815 18.86 300.095 17.03 299.615 16.04C300.185 15.89 300.725 15.44 301.235 14.78C301.775 14.15 303.365 11.81 304.205 9.47L308.765 10.46C307.835 12.17 306.575 13.97 305.285 15.47L310.475 15.11C309.995 14.48 309.485 13.88 308.975 13.34L312.035 11.48C313.925 13.4 316.145 16.07 317.075 18.02ZM293.015 24.44H299.615C299.615 24.44 299.585 25.52 299.525 26.03C299.195 32.42 298.775 35.24 297.905 36.29C297.155 37.19 296.375 37.49 295.325 37.64C294.455 37.79 293.045 37.82 291.545 37.76C291.485 36.56 290.975 34.88 290.315 33.8C291.485 33.92 292.625 33.92 293.195 33.92C293.645 33.92 293.945 33.86 294.245 33.56C294.665 33.11 294.965 31.64 295.175 28.31H288.545C289.055 25.49 289.535 21.14 289.775 17.66H295.235V14.81H289.295V10.88H299.255V21.59H293.285C293.195 22.55 293.105 23.51 293.015 24.44ZM310.025 32.54L311.555 32.48C311.285 31.94 311.045 31.43 310.775 30.95L313.205 29.96H310.025V32.54ZM304.115 26.51H305.915V24.5H304.115V26.51ZM311.795 24.5H310.025V26.51H311.795V24.5ZM317.525 36.35L313.655 38C313.535 37.49 313.355 36.92 313.145 36.29C308.435 36.68 303.515 37.01 299.885 37.25L299.405 33.02C301.235 32.96 303.485 32.87 305.915 32.75V29.96H300.365V21.05H305.915V18.92H310.025V21.05H315.725V29.96H314.645C315.845 32.03 317.075 34.61 317.525 36.35ZM340.43 18.8V37.85H330.23V33.95H336.14V18.8H340.43ZM155.853 58.27V61.66H144.393V58.27H148.863C148.443 57.16 147.843 55.84 147.333 54.79L150.423 53.2C151.143 54.49 151.983 56.17 152.403 57.31L150.753 58.27H155.853ZM154.593 65.8H145.563V62.56H154.593V65.8ZM154.623 66.7V69.94H145.563V66.7H154.623ZM151.263 74.35H149.013V76.81H151.263V74.35ZM154.683 70.93V80.26H149.013V81.46H145.623V70.93H154.683ZM172.623 67.78V71.89H166.233V81.82H161.943V71.89H155.733V67.78H161.943V58.78H156.693V54.73H172.113V58.78H166.233V67.78H172.623ZM156.753 60.49L160.203 59.77C160.803 61.9 161.283 64.63 161.403 66.46L157.743 67.27C157.713 65.44 157.263 62.62 156.753 60.49ZM169.983 67.21L166.653 66.4C167.253 64.51 167.853 61.63 168.093 59.5L172.203 60.31C171.453 62.83 170.673 65.47 169.983 67.21ZM181.683 58.9V61.54H177.663V55.24H188.103C187.983 54.91 187.833 54.58 187.713 54.28L192.213 53.02C192.573 53.68 192.963 54.49 193.263 55.24H203.853V61.54H199.623V58.9H181.683ZM192.753 70.9H197.193C195.783 69.97 194.253 69.01 192.753 68.17V70.9ZM192.723 78.16H196.563V77.2H192.723V78.16ZM185.013 77.2V78.16H188.643V77.2H185.013ZM188.643 74.71V73.78H185.013V74.71H188.643ZM196.563 74.71V73.78H192.723V74.71H196.563ZM188.643 70.9V68.47C187.713 69.34 186.693 70.15 185.613 70.9H188.643ZM188.643 64.63V62.83C187.443 62.89 186.273 62.92 185.133 62.95C185.403 63.49 185.643 64.09 185.793 64.63H188.643ZM192.753 64.63H195.543C195.903 63.88 196.293 62.98 196.563 62.23C195.333 62.38 194.073 62.5 192.753 62.59V64.63ZM205.293 72.01L201.873 74.29C201.573 74.05 201.213 73.78 200.853 73.51V81.7H196.563V81.1H185.013V81.79H180.933V73.57C180.303 73.84 179.673 74.11 179.043 74.35C178.443 73.33 177.183 71.77 176.283 70.93C178.593 70.3 181.023 69.28 183.063 68.11H177.393V64.63H181.683C181.473 64.06 181.233 63.43 180.963 62.95L182.853 62.59C182.703 61.78 182.343 60.73 182.073 60.1C187.353 59.98 193.353 59.59 197.193 58.99L199.413 61.87C198.873 61.96 198.303 62.02 197.703 62.11L200.883 62.83C200.433 63.49 199.983 64.09 199.593 64.63H204.273V68.11H199.233C201.603 69.49 203.793 70.93 205.293 72.01ZM219.753 65.86L220.263 69.94C219.213 70.21 218.103 70.51 217.023 70.78V77.17C217.023 79.18 216.693 80.23 215.523 80.92C214.383 81.58 212.823 81.7 210.633 81.7C210.483 80.59 209.943 78.79 209.403 77.68C210.453 77.71 211.713 77.71 212.103 77.71C212.523 77.71 212.673 77.56 212.673 77.14V71.86L209.703 72.58L208.683 68.32C209.823 68.11 211.203 67.81 212.673 67.51V62.95H209.193V58.78H212.673V53.35H217.023V58.78H219.753V62.95H217.023V66.52C217.923 66.31 218.853 66.07 219.753 65.86ZM232.893 66.25H226.533C221.973 66.25 220.593 64.81 220.593 60.82V53.29H224.913V56.32H236.313V60.01H224.913V60.94C224.913 62.11 225.153 62.56 226.503 62.56H232.683C234.003 62.56 235.923 62.47 236.853 62.26C236.973 63.37 237.123 64.96 237.273 65.95C236.433 66.19 234.483 66.25 232.893 66.25ZM231.603 71.29H225.093V72.52H231.603V71.29ZM225.093 77.17H231.603V75.85H225.093V77.17ZM220.983 81.85V67.75H235.923V81.7H231.603V80.59H225.093V81.85H220.983ZM261.033 58.66V57.7H260.043V58.66H261.033ZM265.083 61.69H264.063V63.16H265.083V61.69ZM260.043 61.69V63.16H261.033V61.69H260.043ZM256.053 61.69V63.16H257.013V61.69H256.053ZM257.013 58.66V57.7H252.063V54.31H269.373V57.7H264.063V58.66H268.803V66.19H252.573V58.66H257.013ZM267.693 70.15H253.773V66.91H267.693V70.15ZM252.753 69.49L250.263 72.37C250.023 71.62 249.633 70.69 249.213 69.7V81.85H245.283V70.84C244.593 73.03 243.813 75.04 242.943 76.51C242.553 75.19 241.623 73.18 240.993 71.98C242.583 69.82 243.993 65.92 244.773 62.86H241.803V58.84H245.283V53.35H249.213V58.84H251.943V62.86H249.213V64.06C249.993 65.08 252.273 68.62 252.753 69.49ZM254.313 74.59L258.093 75.67C257.073 77.8 255.423 80.05 253.923 81.43C253.203 80.77 251.643 79.66 250.743 79.12C252.183 77.98 253.563 76.24 254.313 74.59ZM269.373 74.23H262.563V81.82H258.693V74.23H252.063V70.87H269.373V74.23ZM263.043 76.27L266.223 74.65C267.573 76.06 269.043 77.92 269.793 79.21L266.463 81.13C265.833 79.81 264.333 77.74 263.043 76.27Z" fill="white"/>
<line y1="-0.5" x2="50.3657" y2="-0.5" transform="matrix(1 0 0 -1 0 47)" stroke="url(#paint0_linear_4658_8795)"/>
<line y1="-0.5" x2="50.3657" y2="-0.5" transform="matrix(1 0 -0.0217767 -0.999763 363.634 51.541)" stroke="url(#paint1_linear_4658_8795)"/>
<defs>
<linearGradient id="paint0_linear_4658_8795" x1="0" y1="0.5" x2="50.3657" y2="0.5" gradientUnits="userSpaceOnUse">
<stop stop-color="#FFFEFE" stop-opacity="0"/>
<stop offset="1" stop-color="white"/>
</linearGradient>
<linearGradient id="paint1_linear_4658_8795" x1="0" y1="0.5" x2="50.3657" y2="0.5" gradientUnits="userSpaceOnUse">
<stop stop-color="white"/>
<stop offset="1" stop-color="#FFFEFE" stop-opacity="0"/>
</linearGradient>
</defs>
</svg>
