<svg width="1440" height="714" viewBox="0 0 1440 714" fill="none" xmlns="http://www.w3.org/2000/svg">
<g clip-path="url(#clip0_4658_8338)">
<path d="M336.71 441.596L336.93 443.07C336.16 443.334 335.368 443.598 334.598 443.862V449.582C334.598 450.484 334.378 450.924 333.828 451.188C333.3 451.452 332.442 451.496 331.012 451.496C330.946 451.056 330.726 450.418 330.528 449.978C331.518 450 332.42 450 332.684 449.978C332.97 449.978 333.08 449.89 333.08 449.582V444.346C332.112 444.676 331.21 444.962 330.374 445.204L330.154 443.598C330.968 443.378 331.98 443.07 333.08 442.74V437.526H330.352V436.008H333.08V431.608H334.598V436.008H336.732V437.526H334.598V442.256L336.71 441.596ZM340.846 447.536L345.378 447.514C344.3 447.514 344.08 447.096 344.08 445.974V445.556H342.496C342.21 446.414 341.616 447.03 340.846 447.536ZM344.96 449.582V448.416H341.946V449.582H344.96ZM338.8 445.556V447.316C339.988 446.964 340.868 446.436 341.264 445.556H338.8ZM349.734 444.456V450.22C349.734 450.902 349.602 451.21 349.096 451.43C348.634 451.628 347.864 451.65 346.72 451.65C346.654 451.276 346.478 450.836 346.324 450.462C347.138 450.506 347.776 450.506 347.996 450.484C348.238 450.484 348.282 450.418 348.282 450.198V445.556H345.18V445.996C345.18 446.436 345.224 446.546 345.488 446.546H346.874C347.116 446.546 347.512 446.546 347.798 446.458C347.82 446.766 347.864 447.162 347.864 447.426C347.666 447.514 347.248 447.514 346.896 447.514H346.236V450.462H341.946V451.144H340.692V447.624C340.296 447.866 339.878 448.042 339.416 448.196C339.306 448.02 339.042 447.734 338.8 447.514V451.606H337.37V444.456H349.734ZM339.548 441.574V442.608H343.2V441.574H339.548ZM343.2 438.868V437.944H339.548V438.868H343.2ZM343.2 440.694V439.748H339.548V440.694H343.2ZM344.696 442.608H350.152V443.554H339.548V443.994H338.074V439.462C337.7 439.858 337.326 440.21 336.93 440.518C336.754 440.254 336.314 439.704 336.028 439.44C337.326 438.472 338.558 437.02 339.306 435.502H337.656V432.224H339.064V434.336H342.738V431.608H344.3V434.336H347.886V432.224H349.382V436.272H347.886V435.502H340.406L340.714 435.59C340.494 436.03 340.252 436.492 340.01 436.932H343.288C343.134 436.58 342.98 436.206 342.804 435.876L344.102 435.524C344.344 435.942 344.608 436.514 344.806 436.932H349.47V437.944H344.696V438.868H348.942V439.748H344.696V440.694H348.942V441.574H344.696V442.608ZM373.978 442.916V444.522H364.958V449.406C364.958 450.572 364.606 451.056 363.792 451.32C362.978 451.584 361.57 451.628 359.26 451.606C359.128 451.144 358.82 450.418 358.556 449.978C360.404 450.044 362.12 450.022 362.626 450C363.11 450 363.308 449.846 363.308 449.384V444.522H354.266V442.916H363.308V439.352H355.74V437.79H363.308V434.402C360.888 434.666 358.402 434.82 356.136 434.93C356.07 434.49 355.872 433.852 355.718 433.478C360.91 433.236 367.29 432.664 370.59 431.63L371.822 432.928C369.952 433.5 367.554 433.918 364.958 434.226V437.79H372.746V439.352H364.958V442.916H373.978ZM383.24 439.132H393.844C392.568 438.648 390.962 438.12 389.18 437.57C387.2 438.208 385.11 438.714 383.24 439.132ZM392.942 434.952H383.746C385.462 435.37 387.398 435.876 389.268 436.426C390.676 435.964 391.952 435.48 392.942 434.952ZM397.562 440.496H381.216V443.774C381.216 446.26 380.842 449.626 378.862 451.892C378.62 451.584 377.982 451.034 377.63 450.836C379.412 448.79 379.632 445.952 379.632 443.752V439.132H382.404C382.184 438.846 381.832 438.516 381.612 438.318C383.35 437.988 385.352 437.548 387.244 437.02C385.572 436.536 383.856 436.096 382.294 435.744L383.262 434.952H379.742V433.61H387.86C387.486 433.06 387.068 432.466 386.672 431.982L387.838 431.388C388.41 432.048 389.092 432.928 389.51 433.61H396.88V434.952H393.536L394.416 435.48C393.448 436.008 392.304 436.514 391.05 436.954C392.656 437.438 394.152 437.922 395.252 438.318L394.372 439.132H397.562V440.496ZM390.412 449.604H397.914V450.968H381.612V449.604H388.806V447.382H383.68V446.062H388.806V444.104H384.208C383.592 445.16 382.866 446.106 382.118 446.81C381.964 446.524 381.546 445.754 381.26 445.468C382.47 444.324 383.526 442.63 384.164 440.87L385.572 441.266C385.374 441.772 385.176 442.256 384.956 442.762H388.806V440.892H390.412V442.762H396.33V444.104H390.412V446.062H395.846V447.382H390.412V449.604ZM409.882 438.692C411.444 439.968 413.446 441.948 414.81 443.576L413.314 444.83C411.884 443.092 410.014 441.222 408.452 439.946L409.882 438.692ZM437.954 438.45L437.074 439.242C436.7 438.846 436.128 438.428 435.49 437.966C434.764 438.538 434.016 439 433.29 439.396C433.136 439.176 432.674 438.758 432.388 438.538C433.114 438.208 433.818 437.79 434.478 437.328C433.95 436.998 433.4 436.712 432.894 436.47L433.708 435.744C434.258 435.986 434.83 436.316 435.402 436.624C435.798 436.272 436.194 435.876 436.502 435.458L437.646 435.832C437.272 436.316 436.854 436.778 436.37 437.24C436.986 437.636 437.558 438.054 437.954 438.45ZM437.888 434.512L437.03 435.326C436.678 434.996 436.106 434.578 435.512 434.204C434.83 434.71 434.148 435.172 433.466 435.524C433.29 435.326 432.828 434.93 432.542 434.732C433.224 434.424 433.884 434.028 434.5 433.61C433.994 433.302 433.444 433.038 432.96 432.818L433.752 432.092C434.28 432.312 434.83 432.598 435.402 432.906C435.798 432.554 436.15 432.18 436.436 431.828L437.58 432.136C437.228 432.598 436.832 433.038 436.37 433.478C436.964 433.852 437.492 434.204 437.888 434.512ZM427.658 440.672V443.4H426.096V439.418H427.856L427.416 432.884C428.692 432.664 430.584 432.136 431.662 431.806L432.41 432.818C431.442 433.17 430.144 433.456 429 433.676L429.088 434.754H432.278V435.876H429.154L429.242 437.064H432.366V438.186H429.308L429.396 439.418H441.452C441.496 439.022 441.54 438.626 441.584 438.186H438.394V437.064H441.672L441.782 435.876H438.526V434.754H441.848L441.914 433.566H438.416V432.444H443.498C443.388 434.622 443.19 437.46 443.014 439.418H444.73V443.4H443.124V440.672H427.658ZM445.17 446.018V447.404H436.37V449.934C436.37 450.792 436.194 451.166 435.512 451.408C434.808 451.65 433.708 451.628 431.97 451.628C431.882 451.21 431.618 450.66 431.398 450.242C432.762 450.286 433.994 450.286 434.324 450.286C434.698 450.264 434.786 450.198 434.786 449.89V447.404H425.612V446.018H434.786V445.072C435.952 444.654 437.228 444.038 438.284 443.4H429.682V442.168H440.022L440.352 442.08L441.342 442.894C439.978 443.95 438.108 444.918 436.37 445.622V446.018H445.17ZM455.026 445.314V444.038H456.676V445.38C456.676 447.47 456.17 450.11 451.924 451.826C451.682 451.408 451.154 450.836 450.802 450.528C454.63 449.098 455.026 446.964 455.026 445.314ZM453.266 437.328V439.704H458.304V437.328H453.266ZM453.266 433.698V436.03H458.304V433.698H453.266ZM464.992 436.03V433.698H459.91V436.03H464.992ZM464.992 439.704V437.328H459.91V439.704H464.992ZM466.664 441.09H462.352C464.002 442.806 466.598 444.214 469.216 444.874C468.842 445.204 468.358 445.842 468.138 446.26C466.576 445.776 465.036 445.006 463.65 444.06V451.65H461.978V444.038H463.606C462.396 443.18 461.274 442.19 460.438 441.09H458.018C456.214 443.4 453.178 445.336 450.296 446.348C450.032 445.93 449.57 445.336 449.196 445.006C451.726 444.28 454.366 442.806 456.038 441.09H451.66V432.312H466.664V441.09ZM481.096 445.864L480.612 444.698C482.306 443.994 483.274 442.96 483.384 441.464C483.252 441.486 483.142 441.486 483.01 441.486C482.108 441.486 481.36 440.958 481.36 439.924C481.36 438.89 482.13 438.34 483.032 438.34C484.242 438.34 484.902 439.33 484.902 440.87C484.902 443.246 483.406 445.05 481.096 445.864ZM501.182 433.522V438.934H499.62V432.312H513.788V438.934H512.182V433.522H501.182ZM511.038 434.798V435.876H502.15V434.798H511.038ZM511.038 438.208H502.172V437.13H511.038V438.208ZM504.438 442.872V441.376H500.39V442.872H504.438ZM500.39 446.832V448.636C501.666 448.482 503.052 448.328 504.438 448.152V446.832H500.39ZM504.438 445.622V444.104H500.39V445.622H504.438ZM516.252 441.376H505.978V451.694H504.438V449.516C501.732 449.868 499.048 450.176 496.98 450.44L496.826 448.966C497.442 448.9 498.168 448.834 498.916 448.768V441.376H497.024V440.012H516.252V441.376ZM513.656 444.06H509.124C509.652 445.27 510.422 446.326 511.346 447.25C512.314 446.348 513.106 445.27 513.656 444.06ZM514.646 442.696L515.658 443.114C514.998 445.182 513.876 446.854 512.49 448.218C513.7 449.12 515.152 449.802 516.758 450.198C516.45 450.506 516.01 451.078 515.79 451.496C514.118 451.012 512.622 450.198 511.368 449.186C510.004 450.242 508.464 451.034 506.902 451.562C506.726 451.166 506.33 450.594 506.022 450.286C507.496 449.868 508.97 449.12 510.268 448.174C509.19 447.03 508.31 445.688 507.694 444.17L508.068 444.06H506.814V442.74H514.36L514.646 442.696ZM525.558 443.378V445.358H535.458V443.378H525.558ZM535.458 434.006H525.558V435.876H535.458V434.006ZM535.458 440.232H525.558V442.146H535.458V440.232ZM535.458 438.978V437.13H525.558V438.978H535.458ZM540.276 445.358V446.854H520.652V445.358H523.952V432.642H537.152V445.358H540.276ZM526.658 447.03L528.176 447.998C526.46 449.362 523.776 450.792 521.554 451.672C521.29 451.32 520.762 450.77 520.388 450.462C522.632 449.648 525.338 448.24 526.658 447.03ZM532.73 448.086L533.742 446.986C536.162 448.042 538.78 449.406 540.386 450.396L539.11 451.606C537.614 450.572 535.128 449.186 532.73 448.086ZM558.228 434.468L557.392 435.986C555.61 434.974 552.068 433.654 549.34 432.972L550.132 431.63C552.816 432.268 556.38 433.456 558.228 434.468ZM550.704 440.276L551.782 440.76C550.66 445.248 548.13 448.504 545.314 450.308C545.072 449.956 544.412 449.34 544.038 449.076C546.458 447.646 548.614 445.116 549.714 441.904H544.478V440.342H550.418L550.704 440.276ZM562.078 437.68L563.552 438.736C561.836 440.342 559.592 442.234 557.766 443.51C559.394 445.93 561.572 447.8 564.3 448.834C563.948 449.164 563.42 449.802 563.178 450.264C559.482 448.658 556.842 445.688 555.104 441.794V449.582C555.104 450.572 554.862 451.078 554.158 451.342C553.454 451.606 552.288 451.628 550.462 451.628C550.396 451.188 550.132 450.462 549.868 450C551.21 450.066 552.508 450.066 552.86 450.044C553.256 450.022 553.388 449.912 553.388 449.56V437.68H547.338V436.096H555.104V437.724C555.588 439.352 556.204 440.892 556.996 442.3C558.734 440.98 560.802 439.11 562.078 437.68ZM580.646 435.128V433.94H575.036V432.796H580.646V431.608H582.252V432.796H587.62V433.94H582.252V435.128H586.74V436.228H575.96V435.128H580.646ZM576.576 438.23V440.034H579.062V438.23H576.576ZM585.992 440.034V438.23H583.902V440.034H585.992ZM580.338 440.034H582.626V438.23H580.338V440.034ZM575.19 441.156V437.13H587.444V441.156H575.19ZM575.234 444.61L574.002 444.962C573.958 444.61 573.892 444.148 573.782 443.686C569.514 444.346 568.832 444.478 568.458 444.698C568.392 444.368 568.15 443.664 567.974 443.268C568.414 443.18 568.876 442.63 569.492 441.794C569.822 441.42 570.482 440.474 571.252 439.264C569.074 439.528 568.612 439.594 568.326 439.748C568.238 439.462 567.996 438.758 567.842 438.384C568.194 438.296 568.546 437.812 568.964 437.152C569.404 436.514 570.834 433.962 571.626 431.564L573.034 432.158C572.154 434.226 571.054 436.382 569.91 438.032L572.066 437.856C572.638 436.91 573.144 435.876 573.606 434.886L574.904 435.656C573.606 438.208 571.978 440.782 570.306 442.828L573.474 442.432C573.276 441.684 573.078 440.914 572.836 440.254L574.002 439.968C574.552 441.486 575.08 443.444 575.234 444.61ZM568.854 445.644L570.174 445.864C569.91 447.888 569.514 450.11 569.03 451.518C568.744 451.386 568.106 451.188 567.754 451.078C568.304 449.648 568.656 447.536 568.854 445.644ZM570.922 445.754L572.11 445.556C572.374 447.162 572.638 449.23 572.704 450.616L571.45 450.836C571.428 449.45 571.186 447.36 570.922 445.754ZM572.902 445.358L573.958 445.028C574.442 446.326 574.948 448.02 575.168 449.098L574.024 449.472C573.826 448.35 573.32 446.656 572.902 445.358ZM577.368 446.568V447.58H585.2V446.568H577.368ZM577.368 444.83V445.776H585.2V444.83H577.368ZM577.368 443.114V444.038H585.2V443.114H577.368ZM586.74 448.57H583.418C585.046 449.164 586.762 449.934 587.884 450.462L587.202 451.628C586.036 451.056 584.21 450.198 582.582 449.538L583.132 448.57H579.37L580.536 449.56C578.864 450.33 576.774 451.188 575.278 451.782C575.124 451.43 574.838 450.946 574.596 450.616C576.026 450.088 578.116 449.208 579.304 448.57H575.894V442.124H586.74V448.57ZM594.066 434.842V436.998H592.57V433.5H601.04C600.776 432.95 600.402 432.356 600.072 431.872L601.458 431.432C601.964 432.026 602.448 432.84 602.756 433.5H610.896V436.998H609.334V434.842H594.066ZM596.376 446.656V447.69H607.112V446.656H596.376ZM596.376 444.698V445.71H607.112V444.698H596.376ZM596.376 442.784V443.774H607.112V442.784H596.376ZM608.74 448.658H604.032C606.562 449.296 609.202 450.088 610.874 450.682L609.796 451.738C608.234 451.144 605.66 450.286 603.108 449.604L603.922 448.658H599.082L600.38 449.516C598.576 450.484 595.606 451.32 593.186 451.716C593.01 451.408 592.592 450.88 592.306 450.572C594.638 450.22 597.586 449.428 598.994 448.658H594.792V441.816H608.74V448.658ZM602.228 439.924H606.342L606.43 438.846H602.338C602.294 439.242 602.25 439.572 602.228 439.924ZM596.838 438.846L596.706 439.924H600.82C600.864 439.572 600.908 439.22 600.952 438.846H596.838ZM601.106 436.844H597.08L596.948 437.856H601.04L601.106 436.844ZM606.496 437.856L606.584 436.844H602.492L602.404 437.856H606.496ZM608.058 437.724H611.622V438.978H607.948L607.772 440.892H595.078L595.342 438.978H591.844V437.724H595.496L595.738 435.876H608.212L608.058 437.724ZM631.796 435.282H627.176C627.77 436.338 628.628 437.306 629.662 438.12C630.564 437.328 631.29 436.404 631.796 435.282ZM622.996 444.83L621.874 444.258C622.292 443.356 622.732 441.992 623.062 440.716H620.95V449.78C620.95 450.616 620.774 451.056 620.224 451.342C619.652 451.562 618.794 451.584 617.474 451.584C617.408 451.188 617.188 450.506 616.968 450.088C617.914 450.11 618.772 450.11 619.058 450.11C619.322 450.088 619.41 450.022 619.41 449.78V442.718C618.552 444.83 617.408 446.898 616.198 448.13C616.022 447.668 615.626 447.03 615.34 446.612C616.704 445.314 618.068 442.96 618.882 440.716H615.56V439.286H621.456C620.312 438.318 618.288 437.086 616.572 436.338L617.584 435.282C618.266 435.568 619.014 435.92 619.718 436.294C620.532 435.678 621.368 434.886 622.028 434.116H615.802V432.686H623.194L623.48 432.62L624.536 433.28C623.678 434.6 622.27 436.008 620.95 437.02C621.676 437.46 622.336 437.922 622.798 438.34L621.962 439.286H623.59L623.832 439.198L624.822 439.55C624.712 439.924 624.602 440.32 624.492 440.716C625.966 440.298 627.308 439.748 628.43 439.022C627.55 438.23 626.78 437.328 626.164 436.338C625.636 436.91 625.108 437.46 624.58 437.9C624.272 437.636 623.634 437.174 623.238 436.954C624.954 435.678 626.538 433.676 627.418 431.586L628.98 432.004C628.694 432.642 628.342 433.28 627.968 433.896H635.272V435.282H633.578C632.962 436.778 632.06 438.01 630.938 439.022C632.324 439.902 633.952 440.562 635.712 440.936C635.382 441.288 634.898 441.904 634.678 442.344C632.83 441.838 631.136 441.046 629.684 440.012C628.298 440.98 626.67 441.706 624.888 442.256C624.778 442.036 624.536 441.706 624.294 441.398C623.92 442.674 623.48 443.928 622.996 444.83ZM629.64 443.862H634.788C634.788 443.862 634.766 444.302 634.744 444.566C634.348 448.658 633.93 450.33 633.292 450.968C632.918 451.364 632.5 451.474 631.928 451.54C631.4 451.562 630.476 451.584 629.486 451.518C629.442 451.078 629.288 450.418 629.046 450C629.992 450.088 630.872 450.11 631.224 450.11C631.576 450.11 631.752 450.088 631.972 449.89C632.39 449.472 632.72 448.24 633.05 445.226H629.354C628.584 448.02 627.044 450.308 623.524 451.672C623.326 451.298 622.886 450.704 622.556 450.418C625.592 449.318 626.978 447.47 627.66 445.226H624.228V443.862H628.012C628.144 443.158 628.232 442.432 628.298 441.684H629.948C629.882 442.432 629.772 443.158 629.64 443.862ZM658.922 432.686V434.182H647.328V432.686H658.922ZM658.79 442.63L657.47 443.268C656.92 442.124 655.754 440.408 654.5 438.934C655.424 437.592 656.458 435.92 656.964 434.886L658.416 435.282C657.778 436.404 656.876 437.79 656.15 438.89C657.184 440.122 658.262 441.64 658.79 442.63ZM653.202 434.908L654.632 435.282C654.016 436.382 653.18 437.79 652.432 438.868C653.4 440.122 654.412 441.64 654.918 442.608L653.576 443.224C653.092 442.08 652.014 440.386 650.826 438.912C651.706 437.592 652.696 435.942 653.202 434.908ZM651.112 442.696L649.726 443.268C649.264 442.124 648.23 440.43 647.108 438.934C647.988 437.592 648.912 435.92 649.418 434.886L650.848 435.26C650.254 436.382 649.418 437.79 648.692 438.89C649.66 440.166 650.628 441.706 651.112 442.696ZM647.086 444.39L645.744 444.808C645.7 444.5 645.612 444.082 645.502 443.642C640.838 444.346 640.178 444.5 639.738 444.72C639.65 444.39 639.408 443.598 639.21 443.202C639.694 443.092 640.2 442.542 640.838 441.75C641.168 441.354 641.85 440.43 642.642 439.264C640.376 439.528 639.914 439.616 639.606 439.77C639.518 439.44 639.276 438.736 639.1 438.318C639.474 438.23 639.848 437.79 640.31 437.108C640.772 436.47 642.312 433.94 643.214 431.564L644.666 432.158C643.698 434.248 642.51 436.36 641.322 438.01L643.588 437.834C644.138 436.91 644.71 435.898 645.172 434.908L646.58 435.744C645.172 438.252 643.456 440.804 641.696 442.828L645.15 442.366C644.908 441.64 644.666 440.892 644.402 440.21L645.656 439.88C646.25 441.31 646.866 443.246 647.086 444.39ZM640.156 445.666L641.52 445.908C641.3 447.8 640.882 449.912 640.398 451.298C640.112 451.144 639.43 450.924 639.1 450.792C639.606 449.428 639.936 447.47 640.156 445.666ZM642.4 445.842L643.654 445.622C643.94 447.074 644.204 448.966 644.27 450.242L642.95 450.462C642.906 449.23 642.664 447.316 642.4 445.842ZM644.534 445.424L645.7 445.05C646.14 446.216 646.646 447.734 646.822 448.724L645.612 449.142C645.414 448.13 644.952 446.59 644.534 445.424ZM653.796 449.67H659.12V451.166H646.602V449.67H652.19V445.49H647.812V444.016H658.24V445.49H653.796V449.67ZM674.212 436.514H680.218C679.074 435.656 677.93 434.644 677.028 433.654C676.214 434.688 675.268 435.656 674.212 436.514ZM673.838 437.812V436.8C673.244 437.262 672.584 437.724 671.924 438.12C671.682 437.834 671.176 437.328 670.868 437.108C673.354 435.678 675.576 433.5 676.72 431.41L678.216 431.872C678.106 432.114 677.952 432.356 677.798 432.576C679.14 434.072 681.296 435.678 683.1 436.558C682.836 436.91 682.506 437.548 682.374 437.966C681.736 437.592 681.032 437.152 680.372 436.624V437.812H673.838ZM678.766 440.672V443.466H680.856V440.672H678.766ZM677.578 444.61V439.55H682.088V444.61H677.578ZM673.354 440.672V443.466H675.334V440.672H673.354ZM672.21 444.61V439.55H676.544V444.61H672.21ZM663.74 450.22L662.772 449.846C663.212 448.592 663.586 446.48 663.762 445.028L664.686 445.336C664.51 446.788 664.158 448.944 663.74 450.22ZM665.104 445.446L665.94 445.358C666.094 446.59 666.226 448.218 666.248 449.318L665.368 449.406C665.368 448.328 665.258 446.7 665.104 445.446ZM666.402 445.204L667.194 445.05C667.546 446.172 667.92 447.646 668.074 448.592L667.238 448.79C667.106 447.822 666.732 446.348 666.402 445.204ZM669.68 447.448L668.932 447.756C668.668 446.986 668.162 445.776 667.678 444.852L668.426 444.588C668.888 445.512 669.46 446.7 669.68 447.448ZM665.258 440.518V442.586H667.216V440.518H665.258ZM667.216 433.962H665.258V435.986H667.216V433.962ZM667.216 439.22V437.284H665.258V439.22H667.216ZM671.308 442.586V443.224C671.132 448.592 670.978 450.418 670.516 451.034C670.23 451.408 669.922 451.562 669.416 451.606C669.02 451.65 668.338 451.65 667.7 451.606C667.656 451.21 667.524 450.682 667.326 450.33C667.986 450.396 668.58 450.396 668.844 450.396C669.086 450.396 669.24 450.374 669.372 450.154C669.658 449.78 669.812 448.24 669.944 443.972H663.938V432.576H671.286V433.962H668.536V435.986H670.846V437.284H668.536V439.22H670.868V440.518H668.536V442.586H671.308ZM673.794 445.292L675.18 445.556C675.07 446.15 674.894 446.744 674.696 447.316C675.598 447.888 676.61 448.658 677.138 449.208L676.258 450.286C675.84 449.802 675.004 449.12 674.19 448.548C673.618 449.802 672.87 450.902 671.968 451.716C671.748 451.474 671.198 450.99 670.868 450.77C672.32 449.494 673.31 447.558 673.794 445.292ZM679.228 445.182L680.702 445.424C680.548 446.26 680.35 447.052 680.064 447.8C681.12 448.548 682.308 449.494 682.924 450.154L681.934 451.276C681.428 450.66 680.46 449.824 679.492 449.076C678.964 450.088 678.304 450.99 677.578 451.672C677.314 451.43 676.72 450.968 676.346 450.726C677.864 449.472 678.81 447.514 679.228 445.182ZM693.836 441.178V436.58H689.216V441.178H693.836ZM689.216 447.91H693.836V442.63H689.216V447.91ZM691.064 431.542L692.824 431.872C692.45 432.95 692.054 434.16 691.68 435.106H695.332V449.384H689.216V451.122H687.72V435.106H690.184C690.514 434.05 690.91 432.576 691.064 431.542ZM706.09 435.04V435.876C705.738 445.908 705.452 449.296 704.572 450.374C704.088 450.99 703.582 451.188 702.834 451.254C702.064 451.342 700.81 451.298 699.578 451.232C699.534 450.748 699.336 450.088 699.028 449.626C700.458 449.758 701.778 449.758 702.284 449.758C702.724 449.758 702.966 449.714 703.186 449.428C703.912 448.658 704.242 445.314 704.528 436.558H698.94C698.324 438.032 697.642 439.374 696.872 440.408C696.586 440.144 695.882 439.704 695.53 439.484C697.004 437.548 698.192 434.512 698.896 431.498L700.458 431.872C700.194 432.95 699.886 434.006 699.512 435.04H706.09ZM702.614 444.94L701.228 445.798C700.568 444.478 699.094 442.3 697.884 440.716L699.16 439.968C700.392 441.53 701.91 443.642 702.614 444.94ZM728.134 439.55V437.438H720.852V439.55H728.134ZM728.134 442.872V440.716H720.852V442.872H728.134ZM728.134 446.238V444.082H720.852V446.238H728.134ZM719.312 436.162H722.92C723.118 435.502 723.294 434.71 723.426 434.028H718.586V432.62H730.51V434.028H725.274C725.054 434.754 724.79 435.502 724.548 436.162H729.718V447.514H719.312V436.162ZM718.234 434.556H715.55V448.944C715.55 449.934 715.308 450.396 714.648 450.66C714.01 450.946 712.91 450.968 711.216 450.968C711.15 450.528 710.908 449.824 710.688 449.362C711.942 449.406 713.13 449.384 713.482 449.384C713.812 449.362 713.944 449.274 713.944 448.922V434.556H710.446V433.016H718.234V434.556ZM721.688 447.888L723.118 448.79C721.71 449.89 719.466 451.012 717.552 451.65C717.332 451.32 716.826 450.814 716.518 450.484C718.388 449.912 720.61 448.834 721.688 447.888ZM725.296 448.856L726.506 447.976C727.98 448.724 729.894 449.89 730.906 450.726L729.63 451.716C728.684 450.902 726.792 449.67 725.296 448.856ZM753.786 439.396L752.312 440.21C751.476 438.56 749.518 436.03 747.692 434.226L749.034 433.522C750.882 435.26 752.928 437.724 753.786 439.396ZM745.008 431.608V439.88H743.314V431.608H745.008ZM739.002 433.566L740.542 433.984C739.486 436.404 737.77 438.824 736.142 440.386C735.856 440.122 735.218 439.594 734.844 439.352C736.472 437.944 738.078 435.766 739.002 433.566ZM753.962 444.302H745.448C746.922 447.602 749.826 449.516 754.292 450.22C753.962 450.55 753.544 451.232 753.324 451.672C748.77 450.792 745.888 448.746 744.238 445.138C743.094 448.218 740.718 450.484 735.262 451.672C735.13 451.276 734.712 450.594 734.404 450.264C739.728 449.208 741.796 447.118 742.742 444.302H734.536V442.806H743.116C743.27 442.102 743.358 441.332 743.446 440.54H745.184C745.096 441.31 744.986 442.08 744.854 442.806H753.962V444.302ZM768.768 441.794V443.004L772.926 442.938C772.354 442.674 771.782 442.432 771.254 442.256L771.782 441.794H768.768ZM761.992 440.694H767.184V439.33H761.992V440.694ZM761.992 436.954V438.274H767.184V436.954H761.992ZM774.114 436.954H768.768V438.274H774.114V436.954ZM774.114 440.694V439.33H768.768V440.694H774.114ZM777.942 445.446V446.788H772.706V449.934C772.706 450.77 772.53 451.21 771.826 451.43C771.144 451.672 770.044 451.672 768.284 451.672C768.218 451.254 767.976 450.66 767.756 450.264C769.098 450.308 770.33 450.308 770.682 450.286C771.012 450.264 771.122 450.176 771.122 449.89V446.788H762.784C764.082 447.536 765.622 448.68 766.392 449.494L765.226 450.572C764.456 449.714 762.916 448.526 761.596 447.712L762.674 446.788H758.12V445.446H771.122V444.082C766.612 444.214 762.212 444.302 759.044 444.346L758.978 443.07C761.156 443.07 764.038 443.048 767.184 443.004V441.794H760.452V435.832H767.184V434.6H758.758V433.28H767.184V431.63H768.768V433.28H777.062V434.6H768.768V435.832H775.72V441.794H773.168C774.664 442.388 776.226 443.246 777.106 443.928L776.138 444.852C775.808 444.588 775.368 444.28 774.884 443.972L772.706 444.038V445.446H777.942ZM784.278 435.062V438.054H782.694V433.544H790.944C790.702 432.994 790.416 432.422 790.13 431.938L791.802 431.454C792.198 432.07 792.638 432.906 792.88 433.544H800.998V438.054H799.348V435.062H784.278ZM798.116 439.44L799.458 440.496C798.468 441.31 797.258 442.19 796.07 442.982C797.082 445.886 799.172 448.372 801.922 449.428C801.57 449.736 801.086 450.352 800.866 450.77C798.072 449.516 795.982 446.964 794.794 443.796C794.464 444.016 794.09 444.236 793.76 444.412C794.508 447.25 793.958 449.956 792.77 450.88C792.066 451.474 791.494 451.65 790.526 451.65C790.02 451.65 789.338 451.628 788.634 451.606C788.634 451.144 788.458 450.506 788.216 450.066C789.008 450.132 789.734 450.176 790.196 450.176C790.768 450.176 791.186 450.11 791.604 449.714C792.264 449.23 792.66 447.712 792.462 445.93C789.954 447.844 786.192 449.67 783.046 450.638C782.87 450.22 782.496 449.626 782.188 449.252C785.708 448.438 789.976 446.392 792.154 444.412C792 443.906 791.824 443.378 791.56 442.872C789.404 444.346 786.016 445.886 783.398 446.7C783.222 446.348 782.87 445.754 782.562 445.424C785.312 444.764 788.986 443.202 790.9 441.772C790.614 441.31 790.262 440.892 789.844 440.474C787.886 441.574 785.62 442.432 783.508 443.07C783.354 442.74 782.892 442.08 782.606 441.772C785.378 441.112 788.37 440.012 790.46 438.582H785.444V437.152H798.094V438.582H792.638C792.154 439 791.648 439.374 791.076 439.748C792.088 440.76 792.858 441.926 793.32 443.114C794.992 442.036 796.884 440.584 798.116 439.44ZM813.736 445.864L813.252 444.698C814.946 443.994 815.914 442.96 816.024 441.464C815.892 441.486 815.782 441.486 815.65 441.486C814.748 441.486 814 440.958 814 439.924C814 438.89 814.77 438.34 815.672 438.34C816.882 438.34 817.542 439.33 817.542 440.87C817.542 443.246 816.046 445.05 813.736 445.864ZM842.424 438.78V436.646H838.31V438.78H842.424ZM842.424 442.344V440.166H838.31V442.344H842.424ZM842.424 446.018V443.73H838.31V446.018H842.424ZM836.726 448.702V438.252C836.198 438.934 835.648 439.55 835.098 440.1C834.9 439.77 834.394 439.022 834.086 438.692C836 437.02 837.65 434.402 838.64 431.63L840.136 432.048C839.74 433.126 839.256 434.204 838.706 435.216H843.084C842.754 434.38 842.226 433.346 841.764 432.51L843.26 432.07C843.876 433.038 844.536 434.292 844.866 435.216H848.716V436.646H843.986V438.78H847.99V440.166H843.986V442.344H847.946V443.73H843.986V446.018H849.09V447.426H838.31V448.702H836.726ZM833.14 435.26L831.666 435.766C831.402 434.798 830.896 433.302 830.544 432.158L831.974 431.718C832.37 432.862 832.876 434.314 833.14 435.26ZM833.888 441.794L834.636 442.102C834.218 444.038 833.58 446.172 832.832 447.778C833.25 448.02 833.778 448.438 834.592 448.922C836.154 449.868 838.134 450.022 840.752 450.022C843.568 450.022 847.132 449.802 849.596 449.56C849.376 450 849.134 450.77 849.09 451.254C847.462 451.364 843.282 451.496 840.686 451.496C837.782 451.496 835.868 451.254 834.24 450.286C833.36 449.758 832.546 449.01 832.04 449.01C831.556 449.01 830.808 450.396 830.17 451.782L829.048 450.308C829.818 449.208 830.588 448.306 831.248 447.866C831.908 446.612 832.48 444.874 832.832 443.29H829.95C830.566 441.992 831.248 440.122 831.842 438.384H829.4V436.91H833.91C833.36 438.494 832.678 440.342 832.084 441.86H833.602L833.888 441.794ZM872.366 432.928V434.468H861.63V432.928H872.366ZM857.956 431.586L859.518 432.202C858.088 434.138 855.844 436.272 853.886 437.658C853.644 437.306 853.204 436.668 852.918 436.36C854.744 435.128 856.856 433.148 857.956 431.586ZM858.858 436.272L860.376 436.844C859.694 437.966 858.858 439.088 857.956 440.166V451.738H856.328V441.97C855.492 442.828 854.656 443.62 853.842 444.258C853.6 443.928 853.028 443.224 852.698 442.894C854.964 441.288 857.34 438.758 858.858 436.272ZM873.004 438.934V440.496H869.682V449.582C869.682 450.594 869.44 451.1 868.714 451.364C867.966 451.606 866.734 451.606 864.578 451.606C864.512 451.166 864.292 450.484 864.05 450.022C865.612 450.066 867.064 450.066 867.482 450.044C867.9 450.022 868.032 449.934 868.032 449.56V440.496H860.684V438.934H873.004ZM880.99 432.18H887.678C889.724 435.238 893.508 438.186 896.984 439.638C896.654 439.968 896.104 440.65 895.884 441.068C892.562 439.506 889.086 436.668 886.798 433.72C884.554 436.514 880.814 439.572 877.734 441.222C877.536 440.804 877.096 440.254 876.722 439.902C879.45 438.626 882.728 436.14 884.906 433.72H880.99V432.18ZM887.59 445.93V449.582H896.17V451.078H877.58V449.582H885.918V445.93H879.758V444.478H885.918V441.112H880.704V439.638H892.98V441.112H887.59V444.478H893.838V445.93H887.59ZM915.86 444.038H905.234V448.9H915.86V444.038ZM903.584 451.672V442.476H917.576V451.628H915.86V450.484H905.234V451.672H903.584ZM912.736 434.93L914.034 434.094C916.168 435.964 918.698 438.648 919.842 440.474L918.456 441.464C918.126 440.892 917.664 440.254 917.114 439.572C904.552 440.276 903.276 440.32 902.418 440.628C902.352 440.276 902.066 439.462 901.89 439.022C902.374 438.934 902.946 438.45 903.672 437.724C904.464 437.02 907.016 434.248 908.732 431.52L910.338 432.246C908.6 434.622 906.642 436.888 904.706 438.714L915.926 438.164C914.914 437.02 913.792 435.876 912.736 434.93ZM929.698 434.49H927.806C927.124 435.59 926.354 436.558 925.562 437.328C925.342 437.042 924.77 436.514 924.418 436.25C925.76 435.04 926.992 433.28 927.74 431.454L929.17 431.85C928.994 432.29 928.796 432.73 928.576 433.17H934.208V434.49H930.05C930.776 435.106 931.612 435.92 932.03 436.47L930.952 437.372C930.534 436.756 929.61 435.81 928.862 435.128L929.698 434.49ZM933.416 442.564H928.466C928.356 443.246 928.246 443.972 928.136 444.61H933.416V442.564ZM935.022 439.154V441.178H940.786V439.154H935.022ZM935.022 444.61H943.118C943.118 444.61 943.096 445.05 943.074 445.292C942.766 448.328 942.48 449.67 941.908 450.198C941.556 450.594 941.138 450.726 940.544 450.748C939.972 450.792 938.894 450.792 937.772 450.748C937.75 450.264 937.574 449.648 937.332 449.23C938.41 449.34 939.422 449.34 939.818 449.34C940.192 449.34 940.412 449.318 940.61 449.164C940.896 448.856 941.138 447.998 941.358 446.018H935.022V451.694H933.416V446.634C931.48 448.812 928.642 450.704 926.024 451.716C925.782 451.32 925.342 450.726 924.968 450.418C927.52 449.582 930.314 447.888 932.118 446.018H926.31C926.596 444.698 926.904 442.74 927.08 441.178H933.416V439.154H926.31V437.768H942.392V442.564H935.022V444.61ZM937.64 433.192H944.284V434.49H939.554C940.324 435.106 941.248 435.898 941.732 436.47L940.654 437.394C940.148 436.822 939.18 435.898 938.388 435.26L939.334 434.49H936.87C936.364 435.26 935.792 435.942 935.198 436.514C934.934 436.25 934.318 435.744 933.966 435.546C935.176 434.534 936.166 433.038 936.694 431.454L938.212 431.806C938.036 432.29 937.838 432.73 937.64 433.192ZM948.156 440.54H968.132V442.322H948.156V440.54ZM976.14 431.696L977.636 432.114C977.152 433.566 976.558 435.018 975.876 436.382V451.694H974.314V439.198C973.632 440.276 972.928 441.266 972.18 442.102C972.048 441.75 971.608 440.848 971.322 440.452C973.28 438.318 975.04 435.018 976.14 431.696ZM986.7 445.864V442.454H982.982V445.864H986.7ZM988.856 438.802H985.468V441.222H987.998V447.074H981.728V441.222H984.126V438.802H980.826V437.548H984.126V435.062H985.468V437.548H988.856V438.802ZM979.924 448.9H989.604V434.358H979.924V448.9ZM978.406 432.928H991.166V451.474H989.604V450.352H979.924V451.65H978.406V432.928ZM1007.6 439.572L1006.06 440.408C1005.47 438.89 1004.06 436.646 1002.67 435.04L1004.12 434.314C1005.58 435.92 1006.98 438.076 1007.6 439.572ZM1004.48 443.84L1004.85 445.402C1001.81 446.788 998.492 448.24 996.072 449.296L995.478 447.602C996.336 447.272 997.37 446.854 998.514 446.37L998.14 432.774L999.812 432.708L1000.14 445.688C1001.55 445.094 1003.02 444.456 1004.48 443.84ZM1015.89 450.352L1014.53 451.606C1013.52 450.088 1011.47 447.778 1009.6 445.798C1007.89 448.394 1005.49 450.308 1002.06 451.738C1001.84 451.408 1001.15 450.66 1000.76 450.33C1008.3 447.558 1010.64 442.234 1011.6 432.73L1013.39 432.906C1012.86 437.614 1012.02 441.354 1010.48 444.302C1012.44 446.282 1014.77 448.724 1015.89 450.352ZM1032.68 445.622V431.388H1039.63V432.906H1034.31V445.622H1032.68ZM1062.25 432.29V436.756H1051.67V432.29H1053.16V435.37H1056.13V431.608H1057.61V435.37H1060.71V432.29H1062.25ZM1048.78 447.448V440.958H1046.14V447.448H1048.78ZM1050.06 448.922H1046.14V450.682H1044.76V442.762C1044.41 443.4 1044.03 443.994 1043.61 444.522C1043.5 444.148 1043.13 443.224 1042.87 442.784C1044.41 440.716 1045.42 437.614 1046.01 434.27H1043.33V432.752H1050.63V434.27H1047.55C1047.2 436.096 1046.74 437.878 1046.19 439.506H1050.06V448.922ZM1057.1 440.386H1058.55C1058.49 441.662 1058.4 442.85 1058.24 443.95C1059.08 446.722 1060.69 449.23 1062.93 450.352C1062.6 450.594 1062.16 451.144 1061.94 451.54C1060.14 450.484 1058.73 448.57 1057.78 446.282C1057.1 448.614 1055.87 450.462 1053.49 451.65C1053.32 451.298 1052.88 450.77 1052.52 450.506C1056.37 448.658 1056.88 445.094 1057.1 440.386ZM1055.98 445.534L1054.88 446.238C1054.48 445.292 1053.62 443.642 1052.9 442.41L1053.95 441.816C1054.66 443.048 1055.56 444.632 1055.98 445.534ZM1061.63 441.794L1062.91 442.608C1062.07 443.818 1061.17 445.182 1060.4 446.106L1059.41 445.446C1060.16 444.478 1061.15 442.894 1061.63 441.794ZM1062.97 438.164V439.572H1052.77V442.564C1052.77 445.27 1052.46 449.098 1050.79 451.716C1050.54 451.474 1049.91 451.034 1049.55 450.88C1051.09 448.416 1051.29 445.006 1051.29 442.542V438.164H1062.97ZM1073.6 437.658V451.892H1066.65V450.374H1071.97V437.658H1073.6ZM1092.81 451.452L1091.53 450.616C1092.87 449.604 1093.69 447.8 1094.08 446.084L1095.47 446.524C1095.01 448.35 1094.28 450.308 1092.81 451.452ZM1096.92 446.722L1098.26 446.546C1098.68 447.822 1098.9 449.494 1098.9 450.55L1097.45 450.748C1097.51 449.67 1097.29 448.02 1096.92 446.722ZM1100.26 446.48L1101.54 446.172C1102.11 447.272 1102.57 448.746 1102.77 449.714L1101.41 450.066C1101.25 449.12 1100.79 447.624 1100.26 446.48ZM1106.86 440.804H1099.08C1098.37 441.706 1097.65 442.564 1096.83 443.356H1106.4C1106.56 442.608 1106.71 441.706 1106.86 440.804ZM1105.08 436.888H1101.58C1101.12 437.746 1100.62 438.582 1100.07 439.396H1104.55C1104.75 438.67 1104.93 437.768 1105.08 436.888ZM1110.12 443.356L1110.05 444.06C1109.66 448.592 1109.24 450.374 1108.56 451.078C1108.18 451.474 1107.77 451.606 1107.15 451.65C1106.6 451.716 1105.54 451.694 1104.44 451.628C1104.42 451.21 1104.27 450.572 1104.03 450.176C1105.08 450.286 1106.07 450.286 1106.49 450.286C1106.84 450.286 1107.06 450.264 1107.26 450.066C1107.72 449.626 1108.07 448.24 1108.43 444.808H1095.25C1094.08 445.776 1092.81 446.656 1091.4 447.404C1091.2 447.008 1090.8 446.37 1090.52 446.04C1094.59 443.928 1097.65 440.628 1099.78 436.888H1091.97V435.436H1096.33C1096.02 434.556 1095.31 433.236 1094.63 432.246L1096.02 431.696C1096.74 432.686 1097.54 434.028 1097.82 434.908L1096.61 435.436H1100.55C1101.17 434.182 1101.69 432.884 1102.11 431.586L1103.72 432.048C1103.3 433.192 1102.84 434.336 1102.31 435.436H1106.82C1106.6 436.734 1106.34 438.252 1106.07 439.396H1108.6C1108.38 440.672 1108.14 442.19 1107.9 443.356H1110.12ZM1106.29 448.526L1105.1 449.054C1104.82 448.218 1104.16 446.986 1103.48 446.062L1104.62 445.644C1105.32 446.524 1106.01 447.756 1106.29 448.526ZM346.566 481.944L348.106 482.494C346.236 485.838 342.914 488.962 339.042 490.81C338.866 490.458 338.426 489.886 338.118 489.578C340.318 488.566 342.364 487.092 343.992 485.442C340.054 485.706 339.416 485.838 338.998 485.97C338.954 485.596 338.69 484.782 338.558 484.43C338.976 484.342 339.592 484.188 339.966 483.792C340.384 483.352 341.616 481.372 342.364 480.096H338.184V478.578H343.926C343.684 477.786 343.266 476.774 342.826 475.96L344.344 475.498C344.894 476.422 345.444 477.676 345.62 478.49L345.4 478.578H350.328V480.096H344.124C343.376 481.328 342.32 483 341.528 484.21L345.268 483.99C345.774 483.33 346.236 482.626 346.566 481.944ZM337.766 486.102L336.776 487.246C336.468 486.564 335.786 485.288 335.192 484.21V495.672H333.63V485.178C332.926 487.554 331.98 489.82 330.99 491.228C330.836 490.744 330.44 490.04 330.132 489.644C331.496 487.818 332.86 484.342 333.52 481.35H330.704V479.81H333.63V475.586H335.192V479.81H337.678V481.35H335.192V482.208C335.786 483.022 337.392 485.486 337.766 486.102ZM348.172 485.86L349.844 486.454C348.942 488.038 347.776 489.468 346.39 490.766C347.842 491.932 349.58 493.384 350.46 494.374L349.206 495.452C348.37 494.484 346.698 492.966 345.246 491.756C343.2 493.406 340.736 494.748 337.986 495.694C337.788 495.32 337.326 494.682 337.018 494.352C342.122 492.702 346.302 489.556 348.172 485.86ZM360.668 477.434L361.746 476.356C363.792 477.764 366.41 479.832 367.664 481.218L366.498 482.428C365.288 481.064 362.736 478.908 360.668 477.434ZM369.798 483.352L371.316 482.758C372.592 485.376 373.802 488.742 374.264 491.008L372.658 491.646C372.218 489.38 371.03 485.926 369.798 483.352ZM356.136 483.33L357.72 483.638C357.368 486.212 356.686 489.93 355.784 492.262L354.156 491.58C355.102 489.336 355.828 485.904 356.136 483.33ZM359.634 481.68H361.284V492.526C361.284 493.538 361.548 493.736 362.802 493.736H367.004C368.368 493.736 368.566 492.966 368.742 489.182C369.138 489.49 369.82 489.776 370.282 489.908C370.04 494.066 369.534 495.276 367.092 495.276H362.67C360.294 495.276 359.634 494.682 359.634 492.504V481.68ZM384.956 485.178V480.58H380.336V485.178H384.956ZM380.336 491.91H384.956V486.63H380.336V491.91ZM382.184 475.542L383.944 475.872C383.57 476.95 383.174 478.16 382.8 479.106H386.452V493.384H380.336V495.122H378.84V479.106H381.304C381.634 478.05 382.03 476.576 382.184 475.542ZM397.21 479.04V479.876C396.858 489.908 396.572 493.296 395.692 494.374C395.208 494.99 394.702 495.188 393.954 495.254C393.184 495.342 391.93 495.298 390.698 495.232C390.654 494.748 390.456 494.088 390.148 493.626C391.578 493.758 392.898 493.758 393.404 493.758C393.844 493.758 394.086 493.714 394.306 493.428C395.032 492.658 395.362 489.314 395.648 480.558H390.06C389.444 482.032 388.762 483.374 387.992 484.408C387.706 484.144 387.002 483.704 386.65 483.484C388.124 481.548 389.312 478.512 390.016 475.498L391.578 475.872C391.314 476.95 391.006 478.006 390.632 479.04H397.21ZM393.734 488.94L392.348 489.798C391.688 488.478 390.214 486.3 389.004 484.716L390.28 483.968C391.512 485.53 393.03 487.642 393.734 488.94ZM412.654 488.082V493.538H421.058V495.034H402.446V493.538H405.218V485.42H406.824V493.538H410.96V481.57H412.654V486.608H419.012V488.082H412.654ZM411.576 475.388L413.05 476.092C412.896 476.334 412.72 476.554 412.544 476.796C415.294 480.008 418.506 481.878 421.916 483.374C421.542 483.726 421.08 484.276 420.86 484.76C417.516 483.132 414.48 481.24 411.664 477.94C409.288 480.778 406.01 483.198 402.556 484.738C402.314 484.32 401.852 483.77 401.434 483.374C405.482 481.746 409.442 478.732 411.576 475.388ZM432.256 491.58L433.488 492.152C431.904 493.34 429.022 494.462 426.734 494.99C426.514 494.594 426.074 494.066 425.744 493.758C428.01 493.384 430.804 492.526 432.256 491.58ZM437.58 492.35L438.548 491.47C440.616 492.152 443.41 493.208 444.928 493.912L443.916 494.946C442.464 494.242 439.67 493.12 437.58 492.35ZM438.878 480.866H432.014C432.52 481.548 432.982 482.45 433.18 483.044L432.278 483.286H438.35L437.58 483.044C438.02 482.428 438.57 481.504 438.878 480.866ZM436.15 489.094H444.972V490.48H436.15V495.694H434.544V490.48H425.854V489.094H434.544V487.444H427.922V486.19H434.544V484.606H426.8V483.286H431.552C431.332 482.67 430.892 481.812 430.43 481.174L431.596 480.866H425.92V479.502H429.462C429.132 478.622 428.384 477.302 427.702 476.312L429.088 475.828C429.858 476.818 430.65 478.182 430.958 479.062L429.858 479.502H432.542V475.608H434.082V479.502H436.7V475.608H438.262V479.502H440.924L440.044 479.216C440.66 478.314 441.364 476.862 441.738 475.872L443.41 476.334C442.794 477.456 442.068 478.666 441.496 479.502H444.884V480.866H439.164L440.594 481.262C440.088 481.988 439.56 482.736 439.076 483.286H444.114V484.606H436.15V486.19H443.036V487.444H436.15V489.094ZM454.344 478.336L453.09 479.084C452.782 478.292 452.122 477.06 451.572 476.158L452.738 475.498C453.332 476.4 454.014 477.566 454.344 478.336ZM457.16 479.326V480.668H449.262V479.326H457.16ZM454.938 489.358H451.462V492.988H454.938V489.358ZM456.28 487.994V494.352H451.462V495.386H450.12V487.994H456.28ZM450.12 486.366V485.068H456.302V486.366H450.12ZM450.12 483.506V482.208H456.302V483.506H450.12ZM469.26 486.256V487.796H464.09V495.672H462.506V487.796H457.138V486.256H462.506V478.358H457.996V476.818H468.82V478.358H464.09V486.256H469.26ZM458.458 479.898L459.8 479.568C460.372 481.284 460.878 483.506 461.01 484.958L459.602 485.31C459.492 483.836 459.03 481.614 458.458 479.898ZM466.664 485.288L465.41 484.914C465.916 483.462 466.554 481.064 466.84 479.392L468.402 479.788C467.874 481.636 467.214 483.88 466.664 485.288ZM476.718 492.592L482.438 491.184C482.438 491.646 482.526 492.328 482.592 492.702C476.3 494.396 475.486 494.66 474.958 495.012C474.826 494.616 474.452 493.934 474.188 493.626C474.518 493.384 475.046 492.9 475.046 491.976V475.608H476.718V482.362H482.306V483.968H476.718V492.592ZM486.75 493.626H490.16C491.194 493.626 491.326 492.812 491.48 489.666C491.876 489.996 492.536 490.282 492.998 490.37C492.778 493.956 492.338 495.188 490.27 495.188H486.574C484.44 495.188 483.868 494.55 483.868 492.174V475.586H485.518V482.362H491.436V483.968H485.518V492.196C485.518 493.406 485.716 493.626 486.75 493.626ZM504.856 489.864L504.372 488.698C506.066 487.994 507.034 486.96 507.144 485.464C507.012 485.486 506.902 485.486 506.77 485.486C505.868 485.486 505.12 484.958 505.12 483.924C505.12 482.89 505.89 482.34 506.792 482.34C508.002 482.34 508.662 483.33 508.662 484.87C508.662 487.246 507.166 489.05 504.856 489.864ZM533.258 481.394L532.466 482.648C531.982 482.076 531.102 481.24 530.266 480.536C529.518 482.164 528.572 483.572 527.428 484.65C527.186 484.364 526.57 483.77 526.196 483.55C528.264 481.746 529.562 478.93 530.178 475.608L531.762 475.85C531.52 477.038 531.19 478.182 530.816 479.216C531.718 479.92 532.73 480.8 533.258 481.394ZM524.832 475.608L526.328 476.158C525.03 478.028 522.984 480.052 521.136 481.372C520.916 481.042 520.498 480.47 520.212 480.184C521.928 479.04 523.864 477.148 524.832 475.608ZM525.36 480.052L526.812 480.558C526.262 481.526 525.624 482.494 524.898 483.44V495.738H523.38V485.222C522.566 486.102 521.73 486.916 520.894 487.576C520.74 487.246 520.234 486.476 519.97 486.124C521.972 484.65 524.062 482.362 525.36 480.052ZM534.49 489.248V493.824C535.084 493.934 535.744 493.978 536.426 493.978H540.496C540.276 494.33 540.034 495.034 539.99 495.452H536.338C533.06 495.452 530.772 494.66 529.32 491.404C528.77 493.098 527.934 494.506 526.702 495.628C526.482 495.364 525.822 494.814 525.47 494.572C527.714 492.724 528.484 489.754 528.704 485.75L530.266 485.86C530.2 487.026 530.068 488.104 529.892 489.094C530.552 491.426 531.586 492.702 532.972 493.362V484.166H533.258C532.928 483.88 532.444 483.506 532.136 483.33C534.358 481.702 535.59 479.04 536.074 475.608L537.636 475.806C537.438 477.104 537.152 478.314 536.756 479.392C538.186 480.602 539.814 482.186 540.606 483.22L539.484 484.342C538.78 483.374 537.438 481.966 536.184 480.778C535.524 482.142 534.666 483.264 533.632 484.166H534.49V487.862H539.374V489.248H534.49ZM558.36 483.572H554.004C553.828 486.322 553.3 489.534 551.628 491.844C551.342 491.558 550.66 491.03 550.264 490.854C552.2 488.148 552.42 484.364 552.42 481.592V476.906C555.786 476.708 559.834 476.29 561.99 475.608L563.332 476.818C560.912 477.566 557.304 477.984 554.048 478.204V481.592V482.054H563.948V483.572H560.01V492.68H558.36V483.572ZM548.35 479.392L546.788 479.876C546.546 478.952 546.04 477.478 545.688 476.356L547.162 475.938C547.558 477.038 548.064 478.49 548.35 479.392ZM549.362 485.728L550.11 486.058C549.582 488.082 548.812 490.26 547.932 491.888C548.328 492.152 548.79 492.504 549.494 492.922C551.012 493.868 552.97 494.022 555.566 494.022C558.36 494.022 561.902 493.824 564.322 493.56C564.146 494 563.86 494.77 563.838 495.254C562.21 495.364 558.096 495.496 555.522 495.496C552.662 495.496 550.77 495.254 549.142 494.286C548.262 493.758 547.47 493.01 546.964 493.01C546.48 493.01 545.71 494.374 545.072 495.782L543.95 494.286C544.852 493.01 545.732 491.998 546.502 491.668C547.206 490.436 547.822 488.764 548.24 487.224H545.182C545.776 485.926 546.502 484.078 547.118 482.384H544.214V480.91H549.142C548.592 482.472 547.866 484.298 547.25 485.794H549.098L549.362 485.728ZM587.752 484.21V485.816H578.732V495.694H577.038V485.816H568.172V484.21H577.038V478.974C574.618 479.326 572.132 479.59 569.8 479.788C569.756 479.37 569.514 478.71 569.338 478.336C574.662 477.852 580.866 476.994 584.342 475.894L585.596 477.236C583.682 477.808 581.306 478.292 578.732 478.71V484.21H587.752ZM594.198 479.062V482.054H592.614V477.544H600.864C600.622 476.994 600.336 476.422 600.05 475.938L601.722 475.454C602.118 476.07 602.558 476.906 602.8 477.544H610.918V482.054H609.268V479.062H594.198ZM608.036 483.44L609.378 484.496C608.388 485.31 607.178 486.19 605.99 486.982C607.002 489.886 609.092 492.372 611.842 493.428C611.49 493.736 611.006 494.352 610.786 494.77C607.992 493.516 605.902 490.964 604.714 487.796C604.384 488.016 604.01 488.236 603.68 488.412C604.428 491.25 603.878 493.956 602.69 494.88C601.986 495.474 601.414 495.65 600.446 495.65C599.94 495.65 599.258 495.628 598.554 495.606C598.554 495.144 598.378 494.506 598.136 494.066C598.928 494.132 599.654 494.176 600.116 494.176C600.688 494.176 601.106 494.11 601.524 493.714C602.184 493.23 602.58 491.712 602.382 489.93C599.874 491.844 596.112 493.67 592.966 494.638C592.79 494.22 592.416 493.626 592.108 493.252C595.628 492.438 599.896 490.392 602.074 488.412C601.92 487.906 601.744 487.378 601.48 486.872C599.324 488.346 595.936 489.886 593.318 490.7C593.142 490.348 592.79 489.754 592.482 489.424C595.232 488.764 598.906 487.202 600.82 485.772C600.534 485.31 600.182 484.892 599.764 484.474C597.806 485.574 595.54 486.432 593.428 487.07C593.274 486.74 592.812 486.08 592.526 485.772C595.298 485.112 598.29 484.012 600.38 482.582H595.364V481.152H608.014V482.582H602.558C602.074 483 601.568 483.374 600.996 483.748C602.008 484.76 602.778 485.926 603.24 487.114C604.912 486.036 606.804 484.584 608.036 483.44ZM625.592 493.01H635.272V494.638H615.67V493.01H623.876V475.938H625.592V482.67H633.776V484.298H625.592V493.01ZM659.054 480.404H649.968V483.374H657.096V491.074C657.096 492.02 656.876 492.504 656.172 492.79C655.424 493.054 654.192 493.076 652.322 493.076C652.256 492.57 651.97 491.91 651.75 491.448C653.246 491.492 654.566 491.492 654.94 491.492C655.336 491.448 655.446 491.36 655.446 491.052V484.98H649.968V495.65H648.318V484.98H643.17V493.142H641.542V483.374H648.318V480.404H639.408V478.798H648.78C648.428 477.94 647.834 476.796 647.328 475.916L648.89 475.432C649.55 476.444 650.298 477.83 650.606 478.688L650.32 478.798H659.054V480.404ZM674.014 488.082V493.538H682.418V495.034H663.806V493.538H666.578V485.42H668.184V493.538H672.32V481.57H674.014V486.608H680.372V488.082H674.014ZM672.936 475.388L674.41 476.092C674.256 476.334 674.08 476.554 673.904 476.796C676.654 480.008 679.866 481.878 683.276 483.374C682.902 483.726 682.44 484.276 682.22 484.76C678.876 483.132 675.84 481.24 673.024 477.94C670.648 480.778 667.37 483.198 663.916 484.738C663.674 484.32 663.212 483.77 662.794 483.374C666.842 481.746 670.802 478.732 672.936 475.388ZM693.616 491.58L694.848 492.152C693.264 493.34 690.382 494.462 688.094 494.99C687.874 494.594 687.434 494.066 687.104 493.758C689.37 493.384 692.164 492.526 693.616 491.58ZM698.94 492.35L699.908 491.47C701.976 492.152 704.77 493.208 706.288 493.912L705.276 494.946C703.824 494.242 701.03 493.12 698.94 492.35ZM700.238 480.866H693.374C693.88 481.548 694.342 482.45 694.54 483.044L693.638 483.286H699.71L698.94 483.044C699.38 482.428 699.93 481.504 700.238 480.866ZM697.51 489.094H706.332V490.48H697.51V495.694H695.904V490.48H687.214V489.094H695.904V487.444H689.282V486.19H695.904V484.606H688.16V483.286H692.912C692.692 482.67 692.252 481.812 691.79 481.174L692.956 480.866H687.28V479.502H690.822C690.492 478.622 689.744 477.302 689.062 476.312L690.448 475.828C691.218 476.818 692.01 478.182 692.318 479.062L691.218 479.502H693.902V475.608H695.442V479.502H698.06V475.608H699.622V479.502H702.284L701.404 479.216C702.02 478.314 702.724 476.862 703.098 475.872L704.77 476.334C704.154 477.456 703.428 478.666 702.856 479.502H706.244V480.866H700.524L701.954 481.262C701.448 481.988 700.92 482.736 700.436 483.286H705.474V484.606H697.51V486.19H704.396V487.444H697.51V489.094ZM715.814 478.314L714.582 479.194C714.252 478.424 713.46 477.192 712.822 476.29L713.988 475.542C714.67 476.422 715.44 477.566 715.814 478.314ZM718.124 488.544L717.2 489.864C716.782 489.16 715.836 487.884 715.044 486.828V495.672H713.548V486.96C712.646 488.038 711.722 488.984 710.82 489.754C710.688 489.314 710.292 488.478 710.028 488.192C712.14 486.564 714.428 483.748 715.726 480.976H710.622V479.48H716.518L716.782 479.414L717.618 480.074C717.002 481.768 716.078 483.44 715.044 484.958V485.002C715.242 485.2 715.506 485.486 715.77 485.816C716.386 485.134 717.09 484.276 717.486 483.66L718.476 484.562C717.838 485.266 717.112 486.036 716.496 486.608C717.2 487.4 717.86 488.236 718.124 488.544ZM720.456 485.156H723.426V482.208H720.456V485.156ZM720.456 477.984V480.866H723.426V477.984H720.456ZM728.024 480.866V477.984H724.966V480.866H728.024ZM728.024 485.156V482.208H724.966V485.156H728.024ZM724.966 493.67H730.51V495.144H718.058V493.67H723.426V490.48H718.96V489.028H723.426V486.564H718.96V476.554H729.564V486.564H724.966V489.028H729.718V490.48H724.966V493.67ZM751.982 477.588H748.792V479.062H751.982V477.588ZM752.246 482.956H749.298C747.802 482.956 747.428 482.406 747.428 480.932V476.488H753.412V480.184H748.792V480.976C748.792 481.57 748.88 481.768 749.364 481.768H752.202C752.62 481.768 753.258 481.746 753.588 481.68C753.61 482.032 753.676 482.538 753.72 482.846C753.434 482.934 752.818 482.956 752.246 482.956ZM744.942 477.566H741.796V479.04H744.942V477.566ZM741.796 481.834L746.108 481.196C745.998 481.57 745.866 482.098 745.8 482.384C741.444 483.154 740.85 483.286 740.476 483.506C740.388 483.132 740.08 482.516 739.904 482.208C740.146 482.054 740.476 481.79 740.476 480.954V476.466H746.35V480.162H741.796V481.834ZM745.03 486.19V488.214H748.594V486.19H745.03ZM754.05 488.214V489.512H739.706V488.214H743.512V486.19H740.542V484.914H743.512V483.33H745.03V484.914H748.594V483.33H750.112V484.914H753.17V486.19H750.112V488.214H754.05ZM753.588 492.24L752.158 493.01C751.212 492.174 749.518 491.14 747.912 490.326L748.968 489.556C750.662 490.348 752.51 491.404 753.588 492.24ZM744.414 489.6L745.866 490.084C744.678 491.206 742.874 492.328 741.356 493.076C741.07 492.79 740.498 492.262 740.124 492.064C741.708 491.426 743.38 490.524 744.414 489.6ZM738.518 479.348L737 479.854C736.67 478.886 736.076 477.324 735.614 476.158L737.066 475.762C737.55 476.906 738.188 478.402 738.518 479.348ZM738.54 485.794L739.486 486.212C739.134 488.148 738.518 490.15 737.682 491.712C738.122 491.954 738.65 492.394 739.53 492.922C741.092 493.868 743.072 494.022 745.668 494.022C748.506 494.022 752.07 493.802 754.512 493.56C754.314 494 754.072 494.77 754.05 495.254C752.4 495.364 748.22 495.496 745.624 495.496C742.742 495.496 740.806 495.254 739.178 494.286C738.298 493.758 737.506 493.01 737 493.01C736.516 493.01 735.768 494.396 735.13 495.782L734.008 494.308C734.602 493.45 735.218 492.68 735.768 492.196L735.724 492.174C736.67 490.92 737.352 489.028 737.77 487.29H734.91C735.526 485.992 736.252 484.122 736.824 482.384H734.36V480.91H738.936C738.386 482.494 737.682 484.342 737.066 485.86H738.276L738.54 485.794ZM777.172 478.512L776.204 479.678C775.368 478.864 773.608 477.632 772.222 476.818L773.146 475.806C774.51 476.576 776.27 477.72 777.172 478.512ZM765.314 486.586L762.63 487.422V493.802C762.63 494.682 762.41 495.144 761.86 495.408C761.288 495.628 760.408 495.672 758.956 495.672C758.89 495.276 758.692 494.616 758.472 494.198C759.462 494.22 760.364 494.22 760.65 494.22C760.958 494.22 761.046 494.11 761.046 493.802V487.906L758.164 488.808L757.746 487.202C758.67 486.96 759.814 486.652 761.046 486.3V481.504H758.01V480.008H761.046V475.608H762.63V480.008H765.072V481.504H762.63V485.838L765.094 485.112L765.314 486.586ZM774.62 483.528L776.182 483.726C775.676 486.63 774.862 489.028 773.652 491.03C774.906 492.526 776.446 493.714 778.316 494.418C777.986 494.704 777.524 495.298 777.304 495.694C775.5 494.924 774.004 493.758 772.794 492.306C771.738 493.67 770.462 494.792 768.922 495.716C768.68 495.43 768.064 494.858 767.69 494.594C769.428 493.692 770.792 492.504 771.848 491.03C770.836 489.512 770.066 487.752 769.45 485.794C768.79 489.666 767.426 493.318 764.61 495.738C764.346 495.408 763.818 494.946 763.4 494.704C766.964 491.778 768.042 486.74 768.372 481.812H765.38V480.316H768.46C768.526 478.688 768.526 477.082 768.526 475.608H770.088C770.088 477.104 770.066 478.688 770 480.316H777.832V481.812H769.912L769.868 482.208C770.44 485.046 771.364 487.598 772.684 489.666C773.608 487.95 774.246 485.904 774.62 483.528ZM797.434 487.158V483.176H786.368V487.158H797.434ZM786.368 492.768H797.434V488.654H786.368V492.768ZM801.328 478.38H792.55C792.286 479.502 792 480.646 791.714 481.636H799.128V495.716H797.434V494.286H786.368V495.716H784.74V481.636H790.042C790.262 480.668 790.504 479.458 790.68 478.38H782.254V476.774H801.328V478.38ZM819.698 478.842L818.092 479.326C817.916 478.402 817.476 476.928 817.058 475.828L818.598 475.432C818.994 476.532 819.5 477.94 819.698 478.842ZM824.538 479.568V481.152H812.68V479.568H824.538ZM817.212 491.734L815.606 492.196C815.43 489.908 814.792 485.882 814.11 482.824L815.584 482.494C816.31 485.552 816.97 489.49 817.212 491.734ZM810.876 475.674L812.416 476.136C811.822 477.742 811.052 479.304 810.194 480.8V495.65H808.566V483.352C807.884 484.342 807.136 485.222 806.388 486.014C806.234 485.618 805.772 484.782 805.464 484.408C807.62 482.296 809.666 479.018 810.876 475.674ZM820.952 493.208H825.44V494.792H811.756V493.208H819.434C820.226 490.26 821.106 485.596 821.524 482.318L823.218 482.626C822.646 485.992 821.744 490.282 820.952 493.208ZM849.046 482.076L847.814 482.912C847.572 482.494 847.264 481.966 846.846 481.394C839.168 482.076 838.266 482.164 837.716 482.384C837.628 482.076 837.364 481.35 837.188 480.954C837.54 480.888 837.914 480.536 838.332 480.03C838.794 479.546 840.268 477.588 841.148 475.718L842.82 476.136C841.83 477.786 840.664 479.436 839.542 480.712L845.944 480.184C845.394 479.524 844.822 478.842 844.272 478.27L845.438 477.544C846.78 478.93 848.364 480.844 849.046 482.076ZM831.138 486.586H836.572C836.572 486.586 836.55 487.092 836.528 487.312C836.22 492.284 835.912 494.154 835.318 494.836C834.922 495.276 834.504 495.43 833.888 495.474C833.338 495.518 832.348 495.518 831.336 495.452C831.314 494.99 831.16 494.374 830.896 493.956C831.886 494.044 832.832 494.044 833.206 494.044C833.558 494.044 833.778 494.022 833.954 493.824C834.372 493.406 834.658 491.888 834.922 488.082H829.422C829.708 486.432 830.06 483.814 830.236 481.812H834.834V478.292H829.664V476.774H836.352V483.308H831.556C831.424 484.43 831.292 485.574 831.138 486.586ZM839.058 488.61H842.028V485.552H839.058V488.61ZM846.67 485.552H843.612V488.61H846.67V485.552ZM849.486 495.144L848.056 495.826C847.902 495.386 847.682 494.902 847.418 494.352C843.634 494.66 839.696 494.946 836.924 495.144L836.704 493.56C838.134 493.494 840.004 493.384 842.028 493.252V489.974H837.606V484.188H842.028V482.054H843.612V484.188H848.188V489.974H843.612V493.142L846.626 492.944C846.208 492.284 845.768 491.58 845.328 491.008L846.67 490.414C847.814 491.866 849.024 493.824 849.486 495.144ZM862.466 482.626H864.006C865.194 481.746 866.316 480.8 867.35 479.81H862.466V482.626ZM868.428 489.952V487.774H859.518V489.952H868.428ZM859.518 493.538H868.428V491.25H859.518V493.538ZM872.784 484.1H864.556C863.412 484.914 862.224 485.684 861.014 486.388H870.1V495.584H868.428V494.968H859.518V495.672H857.912V488.06C856.592 488.698 855.228 489.292 853.886 489.798C853.688 489.446 853.16 488.786 852.852 488.456C856.042 487.334 859.122 485.882 861.894 484.1H853.336V482.626H860.86V479.81H855.25V478.358H860.86V475.608H862.466V478.358H867.9V479.26C868.824 478.336 869.66 477.368 870.408 476.356L871.794 477.104C870.254 479.128 868.45 480.976 866.448 482.626H872.784V484.1ZM885.016 489.864L884.532 488.698C886.226 487.994 887.194 486.96 887.304 485.464C887.172 485.486 887.062 485.486 886.93 485.486C886.028 485.486 885.28 484.958 885.28 483.924C885.28 482.89 886.05 482.34 886.952 482.34C888.162 482.34 888.822 483.33 888.822 484.87C888.822 487.246 887.326 489.05 885.016 489.864ZM905.278 485.09V487.378H915.882V485.09H905.278ZM905.278 481.438V483.704H915.882V481.438H905.278ZM905.278 477.83V480.074H915.882V477.83H905.278ZM914.76 493.956H918.016C918.896 493.956 919.072 493.56 919.16 490.854C919.512 491.14 920.216 491.404 920.678 491.514C920.48 494.704 919.996 495.496 918.148 495.496H914.606C912.538 495.496 911.988 495.012 911.988 493.23V488.83H908.38C907.852 492.35 906.444 494.55 901.45 495.694C901.318 495.276 900.856 494.594 900.526 494.264C905.036 493.362 906.202 491.646 906.664 488.83H903.694V476.356H917.532V488.83H913.638V493.208C913.638 493.846 913.814 493.956 914.76 493.956ZM929.346 478.27L928.158 479.084C927.85 478.292 927.102 477.06 926.508 476.136L927.63 475.432C928.268 476.312 928.994 477.478 929.346 478.27ZM931.634 479.326V480.668H924.308V479.326H931.634ZM930.996 482.208V483.506H925.144V482.208H930.996ZM925.144 486.366V485.068H930.996V486.366H925.144ZM929.786 489.358H926.42V492.988H929.786V489.358ZM931.106 487.994V494.352H926.42V495.386H925.122V487.994H931.106ZM935.176 483.176V482.274C934.384 483.352 933.46 484.232 932.492 484.87C932.272 484.562 931.81 484.034 931.502 483.77C932.426 483.22 933.328 482.34 934.076 481.284C933.548 480.8 932.734 480.162 932.052 479.744L932.954 478.688C933.592 479.062 934.318 479.59 934.846 480.03C935.264 479.326 935.594 478.534 935.858 477.742H932.646V476.4H936.408L936.694 476.356L937.64 476.686C937.2 478.666 936.452 480.426 935.484 481.834H940.72C939.62 480.206 938.784 478.226 938.234 476.092L939.598 475.828C939.774 476.466 939.972 477.082 940.214 477.698C940.808 477.192 941.49 476.598 941.886 476.158L942.876 477.06C942.216 477.698 941.402 478.358 940.698 478.842C940.918 479.282 941.138 479.722 941.402 480.118C942.062 479.678 942.832 479.062 943.294 478.644L944.284 479.546C943.602 480.118 942.766 480.668 942.04 481.086C942.81 482.098 943.668 482.934 944.658 483.528C944.284 483.77 943.8 484.32 943.558 484.716C942.546 484.034 941.622 483.132 940.852 482.01V483.176H935.176ZM940.83 488.588V485.97H935.088V488.588H940.83ZM942.304 484.672V489.886H933.68V484.672H942.304ZM937.134 493.296L935.66 493.736C935.528 492.9 935 491.558 934.384 490.546L935.814 490.172C936.43 491.162 936.98 492.46 937.134 493.296ZM940.214 490.084L941.798 490.502C941.292 491.58 940.654 492.834 940.104 493.78H944.24V495.122H931.854V493.78H938.564C939.136 492.746 939.862 491.184 940.214 490.084ZM953.018 475.674L954.536 476.158C953.92 477.786 953.128 479.436 952.248 480.954V495.65H950.686V483.352C950.004 484.342 949.256 485.222 948.508 485.992C948.354 485.618 947.892 484.782 947.584 484.408C949.74 482.296 951.786 479.018 953.018 475.674ZM959.288 494H965.008C966.328 494 966.57 493.406 966.746 490.832C967.142 491.096 967.78 491.36 968.242 491.448C967.956 494.506 967.45 495.474 965.052 495.474H959.266C956.67 495.474 955.9 494.858 955.9 492.438V485.222L953.722 486.058L953.106 484.628L955.9 483.528V477.808H957.44V482.934L960.674 481.658V475.63H962.17V481.086L965.822 479.678L966.13 479.436L967.34 479.81L967.274 480.118C967.208 483.286 966.988 487.488 966.636 490.084L965.294 489.688C965.514 487.62 965.646 484.254 965.69 481.394L962.17 482.758V490.81H960.674V483.352L957.44 484.628V492.438C957.44 493.714 957.748 494 959.288 494ZM976.03 475.718L977.548 476.136C977.064 477.588 976.492 479.04 975.832 480.426V495.672H974.27V483.352C973.61 484.452 972.928 485.442 972.202 486.3C972.048 485.904 971.608 485.046 971.344 484.65C973.236 482.45 974.974 479.106 976.03 475.718ZM982.454 478.16H979.396V480.162H982.454V478.16ZM979.396 483.528H982.454V481.394H979.396V483.528ZM983.752 476.862V484.804H979.396V495.628H977.878V476.862H983.752ZM986.414 483.528H989.648V481.394H986.414V483.528ZM989.648 478.16H986.414V480.162H989.648V478.16ZM991.188 476.862V493.538C991.188 494.594 990.946 495.1 990.22 495.364C989.472 495.628 988.196 495.65 986.128 495.65C986.04 495.232 985.776 494.506 985.578 494.088C987.14 494.132 988.658 494.132 989.076 494.11C989.494 494.088 989.648 493.956 989.648 493.516V484.804H985.072V476.862H991.188ZM1009.36 476.686L1010.33 475.696C1011.69 476.378 1013.41 477.434 1014.27 478.204L1013.25 479.326C1012.42 478.556 1010.75 477.434 1009.36 476.686ZM1012.48 482.626L1014.13 483.044C1013.19 485.882 1011.89 488.39 1010.26 490.48C1011.08 492.636 1012.09 493.89 1013.21 493.89C1013.83 493.89 1014.09 492.746 1014.24 489.82C1014.62 490.194 1015.21 490.568 1015.65 490.7C1015.34 494.44 1014.75 495.518 1013.08 495.518C1011.38 495.518 1010.06 494.176 1009.05 491.91C1007.73 493.34 1006.21 494.572 1004.52 495.562C1004.28 495.232 1003.71 494.572 1003.33 494.264C1005.29 493.208 1006.98 491.844 1008.39 490.194C1007.6 487.708 1007.07 484.474 1006.79 480.932H999.196V483.792H1004.81V484.496C1004.7 489.424 1004.56 491.272 1004.1 491.844C1003.77 492.262 1003.4 492.416 1002.78 492.482C1002.23 492.526 1001.24 492.526 1000.16 492.482C1000.14 491.976 999.966 491.36 999.702 490.942C1000.71 491.03 1001.66 491.052 1002.03 491.052C1002.34 491.052 1002.56 491.008 1002.69 490.81C1003 490.48 1003.11 489.094 1003.2 485.31H999.196V485.486C999.196 488.566 998.866 492.988 996.886 495.848C996.6 495.518 995.896 494.946 995.522 494.748C997.326 492.064 997.524 488.302 997.524 485.464V479.326H1006.7C1006.61 478.116 1006.59 476.884 1006.57 475.63H1008.26C1008.26 476.906 1008.28 478.138 1008.35 479.326H1015.45V480.932H1008.46C1008.68 483.858 1009.07 486.476 1009.67 488.566C1010.86 486.828 1011.8 484.848 1012.48 482.626ZM1021.53 495.452L1020.25 494.616C1021.59 493.604 1022.41 491.8 1022.8 490.084L1024.19 490.524C1023.73 492.35 1023 494.308 1021.53 495.452ZM1025.64 490.722L1026.98 490.546C1027.4 491.822 1027.62 493.494 1027.62 494.55L1026.17 494.748C1026.23 493.67 1026.01 492.02 1025.64 490.722ZM1028.98 490.48L1030.26 490.172C1030.83 491.272 1031.29 492.746 1031.49 493.714L1030.13 494.066C1029.97 493.12 1029.51 491.624 1028.98 490.48ZM1035.58 484.804H1027.8C1027.09 485.706 1026.37 486.564 1025.55 487.356H1035.12C1035.28 486.608 1035.43 485.706 1035.58 484.804ZM1033.8 480.888H1030.3C1029.84 481.746 1029.34 482.582 1028.79 483.396H1033.27C1033.47 482.67 1033.65 481.768 1033.8 480.888ZM1038.84 487.356L1038.77 488.06C1038.38 492.592 1037.96 494.374 1037.28 495.078C1036.9 495.474 1036.49 495.606 1035.87 495.65C1035.32 495.716 1034.26 495.694 1033.16 495.628C1033.14 495.21 1032.99 494.572 1032.75 494.176C1033.8 494.286 1034.79 494.286 1035.21 494.286C1035.56 494.286 1035.78 494.264 1035.98 494.066C1036.44 493.626 1036.79 492.24 1037.15 488.808H1023.97C1022.8 489.776 1021.53 490.656 1020.12 491.404C1019.92 491.008 1019.52 490.37 1019.24 490.04C1023.31 487.928 1026.37 484.628 1028.5 480.888H1020.69V479.436H1025.05C1024.74 478.556 1024.03 477.236 1023.35 476.246L1024.74 475.696C1025.46 476.686 1026.26 478.028 1026.54 478.908L1025.33 479.436H1029.27C1029.89 478.182 1030.41 476.884 1030.83 475.586L1032.44 476.048C1032.02 477.192 1031.56 478.336 1031.03 479.436H1035.54C1035.32 480.734 1035.06 482.252 1034.79 483.396H1037.32C1037.1 484.672 1036.86 486.19 1036.62 487.356H1038.84ZM1035.01 492.526L1033.82 493.054C1033.54 492.218 1032.88 490.986 1032.2 490.062L1033.34 489.644C1034.04 490.524 1034.73 491.756 1035.01 492.526ZM1058.95 478.446V479.898H1057.41V475.608H1058.95V477.192H1063.15V478.446H1058.95ZM1056.09 483.22V482.186H1052.59V483.22H1056.09ZM1056.09 485.31V484.188H1052.59V485.31H1056.09ZM1056.09 487.422V486.278H1052.59V487.422H1056.09ZM1053.6 479.854V478.512H1049.95V477.236H1053.6V475.608H1055.08V479.766L1056.22 479.15C1056.86 479.81 1057.58 480.602 1057.96 481.108H1062.31V482.186H1057.56V483.22H1061.76V484.188H1057.56V485.31H1061.76V486.278H1057.56V487.422H1062.58V488.5H1052.59V489.094H1051.16V483.286C1050.81 483.704 1050.48 484.034 1050.15 484.364C1049.91 484.122 1049.36 483.594 1049.03 483.352C1050.24 482.34 1051.38 480.844 1052.11 479.37L1053.49 479.81C1053.29 480.25 1053.05 480.668 1052.79 481.108H1056.2C1055.85 480.668 1055.45 480.184 1055.08 479.81V479.854H1053.6ZM1048.5 476.048L1049.69 476.84C1049.18 477.786 1048.45 478.798 1047.68 479.766C1048.92 482.142 1049.14 484.716 1049.14 487.356C1049.14 490.48 1048.92 493.252 1048.06 494.484C1047.77 494.88 1047.35 495.122 1046.87 495.21C1046.12 495.364 1045.26 495.364 1044.34 495.32C1044.32 494.792 1044.14 494.176 1043.86 493.714C1044.91 493.802 1045.73 493.78 1046.23 493.736C1046.54 493.692 1046.74 493.582 1046.91 493.34C1047.44 492.614 1047.64 490.15 1047.64 487.312C1047.64 486.916 1047.64 486.52 1047.62 486.124C1046.58 487.796 1045.24 489.358 1043.99 490.37C1043.81 489.952 1043.39 489.314 1043.06 488.984C1044.69 487.906 1046.43 485.75 1047.4 483.704C1047.24 482.758 1047 481.856 1046.61 480.976C1045.7 481.966 1044.76 482.846 1043.86 483.528C1043.66 483.088 1043.26 482.428 1042.93 482.054C1043.88 481.482 1044.93 480.58 1045.88 479.568C1045.31 478.71 1044.58 477.852 1043.66 477.016L1044.76 476.114C1045.62 476.862 1046.3 477.654 1046.87 478.424C1047.51 477.654 1048.1 476.818 1048.5 476.048ZM1059.54 490.788H1052.68C1053.54 491.536 1054.72 492.174 1056.11 492.702C1057.47 492.174 1058.64 491.536 1059.54 490.788ZM1061.17 489.468L1062.12 490.128C1061.13 491.426 1059.65 492.46 1057.96 493.274C1059.65 493.78 1061.52 494.11 1063.41 494.308C1063.08 494.616 1062.67 495.21 1062.47 495.606C1060.27 495.32 1058.05 494.792 1056.07 494.088C1054.04 494.814 1051.82 495.32 1049.58 495.672C1049.44 495.298 1049.09 494.66 1048.83 494.374C1050.7 494.154 1052.59 493.802 1054.28 493.296C1052.99 492.68 1051.86 491.932 1051.01 491.074L1051.67 490.788H1050.21V489.534H1060.88L1061.17 489.468ZM1073.4 478.138V482.186H1077.91V483.704H1073.4V484.298C1074.46 485.288 1076.99 487.818 1077.65 488.478L1076.68 489.82C1076.02 488.984 1074.55 487.378 1073.4 486.146V495.65H1071.77V486.212C1070.63 488.72 1069.09 491.162 1067.62 492.658C1067.42 492.218 1067 491.536 1066.71 491.118C1068.47 489.468 1070.39 486.454 1071.44 483.704H1067.15V482.186H1071.77V478.446C1070.34 478.732 1068.91 478.952 1067.55 479.15C1067.48 478.754 1067.24 478.204 1067.04 477.852C1070.28 477.368 1074.06 476.62 1076.13 475.718L1077.34 476.972C1076.26 477.39 1074.88 477.786 1073.4 478.138ZM1081.23 478.204V490.26H1079.63V478.204H1081.23ZM1084.29 475.85H1085.9V493.406C1085.9 494.528 1085.59 495.012 1084.91 495.276C1084.2 495.562 1082.99 495.606 1080.99 495.606C1080.88 495.166 1080.64 494.396 1080.4 493.956C1081.92 494 1083.3 493.978 1083.72 493.978C1084.12 493.956 1084.29 493.846 1084.29 493.406V475.85ZM1101.78 487.334V482.846H1098.28V475.74H1099.71V477.786H1103.34V479.172H1099.71V481.526H1102.6V481.548H1103.19V487.334C1103.19 488.016 1103.06 488.302 1102.57 488.522C1102.09 488.72 1101.32 488.72 1100.26 488.72C1100.2 488.368 1100.02 487.928 1099.85 487.598C1100.62 487.642 1101.28 487.642 1101.5 487.62C1101.74 487.62 1101.78 487.532 1101.78 487.334ZM1098.99 483.792L1100.26 484.012C1100.04 485.552 1099.58 487.07 1098.92 488.126C1098.68 487.928 1098.11 487.576 1097.78 487.422C1098.46 486.454 1098.79 485.134 1098.99 483.792ZM1097.16 490.898L1098.57 491.888C1096.77 493.252 1094.15 494.726 1092.01 495.65C1091.79 495.32 1091.35 494.77 1091.05 494.418C1093.14 493.56 1095.78 492.108 1097.16 490.898ZM1102.77 491.954L1103.67 490.832C1106.01 491.932 1108.51 493.296 1110.08 494.352L1109 495.584C1107.5 494.528 1105.06 493.076 1102.77 491.954ZM1108.47 489.028H1110.58V490.546H1090.76V489.028H1092.98L1092.56 477.412C1093.93 476.928 1095.58 476.268 1096.63 475.718L1097.43 477.06C1096.41 477.478 1095.2 477.896 1094.08 478.248L1094.17 480.822H1097.12V482.23H1094.21L1094.3 484.914H1097.21V486.322H1094.37L1094.46 489.028H1106.93C1106.97 488.258 1107.04 487.334 1107.08 486.388H1104.22V485.002H1107.13C1107.17 484.122 1107.19 483.22 1107.24 482.296H1104.33V480.888H1107.26C1107.28 479.942 1107.3 479.018 1107.3 478.138H1104.14V476.708H1108.8C1108.78 480.558 1108.67 485.772 1108.47 489.028ZM653.268 522.468L652.432 523.986C650.65 522.974 647.108 521.654 644.38 520.972L645.172 519.63C647.856 520.268 651.42 521.456 653.268 522.468ZM645.744 528.276L646.822 528.76C645.7 533.248 643.17 536.504 640.354 538.308C640.112 537.956 639.452 537.34 639.078 537.076C641.498 535.646 643.654 533.116 644.754 529.904H639.518V528.342H645.458L645.744 528.276ZM657.118 525.68L658.592 526.736C656.876 528.342 654.632 530.234 652.806 531.51C654.434 533.93 656.612 535.8 659.34 536.834C658.988 537.164 658.46 537.802 658.218 538.264C654.522 536.658 651.882 533.688 650.144 529.794V537.582C650.144 538.572 649.902 539.078 649.198 539.342C648.494 539.606 647.328 539.628 645.502 539.628C645.436 539.188 645.172 538.462 644.908 538C646.25 538.066 647.548 538.066 647.9 538.044C648.296 538.022 648.428 537.912 648.428 537.56V525.68H642.378V524.096H650.144V525.724C650.628 527.352 651.244 528.892 652.036 530.3C653.774 528.98 655.842 527.11 657.118 525.68ZM675.686 523.128V521.94H670.076V520.796H675.686V519.608H677.292V520.796H682.66V521.94H677.292V523.128H681.78V524.228H671V523.128H675.686ZM671.616 526.23V528.034H674.102V526.23H671.616ZM681.032 528.034V526.23H678.942V528.034H681.032ZM675.378 528.034H677.666V526.23H675.378V528.034ZM670.23 529.156V525.13H682.484V529.156H670.23ZM670.274 532.61L669.042 532.962C668.998 532.61 668.932 532.148 668.822 531.686C664.554 532.346 663.872 532.478 663.498 532.698C663.432 532.368 663.19 531.664 663.014 531.268C663.454 531.18 663.916 530.63 664.532 529.794C664.862 529.42 665.522 528.474 666.292 527.264C664.114 527.528 663.652 527.594 663.366 527.748C663.278 527.462 663.036 526.758 662.882 526.384C663.234 526.296 663.586 525.812 664.004 525.152C664.444 524.514 665.874 521.962 666.666 519.564L668.074 520.158C667.194 522.226 666.094 524.382 664.95 526.032L667.106 525.856C667.678 524.91 668.184 523.876 668.646 522.886L669.944 523.656C668.646 526.208 667.018 528.782 665.346 530.828L668.514 530.432C668.316 529.684 668.118 528.914 667.876 528.254L669.042 527.968C669.592 529.486 670.12 531.444 670.274 532.61ZM663.894 533.644L665.214 533.864C664.95 535.888 664.554 538.11 664.07 539.518C663.784 539.386 663.146 539.188 662.794 539.078C663.344 537.648 663.696 535.536 663.894 533.644ZM665.962 533.754L667.15 533.556C667.414 535.162 667.678 537.23 667.744 538.616L666.49 538.836C666.468 537.45 666.226 535.36 665.962 533.754ZM667.942 533.358L668.998 533.028C669.482 534.326 669.988 536.02 670.208 537.098L669.064 537.472C668.866 536.35 668.36 534.656 667.942 533.358ZM672.408 534.568V535.58H680.24V534.568H672.408ZM672.408 532.83V533.776H680.24V532.83H672.408ZM672.408 531.114V532.038H680.24V531.114H672.408ZM681.78 536.57H678.458C680.086 537.164 681.802 537.934 682.924 538.462L682.242 539.628C681.076 539.056 679.25 538.198 677.622 537.538L678.172 536.57H674.41L675.576 537.56C673.904 538.33 671.814 539.188 670.318 539.782C670.164 539.43 669.878 538.946 669.636 538.616C671.066 538.088 673.156 537.208 674.344 536.57H670.934V530.124H681.78V536.57ZM693.836 529.178V524.58H689.216V529.178H693.836ZM689.216 535.91H693.836V530.63H689.216V535.91ZM691.064 519.542L692.824 519.872C692.45 520.95 692.054 522.16 691.68 523.106H695.332V537.384H689.216V539.122H687.72V523.106H690.184C690.514 522.05 690.91 520.576 691.064 519.542ZM706.09 523.04V523.876C705.738 533.908 705.452 537.296 704.572 538.374C704.088 538.99 703.582 539.188 702.834 539.254C702.064 539.342 700.81 539.298 699.578 539.232C699.534 538.748 699.336 538.088 699.028 537.626C700.458 537.758 701.778 537.758 702.284 537.758C702.724 537.758 702.966 537.714 703.186 537.428C703.912 536.658 704.242 533.314 704.528 524.558H698.94C698.324 526.032 697.642 527.374 696.872 528.408C696.586 528.144 695.882 527.704 695.53 527.484C697.004 525.548 698.192 522.512 698.896 519.498L700.458 519.872C700.194 520.95 699.886 522.006 699.512 523.04H706.09ZM702.614 532.94L701.228 533.798C700.568 532.478 699.094 530.3 697.884 528.716L699.16 527.968C700.392 529.53 701.91 531.642 702.614 532.94ZM716.254 524.514V523.238H713.768V524.514H716.254ZM716.254 526.89V525.592H713.768V526.89H716.254ZM716.254 529.244V527.968H713.768V529.244H716.254ZM725.516 524.514V523.238H723.162V524.514H725.516ZM725.516 526.89V525.614H723.162V526.89H725.516ZM725.516 529.266V527.99H723.162V529.266H725.516ZM712.36 530.388V524.8C711.986 525.284 711.634 525.746 711.238 526.142C711.062 525.856 710.622 525.262 710.336 525.02C711.7 523.678 712.888 521.654 713.592 519.608L714.912 519.96C714.648 520.664 714.362 521.412 714.01 522.094H716.584C716.342 521.456 715.968 520.686 715.638 520.092L716.958 519.718C717.398 520.466 717.904 521.412 718.124 522.094H720.236V523.238H717.618V524.514H719.774V524.998C721.094 523.612 722.26 521.588 722.942 519.608L724.284 519.982C724.02 520.686 723.69 521.434 723.36 522.116H725.89C725.648 521.5 725.296 520.752 724.966 520.18L726.286 519.784C726.704 520.51 727.188 521.434 727.43 522.116H729.894V523.238H726.88V524.514H729.432V525.614H726.88V526.89H729.432V527.99H726.88V529.266H730.224V530.41H721.754V524.8C721.358 525.35 720.962 525.856 720.544 526.274C720.39 526.076 720.06 525.658 719.774 525.35V525.592H717.618V526.89H719.774V527.968H717.618V529.244H720.5V530.388H712.36ZM725.274 533.05H716.364C717.53 534.194 719.114 535.118 720.962 535.866C722.7 535.118 724.196 534.194 725.274 533.05ZM726.858 531.598L727.958 532.302C726.792 534.084 725.032 535.492 722.942 536.592C725.142 537.252 727.65 537.714 730.268 537.934C729.894 538.33 729.476 539.034 729.256 539.518C726.198 539.166 723.338 538.528 720.83 537.538C717.904 538.682 714.538 539.342 711.282 539.716C711.15 539.276 710.864 538.616 710.6 538.22C713.394 537.978 716.32 537.494 718.894 536.658C717.09 535.734 715.572 534.59 714.384 533.204L714.714 533.05H711.81V531.686H726.55L726.858 531.598ZM736.802 522.622V522.072H734.228V520.906H743.6C743.402 520.532 743.204 520.18 743.006 519.872L744.634 519.498C744.942 519.938 745.272 520.466 745.514 520.906H754.204V522.072H738.188V522.644C738.188 523.26 738.364 523.458 739.486 523.458H749.188C750.244 523.458 752.048 523.414 752.708 523.282C752.752 523.722 752.84 524.096 752.884 524.382C752.29 524.492 750.86 524.514 749.408 524.514H739.508C737.33 524.514 736.802 524.03 736.802 522.622ZM750.09 527.616V526.384H738.43V527.616H750.09ZM751.652 525.35V528.65H736.956V525.35H751.652ZM742.544 534.502V535.602H745.008V534.502H742.544ZM742.544 532.544V533.578H745.008V532.544H742.544ZM742.544 530.608V531.62H745.008V530.608H742.544ZM746.196 536.548H741.378V529.64H746.196V536.548ZM736.648 532.786L737.176 532.016C737.77 532.214 738.54 532.566 738.914 532.874L738.43 533.732C738.012 533.424 737.264 533.05 736.648 532.786ZM736.626 530.762V533.446C736.626 534.018 736.604 534.656 736.538 535.316C737.242 535.228 738.034 535.052 738.936 534.876V530.762H736.626ZM740.19 529.64V538.154C740.19 538.396 740.168 538.616 740.124 538.77C740.96 538.22 741.818 537.34 742.236 536.636L743.424 537.142C742.764 538.022 741.774 539.034 741.026 539.562C740.828 539.364 740.41 539.034 740.102 538.88C740.014 539.1 739.86 539.254 739.596 539.386C739.156 539.606 738.386 539.628 737.242 539.606C737.198 539.254 737.022 538.77 736.846 538.44C737.682 538.462 738.408 538.462 738.628 538.44C738.87 538.44 738.936 538.374 738.936 538.154V535.8C738.21 535.998 737.528 536.174 736.824 536.372L736.494 535.602C736.318 537.01 735.922 538.484 735.042 539.584C734.866 539.364 734.36 539.034 734.052 538.924C735.306 537.296 735.46 535.118 735.46 533.424V529.64H740.19ZM744.106 537.142L745.052 536.592C745.536 537.032 746.108 537.736 746.372 538.154L745.404 538.814C745.14 538.352 744.59 537.648 744.106 537.142ZM752.444 538.484H752.862C752.994 538.484 753.148 538.462 753.214 538.396C753.28 538.33 753.368 538.198 753.412 537.956C753.456 537.67 753.478 537.054 753.478 536.24C753.742 536.46 754.116 536.658 754.446 536.746C754.424 537.538 754.358 538.418 754.27 538.726C754.16 539.056 753.984 539.276 753.786 539.386C753.566 539.518 753.258 539.562 752.95 539.562H752.18C751.806 539.562 751.454 539.474 751.212 539.232C750.926 538.99 750.86 538.682 750.86 537.34V530.828H749.298V533.534C749.298 533.688 749.298 533.886 749.298 534.062C749.87 534.678 750.354 535.25 750.684 535.712L750.068 536.57C749.848 536.24 749.518 535.866 749.166 535.426C748.946 536.966 748.44 538.55 747.274 539.738C747.076 539.54 746.57 539.188 746.306 539.078C747.648 537.692 748.044 535.866 748.11 534.282C747.626 533.776 747.164 533.314 746.68 532.896L747.252 532.148C747.538 532.368 747.824 532.654 748.132 532.94V530.828H747.01V529.64H752.092V537.494C752.092 537.978 752.092 538.308 752.18 538.396C752.224 538.462 752.312 538.484 752.444 538.484ZM767.426 526.626H768.966C770.154 525.746 771.276 524.8 772.31 523.81H767.426V526.626ZM773.388 533.952V531.774H764.478V533.952H773.388ZM764.478 537.538H773.388V535.25H764.478V537.538ZM777.744 528.1H769.516C768.372 528.914 767.184 529.684 765.974 530.388H775.06V539.584H773.388V538.968H764.478V539.672H762.872V532.06C761.552 532.698 760.188 533.292 758.846 533.798C758.648 533.446 758.12 532.786 757.812 532.456C761.002 531.334 764.082 529.882 766.854 528.1H758.296V526.626H765.82V523.81H760.21V522.358H765.82V519.608H767.426V522.358H772.86V523.26C773.784 522.336 774.62 521.368 775.368 520.356L776.754 521.104C775.214 523.128 773.41 524.976 771.408 526.626H777.744V528.1ZM788.502 529.662C788.502 527.814 790.02 526.318 791.846 526.318C793.694 526.318 795.19 527.814 795.19 529.662C795.19 531.51 793.694 533.006 791.846 533.006C790.02 533.006 788.502 531.51 788.502 529.662ZM789.624 529.662C789.624 530.894 790.636 531.884 791.846 531.884C793.078 531.884 794.068 530.894 794.068 529.662C794.068 528.43 793.078 527.44 791.846 527.44C790.636 527.44 789.624 528.43 789.624 529.662Z" fill="white"/>
</g>
<defs>
<clipPath id="clip0_4658_8338">
<rect width="1440" height="4128" fill="white" transform="translate(0 -106)"/>
</clipPath>
</defs>
</svg>
