<svg width="1440" height="714" viewBox="0 0 1440 714" fill="none" xmlns="http://www.w3.org/2000/svg">
<g clip-path="url(#clip0_4658_8338)">
<line x1="229" y1="672.5" x2="489" y2="672.5" stroke="url(#paint0_linear_4658_8338)"/>
<path d="M568.756 654.246H591.594V657.552H568.756V654.246ZM573.848 651.738H577.914V659.034H573.848V651.738ZM582.17 651.738H586.274V658.996H582.17V651.738ZM584.184 662.454V664.696H586.806V662.454H584.184ZM580.878 659.68H590.264V667.47H580.878V659.68ZM573.544 662.454V664.696H576.052V662.454H573.544ZM570.238 659.68H579.51V667.47H570.238V659.68ZM573.544 674.462H589.694V677.388H573.544V674.462ZM573.544 678.718H589.694V681.644H573.544V678.718ZM573.278 683.05H591.366V686.242H573.278V683.05ZM579.206 671.688H583.31V685.406H579.206V671.688ZM575.368 670.32H590.91V673.132H575.368V687.382H571.188V674.462L575.292 670.32H575.368ZM580.308 667.166L584.64 667.888C584.184 668.749 583.728 669.598 583.272 670.434C582.816 671.27 582.411 671.967 582.056 672.524L578.902 671.764C579.181 671.08 579.447 670.307 579.7 669.446C579.979 668.585 580.181 667.825 580.308 667.166ZM573.126 666.672L576.926 667.812C576.394 669.053 575.735 670.295 574.95 671.536C574.19 672.777 573.379 673.943 572.518 675.032C571.657 676.096 570.783 677.046 569.896 677.882C569.719 677.629 569.453 677.325 569.098 676.97C568.743 676.59 568.376 676.223 567.996 675.868C567.616 675.488 567.274 675.184 566.97 674.956C568.211 673.968 569.377 672.739 570.466 671.27C571.581 669.775 572.467 668.243 573.126 666.672ZM556.71 659.604H568.908V663.822H556.71V659.604ZM561.08 651.7H565.222V687.382H561.08V651.7ZM561.042 662.492L563.474 663.328C563.246 664.823 562.942 666.381 562.562 668.002C562.182 669.598 561.739 671.169 561.232 672.714C560.751 674.259 560.219 675.703 559.636 677.046C559.079 678.363 558.471 679.516 557.812 680.504C557.609 679.921 557.305 679.25 556.9 678.49C556.495 677.73 556.127 677.097 555.798 676.59C556.381 675.754 556.938 674.779 557.47 673.664C558.002 672.549 558.496 671.359 558.952 670.092C559.433 668.825 559.851 667.546 560.206 666.254C560.561 664.937 560.839 663.683 561.042 662.492ZM564.956 664.392C565.184 664.645 565.501 665.076 565.906 665.684C566.311 666.267 566.742 666.925 567.198 667.66C567.679 668.369 568.11 669.028 568.49 669.636C568.895 670.244 569.174 670.675 569.326 670.928L567.122 674.12C566.945 673.588 566.679 672.955 566.324 672.22C565.995 671.485 565.64 670.738 565.26 669.978C564.88 669.193 564.5 668.458 564.12 667.774C563.765 667.09 563.461 666.545 563.208 666.14L564.956 664.392ZM626.744 651.738H631.342C631.266 654.854 631.291 657.932 631.418 660.972C631.57 663.987 631.785 666.811 632.064 669.446C632.368 672.081 632.723 674.411 633.128 676.438C633.559 678.465 634.027 680.048 634.534 681.188C635.066 682.328 635.611 682.898 636.168 682.898C636.497 682.898 636.751 682.391 636.928 681.378C637.131 680.339 637.257 678.705 637.308 676.476C637.789 676.983 638.359 677.477 639.018 677.958C639.702 678.439 640.335 678.807 640.918 679.06C640.715 681.289 640.411 683.012 640.006 684.228C639.601 685.444 639.043 686.28 638.334 686.736C637.65 687.192 636.751 687.42 635.636 687.42C634.445 687.42 633.394 686.939 632.482 685.976C631.57 685.039 630.785 683.721 630.126 682.024C629.493 680.327 628.961 678.338 628.53 676.058C628.099 673.778 627.745 671.308 627.466 668.648C627.213 665.988 627.023 663.227 626.896 660.364C626.795 657.501 626.744 654.626 626.744 651.738ZM614.014 678.604L616.028 675.526C617.041 676.058 618.118 676.679 619.258 677.388C620.398 678.072 621.487 678.781 622.526 679.516C623.565 680.225 624.388 680.884 624.996 681.492L622.868 684.988C622.26 684.355 621.449 683.658 620.436 682.898C619.448 682.138 618.384 681.391 617.244 680.656C616.129 679.896 615.053 679.212 614.014 678.604ZM612.988 663.024H626.022V666.52H612.988V663.024ZM612.456 669.066H626.858V672.638H612.456V669.066ZM616.56 665.722L620.474 666.292C619.993 667.837 619.461 669.459 618.878 671.156C618.295 672.853 617.7 674.5 617.092 676.096C616.509 677.667 615.952 679.098 615.42 680.39L612.266 678.642C612.595 677.806 612.95 676.869 613.33 675.83C613.71 674.766 614.09 673.651 614.47 672.486C614.875 671.321 615.255 670.155 615.61 668.99C615.99 667.825 616.307 666.735 616.56 665.722ZM634.8 663.746L639.094 664.392C638.081 669.661 636.51 674.234 634.382 678.11C632.279 681.961 629.48 685.064 625.984 687.42C625.807 687.141 625.515 686.787 625.11 686.356C624.73 685.951 624.325 685.545 623.894 685.14C623.489 684.735 623.121 684.405 622.792 684.152C626.161 682.151 628.796 679.427 630.696 675.982C632.621 672.511 633.989 668.433 634.8 663.746ZM631.912 654.018L634.42 651.472C635.281 651.903 636.193 652.422 637.156 653.03C638.119 653.638 638.891 654.208 639.474 654.74L636.814 657.59C636.282 657.058 635.547 656.463 634.61 655.804C633.673 655.12 632.773 654.525 631.912 654.018ZM610.024 656.906H640.006V661.048H610.024V656.906ZM607.63 656.906H611.848V667.964C611.848 669.383 611.797 670.941 611.696 672.638C611.595 674.335 611.405 676.058 611.126 677.806C610.847 679.554 610.442 681.239 609.91 682.86C609.403 684.481 608.719 685.951 607.858 687.268C607.63 686.989 607.301 686.673 606.87 686.318C606.465 685.963 606.034 685.609 605.578 685.254C605.122 684.925 604.742 684.697 604.438 684.57C605.426 682.974 606.135 681.213 606.566 679.288C607.022 677.363 607.313 675.412 607.44 673.436C607.567 671.46 607.63 669.636 607.63 667.964V656.906ZM621.652 671.004H625.376C625.173 672.752 624.857 674.437 624.426 676.058C624.021 677.679 623.4 679.199 622.564 680.618C621.728 682.037 620.601 683.316 619.182 684.456C617.763 685.621 615.939 686.609 613.71 687.42C613.507 686.939 613.178 686.381 612.722 685.748C612.291 685.115 611.873 684.621 611.468 684.266C613.469 683.607 615.103 682.809 616.37 681.872C617.637 680.935 618.612 679.883 619.296 678.718C620.005 677.553 620.525 676.324 620.854 675.032C621.209 673.715 621.475 672.372 621.652 671.004ZM683.934 659.072L688.228 659.984C687.924 661.048 687.607 662.137 687.278 663.252C686.949 664.341 686.619 665.393 686.29 666.406C685.961 667.394 685.644 668.268 685.34 669.028L681.844 668.154C682.123 667.318 682.389 666.381 682.642 665.342C682.921 664.278 683.174 663.201 683.402 662.112C683.63 660.997 683.807 659.984 683.934 659.072ZM669.456 660.212L673.066 659.414C673.37 660.326 673.636 661.314 673.864 662.378C674.117 663.442 674.32 664.481 674.472 665.494C674.649 666.507 674.763 667.407 674.814 668.192L670.976 669.104C670.951 668.293 670.862 667.381 670.71 666.368C670.558 665.329 670.368 664.278 670.14 663.214C669.937 662.125 669.709 661.124 669.456 660.212ZM669.076 653.6H688.456V657.856H669.076V653.6ZM667.746 670.092H689.14V674.386H667.746V670.092ZM676.182 655.082H680.666V687.382H676.182V655.082ZM655.244 663.366H667.024V666.824H655.244V663.366ZM655.396 652.916H666.948V656.336H655.396V652.916ZM655.244 668.572H667.024V671.992H655.244V668.572ZM653.42 658.008H668.354V661.618H653.42V658.008ZM657.334 673.816H666.948V685.406H657.334V681.796H663.034V677.426H657.334V673.816ZM655.13 673.816H659.006V686.888H655.13V673.816ZM717.64 661.504H721.972V673.246H717.64V661.504ZM717.64 675.412H721.934V684.95H717.64V675.412ZM707.608 673.664H732.46V687.23H727.976V676.742H711.902V687.306H707.608V673.664ZM703.048 665.95H736.868V669.636H703.048V665.95ZM710.154 678.566H730.028V681.264H710.154V678.566ZM710.154 683.164H730.028V686.318H710.154V683.164ZM728.508 658.73L730.902 661.77C729.407 661.998 727.786 662.213 726.038 662.416C724.315 662.593 722.517 662.745 720.642 662.872C718.793 662.973 716.931 663.062 715.056 663.138C713.181 663.189 711.383 663.227 709.66 663.252C709.609 662.796 709.483 662.277 709.28 661.694C709.103 661.086 708.925 660.579 708.748 660.174C710.445 660.123 712.206 660.06 714.03 659.984C715.854 659.908 717.64 659.807 719.388 659.68C721.136 659.553 722.783 659.414 724.328 659.262C725.899 659.085 727.292 658.907 728.508 658.73ZM715.588 666.71L719.046 668.306C718.21 669.294 717.222 670.257 716.082 671.194C714.967 672.106 713.777 672.98 712.51 673.816C711.243 674.627 709.926 675.361 708.558 676.02C707.215 676.679 705.898 677.249 704.606 677.73C704.378 677.375 704.099 676.983 703.77 676.552C703.441 676.096 703.086 675.653 702.706 675.222C702.351 674.791 702.009 674.424 701.68 674.12C703.428 673.639 705.176 673.018 706.924 672.258C708.672 671.473 710.306 670.611 711.826 669.674C713.346 668.711 714.6 667.723 715.588 666.71ZM723.91 666.558C724.898 667.571 726.152 668.521 727.672 669.408C729.217 670.269 730.889 671.042 732.688 671.726C734.487 672.41 736.285 672.942 738.084 673.322C737.628 673.778 737.121 674.361 736.564 675.07C736.007 675.779 735.576 676.4 735.272 676.932C733.448 676.4 731.624 675.691 729.8 674.804C728.001 673.892 726.317 672.866 724.746 671.726C723.175 670.561 721.807 669.319 720.642 668.002L723.91 666.558ZM708.026 663.404L711.94 662.644C712.345 663.176 712.7 663.784 713.004 664.468C713.308 665.127 713.511 665.722 713.612 666.254L709.508 667.204C709.432 666.672 709.255 666.051 708.976 665.342C708.697 664.633 708.381 663.987 708.026 663.404ZM727.672 662.188L732.27 663.29C731.763 664.101 731.257 664.873 730.75 665.608C730.269 666.317 729.838 666.938 729.458 667.47L725.848 666.33C726.177 665.722 726.507 665.038 726.836 664.278C727.191 663.493 727.469 662.796 727.672 662.188ZM717.64 651.738H722.238V656.944H717.64V651.738ZM703.466 654.322H736.298V661.884H731.852V658.198H707.722V661.884H703.466V654.322ZM757.958 658.35H778.972V660.858H757.958V658.35ZM757.426 674.196H779.466V676.666H757.426V674.196ZM760.96 677.806L763.848 676.438C764.355 676.919 764.861 677.477 765.368 678.11C765.9 678.718 766.305 679.263 766.584 679.744L763.544 681.264C763.316 680.783 762.949 680.213 762.442 679.554C761.961 678.895 761.467 678.313 760.96 677.806ZM762.48 666.71V667.85H774.336V666.71H762.48ZM762.48 663.822V664.924H774.336V663.822H762.48ZM758.984 661.922H777.984V669.75H758.984V661.922ZM770.802 673.094H774.564V679.06C774.564 679.795 774.463 680.327 774.26 680.656C774.083 680.96 773.728 681.188 773.196 681.34C772.689 681.492 772.043 681.593 771.258 681.644C770.498 681.669 769.586 681.682 768.522 681.682C768.421 681.277 768.281 680.871 768.104 680.466C767.952 680.061 767.787 679.693 767.61 679.364C768.142 679.389 768.674 679.402 769.206 679.402C769.763 679.402 770.131 679.402 770.308 679.402C770.511 679.402 770.637 679.364 770.688 679.288C770.764 679.212 770.802 679.085 770.802 678.908V673.094ZM758.072 670.966C759.617 670.966 761.391 670.979 763.392 671.004C765.419 671.004 767.559 670.991 769.814 670.966C772.069 670.941 774.323 670.915 776.578 670.89L776.502 672.904C774.298 672.98 772.094 673.056 769.89 673.132C767.711 673.183 765.621 673.233 763.62 673.284C761.644 673.335 759.833 673.373 758.186 673.398L758.072 670.966ZM772.892 670.624L775.21 669.104C775.945 669.585 776.692 670.181 777.452 670.89C778.212 671.574 778.795 672.182 779.2 672.714L776.844 674.462C776.413 673.905 775.818 673.259 775.058 672.524C774.298 671.764 773.576 671.131 772.892 670.624ZM766.546 656.982H770.27V671.802L766.546 671.954V656.982ZM752.562 652.992H784.672V687.344H780.34V656.412H756.704V687.42H752.562V652.992ZM754.614 682.1H782.05V685.558H754.614V682.1ZM806.598 658.35H827.612V660.858H806.598V658.35ZM806.066 674.196H828.106V676.666H806.066V674.196ZM809.6 677.806L812.488 676.438C812.995 676.919 813.501 677.477 814.008 678.11C814.54 678.718 814.945 679.263 815.224 679.744L812.184 681.264C811.956 680.783 811.589 680.213 811.082 679.554C810.601 678.895 810.107 678.313 809.6 677.806ZM811.12 666.71V667.85H822.976V666.71H811.12ZM811.12 663.822V664.924H822.976V663.822H811.12ZM807.624 661.922H826.624V669.75H807.624V661.922ZM819.442 673.094H823.204V679.06C823.204 679.795 823.103 680.327 822.9 680.656C822.723 680.96 822.368 681.188 821.836 681.34C821.329 681.492 820.683 681.593 819.898 681.644C819.138 681.669 818.226 681.682 817.162 681.682C817.061 681.277 816.921 680.871 816.744 680.466C816.592 680.061 816.427 679.693 816.25 679.364C816.782 679.389 817.314 679.402 817.846 679.402C818.403 679.402 818.771 679.402 818.948 679.402C819.151 679.402 819.277 679.364 819.328 679.288C819.404 679.212 819.442 679.085 819.442 678.908V673.094ZM806.712 670.966C808.257 670.966 810.031 670.979 812.032 671.004C814.059 671.004 816.199 670.991 818.454 670.966C820.709 670.941 822.963 670.915 825.218 670.89L825.142 672.904C822.938 672.98 820.734 673.056 818.53 673.132C816.351 673.183 814.261 673.233 812.26 673.284C810.284 673.335 808.473 673.373 806.826 673.398L806.712 670.966ZM821.532 670.624L823.85 669.104C824.585 669.585 825.332 670.181 826.092 670.89C826.852 671.574 827.435 672.182 827.84 672.714L825.484 674.462C825.053 673.905 824.458 673.259 823.698 672.524C822.938 671.764 822.216 671.131 821.532 670.624ZM815.186 656.982H818.91V671.802L815.186 671.954V656.982ZM801.202 652.992H833.312V687.344H828.98V656.412H805.344V687.42H801.202V652.992ZM803.254 682.1H830.69V685.558H803.254V682.1ZM881.002 663.556L883.928 666.52C882.889 667.432 881.787 668.357 880.622 669.294C879.482 670.206 878.443 670.979 877.506 671.612L875.15 669.066C875.733 668.61 876.379 668.065 877.088 667.432C877.823 666.799 878.532 666.14 879.216 665.456C879.925 664.772 880.521 664.139 881.002 663.556ZM863.37 653.22L867.056 651.966C867.613 652.777 868.133 653.701 868.614 654.74C869.095 655.753 869.437 656.64 869.64 657.4L865.764 658.844C865.587 658.084 865.27 657.172 864.814 656.108C864.383 655.044 863.902 654.081 863.37 653.22ZM861.052 657.704H883.244V661.656H861.052V657.704ZM865.27 665.76L868.804 663.974C870.425 665.291 871.743 666.786 872.756 668.458C873.769 670.105 874.491 671.815 874.922 673.588C875.378 675.336 875.593 677.008 875.568 678.604C875.543 680.2 875.34 681.619 874.96 682.86C874.58 684.101 874.048 685.026 873.364 685.634C872.756 686.293 872.123 686.736 871.464 686.964C870.805 687.217 870.007 687.357 869.07 687.382C868.69 687.407 868.272 687.407 867.816 687.382C867.36 687.357 866.879 687.331 866.372 687.306C866.347 686.723 866.245 686.027 866.068 685.216C865.916 684.431 865.637 683.734 865.232 683.126C865.84 683.177 866.385 683.227 866.866 683.278C867.347 683.303 867.803 683.316 868.234 683.316C868.665 683.316 869.032 683.253 869.336 683.126C869.64 682.999 869.906 682.733 870.134 682.328C870.489 681.923 870.755 681.277 870.932 680.39C871.135 679.503 871.198 678.452 871.122 677.236C871.071 676.02 870.831 674.741 870.4 673.398C869.995 672.055 869.374 670.725 868.538 669.408C867.702 668.065 866.613 666.849 865.27 665.76ZM869.83 659.414L873.516 660.782C872.579 661.973 871.489 663.125 870.248 664.24C869.007 665.355 867.689 666.393 866.296 667.356C864.903 668.293 863.522 669.104 862.154 669.788C862.002 669.509 861.761 669.167 861.432 668.762C861.128 668.357 860.799 667.951 860.444 667.546C860.115 667.141 859.811 666.811 859.532 666.558C860.824 666.026 862.116 665.393 863.408 664.658C864.7 663.898 865.903 663.075 867.018 662.188C868.133 661.276 869.07 660.351 869.83 659.414ZM875.492 660.25C875.923 663.011 876.518 665.671 877.278 668.23C878.038 670.789 879.001 673.107 880.166 675.184C881.331 677.261 882.712 678.946 884.308 680.238C883.979 680.491 883.611 680.821 883.206 681.226C882.826 681.606 882.446 682.024 882.066 682.48C881.711 682.911 881.42 683.316 881.192 683.696C879.469 682.1 878 680.149 876.784 677.844C875.593 675.513 874.605 672.904 873.82 670.016C873.035 667.128 872.376 664.075 871.844 660.858L875.492 660.25ZM868.804 667.47L871.654 669.332C870.945 670.168 870.045 671.029 868.956 671.916C867.892 672.803 866.777 673.664 865.612 674.5C864.472 675.311 863.383 676.007 862.344 676.59C862.091 676.083 861.723 675.526 861.242 674.918C860.786 674.285 860.343 673.778 859.912 673.398C860.925 672.967 861.989 672.423 863.104 671.764C864.219 671.105 865.283 670.409 866.296 669.674C867.309 668.914 868.145 668.179 868.804 667.47ZM870.97 672.22L873.972 674.234C873.009 675.501 871.806 676.78 870.362 678.072C868.918 679.364 867.385 680.567 865.764 681.682C864.143 682.797 862.572 683.721 861.052 684.456C860.723 683.975 860.305 683.43 859.798 682.822C859.291 682.214 858.797 681.707 858.316 681.302C859.456 680.871 860.634 680.327 861.85 679.668C863.066 679.009 864.244 678.275 865.384 677.464C866.524 676.628 867.575 675.767 868.538 674.88C869.501 673.993 870.311 673.107 870.97 672.22ZM876.556 651.776L880.888 653.03C880.356 654.043 879.824 655.044 879.292 656.032C878.785 657.02 878.304 657.869 877.848 658.578L874.162 657.4C874.441 656.893 874.719 656.311 874.998 655.652C875.302 654.993 875.593 654.322 875.872 653.638C876.151 652.954 876.379 652.333 876.556 651.776ZM849.538 653.334H858.506V657.438H853.528V687.42H849.538V653.334ZM857.138 653.334H857.86L858.506 653.182L861.47 654.892C861.166 655.956 860.824 657.109 860.444 658.35C860.064 659.591 859.671 660.807 859.266 661.998C858.886 663.189 858.519 664.278 858.164 665.266C859.329 666.71 860.089 668.078 860.444 669.37C860.799 670.662 860.976 671.865 860.976 672.98C860.976 674.196 860.837 675.209 860.558 676.02C860.305 676.831 859.874 677.451 859.266 677.882C858.962 678.085 858.62 678.249 858.24 678.376C857.885 678.503 857.505 678.604 857.1 678.68C856.391 678.756 855.555 678.781 854.592 678.756C854.567 678.224 854.465 677.578 854.288 676.818C854.136 676.058 853.908 675.412 853.604 674.88C853.959 674.905 854.263 674.918 854.516 674.918C854.795 674.918 855.048 674.918 855.276 674.918C855.732 674.893 856.087 674.779 856.34 674.576C856.568 674.399 856.72 674.133 856.796 673.778C856.897 673.398 856.948 672.942 856.948 672.41C856.948 671.523 856.771 670.51 856.416 669.37C856.087 668.23 855.39 667.027 854.326 665.76C854.579 664.899 854.833 663.961 855.086 662.948C855.365 661.909 855.631 660.871 855.884 659.832C856.163 658.793 856.403 657.831 856.606 656.944C856.834 656.032 857.011 655.272 857.138 654.664V653.334Z" fill="white"/>
<line x1="951" y1="672.5" x2="1211" y2="672.5" stroke="url(#paint1_linear_4658_8338)"/>
</g>
<defs>
<linearGradient id="paint0_linear_4658_8338" x1="229" y1="673.5" x2="489" y2="673.5" gradientUnits="userSpaceOnUse">
<stop stop-color="#FFFEFE" stop-opacity="0"/>
<stop offset="1" stop-color="white"/>
</linearGradient>
<linearGradient id="paint1_linear_4658_8338" x1="951" y1="673.5" x2="1211" y2="673.5" gradientUnits="userSpaceOnUse">
<stop stop-color="white"/>
<stop offset="1" stop-color="#FFFEFE" stop-opacity="0"/>
</linearGradient>
<clipPath id="clip0_4658_8338">
<rect width="1440" height="4128" fill="white" transform="translate(0 -106)"/>
</clipPath>
</defs>
</svg>
