<svg width="414" height="534" viewBox="0 0 414 534" fill="none" xmlns="http://www.w3.org/2000/svg">
<g clip-path="url(#clip0_4658_8694)">
<path d="M115.25 504.32V503.18H110.45V500.6H115.25V498.59H118.31V504.32H115.25ZM111.11 513.11L109.19 515.48C108.92 514.82 108.44 513.83 107.93 512.84V526.61H104.84V514.04C104.03 516.74 103.1 519.26 102.05 520.97C101.78 519.92 101 518.27 100.49 517.34C102.08 515.03 103.64 510.86 104.42 507.47H101.21V504.17H104.84V498.59H107.93V504.17H110.75V507.47H107.93V508.79C108.65 509.63 110.63 512.39 111.11 513.11ZM115.34 521.93V523.16H118.64V521.93H115.34ZM115.34 516.17H118.64V515H115.34V516.17ZM118.64 519.65V518.45H115.34V519.65H118.64ZM113.96 507.02V508.64H116.18V507.02H113.96ZM122.57 507.02V508.64H124.88V507.02H122.57ZM121.73 521.93V523.16H128.63V525.65H115.34V526.64H112.19V517.94C111.83 518.33 111.44 518.66 111.08 518.99C110.81 518.33 109.97 516.71 109.43 516.02C111.02 514.7 112.58 512.84 113.63 510.83H111.41V504.86H118.82V510.83H115.49L116.69 511.25C116.45 511.76 116.21 512.27 115.94 512.78H118.55C118.43 512.39 118.28 512 118.16 511.64L121.07 510.83H119.99V504.86H127.55V510.83H121.19C121.43 511.43 121.67 512.12 121.88 512.78H127.88V515H121.73V516.17H126.86V518.45H121.73V519.65H126.86V521.93H121.73ZM123.59 500.6H128.81V503.18H123.59V504.29H120.5V498.59H123.59V500.6ZM144.41 515.27H141.92C141.68 515.99 141.44 516.68 141.2 517.31C141.83 517.61 142.52 517.94 143.18 518.3C143.69 517.4 144.11 516.41 144.41 515.27ZM148.43 521.39L146.06 523.43C145.49 523.01 144.8 522.56 144.02 522.05C142.55 523.64 140.57 524.87 137.93 525.8C137.6 525.08 136.91 524.03 136.31 523.49C138.53 522.77 140.24 521.81 141.5 520.52C140.24 519.77 138.86 519.11 137.66 518.54C138.08 517.61 138.53 516.5 138.98 515.27H137.84V512.9H139.76C140.06 512 140.3 511.13 140.51 510.26H138.14V507.53H148.34V510.26H143.42C143.18 511.13 142.94 512 142.67 512.9H144.92C144.98 512.39 145.07 511.88 145.13 511.37L148.07 511.7C148.01 512.12 147.95 512.51 147.89 512.9H148.67V515.27H147.44C147.02 516.95 146.51 518.42 145.76 519.74C146.78 520.31 147.71 520.88 148.43 521.39ZM155.39 508.07L158.69 508.55C157.79 513.17 156.44 517.13 154.43 520.4C154.97 522.14 155.6 523.19 156.26 523.19C156.8 523.19 157.07 521.69 157.16 518.15C157.91 518.93 159.05 519.68 159.92 520.07C159.44 525.29 158.42 526.64 155.87 526.64C154.28 526.64 153.08 525.47 152.12 523.55C151.04 524.78 149.84 525.83 148.49 526.76C148.01 526.1 146.75 524.84 146.03 524.27C147.92 523.13 149.51 521.66 150.8 519.92C149.84 516.2 149.33 511.22 149.09 505.91H137.21V511.37C137.21 515.81 136.76 522.41 134.09 526.49C133.55 525.89 132.17 524.75 131.42 524.39C133.7 520.64 133.91 515.3 133.91 511.37V502.67H148.97C148.94 501.32 148.91 499.97 148.91 498.62H152.42C152.39 500 152.39 501.32 152.42 502.67H156.26C155.36 501.92 154.04 501.05 152.99 500.42L154.94 498.38C156.29 499.07 158 500.18 158.9 500.99L157.31 502.67H159.35V505.91H152.51C152.66 509.39 152.96 512.63 153.38 515.36C154.28 513.2 154.94 510.74 155.39 508.07ZM174.02 503.54V506.36H162.8V503.54H167.57C167.18 502.4 166.43 500.9 165.8 499.76L168.38 498.47C169.1 499.7 169.97 501.35 170.42 502.46L168.56 503.54H174.02ZM172.76 510.41H164V507.71H172.76V510.41ZM172.79 511.73V514.43H164V511.73H172.79ZM170 518.72H166.82V522.08H170V518.72ZM172.82 515.87V524.96H166.82V526.22H164.03V515.87H172.82ZM190.64 513.02V516.41H184.04V526.61H180.53V516.41H173.93V513.02H180.53V503.39H174.92V500.06H190.1V503.39H184.04V513.02H190.64ZM175.22 505.25L178.04 504.65C178.73 506.84 179.3 509.66 179.42 511.52L176.42 512.24C176.36 510.35 175.82 507.47 175.22 505.25ZM187.67 512.18L184.94 511.52C185.57 509.57 186.26 506.54 186.56 504.38L189.95 505.07C189.2 507.59 188.36 510.38 187.67 512.18ZM197.9 503.66V506.6H194.6V500.66H205.34C205.16 500.21 204.95 499.76 204.74 499.34L208.4 498.32C208.82 499.04 209.24 499.85 209.57 500.66H220.37V506.6H216.89V503.66H197.9ZM209.12 515.81H214.43C212.81 514.73 211.01 513.65 209.24 512.66H209.12V515.81ZM209.09 523.28H213.83V521.81H209.09V523.28ZM201.2 521.81V523.28H205.73V521.81H201.2ZM205.73 519.68V518.24H201.2V519.68H205.73ZM213.83 519.68V518.24H209.09V519.68H213.83ZM205.73 515.81V512.78C204.59 513.86 203.3 514.88 201.86 515.81H205.73ZM205.73 509.78V507.47C204.29 507.53 202.91 507.59 201.53 507.62C201.95 508.31 202.31 509.15 202.49 509.78H205.73ZM209.12 509.78H212.3C212.75 508.82 213.26 507.71 213.59 506.84C212.18 506.99 210.65 507.14 209.12 507.26V509.78ZM221.69 517.13L218.84 519.02C218.39 518.66 217.91 518.27 217.34 517.85V526.43H213.83V525.74H201.2V526.52H197.84V518.03C197.03 518.39 196.25 518.72 195.47 519.02C194.96 518.15 193.91 516.92 193.19 516.2C195.92 515.42 198.86 514.16 201.2 512.66H194.24V509.78H199.1C198.86 509.12 198.53 508.37 198.2 507.83L199.43 507.59C199.34 506.87 199.01 505.82 198.71 505.22C204.11 505.1 210.44 504.71 214.28 504.08L216.11 506.48C215.36 506.6 214.52 506.72 213.65 506.81L217.01 507.65C216.5 508.4 216.02 509.12 215.6 509.78H220.82V512.66H214.76C217.43 514.22 219.98 515.87 221.69 517.13ZM239.75 512.75V513.71H242.15L241.82 513.44L242.84 512.75H239.75ZM233.6 511.25H236.84V510.38H233.6V511.25ZM233.6 508.1V508.97H236.84V508.1H233.6ZM242.93 508.1H239.75V508.97H242.93V508.1ZM242.93 511.25V510.38H239.75V511.25H242.93ZM246.98 516.26V518.18H243.11V520.1C243.11 521.24 242.87 521.63 242.03 521.87C241.22 522.11 240.02 522.11 238.37 522.11C238.22 521.48 237.92 520.85 237.65 520.34C238.49 520.37 239.48 520.37 239.75 520.34C240.05 520.34 240.17 520.25 240.17 519.98V518.18H234.86C235.64 518.93 236.48 519.92 236.87 520.61L234.5 521.78C234.11 521.06 233.24 519.89 232.43 519.08L234.32 518.18H229.67V516.26H240.17V515.39H243.11V516.26H244.7C244.49 515.96 244.16 515.6 243.83 515.24C238.88 515.42 233.93 515.57 230.27 515.63L230.15 513.74C232.01 513.74 234.32 513.74 236.84 513.74V512.75H230.9V506.63H236.84V505.73H230.06V503.81H236.84V502.7H239.75V503.81H246.59V505.73H239.75V506.63H245.78V512.75H244.28C245.24 513.5 246.2 514.4 246.77 515.09L245.18 516.26H246.98ZM229.07 522.47H247.64V502.28H229.07V522.47ZM225.86 499.58H251.03V526.58H247.64V525.17H229.07V526.64H225.86V499.58ZM270.65 512.75V513.71H273.05L272.72 513.44L273.74 512.75H270.65ZM264.5 511.25H267.74V510.38H264.5V511.25ZM264.5 508.1V508.97H267.74V508.1H264.5ZM273.83 508.1H270.65V508.97H273.83V508.1ZM273.83 511.25V510.38H270.65V511.25H273.83ZM277.88 516.26V518.18H274.01V520.1C274.01 521.24 273.77 521.63 272.93 521.87C272.12 522.11 270.92 522.11 269.27 522.11C269.12 521.48 268.82 520.85 268.55 520.34C269.39 520.37 270.38 520.37 270.65 520.34C270.95 520.34 271.07 520.25 271.07 519.98V518.18H265.76C266.54 518.93 267.38 519.92 267.77 520.61L265.4 521.78C265.01 521.06 264.14 519.89 263.33 519.08L265.22 518.18H260.57V516.26H271.07V515.39H274.01V516.26H275.6C275.39 515.96 275.06 515.6 274.73 515.24C269.78 515.42 264.83 515.57 261.17 515.63L261.05 513.74C262.91 513.74 265.22 513.74 267.74 513.74V512.75H261.8V506.63H267.74V505.73H260.96V503.81H267.74V502.7H270.65V503.81H277.49V505.73H270.65V506.63H276.68V512.75H275.18C276.14 513.5 277.1 514.4 277.67 515.09L276.08 516.26H277.88ZM259.97 522.47H278.54V502.28H259.97V522.47ZM256.76 499.58H281.93V526.58H278.54V525.17H259.97V526.64H256.76V499.58ZM294.44 499.73L296.78 501.08C296 503.63 294.98 506.9 294.17 509.24C295.97 511.55 296.36 513.56 296.36 515.27C296.36 517.22 295.97 518.45 295.01 519.11C294.56 519.47 293.99 519.65 293.3 519.77C292.76 519.83 292.07 519.86 291.38 519.83C291.35 518.96 291.08 517.64 290.6 516.8C291.14 516.83 291.56 516.83 291.89 516.83C292.22 516.8 292.49 516.74 292.73 516.56C293.09 516.29 293.21 515.69 293.21 514.88C293.21 513.47 292.82 511.61 291.14 509.6C291.74 507.74 292.34 505.1 292.85 503.06H290.51V526.61H287.42V499.88H293.93L294.44 499.73ZM311.63 507.32L313.85 509.66C312.77 510.41 311.54 511.19 310.31 511.85C311.33 514.94 313.1 518.24 314.84 520.13C314.12 520.64 313.07 521.69 312.59 522.38C310.76 520.22 308.96 516.59 307.82 513.23L307.7 513.29C309.14 518.06 308.48 523.07 306.8 524.72C305.87 525.86 304.85 526.22 303.29 526.25C302.66 526.25 301.7 526.25 300.86 526.19C300.8 525.26 300.59 523.97 300.02 523.01C301.01 523.13 302 523.16 302.66 523.16C303.38 523.16 303.83 523.04 304.25 522.32C304.79 521.75 305.15 520.31 305.18 518.45C302.96 520.19 300.08 521.78 297.65 522.71C297.17 521.93 296.3 520.85 295.55 520.22C298.85 519.29 302.81 517.19 304.88 515.09C304.76 514.61 304.64 514.07 304.46 513.53C302.75 514.91 300.47 516.32 298.64 517.22C298.22 516.47 297.44 515.3 296.75 514.7C298.94 513.95 301.79 512.39 303.47 511.01C303.17 510.47 302.81 509.9 302.42 509.39C300.83 510.53 299.15 511.49 297.59 512.21C297.17 511.61 296.15 510.32 295.52 509.72C297.71 508.91 299.93 507.74 301.7 506.36H296.48V503.3H301.22C300.5 502.28 299.39 501.17 298.37 500.27L300.98 498.68C302.39 499.7 303.83 501.2 304.55 502.28L303.11 503.3H305.81C306.74 501.98 307.94 500.06 308.54 498.65L311.96 499.61C311.15 500.93 310.25 502.22 309.44 503.3H313.91V506.39H305.93C305.54 506.81 305.12 507.2 304.67 507.59C305.51 508.52 306.17 509.6 306.68 510.71C308.45 509.69 310.34 508.37 311.63 507.32Z" fill="white"/>
<line x1="30" y1="510.5" x2="80" y2="510.5" stroke="url(#paint0_linear_4658_8694)"/>
<line y1="-0.5" x2="50" y2="-0.5" transform="matrix(1 0 -0.0216187 -0.999766 334.994 510.541)" stroke="url(#paint1_linear_4658_8694)"/>
</g>
<defs>
<linearGradient id="paint0_linear_4658_8694" x1="30" y1="511.5" x2="80" y2="511.5" gradientUnits="userSpaceOnUse">
<stop stop-color="#FFFEFE" stop-opacity="0"/>
<stop offset="1" stop-color="white"/>
</linearGradient>
<linearGradient id="paint1_linear_4658_8694" x1="0" y1="0.5" x2="50" y2="0.5" gradientUnits="userSpaceOnUse">
<stop stop-color="white"/>
<stop offset="1" stop-color="#FFFEFE" stop-opacity="0"/>
</linearGradient>
<clipPath id="clip0_4658_8694">
<rect width="414" height="5645" fill="white" transform="translate(0 -83)"/>
</clipPath>
</defs>
</svg>
