<svg width="264" height="64" viewBox="0 0 264 64" fill="none" xmlns="http://www.w3.org/2000/svg">
<g clip-path="url(#clip0_4611_1720)">
<path d="M2.04 3.664H31.994V7.302H2.04V3.664ZM15.13 5.194H19.414V18.93C19.414 20.3127 19.278 21.6387 19.006 22.908C18.734 24.1773 18.258 25.3787 17.578 26.512C16.9207 27.6453 16.0027 28.688 14.824 29.64C13.668 30.592 12.1833 31.442 10.37 32.19C8.55667 32.938 6.36933 33.5727 3.808 34.094C3.64933 33.7767 3.42267 33.3913 3.128 32.938C2.856 32.4847 2.56133 32.0313 2.244 31.578C1.92667 31.1473 1.62067 30.7733 1.326 30.456C3.774 30.0933 5.82533 29.6287 7.48 29.062C9.13467 28.4953 10.472 27.8607 11.492 27.158C12.512 26.4327 13.2827 25.6393 13.804 24.778C14.3253 23.9167 14.6767 22.9987 14.858 22.024C15.0393 21.0267 15.13 19.984 15.13 18.896V5.194ZM8.874 17.842V20.052H25.806V17.842H8.874ZM8.874 12.572V14.782H25.806V12.572H8.874ZM4.998 9.274H29.852V23.35H4.998V9.274ZM9.044 23.18C10.2453 24.6987 11.6393 25.9 13.226 26.784C14.8353 27.668 16.6373 28.3253 18.632 28.756C20.6493 29.164 22.882 29.4247 25.33 29.538C27.8007 29.6287 30.4867 29.674 33.388 29.674C33.0253 30.1273 32.674 30.7393 32.334 31.51C31.994 32.2807 31.7673 33.006 31.654 33.686C28.662 33.6407 25.8627 33.4933 23.256 33.244C20.6493 33.0173 18.2467 32.5867 16.048 31.952C13.8493 31.34 11.866 30.4447 10.098 29.266C8.33 28.0873 6.8 26.5347 5.508 24.608L9.044 23.18ZM51.714 10.566L54.434 8.288C55.1367 8.60533 55.8733 8.97933 56.644 9.41C57.4147 9.84066 58.14 10.2827 58.82 10.736C59.5227 11.1893 60.0893 11.62 60.52 12.028L57.664 14.544C57.256 14.136 56.712 13.694 56.032 13.218C55.352 12.742 54.638 12.266 53.89 11.79C53.142 11.314 52.4167 10.906 51.714 10.566ZM67.048 4.684H67.796L68.476 4.48L71.094 6.044C70.006 8.084 68.612 9.90867 66.912 11.518C65.212 13.1047 63.2967 14.4873 61.166 15.666C59.058 16.8447 56.814 17.8533 54.434 18.692C52.054 19.508 49.64 20.1653 47.192 20.664C47.0107 20.1427 46.7387 19.542 46.376 18.862C46.036 18.1593 45.6847 17.5927 45.322 17.162C47.6113 16.7993 49.8667 16.278 52.088 15.598C54.3093 14.8953 56.3947 14.0453 58.344 13.048C60.2933 12.0507 62.016 10.906 63.512 9.614C65.008 8.29933 66.1867 6.84867 67.048 5.262V4.684ZM56.27 4.684H67.966V8.016H56.27V4.684ZM58.174 1.998L62.628 2.95C60.8827 4.922 58.8427 6.71267 56.508 8.322C54.196 9.93133 51.4647 11.3707 48.314 12.64C48.11 12.3227 47.8493 11.9713 47.532 11.586C47.2373 11.2007 46.9087 10.8267 46.546 10.464C46.206 10.1013 45.8887 9.818 45.594 9.614C47.5887 8.97933 49.3907 8.24267 51 7.404C52.6093 6.56533 54.0147 5.69267 55.216 4.786C56.4173 3.85667 57.4033 2.92733 58.174 1.998ZM56.338 23.452L59.296 21.14C59.9987 21.5253 60.7353 21.956 61.506 22.432C62.2767 22.908 63.0133 23.4067 63.716 23.928C64.4187 24.4267 64.9853 24.8913 65.416 25.322L62.254 27.838C61.8687 27.4073 61.336 26.9313 60.656 26.41C59.9987 25.8887 59.2847 25.3673 58.514 24.846C57.766 24.3247 57.0407 23.86 56.338 23.452ZM71.332 17.06H72.148L72.862 16.89L75.548 18.284C74.5053 20.8227 73.134 22.9987 71.434 24.812C69.7567 26.6253 67.796 28.144 65.552 29.368C63.3307 30.592 60.894 31.578 58.242 32.326C55.6127 33.074 52.836 33.652 49.912 34.06C49.7533 33.516 49.504 32.8813 49.164 32.156C48.824 31.4307 48.484 30.83 48.144 30.354C50.8413 30.082 53.414 29.64 55.862 29.028C58.31 28.416 60.554 27.6113 62.594 26.614C64.634 25.594 66.3907 24.3473 67.864 22.874C69.36 21.378 70.516 19.6327 71.332 17.638V17.06ZM61.302 17.06H72.42V20.46H61.302V17.06ZM63.682 13.762L68.136 14.782C66.2547 17.026 63.9653 19.0547 61.268 20.868C58.5933 22.6587 55.3633 24.234 51.578 25.594C51.442 25.254 51.2267 24.8913 50.932 24.506C50.6373 24.098 50.3313 23.7013 50.014 23.316C49.6967 22.9307 49.3907 22.6247 49.096 22.398C51.476 21.6727 53.5953 20.8567 55.454 19.95C57.3353 19.0207 58.956 18.0347 60.316 16.992C61.6987 15.9267 62.8207 14.85 63.682 13.762ZM106.284 15.258H116.654V18.488H106.284V15.258ZM104.244 3.562H116.756V7.132H107.95V34.026H104.244V3.562ZM114.716 3.562H118.49V9.988C118.49 10.8493 118.377 11.552 118.15 12.096C117.923 12.6173 117.47 13.014 116.79 13.286C116.133 13.558 115.339 13.728 114.41 13.796C113.481 13.8413 112.393 13.864 111.146 13.864C111.055 13.32 110.897 12.7193 110.67 12.062C110.466 11.4047 110.239 10.838 109.99 10.362C110.557 10.3847 111.112 10.4073 111.656 10.43C112.223 10.43 112.721 10.43 113.152 10.43C113.583 10.4073 113.877 10.396 114.036 10.396C114.285 10.3733 114.455 10.3393 114.546 10.294C114.659 10.226 114.716 10.1013 114.716 9.92V3.562ZM110.568 17.672C111.135 19.5533 111.883 21.344 112.812 23.044C113.741 24.744 114.852 26.274 116.144 27.634C117.436 28.9713 118.875 30.048 120.462 30.864C120.031 31.2267 119.555 31.7253 119.034 32.36C118.513 32.9947 118.105 33.5727 117.81 34.094C116.133 33.074 114.637 31.782 113.322 30.218C112.007 28.6313 110.863 26.8407 109.888 24.846C108.936 22.8287 108.131 20.6867 107.474 18.42L110.568 17.672ZM115.498 15.258H116.178L116.858 15.122L119.306 16.006C118.898 18.5673 118.275 20.9927 117.436 23.282C116.597 25.5713 115.543 27.634 114.274 29.47C113.027 31.2833 111.543 32.836 109.82 34.128C109.525 33.652 109.117 33.1533 108.596 32.632C108.075 32.1107 107.587 31.68 107.134 31.34C108.698 30.252 110.047 28.9147 111.18 27.328C112.336 25.7187 113.265 23.9507 113.968 22.024C114.693 20.0973 115.203 18.1027 115.498 16.04V15.258ZM89.284 5.126H102.374V8.526H89.284V5.126ZM89.08 24.302H102.748V27.736H89.08V24.302ZM88.06 10.838H103.632V14.272H88.06V10.838ZM88.774 18.25H103.122V21.684H88.774V18.25ZM94.146 2.202H97.92V12.13H94.146V2.202ZM94.146 19.678H97.92V33.958H94.146V19.678ZM98.736 13.762L102.136 14.612C101.796 15.3827 101.479 16.1307 101.184 16.856C100.889 17.5813 100.606 18.2047 100.334 18.726L97.41 17.944C97.5687 17.536 97.7273 17.094 97.886 16.618C98.0673 16.1193 98.2373 15.6207 98.396 15.122C98.5547 14.6233 98.668 14.17 98.736 13.762ZM90.236 14.612L93.262 13.83C93.5793 14.4647 93.8627 15.1787 94.112 15.972C94.384 16.7427 94.554 17.4 94.622 17.944L91.46 18.828C91.392 18.2613 91.2333 17.5927 90.984 16.822C90.7573 16.0287 90.508 15.292 90.236 14.612ZM132.022 24.37H163.132V27.464H132.022V24.37ZM140.794 4.922H163.098V7.642H140.794V4.922ZM151.844 22.534H155.754V30.184C155.754 31.0907 155.641 31.8047 155.414 32.326C155.21 32.8473 154.757 33.244 154.054 33.516C153.374 33.7653 152.569 33.9127 151.64 33.958C150.711 34.026 149.611 34.06 148.342 34.06C148.274 33.516 148.115 32.9153 147.866 32.258C147.617 31.6007 147.356 31.0227 147.084 30.524C147.628 30.5467 148.183 30.5693 148.75 30.592C149.317 30.6147 149.815 30.626 150.246 30.626C150.677 30.6033 150.971 30.592 151.13 30.592C151.402 30.592 151.583 30.558 151.674 30.49C151.787 30.3993 151.844 30.2633 151.844 30.082V22.534ZM137.768 28.926L140.556 26.682C141.1 27.022 141.667 27.4187 142.256 27.872C142.845 28.3027 143.412 28.7447 143.956 29.198C144.5 29.6513 144.942 30.082 145.282 30.49L142.29 32.972C141.995 32.5867 141.599 32.1447 141.1 31.646C140.601 31.17 140.057 30.694 139.468 30.218C138.879 29.742 138.312 29.3113 137.768 28.926ZM132.94 4.718L135.592 2.474C136.159 2.85933 136.748 3.30133 137.36 3.8C137.995 4.29867 138.573 4.79733 139.094 5.296C139.638 5.79467 140.057 6.25933 140.352 6.69L137.564 9.138C137.269 8.70733 136.861 8.23133 136.34 7.71C135.841 7.166 135.297 6.63333 134.708 6.112C134.119 5.59066 133.529 5.126 132.94 4.718ZM144.738 2.678L148.036 2.066C148.399 2.56467 148.75 3.13133 149.09 3.766C149.43 4.378 149.668 4.93333 149.804 5.432L146.336 6.112C146.2 5.65867 145.973 5.11467 145.656 4.48C145.361 3.82267 145.055 3.222 144.738 2.678ZM147.254 13.252V14.306H156.4V13.252H147.254ZM147.254 16.04V17.128H156.4V16.04H147.254ZM147.254 10.532V11.518H156.4V10.532H147.254ZM143.48 8.73H160.344V18.896H143.48V8.73ZM139.774 10.566V18.556H136.102V13.626H132.124V10.566H139.774ZM149.872 6.044L153.918 6.316C153.646 6.95067 153.385 7.54 153.136 8.084C152.909 8.628 152.705 9.104 152.524 9.512L149.294 9.104C149.43 8.60533 149.543 8.084 149.634 7.54C149.747 6.97333 149.827 6.47467 149.872 6.044ZM155.754 2.032L159.596 2.644C159.188 3.30133 158.78 3.91333 158.372 4.48C157.987 5.024 157.635 5.5 157.318 5.908L154.088 5.296C154.383 4.79733 154.677 4.25333 154.972 3.664C155.289 3.052 155.55 2.508 155.754 2.032ZM139.774 17.196C140.341 18.1253 141.134 18.8053 142.154 19.236C143.174 19.6667 144.409 19.9047 145.86 19.95C146.699 19.9727 147.685 19.9953 148.818 20.018C149.974 20.0407 151.209 20.052 152.524 20.052C153.839 20.0293 155.165 20.0067 156.502 19.984C157.839 19.9387 159.12 19.8933 160.344 19.848C161.591 19.78 162.69 19.7233 163.642 19.678C163.461 20.0407 163.268 20.5393 163.064 21.174C162.86 21.786 162.713 22.3187 162.622 22.772C161.534 22.8173 160.253 22.8627 158.78 22.908C157.307 22.9307 155.777 22.9533 154.19 22.976C152.603 22.976 151.085 22.976 149.634 22.976C148.183 22.9533 146.925 22.9193 145.86 22.874C144.137 22.806 142.675 22.5567 141.474 22.126C140.295 21.6727 139.287 20.9133 138.448 19.848C137.632 20.392 136.793 20.936 135.932 21.48C135.093 22.024 134.198 22.5907 133.246 23.18L131.852 19.95C132.645 19.5873 133.495 19.168 134.402 18.692C135.331 18.1933 136.215 17.6947 137.054 17.196H139.774Z" fill="#5BFFBA"/>
<path d="M2 63.5C2 63.5 160.464 63.5 262 63.5L228 22" stroke="url(#paint0_linear_4611_1720)"/>
</g>
<defs>
<linearGradient id="paint0_linear_4611_1720" x1="2" y1="64.5" x2="262" y2="64.5" gradientUnits="userSpaceOnUse">
<stop stop-color="#FFFEFE" stop-opacity="0"/>
<stop offset="1" stop-color="white"/>
</linearGradient>
<clipPath id="clip0_4611_1720">
<rect width="264" height="64" fill="white"/>
</clipPath>
</defs>
</svg>
