<svg width="177" height="51" viewBox="0 0 177 51" fill="none" xmlns="http://www.w3.org/2000/svg">
<path d="M1.44 2.704H22.584V5.272H1.44V2.704ZM10.68 3.784H13.704V13.48C13.704 14.456 13.608 15.392 13.416 16.288C13.224 17.184 12.888 18.032 12.408 18.832C11.944 19.632 11.296 20.368 10.464 21.04C9.648 21.712 8.6 22.312 7.32 22.84C6.04 23.368 4.496 23.816 2.688 24.184C2.576 23.96 2.416 23.688 2.208 23.368C2.016 23.048 1.808 22.728 1.584 22.408C1.36 22.104 1.144 21.84 0.936 21.616C2.664 21.36 4.112 21.032 5.28 20.632C6.448 20.232 7.392 19.784 8.112 19.288C8.832 18.776 9.376 18.216 9.744 17.608C10.112 17 10.36 16.352 10.488 15.664C10.616 14.96 10.68 14.224 10.68 13.456V3.784ZM6.264 12.712V14.272H18.216V12.712H6.264ZM6.264 8.992V10.552H18.216V8.992H6.264ZM3.528 6.664H21.072V16.6H3.528V6.664ZM6.384 16.48C7.232 17.552 8.216 18.4 9.336 19.024C10.472 19.648 11.744 20.112 13.152 20.416C14.576 20.704 16.152 20.888 17.88 20.968C19.624 21.032 21.52 21.064 23.568 21.064C23.312 21.384 23.064 21.816 22.824 22.36C22.584 22.904 22.424 23.416 22.344 23.896C20.232 23.864 18.256 23.76 16.416 23.584C14.576 23.424 12.88 23.12 11.328 22.672C9.776 22.24 8.376 21.608 7.128 20.776C5.88 19.944 4.8 18.848 3.888 17.488L6.384 16.48ZM36.504 7.576L38.424 5.968C38.92 6.192 39.44 6.456 39.984 6.76C40.528 7.064 41.04 7.376 41.52 7.696C42.016 8.016 42.416 8.32 42.72 8.608L40.704 10.384C40.416 10.096 40.032 9.784 39.552 9.448C39.072 9.112 38.568 8.776 38.04 8.44C37.512 8.104 37 7.816 36.504 7.576ZM47.328 3.424H47.856L48.336 3.28L50.184 4.384C49.416 5.824 48.432 7.112 47.232 8.248C46.032 9.368 44.68 10.344 43.176 11.176C41.688 12.008 40.104 12.72 38.424 13.312C36.744 13.888 35.04 14.352 33.312 14.704C33.184 14.336 32.992 13.912 32.736 13.432C32.496 12.936 32.248 12.536 31.992 12.232C33.608 11.976 35.2 11.608 36.768 11.128C38.336 10.632 39.808 10.032 41.184 9.328C42.56 8.624 43.776 7.816 44.832 6.904C45.888 5.976 46.72 4.952 47.328 3.832V3.424ZM39.72 3.424H47.976V5.776H39.72V3.424ZM41.064 1.528L44.208 2.2C42.976 3.592 41.536 4.856 39.888 5.992C38.256 7.128 36.328 8.144 34.104 9.04C33.96 8.816 33.776 8.568 33.552 8.296C33.344 8.024 33.112 7.76 32.856 7.504C32.616 7.248 32.392 7.048 32.184 6.904C33.592 6.456 34.864 5.936 36 5.344C37.136 4.752 38.128 4.136 38.976 3.496C39.824 2.84 40.52 2.184 41.064 1.528ZM39.768 16.672L41.856 15.04C42.352 15.312 42.872 15.616 43.416 15.952C43.96 16.288 44.48 16.64 44.976 17.008C45.472 17.36 45.872 17.688 46.176 17.992L43.944 19.768C43.672 19.464 43.296 19.128 42.816 18.76C42.352 18.392 41.848 18.024 41.304 17.656C40.776 17.288 40.264 16.96 39.768 16.672ZM50.352 12.16H50.928L51.432 12.04L53.328 13.024C52.592 14.816 51.624 16.352 50.424 17.632C49.24 18.912 47.856 19.984 46.272 20.848C44.704 21.712 42.984 22.408 41.112 22.936C39.256 23.464 37.296 23.872 35.232 24.16C35.12 23.776 34.944 23.328 34.704 22.816C34.464 22.304 34.224 21.88 33.984 21.544C35.888 21.352 37.704 21.04 39.432 20.608C41.16 20.176 42.744 19.608 44.184 18.904C45.624 18.184 46.864 17.304 47.904 16.264C48.96 15.208 49.776 13.976 50.352 12.568V12.16ZM43.272 12.16H51.12V14.56H43.272V12.16ZM44.952 9.832L48.096 10.552C46.768 12.136 45.152 13.568 43.248 14.848C41.36 16.112 39.08 17.224 36.408 18.184C36.312 17.944 36.16 17.688 35.952 17.416C35.744 17.128 35.528 16.848 35.304 16.576C35.08 16.304 34.864 16.088 34.656 15.928C36.336 15.416 37.832 14.84 39.144 14.2C40.472 13.544 41.616 12.848 42.576 12.112C43.552 11.36 44.344 10.6 44.952 9.832ZM75.024 10.888H82.344V13.168H75.024V10.888ZM73.584 2.632H82.416V5.152H76.2V24.136H73.584V2.632ZM80.976 2.632H83.64V7.168C83.64 7.776 83.56 8.272 83.4 8.656C83.24 9.024 82.92 9.304 82.44 9.496C81.976 9.688 81.416 9.808 80.76 9.856C80.104 9.888 79.336 9.904 78.456 9.904C78.392 9.52 78.28 9.096 78.12 8.632C77.976 8.168 77.816 7.768 77.64 7.432C78.04 7.448 78.432 7.464 78.816 7.48C79.216 7.48 79.568 7.48 79.872 7.48C80.176 7.464 80.384 7.456 80.496 7.456C80.672 7.44 80.792 7.416 80.856 7.384C80.936 7.336 80.976 7.248 80.976 7.12V2.632ZM78.048 12.592C78.448 13.92 78.976 15.184 79.632 16.384C80.288 17.584 81.072 18.664 81.984 19.624C82.896 20.568 83.912 21.328 85.032 21.904C84.728 22.16 84.392 22.512 84.024 22.96C83.656 23.408 83.368 23.816 83.16 24.184C81.976 23.464 80.92 22.552 79.992 21.448C79.064 20.328 78.256 19.064 77.568 17.656C76.896 16.232 76.328 14.72 75.864 13.12L78.048 12.592ZM81.528 10.888H82.008L82.488 10.792L84.216 11.416C83.928 13.224 83.488 14.936 82.896 16.552C82.304 18.168 81.56 19.624 80.664 20.92C79.784 22.2 78.736 23.296 77.52 24.208C77.312 23.872 77.024 23.52 76.656 23.152C76.288 22.784 75.944 22.48 75.624 22.24C76.728 21.472 77.68 20.528 78.48 19.408C79.296 18.272 79.952 17.024 80.448 15.664C80.96 14.304 81.32 12.896 81.528 11.44V10.888ZM63.024 3.736H72.264V6.136H63.024V3.736ZM62.88 17.272H72.528V19.696H62.88V17.272ZM62.16 7.768H73.152V10.192H62.16V7.768ZM62.664 13H72.792V15.424H62.664V13ZM66.456 1.672H69.12V8.68H66.456V1.672ZM66.456 14.008H69.12V24.088H66.456V14.008ZM69.696 9.832L72.096 10.432C71.856 10.976 71.632 11.504 71.424 12.016C71.216 12.528 71.016 12.968 70.824 13.336L68.76 12.784C68.872 12.496 68.984 12.184 69.096 11.848C69.224 11.496 69.344 11.144 69.456 10.792C69.568 10.44 69.648 10.12 69.696 9.832ZM63.696 10.432L65.832 9.88C66.056 10.328 66.256 10.832 66.432 11.392C66.624 11.936 66.744 12.4 66.792 12.784L64.56 13.408C64.512 13.008 64.4 12.536 64.224 11.992C64.064 11.432 63.888 10.912 63.696 10.432ZM93.192 17.32H115.152V19.504H93.192V17.32ZM99.384 3.592H115.128V5.512H99.384V3.592ZM107.184 16.024H109.944V21.424C109.944 22.064 109.864 22.568 109.704 22.936C109.56 23.304 109.24 23.584 108.744 23.776C108.264 23.952 107.696 24.056 107.04 24.088C106.384 24.136 105.608 24.16 104.712 24.16C104.664 23.776 104.552 23.352 104.376 22.888C104.2 22.424 104.016 22.016 103.824 21.664C104.208 21.68 104.6 21.696 105 21.712C105.4 21.728 105.752 21.736 106.056 21.736C106.36 21.72 106.568 21.712 106.68 21.712C106.872 21.712 107 21.688 107.064 21.64C107.144 21.576 107.184 21.48 107.184 21.352V16.024ZM97.248 20.536L99.216 18.952C99.6 19.192 100 19.472 100.416 19.792C100.832 20.096 101.232 20.408 101.616 20.728C102 21.048 102.312 21.352 102.552 21.64L100.44 23.392C100.232 23.12 99.952 22.808 99.6 22.456C99.248 22.12 98.864 21.784 98.448 21.448C98.032 21.112 97.632 20.808 97.248 20.536ZM93.84 3.448L95.712 1.864C96.112 2.136 96.528 2.448 96.96 2.8C97.408 3.152 97.816 3.504 98.184 3.856C98.568 4.208 98.864 4.536 99.072 4.84L97.104 6.568C96.896 6.264 96.608 5.928 96.24 5.56C95.888 5.176 95.504 4.8 95.088 4.432C94.672 4.064 94.256 3.736 93.84 3.448ZM102.168 2.008L104.496 1.576C104.752 1.928 105 2.328 105.24 2.776C105.48 3.208 105.648 3.6 105.744 3.952L103.296 4.432C103.2 4.112 103.04 3.728 102.816 3.28C102.608 2.816 102.392 2.392 102.168 2.008ZM103.944 9.472V10.216H110.4V9.472H103.944ZM103.944 11.44V12.208H110.4V11.44H103.944ZM103.944 7.552V8.248H110.4V7.552H103.944ZM101.28 6.28H113.184V13.456H101.28V6.28ZM98.664 7.576V13.216H96.072V9.736H93.264V7.576H98.664ZM105.792 4.384L108.648 4.576C108.456 5.024 108.272 5.44 108.096 5.824C107.936 6.208 107.792 6.544 107.664 6.832L105.384 6.544C105.48 6.192 105.56 5.824 105.624 5.44C105.704 5.04 105.76 4.688 105.792 4.384ZM109.944 1.552L112.656 1.984C112.368 2.448 112.08 2.88 111.792 3.28C111.52 3.664 111.272 4 111.048 4.288L108.768 3.856C108.976 3.504 109.184 3.12 109.392 2.704C109.616 2.272 109.8 1.888 109.944 1.552ZM98.664 12.256C99.064 12.912 99.624 13.392 100.344 13.696C101.064 14 101.936 14.168 102.96 14.2C103.552 14.216 104.248 14.232 105.048 14.248C105.864 14.264 106.736 14.272 107.664 14.272C108.592 14.256 109.528 14.24 110.472 14.224C111.416 14.192 112.32 14.16 113.184 14.128C114.064 14.08 114.84 14.04 115.512 14.008C115.384 14.264 115.248 14.616 115.104 15.064C114.96 15.496 114.856 15.872 114.792 16.192C114.024 16.224 113.12 16.256 112.08 16.288C111.04 16.304 109.96 16.32 108.84 16.336C107.72 16.336 106.648 16.336 105.624 16.336C104.6 16.32 103.712 16.296 102.96 16.264C101.744 16.216 100.712 16.04 99.864 15.736C99.032 15.416 98.32 14.88 97.728 14.128C97.152 14.512 96.56 14.896 95.952 15.28C95.36 15.664 94.728 16.064 94.056 16.48L93.072 14.2C93.632 13.944 94.232 13.648 94.872 13.312C95.528 12.96 96.152 12.608 96.744 12.256H98.664Z" fill="#5BFFBA"/>
<path d="M2 50C2 50 107.439 50 175 50L152.377 22" stroke="url(#paint0_linear_4611_3866)"/>
<defs>
<linearGradient id="paint0_linear_4611_3866" x1="2" y1="50.6747" x2="175" y2="50.6747" gradientUnits="userSpaceOnUse">
<stop stop-color="#FFFEFE" stop-opacity="0"/>
<stop offset="1" stop-color="white"/>
</linearGradient>
</defs>
</svg>
