<svg width="1440" height="650" viewBox="0 0 1440 650" fill="none" xmlns="http://www.w3.org/2000/svg">
<g clip-path="url(#clip0_4649_5373)">
<path d="M344.102 583.444V589.626H349.91V591.166H336.688V589.626H342.474V583.444H337.546V581.904H342.474V577.702H344.102V581.904H349.052V583.444H344.102ZM338.58 574.996H349.91V576.558H337.92C337.15 578.142 336.292 579.638 335.258 581.046V591.606H333.652V582.982C332.882 583.818 332.024 584.544 331.1 585.204C330.946 584.764 330.528 584.082 330.264 583.73C332.772 581.948 334.708 579.352 336.072 576.558H330.792V574.996H336.798C337.26 573.874 337.656 572.708 337.964 571.586L339.636 572.004C339.35 572.994 338.976 574.006 338.58 574.996ZM371.316 571.718L372.46 572.884C369.314 573.764 364.474 574.336 360.404 574.622C360.36 574.248 360.162 573.698 360.008 573.368C363.99 573.038 368.72 572.444 371.316 571.718ZM370.524 577.944L369.204 577.526C369.798 576.624 370.546 575.128 370.942 574.094L372.438 574.578C371.822 575.788 371.118 577.086 370.524 577.944ZM367.422 577.592L366.124 578.032C365.97 577.218 365.508 575.964 365.046 574.996L366.278 574.622C366.762 575.546 367.246 576.8 367.422 577.592ZM363.242 577.746L361.966 578.296C361.834 577.526 361.328 576.382 360.8 575.524L361.966 575.062C362.516 575.876 363.022 576.998 363.242 577.746ZM359.656 574.292L358.776 575.612C357.984 574.798 356.356 573.72 354.992 573.038L355.806 571.85C357.17 572.488 358.82 573.5 359.656 574.292ZM358.556 580.078L357.72 581.42C356.884 580.672 355.234 579.66 353.87 579.066L354.662 577.834C356.004 578.384 357.676 579.308 358.556 580.078ZM355.586 591.386L354.332 590.286C355.41 588.68 356.994 585.886 358.182 583.51L359.282 584.566C358.204 586.81 356.774 589.406 355.586 591.386ZM370.898 585.182V583.18H367.18V585.182H370.898ZM367.18 579.792V581.75H370.898V579.792H367.18ZM374.132 581.75V583.18H372.328V586.546H367.18V589.604C367.18 590.572 366.982 590.99 366.344 591.232C365.684 591.496 364.584 591.496 362.934 591.496C362.846 591.056 362.648 590.44 362.406 590C363.704 590.044 364.87 590.022 365.2 590.022C365.552 590 365.64 589.912 365.64 589.582V586.546H360.646V585.182H365.64V583.18H359.414V581.75H365.64V579.792H360.756V578.428H372.328V581.75H374.132ZM393.008 585.336L393.272 585.248L394.306 585.93C393.25 587.272 391.402 588.702 389.818 589.67C390.522 590.022 391.16 590.33 391.644 590.572L390.962 591.782C389.356 590.88 386.166 589.406 383.79 588.416L384.472 587.404C385.616 587.866 386.958 588.416 388.256 588.988C389.4 588.372 390.764 587.448 391.776 586.59H380.578V585.336H393.008ZM383.79 583.246H391.82C390.214 582.63 388.806 581.926 387.772 581.266C386.562 581.992 385.198 582.652 383.79 583.246ZM388.146 579.55L389.378 580.166C389.202 580.276 389.048 580.408 388.894 580.54C390.874 581.684 394.614 582.894 398.024 583.422C397.694 583.774 397.276 584.368 397.056 584.742C395.472 584.456 393.844 583.972 392.326 583.444V584.324H383.46V583.378C381.986 583.972 380.49 584.5 379.104 584.896C378.796 584.566 378.202 583.994 377.806 583.73C381.436 582.872 385.418 581.376 387.816 579.55H387.068V576.096H380.094V578.802H378.598V574.952H387.068V573.72H379.874V572.466H395.846V573.72H388.652V574.952H397.144V578.802H395.604V576.096H388.652V579.55H388.146ZM380.864 580.826L380.358 579.594C381.788 579.33 383.856 578.846 385.946 578.384L386.056 579.396C384.23 579.924 382.404 580.408 380.864 580.826ZM381.128 577.262L381.59 576.382C382.976 576.624 384.868 577.064 385.858 577.416L385.418 578.428C384.406 578.054 382.536 577.57 381.128 577.262ZM389.642 579.22L390.06 578.274L390.302 578.318L389.752 577.504C391.028 577.262 392.942 576.69 394.042 576.338L394.746 577.262C393.492 577.768 391.644 578.12 390.368 578.34C392.062 578.67 394.24 579.264 395.45 579.748L395.032 580.804C393.778 580.276 391.424 579.616 389.642 579.22ZM416.702 581.398V582.806L419.056 582.762C418.748 582.432 418.418 582.08 418.088 581.794L418.858 581.398H416.702ZM412.61 580.386H415.272V579.022H412.61V580.386ZM412.61 576.69V578.032H415.272V576.69H412.61ZM419.518 576.69H416.702V578.032H419.518V576.69ZM419.518 580.386V579.022H416.702V580.386H419.518ZM410.652 584.148L410.542 582.894C411.818 582.872 413.468 582.872 415.272 582.828V581.398H411.268V575.678H415.272V574.49H410.762V573.192H415.272V571.608H416.702V573.192H421.41V574.49H416.702V575.678H420.882V581.398H419.342C420.332 582.234 421.3 583.356 421.806 584.126L420.662 584.83C420.508 584.566 420.288 584.236 420.024 583.906C416.57 584.016 413.072 584.104 410.652 584.148ZM411.818 587.58L412.918 586.92C413.798 587.646 414.678 588.702 415.096 589.45L413.886 590.242C413.49 589.45 412.632 588.328 411.818 587.58ZM403.546 581.398V583.4H405.592V581.398H403.546ZM403.546 578.274V580.232H405.592V578.274H403.546ZM408.804 580.232V578.274H406.758V580.232H408.804ZM408.804 583.4V581.398H406.758V583.4H408.804ZM419.012 584.258V585.424H421.674V586.722H419.012V590.088C419.012 590.88 418.836 591.276 418.242 591.474C417.604 591.716 416.658 591.716 415.206 591.716C415.14 591.298 414.92 590.748 414.722 590.352C415.822 590.396 416.812 590.396 417.12 590.374C417.428 590.352 417.494 590.308 417.494 590.066V586.722H410.608V587.866H406.89V591.694H405.438V587.866H401.544V586.414H405.438V584.632H402.336V577.042H405.438V575.414H401.83V573.984H405.438V571.608H406.89V573.984H410.3V575.414H406.89V577.042H410.058V584.632H406.89V586.414H410.52V585.424H417.494V584.258H419.012ZM443.96 571.74V581.53C443.96 582.432 443.784 582.85 443.124 583.114C442.464 583.356 441.408 583.378 439.846 583.378C439.78 582.938 439.538 582.322 439.296 581.882C440.55 581.926 441.65 581.926 441.98 581.882C442.31 581.882 442.398 581.794 442.398 581.486V571.74H443.96ZM439.846 572.84V580.166H438.328V572.84H439.846ZM430.232 576.822V576.954H432.938V573.94H430.232V576.822ZM432.938 578.406H430.122C429.858 580.298 429.044 582.256 426.822 583.664C426.602 583.356 426.052 582.762 425.744 582.52C427.658 581.354 428.34 579.88 428.604 578.406H425.942V576.954H428.714V576.778V573.94H426.668V572.488H436.524V573.94H434.478V576.954H436.964V578.406H434.478V583.114H432.938V578.406ZM436.326 589.406H445.258V590.946H425.502V589.406H434.676V586.634H427.768V585.138H434.676V582.674H436.326V585.138H442.97V586.634H436.326V589.406ZM456.236 581.178V576.58H451.616V581.178H456.236ZM451.616 587.91H456.236V582.63H451.616V587.91ZM453.464 571.542L455.224 571.872C454.85 572.95 454.454 574.16 454.08 575.106H457.732V589.384H451.616V591.122H450.12V575.106H452.584C452.914 574.05 453.31 572.576 453.464 571.542ZM468.49 575.04V575.876C468.138 585.908 467.852 589.296 466.972 590.374C466.488 590.99 465.982 591.188 465.234 591.254C464.464 591.342 463.21 591.298 461.978 591.232C461.934 590.748 461.736 590.088 461.428 589.626C462.858 589.758 464.178 589.758 464.684 589.758C465.124 589.758 465.366 589.714 465.586 589.428C466.312 588.658 466.642 585.314 466.928 576.558H461.34C460.724 578.032 460.042 579.374 459.272 580.408C458.986 580.144 458.282 579.704 457.93 579.484C459.404 577.548 460.592 574.512 461.296 571.498L462.858 571.872C462.594 572.95 462.286 574.006 461.912 575.04H468.49ZM465.014 584.94L463.628 585.798C462.968 584.478 461.494 582.3 460.284 580.716L461.56 579.968C462.792 581.53 464.31 583.642 465.014 584.94ZM475.442 576.47V578.032H480.348V576.47H475.442ZM480.348 573.72H475.442V575.37H480.348V573.72ZM480.634 583.048L481.514 582.762C481.954 583.532 482.482 584.544 482.702 585.16L481.91 585.468H482.13V587.426C482.13 589.076 481.734 590.572 479.006 591.54C478.852 591.254 478.478 590.792 478.214 590.572C479.622 590.132 480.326 589.538 480.656 588.878H477.73V585.798H478.852V587.844H480.92C480.942 587.69 480.942 587.558 480.942 587.404V585.468H481.778C481.712 585.292 481.602 585.05 481.514 584.786C478.038 585.116 477.51 585.226 477.18 585.336C477.158 585.116 476.982 584.544 476.85 584.258C477.18 584.236 477.576 583.994 478.038 583.642C478.28 583.466 478.786 583.07 479.358 582.498C477.884 582.608 477.51 582.674 477.312 582.762C477.224 582.498 477.092 581.948 476.938 581.64C477.18 581.596 477.4 581.486 477.664 581.244C477.884 581.024 478.72 580.144 479.226 579.242H475.442V591.694H473.88V572.532H481.888V579.242H479.6L480.348 579.638C479.842 580.386 479.226 581.09 478.632 581.64L480.26 581.574C480.612 581.2 480.942 580.826 481.228 580.43L482.196 581.068C481.14 582.19 479.996 583.268 478.874 584.104L481.096 583.928C480.942 583.62 480.788 583.312 480.634 583.048ZM488.048 589.56H486.882V588.878H484.77V591.364H483.538V585.468H484.77V587.844H486.882V585.82H488.048V589.56ZM485.408 578.032H490.468V576.47H485.408V578.032ZM490.468 573.72H485.408V575.37H490.468V573.72ZM492.052 572.532V589.626C492.052 590.528 491.876 591.034 491.282 591.298C490.71 591.584 489.786 591.628 488.422 591.628C488.334 591.188 488.136 590.418 487.916 590C488.884 590.044 489.808 590.044 490.094 590.022C490.38 590.022 490.468 589.912 490.468 589.626V579.242H485.54L486.354 579.66C485.826 580.408 485.21 581.09 484.638 581.662L486.266 581.574C486.618 581.2 486.926 580.826 487.234 580.43L488.18 581.046C487.146 582.19 486.002 583.268 484.858 584.104L487.058 583.928C486.904 583.62 486.75 583.312 486.596 583.048L487.432 582.762C487.916 583.51 488.444 584.544 488.708 585.138L487.828 585.534C487.74 585.314 487.63 585.072 487.476 584.786C484.022 585.138 483.472 585.204 483.186 585.358C483.142 585.116 482.966 584.566 482.856 584.258C483.186 584.214 483.56 584.016 484.022 583.664C484.264 583.488 484.748 583.048 485.364 582.498C483.846 582.608 483.494 582.674 483.296 582.784C483.23 582.52 483.054 581.97 482.9 581.662C483.164 581.618 483.384 581.508 483.626 581.266C483.868 581.024 484.682 580.166 485.21 579.242H483.846V572.532H492.052ZM514.316 574.688H512.446V576.36H514.316V574.688ZM514.316 579.352V577.636H512.446V579.352H514.316ZM511.148 576.36V574.688H508.354V573.434H511.148V571.608H512.446V573.434H515.526V576.36H516.692V577.636H515.526V580.606H512.446V582.212H515.812V583.554H512.446V585.27H516.296V586.612H512.446V589.252H511.148V586.612H507.804V585.27H511.148V583.554H508.31V582.212H511.148V580.606H508.354V579.352H511.148V577.636H507.826V576.36H511.148ZM503.47 587.8L503.558 589.142C501.248 589.78 498.806 590.462 497.068 590.924L496.738 589.45C497.596 589.274 498.696 589.01 499.884 588.702V582.388H496.914V580.958H499.884V578.582H497.904V577.724C497.662 578.032 497.376 578.318 497.112 578.582C497.046 578.208 496.716 577.328 496.54 576.932C497.948 575.634 499.422 573.632 500.28 571.476L501.314 572.048C501.182 572.334 501.072 572.642 500.918 572.95C502.062 573.852 503.228 574.952 503.932 575.788L503.294 577.152C502.59 576.25 501.446 575.106 500.346 574.138C499.73 575.238 499.07 576.272 498.388 577.152H502.788V578.582H501.05V580.958H503.338V582.388H501.05V588.394C501.842 588.218 502.678 588.02 503.47 587.8ZM497.53 583.84L498.498 583.532C498.828 584.808 499.114 586.48 499.224 587.558L498.212 587.91C498.146 586.81 497.86 585.116 497.53 583.84ZM502.392 587.69L501.512 587.294C501.798 586.216 502.172 584.478 502.37 583.29L503.448 583.73C503.096 585.072 502.744 586.678 502.392 587.69ZM507.078 579.55L507.848 579.66C507.65 582.718 507.254 585.138 506.594 587.052C508.376 589.516 510.906 590.022 513.612 590.022C514.118 590.022 516.076 590.022 516.802 590C516.582 590.352 516.362 590.99 516.296 591.386H513.502C510.554 591.386 507.98 590.814 506.044 588.438C505.384 589.824 504.548 590.88 503.492 591.716C503.316 591.364 502.986 590.858 502.7 590.616C503.734 589.846 504.57 588.702 505.186 587.162C504.636 586.172 504.13 584.918 503.756 583.422L504.856 582.96C505.076 583.972 505.384 584.83 505.736 585.556C506.088 584.236 506.374 582.674 506.528 580.892H503.602C504.328 579.242 505.274 576.8 506 574.622H503.888V573.192H507.892C507.188 575.194 506.242 577.702 505.472 579.594H506.858L507.078 579.55ZM525.866 574.534H522.676V579.396H525.866V574.534ZM522.676 585.908H525.866V580.848H522.676V585.908ZM527.406 573.038V587.404H522.676V589.164H521.158V573.038H527.406ZM529.21 585.38L530.574 584.61C531.608 585.732 532.84 587.338 533.412 588.35L531.982 589.23C531.454 588.174 530.266 586.568 529.21 585.38ZM540.386 575.7H534.886V578.538H539.682V579.99H537.768V582.388H540.32V583.84H537.768V589.736C537.768 590.682 537.526 591.144 536.866 591.386C536.162 591.65 535.084 591.672 533.302 591.672C533.236 591.21 532.994 590.572 532.774 590.132C534.116 590.176 535.348 590.176 535.7 590.154C536.052 590.132 536.162 590.044 536.162 589.714V583.84H527.89V582.388H536.162V579.99H528.77V578.538H533.28V575.7H527.802V574.226H533.28V571.586H534.886V574.226H540.386V575.7ZM553.3 577.328L554.774 577.812C552.772 581.684 549.384 584.786 545.71 586.744C545.534 586.436 545.006 585.754 544.676 585.446C546.986 584.346 549.142 582.784 550.858 580.87C546.612 581.134 545.974 581.2 545.556 581.376C545.49 581.046 545.226 580.254 545.05 579.836C545.446 579.77 545.842 579.44 546.326 578.934C546.678 578.56 547.8 577.262 548.746 575.832H544.434V574.336H550.088C549.846 573.588 549.384 572.664 548.878 571.894L550.374 571.498C550.99 572.378 551.606 573.544 551.826 574.314L551.76 574.336H556.336V575.832H550.638C549.692 577.218 548.614 578.56 547.514 579.66L552.002 579.462C552.486 578.78 552.948 578.076 553.3 577.328ZM554.73 581.486L556.226 582.058C555.324 583.576 554.268 584.984 553.058 586.26C554.29 587.338 555.83 588.702 556.578 589.604L555.39 590.704C554.664 589.78 553.256 588.416 552.002 587.294C550.066 589.054 547.866 590.528 545.578 591.65C545.38 591.298 544.874 590.594 544.544 590.264C548.768 588.46 552.574 585.358 554.73 581.486ZM559.482 574.138V586.304H557.92V574.138H559.482ZM561.858 571.894H563.464V589.56C563.464 590.616 563.2 591.056 562.54 591.342C561.858 591.584 560.758 591.628 558.888 591.628C558.822 591.188 558.602 590.506 558.36 590.066C559.702 590.11 560.956 590.11 561.308 590.088C561.704 590.066 561.858 589.956 561.858 589.56V571.894ZM576.136 585.864L575.652 584.698C577.346 583.994 578.314 582.96 578.424 581.464C578.292 581.486 578.182 581.486 578.05 581.486C577.148 581.486 576.4 580.958 576.4 579.924C576.4 578.89 577.17 578.34 578.072 578.34C579.282 578.34 579.942 579.33 579.942 580.87C579.942 583.246 578.446 585.05 576.136 585.864ZM604.296 585.116H599.06V587.668H604.296V585.116ZM605.66 588.878H599.06V589.89H597.63V583.884H605.66V588.878ZM610.104 578.538V589.868C610.104 590.726 609.884 591.1 609.246 591.342C608.586 591.54 607.486 591.562 605.616 591.562C605.528 591.166 605.33 590.66 605.11 590.308C606.474 590.352 607.75 590.33 608.102 590.308C608.454 590.286 608.586 590.198 608.586 589.846V579.902H604.142V581.332C604.142 581.816 604.208 581.992 604.56 581.992H606.54C606.87 581.992 607.442 581.97 607.75 581.904C607.772 582.278 607.816 582.718 607.86 583.07C607.596 583.18 607.068 583.18 606.584 583.18H604.274C602.932 583.18 602.668 582.608 602.668 581.31V579.902H600.182C599.852 582.19 598.818 583.4 595.782 584.082C595.65 583.73 595.298 583.202 594.99 582.938C597.564 582.476 598.422 581.596 598.73 579.902H594.946V591.65H593.384V578.538H603.548C604.12 577.658 604.802 576.426 605.154 575.546L606.804 575.92C606.276 576.8 605.682 577.768 605.11 578.538H610.104ZM596.794 575.898L598.18 575.436C598.664 576.206 599.28 577.24 599.566 577.878L598.158 578.45C597.85 577.812 597.256 576.712 596.794 575.898ZM602.91 573.962H611.314V575.37H592.13V573.962H601.216C600.996 573.302 600.71 572.51 600.446 571.894L601.964 571.498C602.272 572.268 602.668 573.236 602.91 573.962ZM628.584 584.17H622.534V587.272H628.584V584.17ZM630.146 588.592H622.534V589.802H621.016V582.85H630.146V588.592ZM626.296 579.902H632.126V577.592H626.296V579.902ZM619.388 579.704V579.902H624.734V577.592H619.388V579.704ZM624.734 574.182H619.388V576.25H624.734V574.182ZM632.126 576.25V574.182H626.296V576.25H632.126ZM633.754 572.642V589.714C633.754 590.726 633.468 591.144 632.786 591.408C632.104 591.672 630.938 591.694 629.002 591.694C628.914 591.276 628.65 590.638 628.43 590.242C629.838 590.286 631.202 590.286 631.576 590.264C631.994 590.242 632.126 590.11 632.126 589.736V581.288H619.366C619.256 584.72 618.684 588.922 616.55 591.826C616.286 591.496 615.626 590.968 615.252 590.77C617.562 587.602 617.782 583.114 617.782 579.704V572.642H633.754ZM641.608 573.962V577.79H645.832V573.962H641.608ZM647.526 587.03L647.702 588.46C644.776 589.23 641.718 590.066 639.452 590.682L639.056 589.142L640.2 588.878V581.288H641.564V588.548L643.28 588.13V579.22H640.178V572.532H647.328V579.22H644.754V582.256H647.438V583.708H644.754V587.734C645.656 587.514 646.58 587.272 647.526 587.03ZM649.946 578.01V580.738H656.392V578.01H649.946ZM656.392 574.028H649.946V576.646H656.392V574.028ZM658.086 582.872L659.12 584.016C658.02 584.918 656.546 585.908 655.336 586.612C656.37 588.174 657.734 589.406 659.45 590.132C659.076 590.44 658.592 591.078 658.372 591.518C655.072 589.89 653.114 586.524 652.058 582.19H649.946V589.406L653.84 588.46C653.84 588.944 653.862 589.604 653.928 589.956C649.418 591.188 648.736 591.408 648.318 591.694C648.186 591.342 647.834 590.682 647.57 590.352C647.922 590.176 648.384 589.714 648.384 588.812V572.576H657.888V582.19H653.422C653.73 583.356 654.126 584.456 654.654 585.446C655.842 584.698 657.206 583.686 658.086 582.872ZM677.028 574.468L676.192 575.986C674.41 574.974 670.868 573.654 668.14 572.972L668.932 571.63C671.616 572.268 675.18 573.456 677.028 574.468ZM669.504 580.276L670.582 580.76C669.46 585.248 666.93 588.504 664.114 590.308C663.872 589.956 663.212 589.34 662.838 589.076C665.258 587.646 667.414 585.116 668.514 581.904H663.278V580.342H669.218L669.504 580.276ZM680.878 577.68L682.352 578.736C680.636 580.342 678.392 582.234 676.566 583.51C678.194 585.93 680.372 587.8 683.1 588.834C682.748 589.164 682.22 589.802 681.978 590.264C678.282 588.658 675.642 585.688 673.904 581.794V589.582C673.904 590.572 673.662 591.078 672.958 591.342C672.254 591.606 671.088 591.628 669.262 591.628C669.196 591.188 668.932 590.462 668.668 590C670.01 590.066 671.308 590.066 671.66 590.044C672.056 590.022 672.188 589.912 672.188 589.56V577.68H666.138V576.096H673.904V577.724C674.388 579.352 675.004 580.892 675.796 582.3C677.534 580.98 679.602 579.11 680.878 577.68ZM699.446 575.128V573.94H693.836V572.796H699.446V571.608H701.052V572.796H706.42V573.94H701.052V575.128H705.54V576.228H694.76V575.128H699.446ZM695.376 578.23V580.034H697.862V578.23H695.376ZM704.792 580.034V578.23H702.702V580.034H704.792ZM699.138 580.034H701.426V578.23H699.138V580.034ZM693.99 581.156V577.13H706.244V581.156H693.99ZM694.034 584.61L692.802 584.962C692.758 584.61 692.692 584.148 692.582 583.686C688.314 584.346 687.632 584.478 687.258 584.698C687.192 584.368 686.95 583.664 686.774 583.268C687.214 583.18 687.676 582.63 688.292 581.794C688.622 581.42 689.282 580.474 690.052 579.264C687.874 579.528 687.412 579.594 687.126 579.748C687.038 579.462 686.796 578.758 686.642 578.384C686.994 578.296 687.346 577.812 687.764 577.152C688.204 576.514 689.634 573.962 690.426 571.564L691.834 572.158C690.954 574.226 689.854 576.382 688.71 578.032L690.866 577.856C691.438 576.91 691.944 575.876 692.406 574.886L693.704 575.656C692.406 578.208 690.778 580.782 689.106 582.828L692.274 582.432C692.076 581.684 691.878 580.914 691.636 580.254L692.802 579.968C693.352 581.486 693.88 583.444 694.034 584.61ZM687.654 585.644L688.974 585.864C688.71 587.888 688.314 590.11 687.83 591.518C687.544 591.386 686.906 591.188 686.554 591.078C687.104 589.648 687.456 587.536 687.654 585.644ZM689.722 585.754L690.91 585.556C691.174 587.162 691.438 589.23 691.504 590.616L690.25 590.836C690.228 589.45 689.986 587.36 689.722 585.754ZM691.702 585.358L692.758 585.028C693.242 586.326 693.748 588.02 693.968 589.098L692.824 589.472C692.626 588.35 692.12 586.656 691.702 585.358ZM696.168 586.568V587.58H704V586.568H696.168ZM696.168 584.83V585.776H704V584.83H696.168ZM696.168 583.114V584.038H704V583.114H696.168ZM705.54 588.57H702.218C703.846 589.164 705.562 589.934 706.684 590.462L706.002 591.628C704.836 591.056 703.01 590.198 701.382 589.538L701.932 588.57H698.17L699.336 589.56C697.664 590.33 695.574 591.188 694.078 591.782C693.924 591.43 693.638 590.946 693.396 590.616C694.826 590.088 696.916 589.208 698.104 588.57H694.694V582.124H705.54V588.57ZM719.906 578.626H721.446C722.634 577.746 723.756 576.8 724.79 575.81H719.906V578.626ZM725.868 585.952V583.774H716.958V585.952H725.868ZM716.958 589.538H725.868V587.25H716.958V589.538ZM730.224 580.1H721.996C720.852 580.914 719.664 581.684 718.454 582.388H727.54V591.584H725.868V590.968H716.958V591.672H715.352V584.06C714.032 584.698 712.668 585.292 711.326 585.798C711.128 585.446 710.6 584.786 710.292 584.456C713.482 583.334 716.562 581.882 719.334 580.1H710.776V578.626H718.3V575.81H712.69V574.358H718.3V571.608H719.906V574.358H725.34V575.26C726.264 574.336 727.1 573.368 727.848 572.356L729.234 573.104C727.694 575.128 725.89 576.976 723.888 578.626H730.224V580.1ZM748.858 589.78H751.652C752.444 589.78 752.576 589.318 752.664 586.48C753.038 586.766 753.72 587.052 754.182 587.162C754.006 590.484 753.522 591.342 751.784 591.342H748.66C746.724 591.342 746.24 590.792 746.24 589.01V582.564H742.082C741.642 586.854 740.41 590.066 735.416 591.804C735.24 591.386 734.756 590.726 734.382 590.418C739.024 588.988 740.014 586.172 740.388 582.564H734.69V580.98H743.446V576.58H738.914C738.386 577.834 737.726 579 737 579.924C736.626 579.66 735.988 579.33 735.57 579.154C737.088 577.306 738.188 574.402 738.716 572.114L740.366 572.444C740.146 573.28 739.86 574.138 739.552 575.018H743.446V571.608H745.074V575.018H752.29V576.58H745.074V580.98H753.874V582.564H747.868V589.01C747.868 589.67 748.022 589.78 748.858 589.78ZM777.326 572.928V574.468H766.59V572.928H777.326ZM762.916 571.586L764.478 572.202C763.048 574.138 760.804 576.272 758.846 577.658C758.604 577.306 758.164 576.668 757.878 576.36C759.704 575.128 761.816 573.148 762.916 571.586ZM763.818 576.272L765.336 576.844C764.654 577.966 763.818 579.088 762.916 580.166V591.738H761.288V581.97C760.452 582.828 759.616 583.62 758.802 584.258C758.56 583.928 757.988 583.224 757.658 582.894C759.924 581.288 762.3 578.758 763.818 576.272ZM777.964 578.934V580.496H774.642V589.582C774.642 590.594 774.4 591.1 773.674 591.364C772.926 591.606 771.694 591.606 769.538 591.606C769.472 591.166 769.252 590.484 769.01 590.022C770.572 590.066 772.024 590.066 772.442 590.044C772.86 590.022 772.992 589.934 772.992 589.56V580.496H765.644V578.934H777.964ZM791.186 578.626H792.726C793.914 577.746 795.036 576.8 796.07 575.81H791.186V578.626ZM797.148 585.952V583.774H788.238V585.952H797.148ZM788.238 589.538H797.148V587.25H788.238V589.538ZM801.504 580.1H793.276C792.132 580.914 790.944 581.684 789.734 582.388H798.82V591.584H797.148V590.968H788.238V591.672H786.632V584.06C785.312 584.698 783.948 585.292 782.606 585.798C782.408 585.446 781.88 584.786 781.572 584.456C784.762 583.334 787.842 581.882 790.614 580.1H782.056V578.626H789.58V575.81H783.97V574.358H789.58V571.608H791.186V574.358H796.62V575.26C797.544 574.336 798.38 573.368 799.128 572.356L800.514 573.104C798.974 575.128 797.17 576.976 795.168 578.626H801.504V580.1ZM813.736 585.864L813.252 584.698C814.946 583.994 815.914 582.96 816.024 581.464C815.892 581.486 815.782 581.486 815.65 581.486C814.748 581.486 814 580.958 814 579.924C814 578.89 814.77 578.34 815.672 578.34C816.882 578.34 817.542 579.33 817.542 580.87C817.542 583.246 816.046 585.05 813.736 585.864ZM835.164 574.974L833.69 575.48C833.426 574.578 832.81 573.17 832.238 572.136L833.602 571.718C834.262 572.73 834.9 574.072 835.164 574.974ZM835.516 586.48L837.892 585.908L838.046 587.404C835.142 588.152 832.084 588.922 829.796 589.494L829.4 587.888C830.676 587.602 832.348 587.25 834.152 586.81C834.724 584.478 835.296 580.628 835.582 577.966L837.122 578.252C836.682 580.826 836.088 584.17 835.516 586.48ZM830.522 578.472L831.842 578.23C832.348 580.738 832.832 583.906 832.964 586.062L831.578 586.326C831.49 584.17 831.028 580.958 830.522 578.472ZM829.664 577.218V575.7H838.156V577.218H829.664ZM846.758 589.098V583.576H840.158V589.098H846.758ZM849.332 577.702H843.788V582.036H848.408V591.584H846.758V590.638H840.158V591.672H838.574V582.036H842.138V571.586H843.788V576.14H849.332V577.702ZM866.822 583.444V589.626H872.63V591.166H859.408V589.626H865.194V583.444H860.266V581.904H865.194V577.702H866.822V581.904H871.772V583.444H866.822ZM861.3 574.996H872.63V576.558H860.64C859.87 578.142 859.012 579.638 857.978 581.046V591.606H856.372V582.982C855.602 583.818 854.744 584.544 853.82 585.204C853.666 584.764 853.248 584.082 852.984 583.73C855.492 581.948 857.428 579.352 858.792 576.558H853.512V574.996H859.518C859.98 573.874 860.376 572.708 860.684 571.586L862.356 572.004C862.07 572.994 861.696 574.006 861.3 574.996ZM876.876 580.54H896.852V582.322H876.876V580.54ZM917.84 574.094H912.824V579.132H917.84V574.094ZM918.082 588.108H913.99C911.9 588.108 911.24 587.558 911.24 585.468V572.642H919.424V580.584H912.824V585.468C912.824 586.414 913.022 586.612 914.122 586.612H918.016C918.962 586.612 919.116 586.062 919.248 583.554C919.622 583.84 920.26 584.104 920.722 584.192C920.48 587.184 920.018 588.108 918.082 588.108ZM906.752 584.478V588.9C908.05 589.384 909.678 589.538 911.768 589.538C912.824 589.56 919.512 589.56 920.854 589.494C920.59 589.89 920.282 590.638 920.172 591.122H911.79C907.148 591.122 904.53 590.374 902.924 587.382C902.66 589.142 902.264 590.638 901.604 591.87C901.318 591.672 900.614 591.254 900.24 591.078C901.516 588.878 901.758 585.402 901.824 581.486L903.364 581.596C903.342 582.652 903.298 583.686 903.232 584.654C903.716 586.194 904.354 587.272 905.234 588.02V579.77H900.724V578.296H904.838V575.524H901.274V574.072H904.838V571.63H906.4V574.072H909.568V575.524H906.4V578.296H910.096V579.77H906.752V583.026H909.898V584.478H906.752ZM932.536 585.864L932.052 584.698C933.746 583.994 934.714 582.96 934.824 581.464C934.692 581.486 934.582 581.486 934.45 581.486C933.548 581.486 932.8 580.958 932.8 579.924C932.8 578.89 933.57 578.34 934.472 578.34C935.682 578.34 936.342 579.33 936.342 580.87C936.342 583.246 934.846 585.05 932.536 585.864ZM967.318 575.832L965.998 576.778C965.316 575.744 963.842 574.16 962.544 573.038L963.798 572.18C965.074 573.258 966.592 574.798 967.318 575.832ZM965.338 580.628L966.79 581.222C965.8 583.092 964.502 584.83 962.962 586.392C963.798 588.702 964.788 590.11 965.888 590.11C966.482 590.11 966.746 588.988 966.878 586.172C967.23 586.524 967.802 586.898 968.264 587.052C967.956 590.682 967.384 591.738 965.734 591.738C963.996 591.738 962.676 590.198 961.664 587.624C960.234 588.9 958.672 590 957.022 590.858C956.78 590.462 956.318 589.912 955.9 589.56C957.748 588.658 959.552 587.448 961.114 585.996C960.586 584.17 960.168 581.992 959.882 579.616H954.712V583.136C956.01 582.85 957.352 582.564 958.65 582.278L958.76 583.752C957.418 584.082 956.054 584.39 954.712 584.698V589.582C954.712 590.638 954.448 591.122 953.766 591.386C953.084 591.65 951.896 591.694 950.114 591.694C950.026 591.254 949.74 590.506 949.498 590.044C950.906 590.11 952.204 590.088 952.578 590.066C952.974 590.066 953.106 589.956 953.106 589.56V585.094C951.456 585.446 949.872 585.82 948.552 586.106L948.09 584.456C949.41 584.236 951.192 583.862 953.106 583.466V579.616H948.398V578.054H953.106V574.556C951.742 574.82 950.356 575.04 949.058 575.216C948.97 574.82 948.75 574.248 948.53 573.852C951.61 573.39 955.152 572.642 957.22 571.872L958.386 573.214C957.33 573.588 956.054 573.94 954.712 574.226V578.054H959.75C959.552 576.052 959.464 573.94 959.442 571.784H961.114C961.114 573.984 961.202 576.096 961.378 578.054H967.846V579.616H961.554C961.774 581.486 962.082 583.18 962.456 584.632C963.622 583.378 964.59 582.036 965.338 580.628ZM976.03 571.718L977.548 572.136C977.064 573.588 976.492 575.04 975.832 576.426V591.672H974.27V579.352C973.61 580.452 972.928 581.442 972.202 582.3C972.048 581.904 971.608 581.046 971.344 580.65C973.236 578.45 974.974 575.106 976.03 571.718ZM982.454 574.16H979.396V576.162H982.454V574.16ZM979.396 579.528H982.454V577.394H979.396V579.528ZM983.752 572.862V580.804H979.396V591.628H977.878V572.862H983.752ZM986.414 579.528H989.648V577.394H986.414V579.528ZM989.648 574.16H986.414V576.162H989.648V574.16ZM991.188 572.862V589.538C991.188 590.594 990.946 591.1 990.22 591.364C989.472 591.628 988.196 591.65 986.128 591.65C986.04 591.232 985.776 590.506 985.578 590.088C987.14 590.132 988.658 590.132 989.076 590.11C989.494 590.088 989.648 589.956 989.648 589.516V580.804H985.072V572.862H991.188ZM995.676 580.54H1015.65V582.322H995.676V580.54ZM1036.64 574.094H1031.62V579.132H1036.64V574.094ZM1036.88 588.108H1032.79C1030.7 588.108 1030.04 587.558 1030.04 585.468V572.642H1038.22V580.584H1031.62V585.468C1031.62 586.414 1031.82 586.612 1032.92 586.612H1036.82C1037.76 586.612 1037.92 586.062 1038.05 583.554C1038.42 583.84 1039.06 584.104 1039.52 584.192C1039.28 587.184 1038.82 588.108 1036.88 588.108ZM1025.55 584.478V588.9C1026.85 589.384 1028.48 589.538 1030.57 589.538C1031.62 589.56 1038.31 589.56 1039.65 589.494C1039.39 589.89 1039.08 590.638 1038.97 591.122H1030.59C1025.95 591.122 1023.33 590.374 1021.72 587.382C1021.46 589.142 1021.06 590.638 1020.4 591.87C1020.12 591.672 1019.41 591.254 1019.04 591.078C1020.32 588.878 1020.56 585.402 1020.62 581.486L1022.16 581.596C1022.14 582.652 1022.1 583.686 1022.03 584.654C1022.52 586.194 1023.15 587.272 1024.03 588.02V579.77H1019.52V578.296H1023.64V575.524H1020.07V574.072H1023.64V571.63H1025.2V574.072H1028.37V575.524H1025.2V578.296H1028.9V579.77H1025.55V583.026H1028.7V584.478H1025.55ZM1056.02 581.684H1050.26V585.842H1056.02V581.684ZM1057.56 587.25H1050.26V588.834H1048.74V580.298H1057.56V587.25ZM1058.73 576.58V578.01H1047.64V576.58H1058.73ZM1062.18 572.73V589.626C1062.18 590.638 1061.94 591.122 1061.28 591.408C1060.6 591.672 1059.5 591.716 1057.61 591.716C1057.54 591.254 1057.28 590.55 1057.01 590.11C1058.4 590.154 1059.67 590.154 1060.05 590.132C1060.44 590.11 1060.58 589.978 1060.58 589.626V574.292H1045.73V591.738H1044.14V572.73H1062.18ZM1086.21 572.928V574.468H1075.47V572.928H1086.21ZM1071.8 571.586L1073.36 572.202C1071.93 574.138 1069.68 576.272 1067.73 577.658C1067.48 577.306 1067.04 576.668 1066.76 576.36C1068.58 575.128 1070.7 573.148 1071.8 571.586ZM1072.7 576.272L1074.22 576.844C1073.53 577.966 1072.7 579.088 1071.8 580.166V591.738H1070.17V581.97C1069.33 582.828 1068.5 583.62 1067.68 584.258C1067.44 583.928 1066.87 583.224 1066.54 582.894C1068.8 581.288 1071.18 578.758 1072.7 576.272ZM1086.84 578.934V580.496H1083.52V589.582C1083.52 590.594 1083.28 591.1 1082.55 591.364C1081.81 591.606 1080.57 591.606 1078.42 591.606C1078.35 591.166 1078.13 590.484 1077.89 590.022C1079.45 590.066 1080.9 590.066 1081.32 590.044C1081.74 590.022 1081.87 589.934 1081.87 589.56V580.496H1074.52V578.934H1086.84ZM1097.38 581.662C1097.38 579.814 1098.9 578.318 1100.73 578.318C1102.57 578.318 1104.07 579.814 1104.07 581.662C1104.07 583.51 1102.57 585.006 1100.73 585.006C1098.9 585.006 1097.38 583.51 1097.38 581.662ZM1098.5 581.662C1098.5 582.894 1099.52 583.884 1100.73 583.884C1101.96 583.884 1102.95 582.894 1102.95 581.662C1102.95 580.43 1101.96 579.44 1100.73 579.44C1099.52 579.44 1098.5 580.43 1098.5 581.662Z" fill="white"/>
</g>
<defs>
<clipPath id="clip0_4649_5373">
<rect width="1440" height="3044" fill="white" transform="translate(0 -106)"/>
</clipPath>
</defs>
</svg>
