<svg width="1440" height="650" viewBox="0 0 1440 650" fill="none" xmlns="http://www.w3.org/2000/svg">
<g clip-path="url(#clip0_4649_5373)">
<path d="M902.912 190.187C902.912 188.604 903.605 187.862 904.99 187.961C908.652 188.159 912.313 188.431 915.975 188.777C916.964 188.827 917.855 189.074 918.646 189.519C919.191 190.608 918.646 191.499 917.014 192.191C916.123 192.637 915.678 193.453 915.678 194.641V197.164C915.678 198.401 916.271 199.019 917.459 199.019H926.885C928.072 199.019 929.309 198.277 930.596 196.793C931.536 195.556 932.55 194.319 933.639 193.082C934.777 191.746 936.137 191.746 937.721 193.082L942.174 196.941C943.807 198.327 944.4 199.341 943.955 199.984C943.312 200.727 942.273 201.098 940.838 201.098H917.533C916.296 201.098 915.678 201.691 915.678 202.879V220.914C915.678 222.102 915.826 222.844 916.123 223.141C916.42 223.437 917.014 222.868 917.904 221.434C920.428 216.881 922.283 211.661 923.471 205.773C923.867 204.141 924.906 203.497 926.588 203.844C929.557 204.586 932.525 205.229 935.494 205.773C936.187 205.922 936.682 206.293 936.979 206.887C937.176 207.431 936.706 207.975 935.568 208.519C934.777 208.767 933.812 209.806 932.674 211.637C931.635 212.923 931.684 213.764 932.822 214.16C934.9 214.853 936.706 215.644 938.24 216.535C940.665 218.168 942.1 219.999 942.545 222.027C943.04 224.204 942.248 226.184 940.17 227.965C936.756 229.598 934.257 228.286 932.674 224.031C932.08 222.102 931.189 220.197 930.002 218.316C929.062 217.03 927.899 217.055 926.514 218.391C924.287 220.32 922.036 222.052 919.76 223.586C918.473 224.427 918.548 225.516 919.982 226.852C927.008 232.492 934.95 236.055 943.807 237.539C945.39 237.885 946.182 238.355 946.182 238.949C946.182 239.592 945.439 240.582 943.955 241.918C941.481 245.134 939.923 248.647 939.279 252.457C938.982 254.04 938.117 254.461 936.682 253.719C932.525 251.443 928.864 248.894 925.697 246.074C922.036 242.759 919.092 238.875 916.865 234.422C916.074 232.987 915.678 233.061 915.678 234.644V254.387C915.678 255.871 914.936 256.737 913.451 256.984C910.68 257.281 907.91 257.652 905.139 258.098C903.654 258.246 902.912 257.578 902.912 256.094V241.027C902.912 239.84 902.12 239.889 900.537 241.176C893.115 246.223 885.495 250.28 877.678 253.348C876.144 253.941 875.204 253.966 874.857 253.422C874.561 252.828 875.055 252.012 876.342 250.973C885.99 243.254 893.066 235.758 897.568 228.484C898.311 227.297 898.286 226.777 897.494 226.926C895.911 227.074 894.723 225.936 893.932 223.512C893.684 221.78 893.264 220.345 892.67 219.207C892.076 217.871 891.21 217.921 890.072 219.355C887.945 222.225 884.753 225.516 880.498 229.227C879.212 230.266 878.445 230.711 878.197 230.562C877.9 230.216 878.098 229.301 878.791 227.816C881.76 221.582 883.937 214.16 885.322 205.551C885.57 204.066 886.436 203.473 887.92 203.769L897.568 206.07C899.35 206.516 899.449 207.381 897.865 208.668C896.876 208.965 895.911 210.078 894.971 212.008C894.229 213.294 894.575 214.21 896.01 214.754C898.682 215.595 900.587 217.253 901.725 219.727C901.923 220.865 902.17 221.186 902.467 220.691C902.764 220.246 902.912 219.43 902.912 218.242V202.953C902.912 201.716 902.318 201.098 901.131 201.098H879.162C877.678 201.098 876.738 200.751 876.342 200.059C876.094 199.366 876.713 199.019 878.197 199.019H901.057C902.294 199.019 902.912 198.426 902.912 197.238V190.187Z" fill="white"/>
<path d="M804.355 189.372C804.751 187.937 805.889 187.392 807.77 187.739C811.876 188.283 815.983 188.926 820.09 189.668C821.772 190.955 821.376 191.944 818.902 192.637C818.358 192.934 817.641 193.849 816.75 195.383C815.909 196.868 816.082 197.61 817.27 197.61H846.066C847.254 197.61 848.491 196.868 849.777 195.383L852.227 192.489C853.513 191.054 854.923 190.93 856.457 192.118L860.242 195.235C862.023 196.818 862.642 197.956 862.098 198.649C861.553 199.342 860.564 199.688 859.129 199.688H840.797C839.56 199.688 838.941 200.282 838.941 201.469V213.27C838.941 214.507 839.535 215.125 840.723 215.125H844.285C845.473 215.125 846.685 214.383 847.922 212.899C848.615 211.909 849.382 210.92 850.223 209.93C851.46 208.495 852.82 208.421 854.305 209.707L858.016 212.825C859.747 214.359 860.366 215.472 859.871 216.164C859.327 216.808 858.337 217.129 856.902 217.129H840.797C839.56 217.129 838.941 217.723 838.941 218.911V233.977C838.941 235.214 839.535 235.832 840.723 235.832H846.289C847.477 235.832 848.714 235.09 850 233.606C851.138 232.369 852.177 231.132 853.117 229.895C854.206 228.609 855.616 228.707 857.348 230.192L861.801 233.903C863.335 235.189 863.829 236.179 863.285 236.872C862.642 237.614 861.578 237.985 860.094 237.985H840.797C839.56 237.985 838.941 238.579 838.941 239.766V254.387C838.941 255.872 838.199 256.737 836.715 256.985L828.551 258.024C826.819 258.222 825.953 257.579 825.953 256.094V239.84C825.953 238.603 825.359 237.985 824.172 237.985H795.895C794.41 237.985 793.52 237.638 793.223 236.946C792.926 236.204 793.52 235.832 795.004 235.832H798.863C800.1 235.832 800.719 235.239 800.719 234.051V214.457C801.312 212.28 800.323 212.206 797.75 214.235C795.87 215.026 794.806 215.274 794.559 214.977C794.311 214.68 794.633 213.789 795.523 212.305C799.531 205.23 802.475 197.585 804.355 189.372ZM825.953 201.618C825.953 200.331 825.384 199.688 824.246 199.688H815.934C814.746 199.688 813.559 200.43 812.371 201.914C810.441 204.586 808.141 207.06 805.469 209.336C804.133 210.276 804.009 210.969 805.098 211.414L812 214.532C812.841 214.928 813.855 215.125 815.043 215.125H824.098C825.335 215.125 825.953 214.532 825.953 213.344V201.618ZM825.953 219.059C825.953 217.773 825.384 217.129 824.246 217.129H814.375C813.138 217.129 812.52 217.723 812.52 218.911V233.977C812.52 235.214 813.113 235.832 814.301 235.832H824.098C825.335 235.832 825.953 235.239 825.953 234.051V219.059Z" fill="white"/>
<path d="M634.196 189.816C635.482 188.282 636.867 187.96 638.352 188.851C640.034 189.791 641.716 190.806 643.399 191.894C645.031 192.785 646.268 193.576 647.11 194.269C648.05 195.11 647.703 195.951 646.071 196.793C645.13 197.386 644.66 198.277 644.66 199.464V251.64C644.561 253.817 643.275 255.599 640.801 256.984C638.129 258.122 635.358 258.666 632.489 258.617C631.004 258.666 630.015 257.949 629.52 256.464C628.53 252.259 625.784 249.735 621.281 248.894C619.649 248.498 618.832 248.152 618.832 247.855C618.882 247.459 619.649 247.261 621.133 247.261H630.114C631.351 247.261 631.969 246.668 631.969 245.48V197.312C631.969 196.075 631.375 195.457 630.188 195.457H596.938C595.701 195.457 595.082 196.05 595.082 197.238V215.347C595.082 216.584 595.676 217.203 596.864 217.203H605.473C606.71 217.203 607.328 216.609 607.328 215.421V209.781C607.328 208.544 606.735 207.925 605.547 207.925H600.723C599.239 207.925 598.348 207.653 598.051 207.109C597.705 206.367 598.224 205.996 599.61 205.996H605.473C606.71 205.996 607.328 205.402 607.328 204.214V199.316C607.328 197.832 608.071 197.114 609.555 197.164L617.719 197.683C619.649 198.178 620.638 198.598 620.688 198.945C620.638 199.242 620.292 199.687 619.649 200.281C618.56 200.578 618.189 201.864 618.535 204.14C618.535 205.377 618.882 205.996 619.574 205.996C620.267 205.996 621.306 205.253 622.692 203.769C623.929 202.433 625.314 202.359 626.848 203.546L627.739 204.214C629.272 205.402 629.94 206.317 629.742 206.96C629.347 207.604 628.406 207.925 626.922 207.925H620.391C619.154 207.925 618.535 208.519 618.535 209.707V215.347C618.535 216.584 618.882 217.203 619.574 217.203C620.267 217.203 621.281 216.46 622.617 214.976C622.914 214.729 623.137 214.481 623.285 214.234C624.522 212.947 625.957 212.923 627.59 214.16L629.074 215.199C630.757 216.485 631.4 217.5 631.004 218.242C630.658 218.885 629.742 219.207 628.258 219.207H597.903C596.418 219.207 595.627 219.083 595.528 218.835C595.231 218.39 595.082 218.91 595.082 220.394C595.478 227.222 594.315 234.372 591.594 241.843C589.714 247.088 586.176 251.962 580.981 256.464C579.15 257.949 578.136 258.493 577.938 258.097C577.74 257.751 577.938 256.835 578.531 255.351C581.5 246.989 583.084 237.464 583.281 226.777V191.3C583.281 189.816 584.024 189.346 585.508 189.89C588.229 190.88 590.951 191.944 593.672 193.082C594.365 193.378 595.305 193.527 596.492 193.527H629.371C630.559 193.527 631.771 192.785 633.008 191.3L634.196 189.816ZM617.496 222.621C619.03 221.334 620.515 221.21 621.949 222.25L627.071 225.589C629.297 226.777 629.47 227.89 627.59 228.929C626.897 229.276 626.551 230.043 626.551 231.23V242.214C626.551 243.699 625.809 244.565 624.324 244.812C622.098 245.01 619.847 245.282 617.571 245.628C616.086 245.777 615.344 245.233 615.344 243.996C615.344 242.709 614.75 242.066 613.563 242.066H611.188C609.951 242.066 609.332 242.66 609.332 243.847V246.668C609.332 248.152 608.59 249.018 607.106 249.265L601.094 250.156C599.511 250.453 598.719 249.859 598.719 248.375V223.363C598.719 221.878 599.461 221.384 600.946 221.878L606.141 223.66C607.873 224.649 610.322 224.971 613.489 224.625C614.676 224.625 616.012 223.957 617.496 222.621ZM615.344 228.484C615.344 227.247 614.75 226.628 613.563 226.628H611.188C609.951 226.628 609.332 227.222 609.332 228.41V238.207C609.332 239.444 609.926 240.062 611.114 240.062H613.489C614.726 240.062 615.344 239.468 615.344 238.281V228.484Z" fill="white"/>
<path d="M524.209 189.594C524.209 188.159 524.927 187.441 526.362 187.441L536.01 188.035C537.148 188.085 538.064 188.208 538.756 188.406C540.389 189.148 540.364 190.014 538.682 191.004C537.297 191.301 536.827 192.612 537.272 194.938C537.272 196.174 537.866 196.793 539.053 196.793H551.448C552.635 196.793 553.847 196.051 555.084 194.566C555.579 193.824 556.148 193.082 556.791 192.34C558.226 190.559 559.735 190.311 561.319 191.598C562.605 192.587 563.892 193.651 565.178 194.789C566.662 196.076 567.182 197.04 566.737 197.684C566.242 198.376 565.252 198.723 563.768 198.723H548.108C546.97 198.723 547.069 198.945 548.405 199.391C549.543 199.539 550.755 199.762 552.041 200.059C553.922 200.702 554.911 201.172 555.01 201.469C555.258 202.359 554.639 203.052 553.155 203.547C552.561 203.695 551.571 204.24 550.186 205.18C547.712 206.911 545.238 208.445 542.764 209.781C541.23 210.721 541.181 211.191 542.616 211.191H547.069C548.405 211.785 549.864 210.796 551.448 208.223C552.883 206.54 554.416 206.145 556.049 207.035L563.248 211.191C565.129 212.181 565.03 213.27 562.952 214.457C562.209 214.902 561.838 215.719 561.838 216.906V252.234C561.492 254.758 560.255 256.514 558.127 257.504C556.198 258.345 553.971 258.815 551.448 258.914C549.963 258.964 549.073 258.246 548.776 256.762C548.38 253.892 547.39 251.715 545.807 250.23C545.015 249.587 544.62 249.538 544.62 250.082C544.62 250.478 543.877 250.799 542.393 251.047C540.166 251.245 537.94 251.517 535.713 251.863C534.179 252.061 533.412 251.492 533.412 250.156C533.412 248.721 532.819 248.004 531.631 248.004H527.772C526.535 248.004 525.916 248.573 525.916 249.711C525.916 250.898 525.174 251.616 523.69 251.863L517.678 252.754C516.095 252.952 515.303 252.333 515.303 250.898V230.934C515.303 229.746 514.561 229.35 513.077 229.746C511.592 230.241 510.85 231.082 510.85 232.27V254.906C510.85 256.391 510.108 257.257 508.623 257.504L502.389 258.32C500.707 258.568 499.866 258.023 499.866 256.688V208.52C499.866 207.035 500.608 206.59 502.092 207.184C504.814 208.272 507.535 209.435 510.256 210.672C510.998 211.018 512.136 211.191 513.67 211.191C515.204 211.191 515.773 210.944 515.377 210.449C514.883 209.707 514.511 208.47 514.264 206.738C514.116 204.71 513.398 202.978 512.112 201.543C510.677 200.158 510.009 199.341 510.108 199.094C510.157 198.846 509.588 198.723 508.401 198.723H498.901C497.416 198.723 496.526 198.451 496.229 197.906C495.883 197.164 496.402 196.793 497.788 196.793H522.354C523.591 196.793 524.209 196.199 524.209 195.012V189.594ZM539.127 200.578C539.622 199.341 539.276 198.723 538.088 198.723H518.198C517.109 198.723 517.208 198.97 518.495 199.465C520.177 199.811 521.859 200.331 523.541 201.023C527.302 202.755 528.019 205.378 525.694 208.891C524.11 210.424 523.937 211.191 525.174 211.191H532.967C534.155 211.191 535.07 210.449 535.713 208.965L539.127 200.578ZM517.604 215.348C517.653 213.962 517.159 213.27 516.12 213.27H512.705C511.468 213.27 510.85 213.863 510.85 215.051V226.109C510.85 227.346 511.617 227.396 513.151 226.258C516.218 223.586 517.703 219.949 517.604 215.348ZM531.631 215.125C531.631 213.888 531.112 213.27 530.073 213.27C528.984 213.27 528.341 214.012 528.143 215.496C527.846 217.525 527.376 219.257 526.733 220.691C525.298 223.759 522.7 226.06 518.94 227.594C517.554 228.188 517.357 228.658 518.346 229.004L523.764 230.859C524.902 231.255 526.015 231.453 527.104 231.453H531.483C532.67 231.453 533.734 230.983 534.674 230.043C535.664 229.053 535.911 228.559 535.416 228.559C533.041 228.064 531.78 226.678 531.631 224.402V215.125ZM549.741 215.125C549.741 213.888 549.147 213.27 547.959 213.27H542.912C541.676 213.27 541.057 213.863 541.057 215.051V217.871C540.612 219.504 541.181 220.345 542.764 220.395C544.298 220.246 545.164 219.306 545.362 217.574C545.906 215.743 546.401 214.828 546.846 214.828C547.192 214.878 547.39 215.645 547.44 217.129C547.638 218.712 548.058 219.801 548.702 220.395C549.394 220.939 549.741 220.617 549.741 219.43V215.125ZM549.741 227C549.741 225.318 549.271 225.367 548.33 227.148C547.291 228.385 545.881 228.831 544.1 228.484H540.315C539.028 228.484 539.226 229.029 540.909 230.117L542.987 231.453C544.62 232.393 545.683 233.16 546.178 233.754C546.673 234.397 546.475 235.04 545.584 235.684C544.941 236.03 544.62 236.747 544.62 237.836V244.738C544.62 245.975 545.213 246.594 546.401 246.594H547.885C549.122 246.594 549.741 246 549.741 244.812V227ZM533.412 235.387C533.412 234.1 532.843 233.457 531.705 233.457H527.772C526.535 233.457 525.916 234.051 525.916 235.238V244.145C525.916 245.382 526.51 246 527.698 246H531.557C532.794 246 533.412 245.406 533.412 244.219V235.387Z" fill="white"/>
<path d="M733.738 254.001C733.299 254.001 732.986 253.813 732.798 253.437C732.61 253.061 732.61 252.685 732.798 252.309L753.102 204.651H738.532V210.197C738.532 211.074 738.125 211.513 737.31 211.513H725.654C724.839 211.513 724.432 211.074 724.432 210.197V193.747C724.432 192.869 724.839 192.431 725.654 192.431H771.62C772.435 192.431 772.842 192.838 772.842 193.653V194.311C772.842 194.937 772.748 195.501 772.56 196.003L748.59 253.061C748.277 253.687 747.775 254.001 747.086 254.001H733.738Z" fill="white"/>
<path d="M694.476 255.034C686.517 255.034 680.814 253.342 677.368 249.958C673.984 246.512 672.542 242 673.044 236.422C673.169 235.545 673.608 235.106 674.36 235.106H685.546C686.423 235.106 686.862 235.514 686.862 236.328C686.862 238.835 687.52 240.496 688.836 241.31C690.214 242.125 692.282 242.532 695.04 242.532C697.546 242.532 699.426 242 700.68 240.934C701.996 239.869 702.654 238.271 702.654 236.14V234.824C702.654 230.688 700.116 228.62 695.04 228.62H688.93C688.052 228.62 687.614 228.182 687.614 227.304V218.28C687.614 217.466 688.052 217.058 688.93 217.058H693.536C696.356 217.058 698.392 216.557 699.646 215.554C700.899 214.552 701.526 212.985 701.526 210.854V209.256C701.526 207.314 700.93 205.872 699.74 204.932C698.612 203.992 696.794 203.522 694.288 203.522C691.718 203.522 689.838 204.024 688.648 205.026C687.52 205.966 686.956 207.408 686.956 209.35C686.956 210.228 686.517 210.666 685.64 210.666H674.454C673.639 210.666 673.232 210.228 673.232 209.35C673.169 203.522 674.986 199.073 678.684 196.002C682.444 192.932 687.958 191.396 695.228 191.396C702.372 191.396 707.667 192.806 711.114 195.626C714.56 198.384 716.284 202.363 716.284 207.564C716.284 211.136 715.532 214.176 714.028 216.682C712.524 219.126 710.393 220.912 707.636 222.04V222.228C710.832 223.106 713.244 224.766 714.874 227.21C716.566 229.654 717.412 232.694 717.412 236.328C717.412 242.47 715.469 247.138 711.584 250.334C707.698 253.468 701.996 255.034 694.476 255.034Z" fill="white"/>
</g>
<defs>
<clipPath id="clip0_4649_5373">
<rect width="1440" height="3044" fill="white" transform="translate(0 -106)"/>
</clipPath>
</defs>
</svg>
