<svg width="1440" height="650" viewBox="0 0 1440 650" fill="none" xmlns="http://www.w3.org/2000/svg">
<g clip-path="url(#clip0_4649_5373)">
<path d="M271.482 482.836C272.587 482.318 273.622 482.318 274.588 482.836L280.229 485.993C280.816 486.304 281.127 486.683 281.161 487.132C281.092 487.58 280.557 487.839 279.557 487.908L273.553 488.478C272.725 488.581 272.31 489.047 272.31 489.875V491.531C272.31 492.394 272.725 492.825 273.553 492.825H277.02C277.952 493.274 279.108 492.411 280.488 490.237C281.42 489.237 282.403 489.15 283.438 489.979L284.991 491.221C286.268 492.256 286.751 492.998 286.44 493.446C286.095 493.929 285.44 494.171 284.474 494.171H274.64C273.915 494.171 273.604 494.274 273.708 494.481C277.055 495.517 280.54 496.138 284.163 496.345C285.336 496.414 285.923 496.569 285.923 496.811C285.923 497.156 285.388 497.725 284.318 498.519C283.387 499.623 282.679 501.02 282.196 502.711C281.955 503.884 281.247 504.229 280.074 503.746C277.348 502.469 275.054 500.727 273.19 498.519C272.604 497.621 272.31 497.621 272.31 498.519V500.692C272.31 501.728 271.793 502.314 270.758 502.452C268.998 502.625 267.238 502.849 265.478 503.125C264.374 503.298 263.822 502.866 263.822 501.831V500.434C263.822 499.571 263.287 499.485 262.218 500.175C259.63 501.693 256.697 502.883 253.419 503.746C252.384 504.022 251.78 503.936 251.607 503.487C251.469 503.073 251.952 502.504 253.057 501.779C255.437 500.054 257.214 497.932 258.388 495.413C258.733 494.585 258.491 494.171 257.663 494.171H254.454C253.419 494.171 252.798 493.981 252.591 493.602C252.349 493.084 252.712 492.825 253.678 492.825H262.528C263.391 492.825 263.822 492.411 263.822 491.583V490.289C263.822 489.426 263.253 489.012 262.114 489.047C260.251 489.047 258.319 489.099 256.317 489.202C255.282 489.202 254.713 489.133 254.609 488.995C254.54 488.823 255.023 488.598 256.059 488.322C261.545 486.977 266.686 485.148 271.482 482.836ZM242.86 483.302C243.033 482.991 243.585 482.836 244.517 482.836C248.105 482.698 250.727 483.612 252.384 485.579C253.315 486.821 253.488 488.219 252.901 489.771C252.211 491.152 251.314 491.911 250.21 492.049C248.278 492.497 246.846 491.514 245.914 489.099C245.983 487.787 245.431 486.407 244.258 484.958C243.223 484.061 242.757 483.509 242.86 483.302ZM241.101 492.722C241.204 492.48 241.756 492.359 242.757 492.359C243.999 492.359 245.258 492.515 246.535 492.825C250.434 493.998 251.935 496.345 251.038 499.864C250.9 500.485 250.348 501.106 249.382 501.728C247.346 502.763 245.672 502.159 244.361 499.916C244.016 499.226 243.878 498.536 243.947 497.846C243.74 496.742 243.274 495.706 242.55 494.74C241.411 493.705 240.928 493.032 241.101 492.722ZM272.31 503.229C273.38 502.469 274.502 502.418 275.675 503.073C276.951 503.798 278.228 504.574 279.505 505.402C279.815 505.954 279.453 506.438 278.418 506.852C278.107 506.921 277.642 507.352 277.02 508.146C276.33 509.043 276.106 509.491 276.348 509.491C276.658 509.457 277.331 508.956 278.366 507.99C279.229 507.231 280.212 507.197 281.316 507.887L285.095 510.371C286.716 510.958 286.837 511.751 285.457 512.752C284.939 513.132 284.577 513.839 284.37 514.874C283.887 517.255 283.145 519.17 282.144 520.619C280.695 521.516 278.418 521.948 275.312 521.913C274.174 521.913 273.518 521.396 273.346 520.36C273.208 518.842 272.31 517.824 270.654 517.307C269.826 517.065 269.412 516.772 269.412 516.427C269.447 516.082 269.981 515.909 271.017 515.909H274.795C275.623 515.909 276.192 515.392 276.503 514.356C276.71 513.632 276.848 512.907 276.917 512.183C276.951 511.354 276.641 510.94 275.985 510.94C275.33 510.94 274.881 511.078 274.64 511.354C274.433 511.631 273.811 511.769 272.776 511.769H268.739C267.704 511.769 267.463 511.251 268.015 510.216L269.981 506.696C270.499 505.799 270.257 505.351 269.257 505.351C268.222 505.351 267.583 505.868 267.342 506.903C266.686 510.181 265.772 512.769 264.599 514.667C264.046 515.875 262.822 517.1 260.924 518.342C258.888 519.549 256.576 520.481 253.988 521.137C253.057 521.344 252.677 521.516 252.85 521.654C253.954 522.034 255.541 522.275 257.611 522.379H286.44C287.476 522.379 288.01 522.534 288.045 522.845C288.045 523.155 287.855 523.5 287.476 523.88C286.613 525.26 286.113 526.934 285.975 528.9C285.906 529.936 285.353 530.453 284.318 530.453H260.561C256.766 529.66 253.66 527.158 251.245 522.948C250.658 521.879 249.986 521.844 249.227 522.845L244.672 529.056C243.844 529.953 243.292 531.057 243.016 532.368C242.187 532.748 241.497 532.092 240.945 530.401L238.668 525.743C238.219 524.708 238.513 523.983 239.548 523.569C240.41 523.155 241.273 522.793 242.136 522.482C243.205 521.965 243.74 521.292 243.74 520.464V508.094C243.74 507.231 243.326 506.8 242.498 506.8H240.376C239.341 506.8 238.702 506.558 238.461 506.075C238.288 505.592 238.84 505.368 240.117 505.402H242.394C243.223 505.402 244.154 504.954 245.189 504.057C246.225 503.16 247.26 503.039 248.295 503.694L251.918 506.075C252.919 506.903 253.419 507.404 253.419 507.576C253.281 507.783 252.988 508.025 252.539 508.301C252.056 508.611 251.814 509.181 251.814 510.009V518.652C251.952 519.791 252.522 520.015 253.522 519.325C255.006 518.187 256.145 516.996 256.938 515.754C258.181 513.546 258.957 510.509 259.268 506.645C259.337 505.782 258.957 505.351 258.129 505.351H256.938C255.903 505.351 255.282 505.161 255.075 504.781C254.834 504.264 255.196 504.005 256.162 504.005H270.033C270.861 504.005 271.62 503.746 272.31 503.229ZM331.362 483.768C332.363 482.732 333.346 482.508 334.312 483.095L336.848 484.596C338.16 485.389 338.884 485.907 339.022 486.148C339.022 486.39 338.798 486.735 338.349 487.184C337.728 487.598 337.418 488.184 337.418 488.943V497.173C337.418 498.243 337.625 498.432 338.039 497.742C338.315 497.225 338.901 497.363 339.799 498.156L341.869 500.02C342.904 501.02 343.439 501.59 343.473 501.728C343.439 502.073 342.99 502.487 342.128 502.97C341.576 503.211 341.3 503.746 341.3 504.574V517.669C341.265 519.601 340.006 520.861 337.521 521.447C336.244 521.689 334.951 521.844 333.639 521.913C332.466 521.913 331.828 521.396 331.724 520.36C331.69 519.118 331.172 517.962 330.172 516.893C329.619 516.479 329.343 516.099 329.343 515.754C329.378 515.478 329.913 515.34 330.948 515.34H331.776C332.639 515.34 333.07 514.926 333.07 514.098V502.97C333.07 502.107 332.656 501.676 331.828 501.676H320.079C319.216 501.676 318.785 502.09 318.785 502.918V519.273C318.785 520.309 318.267 520.912 317.232 521.085L312.988 521.706C311.884 521.879 311.332 521.447 311.332 520.412V499.347C311.332 498.312 311.849 497.949 312.884 498.26C313.264 498.329 313.644 498.45 314.023 498.622C314.851 498.864 315.265 498.57 315.265 497.742V484.854C315.265 483.819 315.783 483.457 316.818 483.768L320.441 485.01C321.062 485.217 321.787 485.32 322.615 485.32H328.671C329.499 485.32 330.396 484.803 331.362 483.768ZM299.272 483.561C299.445 483.215 299.997 483.043 300.928 483.043C304.448 482.939 307.226 483.664 309.261 485.217C310.4 486.321 310.866 487.563 310.659 488.943C310.245 491.221 308.951 492.411 306.777 492.515C304.569 492.342 303.206 491.203 302.688 489.099C302.654 487.511 301.946 486.131 300.566 484.958C299.634 484.268 299.203 483.802 299.272 483.561ZM330.379 488.012C330.379 487.149 329.965 486.718 329.136 486.718H323.391C322.529 486.718 322.097 487.132 322.097 487.96V498.933C322.097 499.795 322.339 500.227 322.822 500.227C323.34 500.227 323.598 499.812 323.598 498.984V491.687C323.598 490.651 324.116 490.306 325.151 490.651C326.773 491.41 328.05 491.704 328.981 491.531C329.913 491.531 330.379 491.117 330.379 490.289V488.012ZM297.823 492.67C297.961 492.325 298.479 492.152 299.376 492.152C301.86 492.152 303.948 492.515 305.638 493.239C306.846 493.757 307.778 494.568 308.433 495.672C309.399 497.397 309.261 499.122 308.019 500.848C306.777 502.159 305.414 502.573 303.93 502.09C302.205 501.296 301.256 500.089 301.084 498.467C301.153 497.087 300.549 495.706 299.272 494.326C298.237 493.429 297.754 492.877 297.823 492.67ZM330.379 494.378C330.379 493.446 330.137 492.98 329.654 492.98C329.033 492.98 328.722 493.395 328.722 494.223V498.933C328.722 499.795 328.981 500.227 329.499 500.227C330.085 500.227 330.379 499.812 330.379 498.984V494.378ZM301.498 504.678C302.395 503.47 303.344 503.16 304.344 503.746L308.537 506.282C309.641 507.041 310.038 507.731 309.727 508.353C309.106 509.008 308.796 509.75 308.796 510.578V518.601C308.865 519.291 308.985 519.981 309.158 520.671C309.365 521.499 309.865 522.068 310.659 522.379C312.074 522.724 313.626 522.931 315.317 523H343.059C344.094 523 344.629 523.173 344.664 523.518C344.629 523.863 344.439 524.208 344.094 524.553C343.37 525.622 342.939 527.054 342.8 528.849C342.8 529.918 342.283 530.453 341.248 530.453H317.698C314.04 529.832 310.814 527.02 308.019 522.017C307.571 521.188 306.932 521.326 306.104 522.431C304.344 524.846 302.654 527.261 301.032 529.677C300.652 530.746 300.394 531.316 300.256 531.385C299.738 531.488 299.358 531.264 299.117 530.712C298.082 528.78 297.116 526.847 296.218 524.915C295.701 523.776 295.891 523.017 296.788 522.638L299.531 521.603C300.359 521.223 300.773 520.619 300.773 519.791V508.922C300.773 508.059 300.359 507.628 299.531 507.628H297.823C296.788 507.628 296.167 507.438 295.96 507.059C295.718 506.507 296.063 506.23 296.995 506.23H299.117C299.945 506.23 300.739 505.713 301.498 504.678ZM320.441 504.885C320.441 503.85 320.959 503.556 321.994 504.005C323.616 504.937 324.841 505.316 325.669 505.144C326.462 505.144 327.152 504.833 327.739 504.212C328.257 503.66 329.085 503.729 330.223 504.419C330.43 504.488 330.655 504.626 330.896 504.833C332.104 505.73 332.587 506.386 332.345 506.8C332 507.214 331.828 507.835 331.828 508.663V512.648C331.828 513.684 331.31 514.287 330.275 514.46L328.722 514.667C327.48 514.805 326.859 514.65 326.859 514.201C326.859 513.684 326.6 513.425 326.083 513.425C325.496 513.425 325.203 513.787 325.203 514.512C325.203 515.271 324.685 515.737 323.65 515.909L321.994 516.116C320.959 516.22 320.441 515.754 320.441 514.719V504.885ZM326.859 507.887C326.859 507.024 326.6 506.593 326.083 506.593C325.496 506.593 325.203 507.007 325.203 507.835V510.733C325.203 511.596 325.462 512.027 325.979 512.027C326.566 512.027 326.859 511.613 326.859 510.785V507.887ZM358.117 484.078C358.255 482.974 358.824 482.543 359.825 482.784C362.516 483.371 365.207 484.026 367.899 484.751C368.623 485.476 368.33 486.062 367.019 486.511C366.605 486.649 366.139 487.235 365.622 488.271L364.328 490.6C363.776 491.497 363.896 491.945 364.69 491.945H367.588C368.589 492.359 369.883 491.324 371.47 488.84C372.264 487.908 373.213 487.874 374.317 488.736C375.007 489.254 375.697 489.823 376.387 490.444C377.353 491.169 377.836 491.117 377.836 490.289V488.374C377.836 487.339 378.354 486.977 379.389 487.287L383.012 488.529C384.772 489.461 387.084 489.771 389.948 489.461C390.776 489.461 391.707 489.012 392.743 488.115C393.95 487.115 395.02 486.925 395.952 487.546C397.125 488.236 398.298 488.978 399.471 489.771C400.23 490.186 400.782 490.686 401.127 491.272C401.196 491.514 400.972 491.859 400.455 492.308C399.868 492.687 399.575 493.291 399.575 494.119V526.105C399.575 527.141 399.057 527.762 398.022 527.969C396.297 528.176 394.571 528.435 392.846 528.745C391.811 528.849 391.293 528.383 391.293 527.348V523.621C391.293 522.758 390.879 522.327 390.051 522.327H387.153C386.29 522.327 385.859 522.741 385.859 523.569V526.778C385.859 527.813 385.341 528.435 384.306 528.642L379.648 529.366C378.44 529.504 377.836 529.056 377.836 528.021V510.371C377.836 509.508 377.422 509.077 376.594 509.077H369.71C368.882 509.077 368.347 509.56 368.106 510.526C367.933 511.493 368.399 512.269 369.503 512.855C372.954 514.581 375.231 516.737 376.335 519.325C377.198 521.672 377.371 523.742 376.853 525.536C376.059 527.054 375.197 527.882 374.265 528.021C372.298 528.504 370.763 527.606 369.659 525.329C369.176 524.156 368.9 522.776 368.831 521.188C368.796 519.774 368.434 518.1 367.744 516.168C367.33 515.271 366.95 515.374 366.605 516.479C364.293 522.31 360.204 527.054 354.338 530.712C353.303 531.333 352.699 531.506 352.527 531.229C352.423 530.953 352.768 530.281 353.562 529.211C357.806 523.311 360.135 517.013 360.549 510.319C360.584 509.491 360.187 509.077 359.359 509.077H355.373C354.338 509.077 353.717 508.887 353.51 508.508C353.303 507.956 353.665 507.68 354.597 507.68H359.462C360.29 507.68 360.756 507.162 360.86 506.127C361.101 503.608 361.222 500.468 361.222 496.707C361.222 495.879 360.791 495.948 359.928 496.914C358.582 498.605 356.702 500.572 354.287 502.814C353.251 503.712 352.648 504.091 352.475 503.953C352.303 503.815 352.441 503.229 352.889 502.193C355.442 496.431 357.185 490.393 358.117 484.078ZM391.293 492.308C391.293 491.376 390.914 490.91 390.155 490.91H387.153C386.29 490.91 385.859 491.324 385.859 492.152V519.636C385.859 520.498 386.273 520.93 387.101 520.93H389.999C390.862 520.93 391.293 520.516 391.293 519.688V492.308ZM377.836 493.912C377.836 492.98 377.716 492.635 377.474 492.877C377.233 493.188 376.594 493.343 375.559 493.343H370.849C370.021 493.343 369.572 493.86 369.503 494.896C369.503 497.794 369.245 501.607 368.727 506.334C368.658 507.231 368.762 507.68 369.038 507.68C369.383 507.611 369.986 507.059 370.849 506.023L372.091 504.471C372.885 503.574 373.851 503.591 374.99 504.522L376.594 505.816C377.422 506.472 377.836 506.386 377.836 505.558V493.912ZM421.205 484.13C422.102 483.129 423.051 483.008 424.052 483.768L425.605 485.01C426.536 485.769 426.899 486.373 426.692 486.821C426.347 487.304 425.656 487.546 424.621 487.546H414.425C413.39 487.546 412.769 487.356 412.562 486.977C412.32 486.459 412.683 486.2 413.649 486.2H418.152C419.083 486.614 420.101 485.924 421.205 484.13ZM431.298 484.182C431.298 483.146 431.798 482.663 432.799 482.732L438.492 483.146C439.838 483.388 440.563 483.63 440.666 483.871C440.873 484.285 440.528 484.699 439.631 485.113C439.113 485.389 438.855 485.941 438.855 486.77V487.856C438.855 488.926 439.165 489.099 439.786 488.374C440.338 487.615 440.925 487.546 441.546 488.167C442.202 488.823 442.53 488.633 442.53 487.598L442.426 484.182C442.426 483.146 442.944 482.663 443.979 482.732L450.707 483.457C451.19 483.457 451.535 483.733 451.742 484.285C451.777 484.872 451.415 485.269 450.655 485.476C450.138 485.786 449.879 486.217 449.879 486.77C449.879 487.322 449.948 487.546 450.086 487.442C450.259 487.235 450.863 487.322 451.898 487.701C453.381 488.253 454.744 488.874 455.987 489.564C458.195 491.6 458.557 493.636 457.073 495.672C455.521 497.535 454.037 497.828 452.622 496.552C452.036 495.931 451.742 495.034 451.742 493.86C451.639 492.273 451.328 490.893 450.811 489.72C450.19 488.616 449.879 488.685 449.879 489.927V500.537C449.879 501.434 450.086 501.883 450.5 501.883C450.914 501.883 451.587 501.365 452.519 500.33L452.933 499.812C453.933 498.708 454.917 498.536 455.883 499.295L457.539 500.589C458.609 501.451 459.023 502.107 458.781 502.556C458.471 503.039 457.798 503.28 456.763 503.28H451.277C450.448 503.28 450.034 503.798 450.034 504.833L450.345 507.835C450.552 508.663 450.724 509.025 450.863 508.922C451.277 507.956 451.604 506.99 451.846 506.023C452.191 504.885 452.847 504.66 453.813 505.351L457.332 507.887C458.54 508.818 459.161 509.405 459.196 509.646C459.127 510.233 458.73 510.475 458.005 510.371C457.591 510.371 457.125 510.889 456.608 511.924C455.745 513.718 454.796 515.564 453.761 517.462C452.76 518.29 452.95 519.601 454.33 521.396C454.848 522.155 455.383 521.948 455.935 520.774C456.245 520.05 456.608 519.308 457.022 518.549C457.574 517.548 457.988 517.117 458.264 517.255C458.609 517.358 458.678 517.945 458.471 519.015C457.505 522.258 457.367 524.829 458.057 526.727C458.505 527.865 458.247 529.021 457.28 530.194C455.969 531.506 454.589 531.782 453.14 531.022C451.691 530.367 450.19 529.021 448.637 526.985C447.981 526.019 447.119 525.933 446.049 526.727C442.944 528.693 438.803 530.108 433.627 530.971C432.488 531.143 431.85 531.091 431.712 530.815C431.643 530.643 432.178 530.281 433.317 529.729C438.078 527.417 441.822 524.691 444.548 521.551C445.204 520.723 445.376 519.791 445.066 518.756C444.341 516.064 443.841 512.89 443.565 509.232C443.496 508.37 443.237 508.197 442.788 508.715C442.271 509.129 442.012 509.75 442.012 510.578V521.344C442.012 522.379 441.494 522.965 440.459 523.104L437.871 523.414C436.629 523.518 436.008 523.104 436.008 522.172C436.008 521.171 435.715 520.671 435.128 520.671C434.473 520.671 434.145 521.085 434.145 521.913V524.035C434.145 525.07 433.627 525.657 432.592 525.795L429.901 526.105C428.865 526.209 428.348 525.743 428.348 524.708V505.972C428.348 504.937 428.865 504.643 429.901 505.092C430.418 505.264 430.936 505.489 431.453 505.765C433.041 506.662 434.162 507.024 434.818 506.852C435.611 506.852 436.388 506.438 437.147 505.609C437.871 504.781 438.786 504.712 439.89 505.402L441.96 506.696C442.892 507.352 443.358 507.266 443.358 506.438L443.202 504.522C443.099 503.694 442.633 503.28 441.805 503.28H426.847C425.812 503.28 425.191 503.09 424.984 502.711C424.777 502.159 425.139 501.883 426.071 501.883H428.762C429.625 501.883 429.866 501.348 429.487 500.278C429.487 497.863 429.159 495.81 428.503 494.119C427.986 493.084 427.83 492.428 428.037 492.152C428.21 491.842 428.831 491.928 429.901 492.411C433.627 493.688 435.37 495.862 435.128 498.933C435.025 499.45 434.835 500.02 434.559 500.641C433.972 501.469 434.007 501.883 434.662 501.883C435.318 501.883 435.766 501.365 436.008 500.33L437.354 492.773C437.492 491.911 437.147 491.479 436.319 491.479H427.882C426.847 491.479 426.209 491.238 425.967 490.755C425.794 490.272 426.226 490.03 427.261 490.03H430.004C430.867 490.03 431.298 489.616 431.298 488.788V484.182ZM421.05 490.496C422.051 489.426 423.034 489.254 424 489.979L425.449 491.117C426.657 492.083 427.123 492.808 426.847 493.291C426.605 493.74 425.967 493.964 424.932 493.964H413.597C412.562 493.964 411.958 493.774 411.785 493.395C411.544 492.842 411.889 492.566 412.821 492.566H417.996C418.928 492.98 419.946 492.29 421.05 490.496ZM442.685 492.411C442.616 491.79 442.184 491.479 441.391 491.479H440.045C438.906 491.479 438.82 491.687 439.786 492.101C440.304 492.239 440.822 492.428 441.339 492.67C442.236 493.015 442.685 492.929 442.685 492.411ZM421.257 496.914C422.12 495.948 423.051 495.844 424.052 496.604L425.553 497.794C426.519 498.553 426.899 499.174 426.692 499.657C426.347 500.14 425.656 500.382 424.621 500.382H414.218C413.183 500.382 412.562 500.192 412.355 499.812C412.113 499.26 412.458 498.984 413.39 498.984H418.203C419.135 499.398 420.153 498.708 421.257 496.914ZM442.84 497.483C442.806 496.552 442.374 496.586 441.546 497.587L439.062 500.641C438.441 501.469 438.544 501.883 439.372 501.883H441.753C442.581 501.883 442.978 501.365 442.944 500.33L442.84 497.483ZM421.464 503.539C422.327 502.573 423.241 502.452 424.207 503.177L425.656 504.315C426.692 505.144 427.106 505.799 426.899 506.282C426.588 506.765 425.915 507.007 424.88 507.007H414.218C413.183 507.007 412.562 506.817 412.355 506.438C412.113 505.885 412.458 505.609 413.39 505.609H418.41C419.342 506.023 420.36 505.333 421.464 503.539ZM436.008 509.646C436.008 508.749 435.715 508.301 435.128 508.301C434.473 508.301 434.145 508.715 434.145 509.543V511.562C434.145 512.424 434.438 512.855 435.025 512.855C435.68 512.855 436.008 512.441 436.008 511.613V509.646ZM412.199 510.526C412.199 509.457 412.7 509.146 413.7 509.595L417.272 511.147C417.962 511.458 418.686 511.613 419.446 511.613C420.239 511.613 420.964 511.199 421.619 510.371C422.275 509.577 423.155 509.526 424.259 510.216L426.329 511.51C427.744 512.062 428.141 512.769 427.52 513.632C427.106 514.115 426.899 514.719 426.899 515.443V527.813C426.899 528.849 426.381 529.435 425.346 529.573C424.311 529.608 423.276 529.694 422.24 529.832C421.205 529.901 420.688 529.401 420.688 528.331C420.688 527.227 420.308 526.675 419.549 526.675C418.755 526.675 418.359 527.21 418.359 528.279C418.359 529.383 417.841 530.022 416.806 530.194L413.752 530.608C412.717 530.712 412.199 530.246 412.199 529.211V510.526ZM420.688 514.408C420.688 513.546 420.308 513.114 419.549 513.114C418.755 513.114 418.359 513.528 418.359 514.356V523.983C418.359 524.846 418.738 525.277 419.497 525.277C420.291 525.277 420.688 524.863 420.688 524.035V514.408ZM436.008 515.599C436.008 514.701 435.715 514.253 435.128 514.253C434.473 514.253 434.145 514.667 434.145 515.495V517.979C434.145 518.842 434.438 519.273 435.025 519.273C435.68 519.273 436.008 518.859 436.008 518.031V515.599ZM473.373 484.026C473.546 482.819 474.08 482.318 474.978 482.525C477.6 483.043 480.222 483.63 482.845 484.285C483.328 484.389 483.742 484.561 484.087 484.803C484.432 485.458 484.104 485.993 483.103 486.407C482.655 486.58 482.31 486.908 482.068 487.391C481.861 487.943 482.155 488.219 482.948 488.219H492.058C492.92 488.219 493.352 487.805 493.352 486.977V483.819C493.352 482.784 493.869 482.284 494.904 482.318L501.633 482.732C502.668 483.112 503.203 483.388 503.237 483.561C503.237 483.975 502.892 484.337 502.202 484.647C501.823 484.82 501.633 485.441 501.633 486.511C501.633 487.649 502.047 488.219 502.875 488.219H505.515C506.446 488.667 507.602 487.822 508.982 485.683C509.845 484.682 510.811 484.596 511.881 485.424L513.485 486.666C514.797 487.701 515.297 488.426 514.986 488.84C514.607 489.357 513.934 489.616 512.968 489.616H502.927C502.064 489.616 501.633 490.134 501.633 491.169C501.633 492.273 502.047 492.825 502.875 492.825H504.014C504.842 492.825 505.773 492.325 506.809 491.324C507.878 490.358 508.931 490.237 509.966 490.962C511.173 491.721 512.381 492.532 513.589 493.395C515.142 494.085 515.383 494.861 514.313 495.724C513.83 496 513.589 496.552 513.589 497.38V504.988C513.589 506.023 513.399 506.593 513.02 506.696C512.502 506.8 512.795 507.076 513.899 507.524C516.66 509.388 516.884 511.527 514.572 513.942C513.744 514.529 513.761 515.167 514.624 515.857C515.728 516.755 516.142 517.427 515.866 517.876C515.59 518.359 514.935 518.601 513.899 518.601H509.138C508.275 518.601 507.844 519.015 507.844 519.843V528.124C507.602 529.435 506.895 530.35 505.722 530.867C504.617 531.316 503.099 531.575 501.167 531.644C499.856 531.644 499.097 531.126 498.89 530.091C498.545 528.642 497.734 527.486 496.457 526.623C495.318 526.105 494.766 525.691 494.801 525.381C494.835 525.174 495.37 525.07 496.405 525.07H498.269C499.131 525.07 499.562 524.656 499.562 523.828V519.895C499.562 519.032 499.148 518.601 498.32 518.601H487.555C486.796 518.601 486.865 518.79 487.762 519.17C488.935 519.515 490.108 519.929 491.281 520.412C493.248 521.275 494.128 522.638 493.921 524.501C493.265 526.882 491.937 528.107 489.936 528.176C488.728 528.141 487.796 527.503 487.141 526.261C486.899 523.914 486.45 522.189 485.795 521.085C484.76 519.877 484.328 519.153 484.501 518.911C484.604 518.704 484.242 518.601 483.414 518.601H482.327C481.292 518.601 480.688 518.411 480.516 518.031C480.24 517.479 480.567 517.203 481.499 517.203H482.638C483.5 517.203 483.656 516.668 483.103 515.599L481.085 511.51C480.602 510.475 480.878 509.94 481.913 509.905H489.728L492.058 509.854C492.92 509.854 493.352 509.439 493.352 508.611V506.852C493.352 505.989 492.937 505.558 492.109 505.558H490.867C490.005 505.558 489.573 505.782 489.573 506.23C489.573 506.714 489.056 507.059 488.02 507.266C486.468 507.473 484.915 507.731 483.362 508.042C482.327 508.18 481.81 507.731 481.81 506.696V491.687C481.81 490.651 482.327 490.306 483.362 490.651C484.57 491.031 485.778 491.462 486.985 491.945C488.607 492.635 489.763 492.929 490.453 492.825H492.058C492.92 492.825 493.352 492.308 493.352 491.272C493.352 490.168 492.937 489.616 492.109 489.616H483.776C482.741 489.616 482.12 489.426 481.913 489.047C481.706 488.633 481.361 488.961 480.878 490.03C479.843 492.48 478.549 494.93 476.996 497.38C476.444 498.208 476.72 498.726 477.824 498.933C478.342 499.002 478.911 499.14 479.532 499.347C480.291 499.657 480.171 500.106 479.17 500.692C478.928 500.761 478.808 501.21 478.808 502.038V529.056C478.808 530.091 478.29 530.677 477.255 530.815C475.702 530.919 474.132 531.074 472.545 531.281C471.51 531.35 470.992 530.867 470.992 529.832V506.8C470.992 505.903 470.526 505.972 469.595 507.007L469.129 507.524C468.025 508.663 467.386 509.198 467.214 509.129C467.007 508.991 467.093 508.404 467.473 507.369C470.406 500.261 472.372 492.48 473.373 484.026ZM493.352 495.465C493.352 494.602 492.937 494.171 492.109 494.171H490.867C490.005 494.171 489.573 494.585 489.573 495.413V497.276C489.573 498.139 489.987 498.57 490.815 498.57H492.058C492.92 498.57 493.352 498.156 493.352 497.328V495.465ZM505.359 495.465C505.359 494.602 504.945 494.171 504.117 494.171H502.927C502.064 494.171 501.633 494.585 501.633 495.413V497.276C501.633 498.139 502.047 498.57 502.875 498.57H504.065C504.928 498.57 505.359 498.156 505.359 497.328V495.465ZM493.352 501.365C493.352 500.434 492.972 499.968 492.213 499.968H490.867C490.005 499.968 489.573 500.382 489.573 501.21V502.866C489.573 503.729 489.987 504.16 490.815 504.16H492.058C492.92 504.16 493.352 503.746 493.352 502.918V501.365ZM505.359 501.365C505.359 500.434 504.98 499.968 504.221 499.968H502.927C502.064 499.968 501.633 500.382 501.633 501.21V502.866C501.633 503.729 502.047 504.16 502.875 504.16H504.065C504.928 504.16 505.359 503.746 505.359 502.918V501.365ZM505.359 506.748C505.359 505.954 504.945 505.558 504.117 505.558H502.927C502.064 505.558 501.633 505.972 501.633 506.8V508.508C501.633 509.37 502.047 509.802 502.875 509.802H507.844C508.706 509.802 508.913 509.422 508.465 508.663C507.982 507.455 507.085 507.162 505.773 507.783C505.497 507.818 505.359 507.473 505.359 506.748ZM510.069 512.752C509.759 511.786 509.034 511.406 507.895 511.613C506.343 511.924 504.773 512.286 503.186 512.7C502.392 512.942 502.426 513.132 503.289 513.27L506.809 513.477C507.43 513.477 508.103 513.597 508.827 513.839C509.483 514.391 509.379 514.891 508.517 515.34C508.068 515.616 507.844 515.961 507.844 516.375C507.844 516.893 507.982 517.169 508.258 517.203C508.499 517.203 509.017 516.772 509.811 515.909C510.673 514.909 510.759 513.856 510.069 512.752ZM497.854 513.891C494.991 514.443 491.436 515.185 487.192 516.116C486.364 516.289 485.916 516.479 485.847 516.686C485.743 517.031 486.071 517.203 486.83 517.203H498.269C499.131 517.203 499.562 516.789 499.562 515.961V514.822C499.562 513.994 498.993 513.684 497.854 513.891ZM557.372 484.233C558.476 483.129 559.546 482.957 560.581 483.716L566.378 487.701C566.999 488.046 567.292 488.616 567.258 489.409C566.878 490.03 566.222 490.237 565.291 490.03C564.497 489.858 563.376 490.117 561.927 490.807C559.891 491.531 557.855 492.308 555.819 493.136C554.853 493.481 554.491 493.722 554.732 493.86C555.319 494.274 555.163 494.775 554.266 495.361C553.818 495.568 553.594 496.086 553.594 496.914V498.208C553.594 499.036 553.887 499.174 554.473 498.622C555.025 498.035 555.716 498.035 556.544 498.622C557.406 499.243 557.769 499.036 557.631 498.001C557.493 497.207 557.406 496.396 557.372 495.568C557.268 494.533 557.441 494.016 557.889 494.016C558.338 494.016 558.683 494.533 558.925 495.568C559.27 497.259 559.822 499.157 560.581 501.262C561.029 502.331 561.581 502.366 562.237 501.365C563.307 499.709 564.445 497.639 565.653 495.154C566.205 494.016 566.947 493.791 567.879 494.481C569.707 495.965 571.588 497.432 573.52 498.881C574.072 499.26 574.21 499.709 573.934 500.227C573.762 500.33 573.399 500.382 572.847 500.382C572.295 500.382 571.674 500.554 570.984 500.899C568.603 502.107 566.205 503.246 563.79 504.315C562.824 504.729 562.513 505.282 562.858 505.972C565.239 509.698 568.465 512.666 572.537 514.874C573.572 515.495 574.09 515.995 574.09 516.375C574.09 516.755 573.572 517.376 572.537 518.238C570.674 520.378 569.656 522.672 569.483 525.122C569.345 526.123 568.759 526.088 567.723 525.019C565.343 522.396 563.445 519.636 562.03 516.737C561.547 515.702 561.254 515.288 561.15 515.495C560.978 515.771 560.391 515.909 559.39 515.909H554.887C554.025 515.909 553.594 516.323 553.594 517.151V526.882C553.939 529.125 552.765 530.608 550.074 531.333C548.28 531.713 546.347 531.885 544.277 531.851C543.242 531.851 542.621 531.333 542.414 530.298C542.138 528.228 540.896 526.451 538.687 524.967C537.342 524.38 536.669 523.949 536.669 523.673C536.703 523.362 537.238 523.207 538.273 523.207H544.07C544.933 523.207 545.364 522.793 545.364 521.965V517.203C545.364 516.34 544.95 515.909 544.122 515.909H537.186C536.358 515.909 535.565 516.427 534.805 517.462C532.459 520.533 529.63 523.138 526.317 525.277C525.213 525.967 524.54 526.192 524.299 525.95C523.988 525.64 524.195 524.967 524.92 523.932C528.094 519.411 530.233 514.063 531.338 507.887C531.821 505.333 532.218 502.763 532.528 500.175C532.597 499.347 532.218 498.933 531.389 498.933H526.472C525.437 498.933 524.816 498.743 524.609 498.363C524.368 497.811 524.713 497.535 525.644 497.535H531.596C532.425 497.535 533.304 497.018 534.236 495.982C535.168 494.947 536.151 494.757 537.186 495.413L540.809 497.794C542.086 498.346 542.673 499.036 542.569 499.864C542.431 500.106 542.845 500.227 543.811 500.227C544.846 500.227 545.364 499.812 545.364 498.984V494.637C545.364 493.602 545.968 493.101 547.176 493.136C547.693 493.101 548.28 493.118 548.935 493.188C549.763 493.222 550.626 492.756 551.523 491.79C552.386 490.755 553.3 489.72 554.266 488.685C554.991 487.787 554.974 487.339 554.215 487.339H532.683C531.648 487.339 531.01 487.097 530.768 486.614C530.596 486.131 531.027 485.89 532.062 485.89H554.473C555.302 485.89 556.268 485.338 557.372 484.233ZM541.12 501.469C540.982 501.193 540.809 501.607 540.602 502.711L539.878 505.816C539.705 506.645 540.033 507.059 540.861 507.059H544.07C544.933 507.059 545.364 506.645 545.364 505.816V502.97C545.364 502.107 544.95 501.676 544.122 501.676H542.828C541.793 501.676 541.223 501.607 541.12 501.469ZM558.303 502.97C558.2 502.107 557.734 501.676 556.906 501.676H554.887C554.025 501.676 553.594 502.09 553.594 502.918V505.04C553.594 505.937 553.956 506.023 554.68 505.299C555.371 504.574 556.181 504.54 557.113 505.195L557.786 505.713C558.58 506.299 558.873 506.023 558.666 504.885C558.493 504.264 558.372 503.625 558.303 502.97ZM559.183 508.301C559.045 508.439 558.459 508.508 557.424 508.508H554.887C554.025 508.508 553.594 508.922 553.594 509.75V513.218C553.594 514.046 553.749 514.477 554.059 514.512C554.335 514.512 554.939 513.96 555.871 512.855C556.872 511.613 557.872 511.389 558.873 512.183C560.391 513.666 560.874 513.632 560.322 512.079C560.115 511.527 559.96 510.958 559.856 510.371C559.684 509.405 559.459 508.715 559.183 508.301ZM545.364 509.905C545.364 508.974 544.984 508.508 544.225 508.508H540.395C539.567 508.508 538.963 509.025 538.584 510.061L537.29 513.27C536.91 514.098 537.135 514.512 537.963 514.512H544.07C544.933 514.512 545.364 514.098 545.364 513.27V509.905ZM599.654 500.951C599.93 500.468 600.516 500.296 601.414 500.434C604.105 500.848 606.745 501.676 609.333 502.918C612.472 504.919 613.611 507.49 612.749 510.63C611.644 513.356 609.798 514.374 607.21 513.684C606.382 513.477 605.623 512.786 604.933 511.613C604.623 510.923 604.191 509.543 603.639 507.473C603.018 505.609 602.138 504.039 601 502.763C599.93 501.9 599.481 501.296 599.654 500.951ZM680.34 483.302C681.134 482.336 682.048 482.267 683.083 483.095L685.671 485.217C686.568 486.045 686.862 486.666 686.551 487.08C686.206 487.529 685.516 487.753 684.481 487.753H659.896C659.033 487.753 658.516 488.288 658.343 489.357C657.756 492.014 657.222 494.671 656.739 497.328C656.635 498.156 656.997 498.57 657.825 498.57H669.005C669.833 498.57 670.748 498.053 671.748 497.018C672.162 496.5 672.628 495.982 673.146 495.465C674.077 494.533 675.095 494.43 676.199 495.154L680.34 497.846C681.479 498.467 682.203 499.088 682.514 499.709C682.686 500.192 682.255 500.623 681.22 501.003C680.53 501.279 680.081 501.935 679.874 502.97C678.632 511.009 677.442 519.049 676.303 527.089C676.165 527.917 676.234 528.366 676.51 528.435C676.786 528.435 677.355 527.882 678.218 526.778L680.34 524.087C681.168 523.121 682.117 523.104 683.187 524.035L686.758 527.089C687.759 527.951 688.087 528.59 687.741 529.004C687.327 529.521 686.637 529.78 685.671 529.78H641.108C640.073 529.78 639.451 529.59 639.244 529.211C639.003 528.693 639.365 528.435 640.331 528.435H664.813C665.641 528.435 666.158 527.917 666.365 526.882L667.763 518.29C667.901 517.427 667.556 516.996 666.728 516.996H654.099C653.236 516.996 652.701 517.531 652.494 518.601L652.184 520.102C651.942 521.24 651.304 521.81 650.269 521.81H644.42C643.385 521.81 642.954 521.292 643.126 520.257C645.197 509.836 647.319 499.416 649.492 488.995C649.63 488.167 649.285 487.753 648.457 487.753H641.729C640.694 487.753 640.073 487.563 639.865 487.184C639.624 486.666 639.986 486.407 640.952 486.407H676.51C677.338 486.407 678.184 485.89 679.046 484.854C679.426 484.337 679.857 483.819 680.34 483.302ZM670.661 501.365C670.799 500.434 670.489 499.968 669.73 499.968H657.463C656.601 499.968 656.083 500.503 655.91 501.572L653.323 514.253C653.15 515.116 653.478 515.547 654.306 515.547H666.935C667.763 515.547 668.281 515.029 668.488 513.994C669.281 509.785 670.006 505.575 670.661 501.365ZM723.295 484.078C723.295 482.974 723.778 482.456 724.744 482.525C726.952 482.629 729.161 482.784 731.369 482.991C732.404 483.198 732.991 483.388 733.129 483.561C733.37 483.94 733.146 484.406 732.456 484.958C731.973 485.2 731.731 485.734 731.731 486.562L731.68 493.291C731.68 494.154 732.146 494.585 733.077 494.585C734.043 494.585 734.992 494.067 735.924 493.032C736.131 492.86 736.286 492.687 736.39 492.515C737.459 491.376 738.512 491.169 739.547 491.894L744.567 495.413C745.465 496.276 745.396 496.949 744.36 497.432C743.808 497.811 743.532 498.415 743.532 499.243C743.567 510.457 742.98 519.394 741.772 526.054C741.22 527.882 740.323 529.176 739.081 529.936C737.528 530.764 735.441 531.264 732.818 531.437C731.611 531.437 730.972 530.919 730.903 529.884C730.8 528.745 730.558 527.537 730.179 526.261C729.834 525.088 729.092 524.208 727.953 523.621C726.918 523.276 726.4 522.896 726.4 522.482C726.4 522.034 726.918 521.81 727.953 521.81H732.404C733.232 521.81 733.733 521.292 733.905 520.257C734.699 513.011 735.096 505.368 735.096 497.328C735.096 496.465 734.682 496.034 733.854 496.034H732.87C732.042 496.034 731.593 496.552 731.524 497.587C731.421 504.384 730.765 509.819 729.558 513.891C727.97 520.654 723.295 526.261 715.531 530.712C714.393 531.333 713.72 531.54 713.513 531.333C713.271 531.022 713.616 530.436 714.548 529.573C718.136 526.33 720.362 523.035 721.225 519.688C721.466 518.756 721.052 518.583 719.982 519.17L701.971 528.9C701.626 529.176 701.384 529.487 701.246 529.832C700.798 530.764 700.28 531.229 699.693 531.229C699.314 531.057 699.021 530.695 698.813 530.143L696.226 521.861C695.915 520.826 696.277 520.222 697.312 520.05C697.485 520.084 697.658 520.067 697.83 519.998C698.658 519.895 699.072 519.429 699.072 518.601V485.01C699.072 483.975 699.59 483.664 700.625 484.078L704.248 485.683C706.146 486.649 707.509 487.063 708.337 486.925H709.631C710.632 487.339 711.58 486.649 712.478 484.854C713.202 483.923 714.134 483.802 715.272 484.492L719.413 487.028C720.517 487.511 720.655 488.15 719.827 488.943C719.206 489.53 718.896 490.237 718.896 491.065V493.291C718.896 494.154 719.31 494.585 720.138 494.585H721.949C722.812 494.585 723.243 494.171 723.243 493.343L723.295 490.444V484.078ZM711.08 489.771C711.08 488.874 710.683 488.426 709.89 488.426H708.026C707.164 488.426 706.732 488.84 706.732 489.668V496.241C706.732 497.104 707.146 497.535 707.975 497.535H709.786C710.649 497.535 711.08 497.121 711.08 496.293V489.771ZM723.191 497.328C723.191 496.465 722.777 496.034 721.949 496.034H720.189C719.327 496.034 718.896 496.448 718.896 497.276V516.064C718.896 516.893 719.396 517.272 720.396 517.203C721.397 517.134 722.018 516.565 722.26 515.495C722.846 511.838 723.157 505.782 723.191 497.328ZM711.08 500.33C711.08 499.398 710.701 498.933 709.941 498.933H708.026C707.164 498.933 706.732 499.347 706.732 500.175V506.593C706.732 507.455 707.146 507.887 707.975 507.887H709.786C710.649 507.887 711.08 507.473 711.08 506.645V500.33ZM711.08 510.682C711.08 509.75 710.701 509.284 709.941 509.284H708.026C707.164 509.284 706.732 509.698 706.732 510.526V517.565C706.732 518.394 707.25 518.773 708.285 518.704L709.734 518.497C710.632 518.359 711.08 517.893 711.08 517.1V510.682ZM791.87 484.751C793.043 483.612 794.13 483.336 795.131 483.923L799.582 486.614C801.273 487.235 801.514 488.012 800.306 488.943C799.858 489.288 799.634 489.84 799.634 490.6V526.882C799.53 528.228 798.823 529.452 797.511 530.557C795.717 531.454 793.319 531.885 790.317 531.851C789.282 531.851 788.661 531.333 788.454 530.298C788.419 528.159 787.091 526.312 784.469 524.76C783.433 524.346 782.916 523.983 782.916 523.673C782.95 523.362 783.485 523.207 784.52 523.207H789.282C790.145 523.207 790.576 522.793 790.576 521.965V489.047C790.576 488.184 790.162 487.753 789.334 487.753H764.749C763.886 487.753 763.455 488.167 763.455 488.995V529.056C763.455 530.091 762.937 530.695 761.902 530.867C760.177 531.074 758.452 531.333 756.726 531.644C755.691 531.747 755.174 531.281 755.174 530.246V485.269C755.174 484.233 755.691 483.871 756.726 484.182L760.349 485.372C762.282 486.2 763.679 486.545 764.542 486.407H788.971C789.8 486.407 790.766 485.855 791.87 484.751ZM783.019 491.687C783.916 490.651 784.865 490.513 785.866 491.272L787.936 492.929C788.937 493.791 789.282 494.447 788.971 494.896C788.626 495.379 787.936 495.62 786.901 495.62H767.13C766.094 495.62 765.473 495.43 765.266 495.051C765.025 494.499 765.37 494.223 766.302 494.223H779.552C780.483 494.671 781.639 493.826 783.019 491.687ZM780.483 500.537C781.518 499.64 782.553 499.502 783.589 500.123C784.796 500.848 786.004 501.624 787.212 502.452C788.178 503.315 788.678 503.815 788.713 503.953C788.506 504.471 788.161 504.781 787.677 504.885C787.263 505.092 787.056 505.609 787.056 506.438V518.083C787.056 519.118 786.539 519.722 785.504 519.895L780.845 520.412C779.603 520.55 778.982 520.102 778.982 519.066V517.617C778.982 516.755 778.568 516.323 777.74 516.323H775.514C774.652 516.323 774.22 516.737 774.22 517.565V518.859C774.22 519.895 773.703 520.516 772.668 520.723L768.32 521.447C767.147 521.689 766.56 521.326 766.56 520.36V501.003C766.56 499.968 767.078 499.605 768.113 499.916L771.736 501.158C773.082 501.883 775.066 502.124 777.688 501.883C778.516 501.883 779.448 501.434 780.483 500.537ZM778.982 504.574C778.982 503.712 778.568 503.28 777.74 503.28H775.514C774.652 503.28 774.22 503.694 774.22 504.522V513.632C774.22 514.494 774.635 514.926 775.463 514.926H777.688C778.551 514.926 778.982 514.512 778.982 513.684V504.574ZM818.78 484.078C819.056 482.974 819.677 482.525 820.643 482.732L828.303 484.44C828.89 484.509 829.287 484.785 829.494 485.269C829.632 485.821 829.218 486.252 828.252 486.562C827.975 486.632 827.648 486.873 827.268 487.287C826.267 488.736 824.784 490.462 822.817 492.463C821.92 493.257 821.903 493.774 822.765 494.016C824.663 494.464 826.613 494.982 828.614 495.568C829.476 495.706 830.063 495.913 830.374 496.189C830.822 496.707 830.581 497.156 829.649 497.535C828.993 497.811 828.597 498.087 828.459 498.363C828.252 498.777 828.545 498.984 829.338 498.984H848.385C849.213 498.984 850.076 498.467 850.973 497.432L852.681 495.361C853.613 494.361 854.596 494.292 855.631 495.154L858.219 497.328C859.496 498.432 859.945 499.209 859.565 499.657C859.185 500.14 858.495 500.382 857.495 500.382H853.458C852.595 500.382 852.164 500.796 852.164 501.624V526.209C852.405 527.624 852.043 528.831 851.077 529.832C849.558 531.109 846.936 531.713 843.21 531.644C842.174 531.644 841.553 531.126 841.346 530.091C840.967 527.365 839.224 525.208 836.119 523.621C834.946 523.138 834.359 522.827 834.359 522.689C834.359 522.344 834.877 522.172 835.912 522.172H841.76C842.623 522.172 843.054 521.758 843.054 520.93V501.676C843.054 500.813 842.64 500.382 841.812 500.382H829.701C828.666 500.382 828.079 500.244 827.941 499.968C827.837 499.761 827.406 500.227 826.647 501.365L825.457 502.97C824.732 503.867 824.508 504.367 824.784 504.471C825.577 504.643 825.629 505.092 824.939 505.816C824.559 506.127 824.37 506.696 824.37 507.524V529.211C824.37 530.246 823.852 530.833 822.817 530.971C821.264 531.074 819.711 531.229 818.159 531.437C816.951 531.54 816.347 531.074 816.347 530.039V512.39C816.347 511.527 815.812 511.372 814.743 511.924L812.207 513.114C811.102 513.597 810.481 513.77 810.343 513.632C810.171 513.39 810.568 512.786 811.534 511.82C815.95 506.99 818.711 501.831 819.815 496.345C820.057 495.31 819.798 495.103 819.039 495.724C817.037 497.242 815.122 498.553 813.294 499.657C812.258 500.278 811.637 500.52 811.43 500.382C811.327 500.209 811.637 499.605 812.362 498.57C815.674 493.602 817.814 488.771 818.78 484.078ZM848.851 484.492C849.955 483.112 850.99 482.836 851.957 483.664L854.907 486.252C855.907 487.149 856.27 487.805 855.994 488.219C855.649 488.736 854.993 488.995 854.027 488.995H833.686C832.651 488.995 832.047 488.805 831.875 488.426C831.599 487.874 831.926 487.598 832.858 487.598H845.073C845.901 487.598 846.746 487.08 847.609 486.045L848.851 484.492ZM890.098 502.349C892.755 501.21 895.084 501.935 897.085 504.522C899.121 508.836 897.379 512.873 891.858 516.634C890.823 517.255 890.115 517.393 889.736 517.048C889.287 516.599 889.546 515.926 890.512 515.029C891.892 513.684 892.393 512.614 892.013 511.82C891.84 511.475 891.409 511.216 890.719 511.044C888.235 510.319 887.131 508.698 887.407 506.179C887.614 504.557 888.511 503.28 890.098 502.349ZM949.408 483.819C949.408 482.715 949.909 482.198 950.909 482.267C954.015 482.508 957.12 482.801 960.226 483.146C961.364 483.699 961.278 484.406 959.967 485.269C959.277 485.717 958.932 486.355 958.932 487.184V491.014C958.932 491.876 959.346 492.308 960.174 492.308H961.985C962.814 492.308 963.659 491.79 964.522 490.755L966.592 488.167C967.42 487.132 968.352 487.046 969.387 487.908L973.01 490.962C974.045 491.859 974.39 492.549 974.045 493.032C973.631 493.515 972.906 493.757 971.871 493.757H960.226C959.363 493.757 958.932 494.171 958.932 494.999V525.95C958.173 529.263 955.982 531.057 952.358 531.333L949.201 531.644C947.994 531.644 947.321 531.126 947.183 530.091C947.148 529.159 946.855 527.951 946.303 526.468C945.578 525.26 944.647 524.397 943.508 523.88C942.473 523.362 941.955 522.948 941.955 522.638C941.99 522.327 942.524 522.172 943.56 522.172H948.114C948.977 522.172 949.408 521.758 949.408 520.93V505.454C949.408 504.557 949.011 504.695 948.218 505.868C946.079 508.732 943.663 511.268 940.972 513.477C936.452 516.962 932 519.618 927.618 521.447C926.583 521.896 925.979 521.93 925.807 521.551C925.669 521.171 926.117 520.567 927.152 519.739C933.087 515.116 937.573 509.871 940.609 504.005C942.266 500.796 943.646 497.794 944.75 494.999C945.026 494.171 944.75 493.757 943.922 493.757H928.084C927.049 493.757 926.411 493.515 926.169 493.032C925.962 492.549 926.376 492.308 927.411 492.308H948.114C948.977 492.308 949.408 491.894 949.408 491.065V483.819ZM989.465 483.871C989.706 482.767 990.31 482.336 991.276 482.577L994.847 483.405C996.159 483.716 997.47 484.078 998.781 484.492C999.402 485.148 999.005 485.752 997.591 486.304C997.315 486.511 997.039 486.821 996.763 487.235C995.589 489.202 993.933 491.186 991.794 493.188C990.931 493.947 991.121 494.292 992.363 494.223L999.661 493.86C1000.63 493.757 1001.02 493.36 1000.85 492.67L1000.28 490.962C999.626 489.685 999.385 488.909 999.557 488.633C999.764 488.391 1000.39 488.512 1001.42 488.995C1005.25 490.755 1007.37 492.998 1007.79 495.724C1008.24 497.345 1008.01 498.846 1007.11 500.227C1006.18 501.4 1005.18 501.952 1004.11 501.883C1003.63 501.917 1003.16 501.676 1002.71 501.158C1001.96 500.089 1001.56 498.743 1001.52 497.121C1001.42 496.293 1000.83 496.086 999.764 496.5L988.43 501.106C987.463 501.521 987.325 501.848 988.015 502.09C990.362 503.056 991.966 503.47 992.829 503.332H996.038C996.866 503.332 997.729 502.883 998.626 501.986C999.592 501.089 1000.63 500.968 1001.73 501.624L1004.84 503.487C1005.94 504.315 1006.51 504.799 1006.54 504.937C1005.41 505.765 1004.97 506.593 1005.25 507.421V527.141C1005.11 528.762 1004.22 529.97 1002.56 530.764C1001.59 531.143 1000.14 531.385 998.212 531.488C997.177 531.488 996.59 530.971 996.452 529.936C996.555 528.797 995.986 527.589 994.744 526.312C994.054 525.829 993.709 525.467 993.709 525.226C993.743 524.984 994.278 524.863 995.313 524.863H996.141C997.004 524.863 997.435 524.449 997.435 523.621V519.48C997.435 518.618 997.021 518.187 996.193 518.187H993.295C992.432 518.187 992.001 518.601 992.001 519.429V528.9C992.001 529.936 991.483 530.539 990.448 530.712L986.152 531.385C984.979 531.557 984.392 531.178 984.392 530.246V503.229C984.496 502.4 984.272 501.296 983.72 499.916L982.736 496.811C982.288 495.499 982.615 494.809 983.72 494.74L985.324 494.637C986.118 494.568 986.721 493.964 987.136 492.825C988.171 490.099 988.947 487.115 989.465 483.871ZM1008.82 484.182C1008.82 483.146 1009.32 482.663 1010.32 482.732C1012.22 482.87 1014.12 483.06 1016.02 483.302C1016.74 483.302 1017.34 483.526 1017.83 483.975C1018.1 484.423 1017.9 484.889 1017.21 485.372C1016.72 485.752 1016.48 486.355 1016.48 487.184V489.927C1016.48 490.824 1016.9 490.858 1017.72 490.03C1019.24 488.478 1020.67 486.908 1022.02 485.32C1022.88 484.216 1023.81 484.061 1024.82 484.854L1028.39 487.701C1029.66 488.771 1030.32 489.409 1030.35 489.616C1030.25 490.272 1029.8 490.462 1029.01 490.186C1028.49 490.082 1028.06 490.117 1027.71 490.289C1024.4 491.635 1021.07 492.911 1017.72 494.119C1016.9 494.43 1016.48 494.999 1016.48 495.827V497.121C1016.1 498.57 1016.78 499.26 1018.5 499.191C1020.64 499.226 1022.83 499.191 1025.07 499.088C1025.9 498.605 1026.33 498.053 1026.37 497.432L1026.94 494.844C1027.14 493.774 1027.44 493.239 1027.82 493.239C1028.27 493.239 1028.51 493.757 1028.54 494.792C1028.27 496.828 1029.02 498.398 1030.82 499.502C1031.47 499.743 1031.68 500.382 1031.44 501.417C1031.2 503.901 1029.71 505.437 1026.99 506.023H1013.43C1012.26 506.23 1011.22 505.972 1010.32 505.247C1009.18 504.177 1008.68 502.78 1008.82 501.055V484.182ZM997.435 506.075C997.435 505.178 997.039 504.729 996.245 504.729H993.295C992.432 504.729 992.001 505.144 992.001 505.972V508.663C992.001 509.526 992.415 509.957 993.243 509.957H996.141C997.004 509.957 997.435 509.543 997.435 508.715V506.075ZM1008.41 508.249C1008.41 507.214 1008.93 506.714 1009.96 506.748L1013.58 507.059C1015.48 507.162 1016.78 507.352 1017.47 507.628C1018.22 508.18 1018.03 508.87 1016.9 509.698C1016.62 509.836 1016.48 510.285 1016.48 511.044V513.787C1016.48 514.615 1016.95 514.632 1017.88 513.839C1019.81 511.976 1021.4 510.268 1022.64 508.715C1023.5 507.749 1024.47 507.697 1025.54 508.56L1029.68 511.872C1030.58 512.39 1031.01 512.924 1030.97 513.477C1030.84 513.718 1030.25 513.787 1029.21 513.684C1028.9 513.649 1028.4 513.804 1027.71 514.149C1024.4 515.564 1021.07 516.893 1017.72 518.135C1016.9 518.48 1016.48 519.066 1016.48 519.895C1016.45 520.792 1016.48 521.689 1016.59 522.586C1016.93 523.138 1017.57 523.345 1018.5 523.207H1023.88C1025.61 523.276 1026.52 522.327 1026.63 520.36C1026.7 519.67 1026.82 518.98 1026.99 518.29C1027.2 517.013 1027.49 516.375 1027.87 516.375C1028.28 516.375 1028.49 516.962 1028.49 518.135C1028.39 520.861 1029.34 522.689 1031.34 523.621C1031.89 523.828 1032.06 524.449 1031.85 525.484L1031.23 527.451C1030.58 529.073 1029.3 530.074 1027.4 530.453H1013.07C1011.24 530.833 1009.82 530.056 1008.82 528.124C1008.55 527.33 1008.41 526.433 1008.41 525.433V508.249ZM997.435 512.752C997.435 511.82 997.056 511.354 996.297 511.354H993.295C992.432 511.354 992.001 511.769 992.001 512.597V515.495C992.001 516.358 992.415 516.789 993.243 516.789H996.141C997.004 516.789 997.435 516.375 997.435 515.547V512.752ZM1066.84 484.182C1066.84 483.146 1067.34 482.663 1068.34 482.732C1070.93 482.905 1073.52 483.129 1076.1 483.405C1076.79 483.371 1077.41 483.612 1077.97 484.13C1078.07 484.406 1077.74 484.872 1076.98 485.527C1076.15 486.01 1075.74 486.666 1075.74 487.494V492.308C1075.74 493.136 1075.88 493.567 1076.15 493.602C1076.43 493.602 1077.02 493.049 1077.91 491.945L1079.31 490.237C1080.38 488.892 1081.42 488.633 1082.42 489.461L1085.73 492.256C1086.8 493.153 1087.13 493.843 1086.71 494.326C1086.26 494.809 1085.52 495.051 1084.49 495.051H1077.03C1076.17 495.051 1075.74 495.465 1075.74 496.293V509.905C1075.74 510.768 1076.07 511.199 1076.72 511.199C1077.41 511.199 1078.17 510.682 1079 509.646L1081.02 507.059C1081.92 505.954 1082.85 505.799 1083.82 506.593L1087.54 509.802C1088.65 510.733 1088.99 511.424 1088.58 511.872C1088.13 512.39 1087.39 512.648 1086.35 512.648H1041.32C1040.29 512.648 1039.65 512.407 1039.41 511.924C1039.23 511.441 1039.67 511.199 1040.7 511.199H1048.15C1049.02 511.199 1049.45 510.785 1049.45 509.957V496.345C1049.45 495.482 1049.03 495.051 1048.21 495.051H1044.01C1042.98 495.051 1042.36 494.809 1042.15 494.326C1041.94 493.843 1042.36 493.602 1043.39 493.602H1048.15C1049.02 493.602 1049.45 493.188 1049.45 492.359V484.44C1049.45 483.405 1049.97 482.905 1051 482.939L1058.76 483.561C1059.21 483.595 1059.61 483.837 1059.95 484.285C1059.99 484.458 1059.68 484.872 1059.02 485.527C1058.26 486.01 1057.88 486.666 1057.88 487.494V492.308C1057.88 493.17 1058.3 493.602 1059.13 493.602H1065.54C1066.41 493.602 1066.84 493.188 1066.84 492.359V484.182ZM1066.84 496.448C1066.84 495.517 1066.46 495.051 1065.7 495.051H1059.18C1058.32 495.051 1057.88 495.465 1057.88 496.293V509.905C1057.88 510.768 1058.3 511.199 1059.13 511.199H1065.54C1066.41 511.199 1066.84 510.785 1066.84 509.957V496.448ZM1050.53 516.582C1051.33 515.202 1052.21 514.719 1053.17 515.133L1058.76 517.617C1060.18 518.066 1060.99 518.721 1061.2 519.584C1061.16 519.826 1060.59 520.102 1059.49 520.412C1059.21 520.481 1058.73 520.809 1058.04 521.396C1052.62 525.605 1047.27 528.918 1041.99 531.333C1040.96 531.782 1040.34 531.885 1040.13 531.644C1039.99 531.402 1040.39 530.729 1041.32 529.625C1044.32 526.174 1047.39 521.827 1050.53 516.582ZM1067.25 516.116C1067.39 515.978 1068.12 516.047 1069.43 516.323C1075.02 517.531 1079.16 518.756 1081.85 519.998C1083.06 520.447 1084.4 521.447 1085.89 523C1088.2 525.967 1087.83 528.676 1084.8 531.126C1082.04 532.265 1079.55 531.419 1077.35 528.59C1076.62 527.21 1075.97 525.829 1075.38 524.449C1074.1 522.103 1071.86 519.843 1068.65 517.669C1067.44 516.91 1066.98 516.392 1067.25 516.116ZM1135.62 483.923C1136.66 482.888 1137.69 482.715 1138.73 483.405C1140.62 484.682 1142.52 486.01 1144.42 487.391C1145.04 487.701 1145.45 488.219 1145.66 488.943C1145.7 489.979 1145.06 490.341 1143.75 490.03C1142.81 490.03 1142 490.272 1141.31 490.755L1135.1 494.896C1134 495.62 1133.95 496.034 1134.95 496.138C1135.98 496.483 1136.52 496.759 1136.55 496.966C1136.55 497.173 1136.22 497.552 1135.57 498.104C1134.84 498.553 1134.48 499.157 1134.48 499.916V503.487C1134.48 504.315 1134.65 504.747 1135 504.781C1135.34 504.747 1135.95 504.212 1136.81 503.177C1137.36 502.452 1137.97 501.728 1138.62 501.003C1139.49 499.968 1140.43 499.882 1141.47 500.744L1144.57 503.332C1145.71 504.298 1146.09 505.006 1145.71 505.454C1145.26 505.972 1144.52 506.23 1143.49 506.23H1135.78C1134.91 506.23 1134.48 506.645 1134.48 507.473V526.727C1134.24 528.486 1133.39 529.78 1131.95 530.608C1130.43 531.299 1128.58 531.713 1126.41 531.851C1125.27 531.851 1124.61 531.333 1124.44 530.298C1124.37 527.917 1123.42 526.105 1121.59 524.863C1120.28 524.208 1119.63 523.725 1119.63 523.414C1119.66 523.138 1120.2 523 1121.23 523H1124.54C1125.41 523 1125.84 522.586 1125.84 521.758V507.524C1125.84 506.662 1125.42 506.23 1124.6 506.23H1119.94C1119.11 506.23 1118.59 506.748 1118.39 507.783C1117.76 511.027 1116.94 513.873 1115.9 516.323C1115.56 517.151 1115.85 518.083 1116.78 519.118C1118.68 521.396 1119.21 523.673 1118.39 525.95C1117.18 528.193 1115.57 528.797 1113.57 527.762C1112.78 527.451 1111.93 526.675 1111.04 525.433C1110.69 524.674 1109.97 524.76 1108.86 525.691C1106 527.934 1102.67 529.711 1098.87 531.022C1097.66 531.437 1096.97 531.488 1096.8 531.178C1096.7 530.971 1097.18 530.488 1098.25 529.729C1102.01 527.106 1104.96 523.673 1107.1 519.429C1107.48 518.601 1107.27 517.669 1106.48 516.634C1105.65 515.737 1105.15 515.857 1104.98 516.996C1104.84 517.962 1104.2 518.359 1103.06 518.187L1098.61 517.669C1097.44 517.531 1096.96 516.875 1097.16 515.702C1098.1 509.629 1099.08 503.556 1100.11 497.483C1100.22 496.655 1099.79 496.241 1098.82 496.241C1097.82 496.241 1097.23 496.051 1097.06 495.672C1096.78 495.12 1097.11 494.844 1098.04 494.844H1099.34C1100.17 494.844 1100.68 494.326 1100.89 493.291C1101.34 490.186 1101.84 487.08 1102.39 483.975C1102.56 482.939 1103.17 482.525 1104.2 482.732L1110.41 484.026C1111.45 484.475 1112.02 484.768 1112.12 484.906C1112.16 485.527 1111.78 485.959 1110.98 486.2C1110.43 486.442 1110.03 487.08 1109.79 488.115C1109.45 489.944 1109.15 491.773 1108.91 493.602C1108.81 494.43 1109.15 494.844 1109.95 494.844C1110.85 495.258 1111.9 494.568 1113.11 492.773C1114.11 491.704 1115.11 491.514 1116.11 492.204C1117.49 493.17 1118.87 494.188 1120.25 495.258C1121.46 495.81 1121.56 496.5 1120.56 497.328C1119.9 497.742 1119.54 498.45 1119.47 499.45L1119.06 503.539C1118.99 504.367 1119.37 504.781 1120.2 504.781H1124.54C1125.41 504.781 1125.84 504.367 1125.84 503.539V497.069C1125.84 496.034 1126.36 495.534 1127.39 495.568L1128.84 495.672C1129.74 495.81 1130.39 495.361 1130.81 494.326C1131.5 492.497 1132.26 490.651 1133.08 488.788C1133.46 487.822 1133.29 487.339 1132.57 487.339H1120.61C1119.58 487.339 1118.95 487.097 1118.75 486.614C1118.54 486.131 1118.95 485.89 1119.99 485.89H1132.41C1133.24 485.89 1134.07 485.476 1134.9 484.647L1135.62 483.923ZM1111.45 497.535C1111.48 496.673 1111 496.241 1110 496.241C1109 496.241 1108.4 496.759 1108.19 497.794L1105.55 513.011C1105.62 513.149 1106.2 513.373 1107.31 513.684C1108.38 514.063 1109.05 513.735 1109.33 512.7C1110.43 508.387 1111.14 503.332 1111.45 497.535ZM1175.57 500.589C1177.51 499.416 1179.73 499.278 1182.25 500.175C1186.15 502.314 1187.43 505.506 1186.08 509.75C1184.56 513.028 1182.01 514.529 1178.42 514.253C1175.31 514.149 1173.19 512.2 1172.05 508.404C1171.43 505.299 1172.61 502.694 1175.57 500.589ZM1181.94 504.471C1179.77 502.814 1177.82 502.883 1176.09 504.678C1174.81 506.679 1175.12 508.542 1177.02 510.268C1179.27 511.234 1181.04 510.837 1182.35 509.077C1183.18 507.524 1183.04 505.989 1181.94 504.471Z" fill="white"/>
</g>
<defs>
<clipPath id="clip0_4649_5373">
<rect width="1440" height="3044" fill="white" transform="translate(0 -106)"/>
</clipPath>
</defs>
</svg>
