<svg width="414" height="612" viewBox="0 0 414 612" fill="none" xmlns="http://www.w3.org/2000/svg">
<g clip-path="url(#clip0_4649_5799)">
<path d="M332.308 154.813C332.308 153.729 332.782 153.221 333.73 153.289C336.235 153.425 338.74 153.611 341.246 153.848C341.923 153.882 342.532 154.051 343.074 154.356C343.446 155.1 343.074 155.71 341.957 156.184C341.347 156.488 341.042 157.047 341.042 157.859V159.586C341.042 160.432 341.449 160.856 342.261 160.856H348.71C349.523 160.856 350.369 160.348 351.25 159.332C351.893 158.486 352.587 157.639 353.332 156.793C354.11 155.879 355.041 155.879 356.125 156.793L359.171 159.434C360.289 160.382 360.695 161.076 360.39 161.516C359.95 162.024 359.239 162.277 358.257 162.277H342.312C341.466 162.277 341.042 162.684 341.042 163.496V175.836C341.042 176.649 341.144 177.156 341.347 177.359C341.55 177.563 341.957 177.173 342.566 176.192C344.292 173.077 345.562 169.505 346.375 165.477C346.645 164.359 347.356 163.919 348.507 164.156C350.539 164.664 352.57 165.104 354.601 165.477C355.075 165.578 355.414 165.832 355.617 166.238C355.752 166.611 355.431 166.983 354.652 167.356C354.11 167.525 353.45 168.236 352.671 169.488C351.96 170.369 351.994 170.944 352.773 171.215C354.195 171.689 355.431 172.231 356.48 172.84C358.139 173.957 359.121 175.21 359.425 176.598C359.764 178.087 359.222 179.442 357.8 180.66C355.464 181.777 353.755 180.88 352.671 177.969C352.265 176.649 351.656 175.345 350.843 174.059C350.2 173.178 349.404 173.195 348.457 174.109C346.933 175.43 345.393 176.615 343.835 177.664C342.955 178.24 343.006 178.984 343.988 179.899C348.795 183.758 354.229 186.195 360.289 187.211C361.372 187.448 361.914 187.77 361.914 188.176C361.914 188.616 361.406 189.293 360.39 190.207C358.697 192.408 357.631 194.811 357.191 197.418C356.988 198.501 356.395 198.789 355.414 198.281C352.57 196.724 350.065 194.981 347.898 193.051C345.393 190.783 343.378 188.125 341.855 185.078C341.313 184.096 341.042 184.147 341.042 185.231V198.738C341.042 199.754 340.535 200.346 339.519 200.516C337.623 200.719 335.727 200.973 333.832 201.277C332.816 201.379 332.308 200.922 332.308 199.906V189.598C332.308 188.785 331.766 188.819 330.683 189.699C325.605 193.152 320.391 195.928 315.042 198.027C313.993 198.434 313.35 198.451 313.113 198.078C312.91 197.672 313.248 197.113 314.128 196.402C320.73 191.121 325.571 185.992 328.652 181.016C329.16 180.203 329.143 179.848 328.601 179.949C327.518 180.051 326.705 179.272 326.164 177.613C325.994 176.428 325.707 175.447 325.3 174.668C324.894 173.754 324.302 173.788 323.523 174.77C322.067 176.733 319.884 178.984 316.972 181.524C316.092 182.234 315.567 182.539 315.398 182.438C315.195 182.201 315.33 181.574 315.804 180.559C317.835 176.293 319.325 171.215 320.273 165.324C320.442 164.309 321.035 163.902 322.05 164.106L328.652 165.68C329.871 165.984 329.938 166.577 328.855 167.457C328.178 167.66 327.518 168.422 326.875 169.742C326.367 170.623 326.604 171.249 327.585 171.621C329.414 172.197 330.717 173.331 331.496 175.024C331.631 175.802 331.8 176.022 332.003 175.684C332.207 175.379 332.308 174.82 332.308 174.008V163.547C332.308 162.701 331.902 162.277 331.089 162.277H316.058C315.042 162.277 314.399 162.04 314.128 161.567C313.959 161.093 314.382 160.856 315.398 160.856H331.039C331.885 160.856 332.308 160.449 332.308 159.637V154.813Z" fill="white"/>
<path d="M264.875 154.254C265.146 153.272 265.924 152.9 267.211 153.137C270.021 153.509 272.83 153.949 275.64 154.457C276.791 155.337 276.521 156.014 274.828 156.488C274.455 156.691 273.965 157.317 273.355 158.367C272.78 159.383 272.898 159.89 273.711 159.89H293.414C294.226 159.89 295.073 159.383 295.953 158.367L297.629 156.387C298.509 155.405 299.474 155.32 300.523 156.133L303.113 158.265C304.332 159.349 304.755 160.127 304.383 160.601C304.01 161.075 303.333 161.312 302.351 161.312H289.808C288.962 161.312 288.539 161.719 288.539 162.531V170.605C288.539 171.452 288.945 171.875 289.758 171.875H292.195C293.008 171.875 293.837 171.367 294.683 170.351C295.157 169.674 295.682 168.997 296.258 168.32C297.104 167.338 298.035 167.288 299.051 168.168L301.59 170.301C302.774 171.35 303.198 172.112 302.859 172.586C302.487 173.026 301.81 173.246 300.828 173.246H289.808C288.962 173.246 288.539 173.652 288.539 174.465V184.773C288.539 185.62 288.945 186.043 289.758 186.043H293.566C294.379 186.043 295.225 185.535 296.105 184.519C296.884 183.673 297.595 182.827 298.238 181.98C298.983 181.1 299.948 181.168 301.133 182.183L304.179 184.722C305.229 185.603 305.567 186.28 305.195 186.754C304.755 187.262 304.027 187.515 303.011 187.515H289.808C288.962 187.515 288.539 187.922 288.539 188.734V198.738C288.539 199.754 288.031 200.346 287.015 200.515L281.429 201.226C280.245 201.362 279.652 200.922 279.652 199.906V188.785C279.652 187.939 279.246 187.515 278.433 187.515H259.086C258.07 187.515 257.461 187.278 257.258 186.804C257.054 186.297 257.461 186.043 258.476 186.043H261.117C261.963 186.043 262.386 185.637 262.386 184.824V171.418C262.793 169.928 262.116 169.877 260.355 171.265C259.069 171.807 258.341 171.976 258.172 171.773C258.002 171.57 258.222 170.961 258.832 169.945C261.574 165.104 263.588 159.873 264.875 154.254ZM279.652 162.633C279.652 161.752 279.263 161.312 278.484 161.312H272.797C271.984 161.312 271.172 161.82 270.359 162.836C269.039 164.664 267.465 166.357 265.636 167.914C264.722 168.557 264.638 169.031 265.383 169.336L270.105 171.469C270.681 171.739 271.375 171.875 272.187 171.875H278.383C279.229 171.875 279.652 171.469 279.652 170.656V162.633ZM279.652 174.566C279.652 173.686 279.263 173.246 278.484 173.246H271.73C270.884 173.246 270.461 173.652 270.461 174.465V184.773C270.461 185.62 270.867 186.043 271.679 186.043H278.383C279.229 186.043 279.652 185.637 279.652 184.824V174.566Z" fill="white"/>
<path d="M148.45 154.558C149.33 153.509 150.278 153.289 151.293 153.898C152.445 154.542 153.596 155.236 154.747 155.98C155.864 156.59 156.71 157.131 157.286 157.605C157.929 158.181 157.692 158.756 156.575 159.332C155.931 159.738 155.61 160.347 155.61 161.16V196.859C155.542 198.349 154.662 199.568 152.969 200.515C151.141 201.294 149.245 201.667 147.282 201.633C146.266 201.667 145.589 201.176 145.25 200.16C144.573 197.282 142.695 195.556 139.614 194.98C138.497 194.709 137.938 194.472 137.938 194.269C137.972 193.999 138.497 193.863 139.512 193.863H145.657C146.503 193.863 146.926 193.457 146.926 192.644V159.687C146.926 158.841 146.52 158.418 145.708 158.418H122.958C122.111 158.418 121.688 158.824 121.688 159.637V172.027C121.688 172.874 122.094 173.297 122.907 173.297H128.797C129.644 173.297 130.067 172.89 130.067 172.078V168.219C130.067 167.372 129.661 166.949 128.848 166.949H125.547C124.532 166.949 123.922 166.763 123.719 166.39C123.482 165.883 123.838 165.629 124.786 165.629H128.797C129.644 165.629 130.067 165.222 130.067 164.41V161.058C130.067 160.043 130.575 159.552 131.59 159.586L137.176 159.941C138.497 160.28 139.174 160.568 139.208 160.805C139.174 161.008 138.937 161.312 138.497 161.719C137.752 161.922 137.498 162.802 137.735 164.359C137.735 165.206 137.972 165.629 138.446 165.629C138.92 165.629 139.631 165.121 140.579 164.105C141.425 163.191 142.373 163.14 143.422 163.953L144.032 164.41C145.081 165.222 145.538 165.849 145.403 166.289C145.132 166.729 144.489 166.949 143.473 166.949H139.004C138.158 166.949 137.735 167.355 137.735 168.168V172.027C137.735 172.874 137.972 173.297 138.446 173.297C138.92 173.297 139.614 172.789 140.528 171.773C140.731 171.604 140.883 171.435 140.985 171.265C141.831 170.385 142.813 170.368 143.93 171.215L144.946 171.926C146.097 172.806 146.537 173.5 146.266 174.008C146.029 174.448 145.403 174.668 144.387 174.668H123.618C122.602 174.668 122.06 174.583 121.993 174.414C121.79 174.109 121.688 174.465 121.688 175.48C121.959 180.152 121.163 185.044 119.301 190.156C118.015 193.745 115.594 197.079 112.04 200.16C110.787 201.176 110.093 201.548 109.958 201.277C109.822 201.04 109.958 200.414 110.364 199.398C112.395 193.677 113.478 187.16 113.614 179.847V155.574C113.614 154.558 114.122 154.237 115.137 154.609C116.999 155.286 118.861 156.014 120.723 156.793C121.197 156.996 121.84 157.097 122.653 157.097H145.149C145.961 157.097 146.791 156.59 147.637 155.574L148.45 154.558ZM137.024 177.004C138.073 176.124 139.089 176.039 140.071 176.75L143.575 179.035C145.098 179.847 145.217 180.609 143.93 181.32C143.456 181.557 143.219 182.082 143.219 182.894V190.41C143.219 191.426 142.711 192.018 141.696 192.187C140.172 192.323 138.632 192.509 137.075 192.746C136.059 192.847 135.551 192.475 135.551 191.629C135.551 190.749 135.145 190.308 134.333 190.308H132.708C131.861 190.308 131.438 190.715 131.438 191.527V193.457C131.438 194.472 130.93 195.065 129.915 195.234L125.801 195.844C124.718 196.047 124.176 195.64 124.176 194.625V177.512C124.176 176.496 124.684 176.157 125.7 176.496L129.254 177.715C130.439 178.392 132.115 178.612 134.282 178.375C135.094 178.375 136.008 177.918 137.024 177.004ZM135.551 181.015C135.551 180.169 135.145 179.746 134.333 179.746H132.708C131.861 179.746 131.438 180.152 131.438 180.965V187.668C131.438 188.514 131.844 188.937 132.657 188.937H134.282C135.128 188.937 135.551 188.531 135.551 187.719V181.015Z" fill="white"/>
<path d="M73.1959 154.406C73.1959 153.424 73.6867 152.934 74.6685 152.934L81.2701 153.34C82.0487 153.374 82.675 153.458 83.149 153.594C84.2662 154.102 84.2492 154.694 83.0982 155.371C82.1503 155.574 81.8287 156.471 82.1334 158.062C82.1334 158.909 82.5396 159.332 83.3521 159.332H91.8326C92.6451 159.332 93.4745 158.824 94.3209 157.809C94.6594 157.301 95.0487 156.793 95.4888 156.285C96.4706 155.066 97.5031 154.897 98.5865 155.777C99.4667 156.454 100.347 157.182 101.227 157.961C102.243 158.841 102.598 159.501 102.294 159.941C101.955 160.415 101.278 160.652 100.262 160.652H89.5474C88.7688 160.652 88.8365 160.805 89.7505 161.109C90.5292 161.211 91.3586 161.363 92.2388 161.566C93.5253 162.007 94.2024 162.328 94.2701 162.531C94.4393 163.141 94.0162 163.615 93.0005 163.953C92.5943 164.055 91.9172 164.427 90.9693 165.07C89.2766 166.255 87.5839 167.305 85.8912 168.219C84.8417 168.862 84.8078 169.184 85.7896 169.184H88.8365C89.7505 169.59 90.7492 168.913 91.8326 167.152C92.8143 166.001 93.8638 165.73 94.981 166.34L99.9068 169.184C101.193 169.861 101.126 170.605 99.7037 171.418C99.1959 171.723 98.9419 172.281 98.9419 173.094V197.266C98.705 198.992 97.8586 200.194 96.4029 200.871C95.0826 201.447 93.5591 201.768 91.8326 201.836C90.8169 201.87 90.2076 201.379 90.0044 200.363C89.7336 198.4 89.0565 196.91 87.9732 195.895C87.4315 195.454 87.1607 195.421 87.1607 195.793C87.1607 196.064 86.6529 196.284 85.6373 196.453C84.1138 196.589 82.5904 196.775 81.0669 197.012C80.0175 197.147 79.4927 196.758 79.4927 195.844C79.4927 194.862 79.0865 194.371 78.274 194.371H75.6334C74.787 194.371 74.3638 194.76 74.3638 195.539C74.3638 196.352 73.856 196.842 72.8404 197.012L68.7271 197.621C67.6438 197.757 67.1021 197.333 67.1021 196.352V182.691C67.1021 181.879 66.5943 181.608 65.5787 181.879C64.563 182.217 64.0552 182.793 64.0552 183.605V199.094C64.0552 200.109 63.5474 200.702 62.5318 200.871L58.2662 201.43C57.1151 201.599 56.5396 201.227 56.5396 200.312V167.355C56.5396 166.34 57.0474 166.035 58.063 166.441C59.925 167.186 61.787 167.982 63.649 168.828C64.1568 169.065 64.9354 169.184 65.9849 169.184C67.0344 169.184 67.4237 169.014 67.1529 168.676C66.8143 168.168 66.5604 167.322 66.3912 166.137C66.2896 164.749 65.7987 163.564 64.9185 162.582C63.9367 161.634 63.4797 161.076 63.5474 160.906C63.5813 160.737 63.1919 160.652 62.3794 160.652H55.8794C54.8638 160.652 54.2544 160.466 54.0513 160.094C53.8143 159.586 54.1698 159.332 55.1177 159.332H71.9263C72.7727 159.332 73.1959 158.926 73.1959 158.113V154.406ZM83.4029 161.922C83.7414 161.076 83.5044 160.652 82.6919 160.652H69.0826C68.3378 160.652 68.4055 160.822 69.2857 161.16C70.4367 161.397 71.5878 161.753 72.7388 162.227C75.3117 163.411 75.8026 165.206 74.2115 167.609C73.1281 168.659 73.0097 169.184 73.856 169.184H79.188C80.0005 169.184 80.6268 168.676 81.0669 167.66L83.4029 161.922ZM68.6763 172.027C68.7102 171.079 68.3716 170.605 67.6607 170.605H65.3248C64.4784 170.605 64.0552 171.012 64.0552 171.824V179.391C64.0552 180.237 64.58 180.271 65.6294 179.492C67.7284 177.664 68.744 175.176 68.6763 172.027ZM78.274 171.875C78.274 171.029 77.9185 170.605 77.2076 170.605C76.4628 170.605 76.0227 171.113 75.8873 172.129C75.6841 173.517 75.3625 174.702 74.9224 175.684C73.9406 177.783 72.1633 179.357 69.5904 180.406C68.6425 180.812 68.507 181.134 69.1841 181.371L72.8912 182.641C73.6698 182.911 74.4315 183.047 75.1763 183.047H78.1724C78.9849 183.047 79.7128 182.725 80.356 182.082C81.0331 181.405 81.2024 181.066 80.8638 181.066C79.2388 180.728 78.3755 179.78 78.274 178.223V171.875ZM90.6646 171.875C90.6646 171.029 90.2584 170.605 89.4459 170.605H85.9927C85.1464 170.605 84.7232 171.012 84.7232 171.824V173.754C84.4185 174.871 84.8078 175.447 85.8912 175.48C86.9406 175.379 87.5331 174.736 87.6685 173.551C88.0409 172.298 88.3794 171.672 88.6841 171.672C88.9211 171.706 89.0565 172.23 89.0904 173.246C89.2258 174.329 89.5136 175.074 89.9537 175.48C90.4276 175.853 90.6646 175.633 90.6646 174.82V171.875ZM90.6646 180C90.6646 178.849 90.343 178.883 89.6998 180.102C88.9888 180.948 88.024 181.253 86.8052 181.016H84.2154C83.3352 181.016 83.4706 181.388 84.6216 182.133L86.0435 183.047C87.1607 183.69 87.8886 184.215 88.2271 184.621C88.5656 185.061 88.4302 185.501 87.8209 185.941C87.3807 186.178 87.1607 186.669 87.1607 187.414V192.137C87.1607 192.983 87.5669 193.406 88.3794 193.406H89.3951C90.2414 193.406 90.6646 193 90.6646 192.188V180ZM79.4927 185.738C79.4927 184.858 79.1034 184.418 78.3248 184.418H75.6334C74.787 184.418 74.3638 184.824 74.3638 185.637V191.73C74.3638 192.577 74.7701 193 75.5826 193H78.2232C79.0695 193 79.4927 192.594 79.4927 191.781V185.738Z" fill="white"/>
<path d="M217.919 199C217.611 199 217.391 198.868 217.259 198.604C217.127 198.34 217.127 198.076 217.259 197.812L231.515 164.35H221.285V168.244C221.285 168.86 220.999 169.168 220.427 169.168H212.243C211.671 169.168 211.385 168.86 211.385 168.244V156.694C211.385 156.078 211.671 155.77 212.243 155.77H244.517C245.089 155.77 245.375 156.056 245.375 156.628V157.09C245.375 157.53 245.309 157.926 245.177 158.278L228.347 198.34C228.127 198.78 227.775 199 227.291 199H217.919Z" fill="white"/>
<path d="M190.351 199.726C184.763 199.726 180.759 198.538 178.339 196.162C175.963 193.742 174.951 190.574 175.303 186.658C175.391 186.042 175.699 185.734 176.227 185.734H184.081C184.697 185.734 185.005 186.02 185.005 186.592C185.005 188.352 185.467 189.518 186.391 190.09C187.359 190.662 188.811 190.948 190.747 190.948C192.507 190.948 193.827 190.574 194.707 189.826C195.631 189.078 196.093 187.956 196.093 186.46V185.536C196.093 182.632 194.311 181.18 190.747 181.18H186.457C185.841 181.18 185.533 180.872 185.533 180.256V173.92C185.533 173.348 185.841 173.062 186.457 173.062H189.691C191.671 173.062 193.101 172.71 193.981 172.006C194.861 171.302 195.301 170.202 195.301 168.706V167.584C195.301 166.22 194.883 165.208 194.047 164.548C193.255 163.888 191.979 163.558 190.219 163.558C188.415 163.558 187.095 163.91 186.259 164.614C185.467 165.274 185.071 166.286 185.071 167.65C185.071 168.266 184.763 168.574 184.147 168.574H176.293C175.721 168.574 175.435 168.266 175.435 167.65C175.391 163.558 176.667 160.434 179.263 158.278C181.903 156.122 185.775 155.044 190.879 155.044C195.895 155.044 199.613 156.034 202.033 158.014C204.453 159.95 205.663 162.744 205.663 166.396C205.663 168.904 205.135 171.038 204.079 172.798C203.023 174.514 201.527 175.768 199.591 176.56V176.692C201.835 177.308 203.529 178.474 204.673 180.19C205.861 181.906 206.455 184.04 206.455 186.592C206.455 190.904 205.091 194.182 202.363 196.426C199.635 198.626 195.631 199.726 190.351 199.726Z" fill="white"/>
</g>
<defs>
<clipPath id="clip0_4649_5799">
<rect width="414" height="7721" fill="white" transform="translate(0 -83)"/>
</clipPath>
</defs>
</svg>
