<svg width="1440" height="650" viewBox="0 0 1440 650" fill="none" xmlns="http://www.w3.org/2000/svg">
<g clip-path="url(#clip0_4649_5373)">
<path d="M674.116 279.52C675.254 278.134 676.541 278.035 677.976 279.223C678.668 279.717 679.361 280.286 680.054 280.93C681.39 282.018 682.008 282.661 681.909 282.859C681.909 283.107 682.503 283.23 683.69 283.23H698.237C699.425 283.23 700.687 282.488 702.022 281.004C703.161 279.717 704.521 279.544 706.105 280.484L711.448 283.898C713.823 285.135 714.145 286.372 712.413 287.609C711.72 288.055 711.3 288.525 711.151 289.02C709.865 293.819 707.812 298.618 704.991 303.418C704.15 304.655 704.472 305.62 705.956 306.312C707.985 307.154 710.088 307.97 712.265 308.762C713.947 309.306 714.788 309.751 714.788 310.098C714.788 310.691 713.922 311.706 712.19 313.141C710.558 315.12 709.519 317.594 709.073 320.562C708.925 322.294 708.034 322.665 706.401 321.676C702.69 319.499 699.573 317.223 697.05 314.848C696.011 313.858 694.675 313.932 693.042 315.07C689.084 317.693 684.952 319.845 680.647 321.527C679.411 322.022 679.608 322.344 681.241 322.492C683.022 322.542 684.804 322.665 686.585 322.863C687.228 322.913 687.772 323.185 688.218 323.68C688.515 324.273 688.045 324.867 686.808 325.461C686.214 325.758 685.917 326.401 685.917 327.391C685.917 328.529 686.511 329.098 687.698 329.098H693.265C694.452 329.098 695.664 328.355 696.901 326.871C697.446 326.129 698.064 325.387 698.757 324.645C700.192 322.913 701.528 322.591 702.765 323.68C704.249 324.818 705.733 326.03 707.218 327.316C708.603 328.504 709.073 329.444 708.628 330.137C708.084 330.879 707.069 331.25 705.585 331.25H687.772C686.536 331.25 685.917 331.844 685.917 333.031V341.938C685.917 343.174 686.511 343.793 687.698 343.793H698.312C699.499 343.793 700.711 343.051 701.948 341.566L704.472 338.449C705.758 336.816 707.094 336.569 708.48 337.707L713.526 342.012C714.862 343.249 715.258 344.164 714.714 344.758C714.071 345.401 713.007 345.723 711.522 345.723H646.952C645.468 345.723 644.577 345.451 644.28 344.906C643.983 344.164 644.528 343.793 645.913 343.793H671.667C672.904 343.793 673.522 343.199 673.522 342.012V333.105C673.522 331.868 672.929 331.25 671.741 331.25H652.073C650.589 331.25 649.674 330.904 649.327 330.211C649.08 329.469 649.698 329.098 651.183 329.098H671.667C672.904 329.098 673.522 328.504 673.522 327.316V324.348C673.522 322.863 674.265 322.146 675.749 322.195L677.085 322.27C678.272 322.27 678.693 322.146 678.347 321.898C677.951 321.602 678.248 321.057 679.237 320.266C680.425 319.227 680.474 318.707 679.386 318.707H660.163C658.926 318.707 658.308 319.375 658.308 320.711C658.308 322.096 657.565 322.938 656.081 323.234L649.921 324.273C648.239 324.57 647.397 324.051 647.397 322.715V281.227C647.397 279.742 648.14 279.223 649.624 279.668L654.819 281.449C656.749 282.29 658.308 282.637 659.495 282.488H669.96C671.345 283.082 672.731 282.092 674.116 279.52ZM661.944 286.496C661.944 285.21 661.375 284.566 660.237 284.566C658.951 284.566 658.308 285.16 658.308 286.348V291.469C658.308 292.706 658.901 293.324 660.089 293.324C661.326 293.324 661.944 292.73 661.944 291.543V286.496ZM680.202 284.938C680.054 284.69 679.435 284.566 678.347 284.566H673.3C672.063 284.566 671.444 285.16 671.444 286.348V291.023C671.444 292.211 672.063 292.112 673.3 290.727C674.537 289.292 675.897 289.044 677.382 289.984C679.114 290.974 680.845 292.038 682.577 293.176C684.408 293.918 684.68 294.883 683.394 296.07C682.552 296.911 682.132 297.876 682.132 298.965V305.719C682.132 307.203 681.39 308.044 679.905 308.242L673.522 308.984C672.335 309.182 671.741 309.875 671.741 311.062V314.996C671.741 316.431 672.384 316.48 673.671 315.145C674.067 314.6 674.537 314.056 675.081 313.512C676.417 312.077 677.852 311.953 679.386 313.141L681.687 314.922C683.022 315.961 684.433 315.788 685.917 314.402C687.401 312.918 688.762 311.409 689.999 309.875C690.89 308.638 690.939 307.302 690.147 305.867C687.228 299.633 685.224 293.324 684.136 286.941C683.839 285.754 683.146 285.16 682.058 285.16C680.969 285.16 680.351 285.086 680.202 284.938ZM699.276 287.164C699.573 285.828 699.177 285.16 698.089 285.16H687.476C686.288 285.16 685.942 285.902 686.437 287.387C688.02 291.395 690.395 295.031 693.562 298.297C694.749 299.435 695.689 299.262 696.382 297.777C697.718 293.819 698.683 290.281 699.276 287.164ZM671.444 297.184C671.444 295.897 670.875 295.254 669.737 295.254H660.163C658.926 295.254 658.308 295.848 658.308 297.035V302.602C658.308 303.839 658.901 304.457 660.089 304.457H669.589C670.826 304.457 671.444 303.863 671.444 302.676V297.184ZM662.241 308.391C662.241 307.154 661.598 306.535 660.312 306.535C658.976 306.535 658.308 307.129 658.308 308.316V314.773C658.308 316.01 658.951 316.629 660.237 316.629C661.573 316.629 662.241 316.035 662.241 314.848V308.391ZM782.841 279.371C783.929 278.035 785.191 277.936 786.626 279.074L790.337 282.117C791.673 283.255 792.093 284.195 791.599 284.938C790.856 285.63 791.104 286.521 792.341 287.609L796.126 290.801C797.61 292.087 798.13 293.052 797.685 293.695C797.14 294.339 796.126 294.66 794.642 294.66H748.774C747.29 294.66 746.474 294.561 746.325 294.363C746.226 294.116 745.731 294.759 744.841 296.293L742.243 300.598C741.402 301.835 741.748 302.602 743.282 302.898C744.272 303.047 745.063 303.294 745.657 303.641C746.004 304.135 745.657 304.655 744.618 305.199C744.222 305.447 744.024 306.164 744.024 307.352V345.203C744.024 346.688 743.282 347.529 741.798 347.727L735.044 348.469C733.56 348.568 732.817 347.875 732.817 346.391V314.848C732.817 313.66 732.1 313.759 730.665 315.145L729.403 316.48C727.919 317.965 726.979 318.608 726.583 318.41C726.187 318.262 726.336 317.396 727.028 315.812C730.541 307.451 732.991 299.707 734.376 292.582C735.217 288.376 735.959 284.146 736.603 279.891C736.85 278.307 737.691 277.689 739.126 278.035C742.738 278.827 746.424 279.693 750.185 280.633C751.52 280.732 752.485 281.029 753.079 281.523C754.019 282.513 753.574 283.404 751.743 284.195C751.001 284.492 750.259 285.408 749.517 286.941L747.81 290.727C747.166 292.062 747.389 292.73 748.478 292.73H782.321C783.509 292.73 784.696 291.988 785.884 290.504L788.185 287.535C789.075 286.348 788.927 285.754 787.739 285.754H756.79C755.306 285.754 754.415 285.482 754.118 284.938C753.772 284.195 754.291 283.824 755.677 283.824H777.274C778.709 284.418 780.565 282.934 782.841 279.371ZM783.954 297.777C785.142 296.342 786.428 296.219 787.813 297.406L791.376 300.375C792.811 301.612 793.306 302.552 792.86 303.195C792.366 303.839 791.376 304.16 789.892 304.16H753.228C751.743 304.16 750.853 303.888 750.556 303.344C750.209 302.602 750.729 302.23 752.114 302.23H778.462C779.897 302.824 781.728 301.34 783.954 297.777ZM784.845 307.5C785.983 306.115 787.269 306.04 788.704 307.277L792.341 310.246C793.726 311.384 794.221 312.275 793.825 312.918C793.281 313.611 792.267 313.957 790.782 313.957H753.524C752.04 313.957 751.174 313.685 750.927 313.141C750.531 312.349 751.001 311.953 752.337 311.953H779.278C780.713 312.547 782.569 311.062 784.845 307.5ZM750.333 318.781C750.333 317.198 751.026 316.728 752.411 317.371L760.427 320.934C762.06 321.874 763.494 322.245 764.731 322.047H776.829C778.116 322.641 779.625 321.651 781.356 319.078C783.039 317.297 784.647 316.926 786.181 317.965C788.853 319.598 791.524 321.305 794.196 323.086C794.741 323.729 794.394 324.57 793.157 325.609C792.069 326.451 791.524 327.465 791.524 328.652V344.461C791.524 345.945 790.782 346.786 789.298 346.984L781.653 347.875C779.971 348.073 779.13 347.504 779.13 346.168V343.793C779.13 342.556 778.536 341.938 777.349 341.938H763.989C762.752 341.938 762.134 342.729 762.134 344.312C762.134 345.896 761.392 346.786 759.907 346.984L752.56 347.875C751.075 348.023 750.333 347.355 750.333 345.871V318.781ZM779.13 325.906C779.13 324.669 778.536 324.051 777.349 324.051H763.989C762.752 324.051 762.134 324.645 762.134 325.832V338.004C762.134 339.241 762.728 339.859 763.915 339.859H777.274C778.511 339.859 779.13 339.266 779.13 338.078V325.906Z" fill="white"/>
</g>
<defs>
<clipPath id="clip0_4649_5373">
<rect width="1440" height="3044" fill="white" transform="translate(0 -106)"/>
</clipPath>
</defs>
</svg>
