<svg width="414" height="612" viewBox="0 0 414 612" fill="none" xmlns="http://www.w3.org/2000/svg">
<g clip-path="url(#clip0_4649_5799)">
<path d="M251.795 221.764C252.568 220.814 253.465 220.744 254.484 221.553L257.121 223.715C258.07 224.523 258.369 225.191 258.017 225.719C257.49 226.211 257.666 226.844 258.545 227.617L261.234 229.885C262.289 230.799 262.658 231.484 262.342 231.941C261.955 232.398 261.234 232.627 260.18 232.627H227.59C226.535 232.627 225.955 232.556 225.849 232.416C225.779 232.24 225.428 232.697 224.795 233.787L222.949 236.846C222.351 237.724 222.598 238.269 223.687 238.48C224.39 238.586 224.953 238.762 225.375 239.008C225.621 239.359 225.375 239.728 224.637 240.115C224.355 240.291 224.215 240.801 224.215 241.644V268.539C224.215 269.594 223.687 270.191 222.633 270.332L217.834 270.859C216.779 270.93 216.252 270.437 216.252 269.383V246.971C216.252 246.127 215.742 246.197 214.723 247.181L213.826 248.131C212.771 249.185 212.103 249.642 211.822 249.502C211.541 249.396 211.646 248.781 212.139 247.656C214.635 241.715 216.375 236.213 217.359 231.15C217.957 228.162 218.484 225.156 218.941 222.133C219.117 221.008 219.715 220.568 220.734 220.814C223.301 221.377 225.92 221.992 228.592 222.66C229.541 222.73 230.226 222.941 230.648 223.293C231.316 223.996 231 224.629 229.699 225.191C229.172 225.402 228.644 226.053 228.117 227.142L226.904 229.832C226.447 230.781 226.605 231.256 227.379 231.256H251.426C252.269 231.256 253.113 230.728 253.957 229.674L255.592 227.564C256.224 226.721 256.119 226.299 255.275 226.299H233.285C232.23 226.299 231.598 226.105 231.387 225.719C231.14 225.191 231.51 224.928 232.494 224.928H247.84C248.859 225.349 250.178 224.295 251.795 221.764ZM252.586 234.842C253.43 233.822 254.344 233.734 255.328 234.578L257.859 236.687C258.879 237.566 259.23 238.234 258.914 238.691C258.562 239.148 257.859 239.377 256.805 239.377H230.754C229.699 239.377 229.066 239.183 228.855 238.797C228.609 238.269 228.978 238.006 229.963 238.006H248.683C249.703 238.428 251.004 237.373 252.586 234.842ZM253.219 241.75C254.027 240.765 254.941 240.713 255.961 241.592L258.545 243.701C259.529 244.51 259.881 245.142 259.599 245.599C259.213 246.092 258.492 246.338 257.437 246.338H230.965C229.91 246.338 229.295 246.144 229.119 245.758C228.838 245.195 229.172 244.914 230.121 244.914H249.264C250.283 245.336 251.601 244.281 253.219 241.75ZM228.697 249.765C228.697 248.64 229.189 248.306 230.174 248.764L235.869 251.295C237.029 251.963 238.049 252.226 238.928 252.086H247.523C248.437 252.508 249.51 251.805 250.74 249.976C251.935 248.711 253.078 248.447 254.168 249.185C256.066 250.346 257.965 251.558 259.863 252.824C260.25 253.281 260.004 253.879 259.125 254.617C258.351 255.215 257.965 255.935 257.965 256.779V268.012C257.965 269.066 257.437 269.664 256.383 269.805L250.951 270.437C249.756 270.578 249.158 270.174 249.158 269.224V267.537C249.158 266.658 248.736 266.219 247.892 266.219H238.4C237.521 266.219 237.082 266.781 237.082 267.906C237.082 269.031 236.555 269.664 235.5 269.805L230.279 270.437C229.224 270.543 228.697 270.068 228.697 269.014V249.765ZM249.158 254.828C249.158 253.949 248.736 253.51 247.892 253.51H238.4C237.521 253.51 237.082 253.931 237.082 254.775V263.424C237.082 264.303 237.504 264.742 238.348 264.742H247.84C248.719 264.742 249.158 264.32 249.158 263.476V254.828Z" fill="white"/>
<path d="M174.543 221.869C175.352 220.885 176.266 220.815 177.285 221.658C177.778 222.01 178.27 222.414 178.762 222.871C179.711 223.645 180.151 224.102 180.08 224.242C180.08 224.418 180.502 224.506 181.346 224.506H191.682C192.526 224.506 193.422 223.979 194.371 222.924C195.18 222.01 196.147 221.887 197.272 222.555L201.069 224.981C202.756 225.86 202.985 226.738 201.754 227.617C201.262 227.934 200.963 228.268 200.858 228.619C199.944 232.029 198.485 235.44 196.481 238.85C195.883 239.729 196.111 240.414 197.166 240.906C198.608 241.504 200.102 242.084 201.649 242.647C202.844 243.033 203.442 243.35 203.442 243.596C203.442 244.018 202.826 244.738 201.596 245.758C200.436 247.164 199.697 248.922 199.381 251.031C199.276 252.262 198.643 252.526 197.483 251.822C194.846 250.276 192.631 248.658 190.838 246.971C190.1 246.268 189.151 246.32 187.99 247.129C185.178 248.992 182.242 250.522 179.184 251.717C178.305 252.069 178.445 252.297 179.606 252.402C180.871 252.438 182.137 252.526 183.403 252.666C183.86 252.701 184.246 252.895 184.563 253.246C184.774 253.668 184.44 254.09 183.561 254.512C183.139 254.723 182.928 255.18 182.928 255.883C182.928 256.692 183.35 257.096 184.194 257.096H188.149C188.992 257.096 189.854 256.569 190.733 255.514C191.119 254.986 191.559 254.459 192.051 253.932C193.07 252.701 194.02 252.473 194.899 253.246C195.953 254.055 197.008 254.916 198.063 255.83C199.047 256.674 199.381 257.342 199.065 257.834C198.678 258.361 197.957 258.625 196.903 258.625H184.246C183.367 258.625 182.928 259.047 182.928 259.891V266.219C182.928 267.098 183.35 267.537 184.194 267.537H191.735C192.578 267.537 193.44 267.01 194.319 265.955L196.111 263.74C197.026 262.58 197.975 262.404 198.959 263.213L202.545 266.272C203.494 267.151 203.776 267.801 203.389 268.223C202.932 268.68 202.176 268.908 201.121 268.908H155.242C154.188 268.908 153.555 268.715 153.344 268.328C153.133 267.801 153.52 267.537 154.504 267.537H172.803C173.682 267.537 174.121 267.115 174.121 266.272V259.944C174.121 259.065 173.699 258.625 172.856 258.625H158.881C157.826 258.625 157.176 258.379 156.93 257.887C156.754 257.36 157.194 257.096 158.248 257.096H172.803C173.682 257.096 174.121 256.674 174.121 255.83V253.721C174.121 252.666 174.649 252.156 175.703 252.192L176.653 252.244C177.496 252.244 177.795 252.156 177.549 251.981C177.268 251.77 177.479 251.383 178.182 250.82C179.026 250.082 179.061 249.713 178.287 249.713H164.629C163.75 249.713 163.311 250.188 163.311 251.137C163.311 252.121 162.783 252.719 161.729 252.93L157.352 253.668C156.156 253.879 155.559 253.51 155.559 252.561V223.082C155.559 222.027 156.086 221.658 157.141 221.975L160.832 223.24C162.203 223.838 163.311 224.084 164.154 223.979H171.59C172.574 224.401 173.559 223.697 174.543 221.869ZM165.895 226.826C165.895 225.912 165.49 225.455 164.682 225.455C163.768 225.455 163.311 225.877 163.311 226.721V230.36C163.311 231.238 163.733 231.678 164.576 231.678C165.455 231.678 165.895 231.256 165.895 230.412V226.826ZM178.867 225.719C178.762 225.543 178.322 225.455 177.549 225.455H173.963C173.084 225.455 172.645 225.877 172.645 226.721V230.043C172.645 230.887 173.084 230.817 173.963 229.832C174.842 228.813 175.809 228.637 176.863 229.305C178.094 230.008 179.324 230.764 180.555 231.572C181.856 232.1 182.049 232.785 181.135 233.629C180.537 234.227 180.238 234.912 180.238 235.686V240.485C180.238 241.539 179.711 242.137 178.656 242.277L174.121 242.805C173.278 242.945 172.856 243.438 172.856 244.281V247.076C172.856 248.096 173.313 248.131 174.227 247.182C174.508 246.795 174.842 246.408 175.229 246.022C176.178 245.002 177.197 244.914 178.287 245.758L179.922 247.024C180.871 247.762 181.873 247.639 182.928 246.654C183.983 245.6 184.949 244.527 185.828 243.438C186.461 242.559 186.496 241.61 185.934 240.59C183.86 236.16 182.436 231.678 181.662 227.143C181.451 226.299 180.959 225.877 180.186 225.877C179.412 225.877 178.973 225.824 178.867 225.719ZM192.42 227.301C192.631 226.352 192.35 225.877 191.576 225.877H184.035C183.192 225.877 182.945 226.404 183.297 227.459C184.422 230.307 186.11 232.891 188.36 235.211C189.203 236.02 189.871 235.897 190.363 234.842C191.313 232.029 191.998 229.516 192.42 227.301ZM172.645 234.42C172.645 233.506 172.24 233.049 171.432 233.049H164.629C163.75 233.049 163.311 233.471 163.311 234.315V238.27C163.311 239.149 163.733 239.588 164.576 239.588H171.326C172.205 239.588 172.645 239.166 172.645 238.322V234.42ZM166.106 242.383C166.106 241.504 165.649 241.065 164.735 241.065C163.785 241.065 163.311 241.486 163.311 242.33V246.918C163.311 247.797 163.768 248.236 164.682 248.236C165.631 248.236 166.106 247.815 166.106 246.971V242.383Z" fill="white"/>
</g>
<defs>
<clipPath id="clip0_4649_5799">
<rect width="414" height="7721" fill="white" transform="translate(0 -83)"/>
</clipPath>
</defs>
</svg>
