<svg width="414" height="510" viewBox="0 0 414 510" fill="none" xmlns="http://www.w3.org/2000/svg">
<g clip-path="url(#clip0_4649_5799)">
<path fill-rule="evenodd" clip-rule="evenodd" d="M94.3081 62.5H24.3081V61.5H94.3081V62.5Z" fill="url(#paint0_linear_4649_5799)"/>
<path d="M145.02 62.8163V58.9283H141.396V50.9603H143.82V52.5923H147.588V54.9443H143.82V56.6963H146.484V56.7443H147.396V62.8163C147.396 63.8003 147.204 64.2083 146.556 64.5203C145.932 64.8083 144.996 64.8083 143.82 64.8083C143.724 64.2563 143.436 63.5603 143.196 63.0563C143.82 63.1043 144.516 63.1043 144.732 63.0803C144.948 63.0803 145.02 63.0323 145.02 62.8163ZM141.732 59.5043L143.868 59.8643C143.7 61.4243 143.316 63.0083 142.644 64.0163C142.284 63.7043 141.348 63.1523 140.844 62.8883C141.444 62.0003 141.636 60.7763 141.732 59.5043ZM155.316 65.0243V67.6643H148.548C150.804 68.7203 153.204 69.9683 154.668 70.8803L152.772 73.0643C151.236 72.0083 148.596 70.4723 146.22 69.3203L147.492 67.6643H140.364L142.38 69.3203C140.316 70.6883 137.316 72.2003 134.964 73.1363C134.604 72.5363 133.908 71.6003 133.38 71.0003C135.492 70.2083 138.252 68.8403 139.86 67.6643H133.308V65.0243H135.468L135.06 52.6403C136.572 52.1603 138.42 51.4403 139.644 50.8643L140.868 53.1923C139.86 53.5523 138.732 53.8403 137.652 54.1283L137.724 56.2883H140.46V58.6163H137.796L137.868 60.6803H140.532V63.0083H137.94L138.012 65.0243H150.54C150.588 64.4003 150.612 63.7763 150.66 63.0803H148.236V60.7283H150.756C150.78 60.0563 150.804 59.3603 150.828 58.6643H148.404V56.3123H150.9C150.9 55.6163 150.9 54.9443 150.924 54.2483H148.164V51.8003H153.54C153.54 56.0723 153.42 61.4243 153.228 65.0243H155.316Z" fill="white"/>
<path d="M165.276 60.2483L167.196 61.0643C166.044 66.0323 163.548 69.7523 160.62 71.7203C160.14 71.1203 159.012 70.0163 158.316 69.5843C160.572 68.2403 162.468 65.8883 163.572 63.0563H158.916V60.3683H164.772L165.276 60.2483ZM177.588 57.4883L180.204 59.4323C178.38 61.0643 176.196 62.8643 174.372 64.0883C176.052 66.3923 178.236 68.1683 181.044 69.2723C180.372 69.8243 179.484 71.0003 179.052 71.7683C175.572 70.2083 173.1 67.6403 171.3 64.3523V69.8483C171.3 71.4083 170.988 72.1763 169.956 72.6563C168.972 73.1123 167.508 73.1363 165.492 73.1363C165.372 72.3203 164.916 71.0483 164.532 70.2803C165.732 70.3523 167.22 70.3523 167.652 70.3283C168.084 70.3043 168.228 70.1843 168.228 69.8003V58.3523H162.228V55.6163H171.132C169.092 54.7043 166.308 53.7683 164.1 53.1923L165.516 50.8643C168.3 51.4643 172.308 52.7363 174.348 53.7923L172.812 56.4563C172.404 56.2163 171.876 55.9523 171.3 55.6883V57.6803C171.756 59.1923 172.332 60.6083 173.004 61.9043C174.636 60.6083 176.436 58.9283 177.588 57.4883Z" fill="white"/>
<path d="M197.916 54.404V53.588H192.204V51.764H197.916V50.732H200.7V51.764H206.124V53.588H200.7V54.404H205.38V56.108H193.092V54.404H197.916ZM194.628 58.508V59.948H196.356V58.508H194.628ZM203.652 59.948V58.508H202.116V59.948H203.652ZM198.468 59.948H200.028V58.508H198.468V59.948ZM192.3 61.676V56.78H206.1V61.676H192.3ZM192.756 65.18L190.74 65.828C190.692 65.492 190.644 65.108 190.572 64.676C186.324 65.3 185.532 65.516 185.028 65.756C184.884 65.276 184.5 64.076 184.212 63.428C184.788 63.308 185.268 62.732 185.988 61.82C186.276 61.46 186.804 60.716 187.452 59.708C185.7 59.924 185.196 60.044 184.836 60.212C184.716 59.732 184.308 58.58 184.044 57.98C184.476 57.86 184.86 57.38 185.316 56.636C185.772 55.964 187.164 53.228 187.932 50.708L190.26 51.62C189.468 53.588 188.412 55.7 187.308 57.452L188.844 57.332C189.396 56.3 189.948 55.196 190.404 54.092L192.564 55.388C191.292 57.956 189.636 60.596 187.908 62.78L190.116 62.516C189.948 61.868 189.78 61.22 189.588 60.668L191.484 60.164C192.036 61.796 192.588 63.908 192.756 65.18ZM185.076 66.5L187.236 66.836C187.044 69.092 186.66 71.492 186.156 73.028C185.676 72.764 184.644 72.452 184.068 72.308C184.62 70.796 184.932 68.588 185.076 66.5ZM187.596 66.788L189.468 66.452C189.756 68.228 189.972 70.46 190.02 71.972L188.004 72.332C188.004 70.82 187.812 68.564 187.596 66.788ZM189.828 66.332L191.58 65.828C192.036 67.172 192.564 68.948 192.756 70.124L190.932 70.748C190.74 69.548 190.26 67.724 189.828 66.332ZM195.684 67.388V68.156H202.644V67.388H195.684ZM195.684 65.636V66.356H202.644V65.636H195.684ZM195.684 63.86V64.58H202.644V63.86H195.684ZM205.308 69.596H202.188C203.796 70.124 205.428 70.748 206.508 71.18L205.38 73.172C204.108 72.572 202.02 71.708 200.196 71.036L200.988 69.596H197.436L198.876 71.012C196.98 71.828 194.58 72.716 192.828 73.292C192.612 72.764 192.18 71.9 191.844 71.324C193.164 70.892 195.012 70.244 196.38 69.596H193.164V62.396H205.308V69.596Z" fill="white"/>
<path d="M220.812 55.8443V58.0283H222.132C223.044 57.3323 223.908 56.6123 224.724 55.8443H220.812ZM226.044 66.3323V64.7963H217.788V66.3323H226.044ZM217.788 70.1243H226.044V68.4923H217.788V70.1243ZM231.78 60.5483H223.14C222.204 61.2203 221.292 61.8443 220.308 62.4683H229.02V73.1243H226.044V72.5003H217.788V73.2203H214.932V65.3723C213.732 65.9003 212.484 66.4283 211.26 66.8843C210.9 66.2603 210.06 65.1083 209.508 64.5323C212.652 63.5483 215.676 62.1803 218.436 60.5483H210.276V58.0283H217.98V55.8443H212.34V53.3723H217.98V50.7803H220.812V53.3723H226.02V54.5483C226.932 53.5643 227.748 52.5563 228.492 51.5003L230.94 52.7483C229.572 54.6443 227.964 56.4203 226.212 58.0283H231.78V60.5483Z" fill="white"/>
<path d="M247.188 62.3358H242.7V65.6478H247.188V62.3358ZM249.828 67.9998H242.7V69.5837H240.06V59.9837H249.828V67.9998ZM250.908 55.7358V58.1357H238.932V55.7358H250.908ZM255.132 51.3438V69.3438C255.132 70.8318 254.82 71.6478 253.908 72.1038C252.996 72.5838 251.652 72.6558 249.66 72.6558C249.54 71.8638 249.108 70.5678 248.676 69.8238C249.948 69.8958 251.34 69.8957 251.748 69.8717C252.156 69.8477 252.324 69.7037 252.324 69.3197V54.0557H237.564V72.6318H234.78V51.3438H255.132Z" fill="white"/>
<path d="M280.092 52.1483V54.8603H268.428V52.1483H280.092ZM263.82 50.7803L266.58 51.9083C264.852 54.1643 262.26 56.6363 259.98 58.2203C259.62 57.5963 258.9 56.4443 258.396 55.8923C260.388 54.6203 262.668 52.4603 263.82 50.7803ZM264.732 55.9643L267.468 57.0203C266.748 58.2443 265.86 59.4923 264.9 60.6923V73.2203H262.044V63.8363C261.372 64.4843 260.724 65.0843 260.076 65.6123C259.668 65.0363 258.708 63.7403 258.132 63.1403C260.58 61.4603 263.196 58.6763 264.732 55.9643ZM280.692 58.7483V61.4603H277.404V69.8843C277.404 71.4203 277.116 72.2123 276.06 72.6443C275.052 73.0763 273.516 73.1243 271.38 73.1243C271.26 72.2843 270.9 71.0363 270.516 70.2203C271.884 70.2923 273.468 70.2923 273.9 70.2683C274.332 70.2683 274.5 70.1723 274.5 69.8123V61.4603H267.42V58.7483H280.692Z" fill="white"/>
<path fill-rule="evenodd" clip-rule="evenodd" d="M389.692 62.5L319.692 62.5L319.692 61.5L389.692 61.5L389.692 62.5Z" fill="url(#paint1_linear_4649_5799)"/>
</g>
<defs>
<linearGradient id="paint0_linear_4649_5799" x1="24.3081" y1="63" x2="94.3081" y2="63" gradientUnits="userSpaceOnUse">
<stop stop-color="#FFFEFE" stop-opacity="0"/>
<stop offset="1" stop-color="white"/>
</linearGradient>
<linearGradient id="paint1_linear_4649_5799" x1="319.692" y1="63" x2="389.692" y2="63" gradientUnits="userSpaceOnUse">
<stop stop-color="white"/>
<stop offset="1" stop-color="#FFFEFE" stop-opacity="0"/>
</linearGradient>
<clipPath id="clip0_4649_5799">
<rect width="414" height="7721" fill="white" transform="translate(0 -695)"/>
</clipPath>
</defs>
</svg>
