<svg width="414" height="612" viewBox="0 0 414 612" fill="none" xmlns="http://www.w3.org/2000/svg">
<g clip-path="url(#clip0_4649_5799)">
<path d="M105.623 379.992C106.31 379.67 106.955 379.67 107.557 379.992L111.069 381.958C111.434 382.151 111.628 382.388 111.649 382.667C111.606 382.946 111.273 383.107 110.65 383.15L106.912 383.505C106.396 383.569 106.139 383.859 106.139 384.375V385.406C106.139 385.943 106.396 386.212 106.912 386.212H109.071C109.651 386.491 110.371 385.954 111.23 384.601C111.81 383.978 112.423 383.924 113.067 384.439L114.034 385.213C114.829 385.857 115.13 386.319 114.936 386.599C114.722 386.899 114.313 387.05 113.712 387.05H107.589C107.138 387.05 106.944 387.114 107.009 387.243C109.093 387.888 111.263 388.274 113.518 388.403C114.249 388.446 114.614 388.543 114.614 388.693C114.614 388.908 114.281 389.263 113.615 389.757C113.035 390.444 112.595 391.314 112.294 392.367C112.143 393.098 111.703 393.312 110.973 393.012C109.275 392.217 107.847 391.132 106.686 389.757C106.321 389.198 106.139 389.198 106.139 389.757V391.11C106.139 391.755 105.816 392.12 105.172 392.206C104.076 392.313 102.98 392.453 101.885 392.625C101.197 392.732 100.853 392.464 100.853 391.819V390.949C100.853 390.412 100.52 390.358 99.8544 390.788C98.2431 391.733 96.4169 392.475 94.3759 393.012C93.7314 393.184 93.3554 393.13 93.248 392.851C93.162 392.593 93.4628 392.238 94.1503 391.787C95.6327 390.713 96.7392 389.392 97.4697 387.823C97.6845 387.308 97.5341 387.05 97.0185 387.05H95.0204C94.3759 387.05 93.9892 386.932 93.8603 386.695C93.7099 386.373 93.9355 386.212 94.537 386.212H100.048C100.585 386.212 100.853 385.954 100.853 385.438V384.633C100.853 384.096 100.499 383.838 99.79 383.859C98.6298 383.859 97.4267 383.892 96.1806 383.956C95.5361 383.956 95.1816 383.913 95.1171 383.827C95.0741 383.72 95.3749 383.58 96.0195 383.408C99.4355 382.57 102.637 381.432 105.623 379.992ZM87.8017 380.282C87.9091 380.089 88.2529 379.992 88.8329 379.992C91.0673 379.906 92.7001 380.476 93.7314 381.7C94.3114 382.474 94.4189 383.344 94.0536 384.311C93.6239 385.17 93.0654 385.643 92.3779 385.729C91.1747 386.008 90.2831 385.396 89.703 383.892C89.746 383.075 89.4023 382.216 88.6718 381.313C88.0273 380.755 87.7372 380.411 87.8017 380.282ZM86.706 386.147C86.7704 385.997 87.1142 385.922 87.7372 385.922C88.5107 385.922 89.2948 386.019 90.0898 386.212C92.5175 386.942 93.4521 388.403 92.8935 390.595C92.8075 390.981 92.4638 391.368 91.8622 391.755C90.5947 392.399 89.5527 392.023 88.7363 390.627C88.5214 390.197 88.4355 389.768 88.4784 389.338C88.3495 388.65 88.0595 388.006 87.6083 387.404C86.8993 386.76 86.5986 386.341 86.706 386.147ZM106.139 392.689C106.805 392.217 107.503 392.185 108.233 392.593C109.028 393.044 109.823 393.527 110.618 394.043C110.811 394.387 110.586 394.688 109.941 394.945C109.748 394.988 109.458 395.257 109.071 395.751C108.642 396.31 108.502 396.589 108.652 396.589C108.846 396.567 109.265 396.256 109.909 395.654C110.446 395.182 111.059 395.16 111.746 395.59L114.099 397.137C115.108 397.502 115.184 397.996 114.324 398.619C114.002 398.855 113.776 399.296 113.647 399.94C113.347 401.423 112.885 402.615 112.262 403.518C111.359 404.076 109.941 404.345 108.008 404.323C107.299 404.323 106.891 404.001 106.783 403.356C106.697 402.411 106.139 401.777 105.107 401.455C104.592 401.305 104.334 401.122 104.334 400.907C104.355 400.692 104.688 400.585 105.333 400.585H107.685C108.201 400.585 108.556 400.263 108.749 399.618C108.878 399.167 108.964 398.716 109.007 398.265C109.028 397.749 108.835 397.491 108.427 397.491C108.018 397.491 107.739 397.577 107.589 397.749C107.46 397.921 107.073 398.007 106.429 398.007H103.915C103.27 398.007 103.12 397.685 103.464 397.04L104.688 394.849C105.011 394.29 104.86 394.011 104.237 394.011C103.593 394.011 103.195 394.333 103.045 394.978C102.637 397.019 102.067 398.63 101.337 399.812C100.993 400.563 100.23 401.326 99.0488 402.1C97.7812 402.852 96.3417 403.432 94.7304 403.84C94.1503 403.969 93.914 404.076 94.0214 404.162C94.7089 404.398 95.6972 404.549 96.9863 404.613H114.936C115.581 404.613 115.914 404.71 115.935 404.903C115.935 405.097 115.817 405.312 115.581 405.548C115.044 406.407 114.732 407.449 114.646 408.674C114.603 409.318 114.26 409.641 113.615 409.641H98.8232C96.4599 409.146 94.5263 407.589 93.0224 404.968C92.6572 404.302 92.2382 404.28 91.7655 404.903L88.9296 408.771C88.414 409.329 88.0702 410.017 87.8984 410.833C87.3827 411.069 86.953 410.661 86.6093 409.608L85.1913 406.708C84.912 406.063 85.0947 405.612 85.7392 405.354C86.2763 405.097 86.8134 404.871 87.3505 404.678C88.0165 404.355 88.3495 403.937 88.3495 403.421V395.719C88.3495 395.182 88.0917 394.913 87.5761 394.913H86.2548C85.6103 394.913 85.2128 394.763 85.0624 394.462C84.955 394.161 85.2988 394.021 86.0937 394.043H87.5116C88.0273 394.043 88.6073 393.764 89.2519 393.205C89.8964 392.646 90.5409 392.571 91.1855 392.979L93.4413 394.462C94.0644 394.978 94.3759 395.289 94.3759 395.396C94.29 395.525 94.1073 395.676 93.828 395.848C93.5273 396.041 93.3769 396.396 93.3769 396.911V402.293C93.4628 403.002 93.8173 403.142 94.4404 402.712C95.3642 402.003 96.0732 401.262 96.5673 400.488C97.3407 399.113 97.8241 397.223 98.0175 394.816C98.0605 394.279 97.8241 394.011 97.3085 394.011H96.5673C95.9228 394.011 95.5361 393.893 95.4072 393.656C95.2568 393.334 95.4823 393.173 96.0839 393.173H104.721C105.236 393.173 105.709 393.012 106.139 392.689ZM142.907 380.572C143.53 379.928 144.142 379.788 144.743 380.153L146.323 381.088C147.139 381.582 147.59 381.904 147.676 382.055C147.676 382.205 147.536 382.42 147.257 382.699C146.87 382.957 146.677 383.322 146.677 383.795V388.919C146.677 389.585 146.806 389.703 147.064 389.273C147.236 388.951 147.601 389.037 148.159 389.531L149.449 390.691C150.093 391.314 150.426 391.669 150.448 391.755C150.426 391.97 150.147 392.228 149.61 392.528C149.266 392.679 149.094 393.012 149.094 393.527V401.681C149.073 402.884 148.288 403.668 146.741 404.033C145.947 404.184 145.141 404.28 144.324 404.323C143.594 404.323 143.197 404.001 143.132 403.356C143.111 402.583 142.788 401.863 142.165 401.197C141.822 400.939 141.65 400.703 141.65 400.488C141.671 400.316 142.004 400.23 142.649 400.23H143.164C143.701 400.23 143.97 399.973 143.97 399.457V392.528C143.97 391.991 143.712 391.723 143.197 391.723H135.881C135.344 391.723 135.075 391.98 135.075 392.496V402.68C135.075 403.324 134.753 403.7 134.109 403.808L131.466 404.194C130.779 404.302 130.435 404.033 130.435 403.389V390.272C130.435 389.628 130.757 389.402 131.402 389.596C131.638 389.639 131.874 389.714 132.111 389.821C132.626 389.972 132.884 389.789 132.884 389.273V381.249C132.884 380.604 133.206 380.379 133.851 380.572L136.107 381.346C136.493 381.475 136.945 381.539 137.46 381.539H141.231C141.746 381.539 142.305 381.217 142.907 380.572ZM122.926 380.443C123.033 380.229 123.377 380.121 123.957 380.121C126.149 380.057 127.878 380.508 129.146 381.475C129.855 382.162 130.145 382.936 130.016 383.795C129.758 385.213 128.952 385.954 127.599 386.019C126.224 385.911 125.375 385.202 125.053 383.892C125.032 382.903 124.591 382.044 123.732 381.313C123.152 380.884 122.883 380.594 122.926 380.443ZM142.294 383.215C142.294 382.678 142.036 382.409 141.521 382.409H137.944C137.407 382.409 137.138 382.667 137.138 383.183V390.015C137.138 390.552 137.288 390.82 137.589 390.82C137.911 390.82 138.073 390.562 138.073 390.047V385.503C138.073 384.858 138.395 384.644 139.039 384.858C140.049 385.331 140.844 385.514 141.424 385.406C142.004 385.406 142.294 385.148 142.294 384.633V383.215ZM122.024 386.115C122.11 385.9 122.432 385.793 122.991 385.793C124.537 385.793 125.837 386.019 126.89 386.47C127.642 386.792 128.222 387.297 128.63 387.984C129.232 389.059 129.146 390.133 128.372 391.207C127.599 392.023 126.75 392.281 125.826 391.98C124.752 391.486 124.161 390.734 124.054 389.725C124.097 388.865 123.721 388.006 122.926 387.146C122.282 386.588 121.981 386.244 122.024 386.115ZM142.294 387.179C142.294 386.599 142.144 386.309 141.843 386.309C141.456 386.309 141.263 386.566 141.263 387.082V390.015C141.263 390.552 141.424 390.82 141.746 390.82C142.112 390.82 142.294 390.562 142.294 390.047V387.179ZM124.312 393.592C124.87 392.84 125.461 392.646 126.084 393.012L128.695 394.591C129.382 395.063 129.629 395.493 129.436 395.88C129.049 396.288 128.856 396.75 128.856 397.266V402.261C128.899 402.69 128.974 403.12 129.081 403.55C129.21 404.065 129.522 404.42 130.016 404.613C130.897 404.828 131.864 404.957 132.916 405H150.19C150.834 405 151.167 405.107 151.189 405.322C151.167 405.537 151.049 405.752 150.834 405.967C150.383 406.633 150.115 407.524 150.029 408.642C150.029 409.308 149.706 409.641 149.062 409.641H134.399C132.121 409.254 130.113 407.503 128.372 404.388C128.093 403.872 127.696 403.958 127.18 404.646C126.084 406.149 125.032 407.653 124.022 409.157C123.785 409.823 123.624 410.178 123.538 410.221C123.216 410.285 122.98 410.146 122.829 409.802C122.185 408.599 121.583 407.396 121.025 406.192C120.702 405.483 120.821 405.011 121.379 404.774L123.087 404.13C123.603 403.894 123.861 403.518 123.861 403.002V396.234C123.861 395.697 123.603 395.429 123.087 395.429H122.024C121.379 395.429 120.992 395.311 120.864 395.074C120.713 394.73 120.928 394.559 121.508 394.559H122.829C123.345 394.559 123.839 394.236 124.312 393.592ZM136.107 393.721C136.107 393.076 136.429 392.894 137.074 393.173C138.083 393.753 138.846 393.989 139.362 393.882C139.856 393.882 140.285 393.688 140.651 393.302C140.973 392.958 141.489 393.001 142.198 393.431C142.326 393.474 142.466 393.56 142.616 393.688C143.368 394.247 143.669 394.655 143.519 394.913C143.304 395.171 143.197 395.558 143.197 396.073V398.555C143.197 399.199 142.874 399.575 142.23 399.683L141.263 399.812C140.49 399.897 140.103 399.801 140.103 399.521C140.103 399.199 139.942 399.038 139.619 399.038C139.254 399.038 139.072 399.264 139.072 399.715C139.072 400.188 138.749 400.478 138.105 400.585L137.074 400.714C136.429 400.778 136.107 400.488 136.107 399.844V393.721ZM140.103 395.59C140.103 395.053 139.942 394.784 139.619 394.784C139.254 394.784 139.072 395.042 139.072 395.558V397.362C139.072 397.899 139.233 398.168 139.555 398.168C139.92 398.168 140.103 397.91 140.103 397.395V395.59ZM159.565 380.766C159.651 380.078 160.006 379.81 160.629 379.96C162.304 380.325 163.98 380.733 165.656 381.185C166.107 381.636 165.924 382.001 165.108 382.28C164.85 382.366 164.56 382.731 164.238 383.376L163.432 384.826C163.089 385.385 163.164 385.664 163.658 385.664H165.463C166.086 385.922 166.891 385.277 167.88 383.73C168.374 383.15 168.964 383.129 169.652 383.666C170.082 383.988 170.511 384.343 170.941 384.729C171.543 385.181 171.843 385.148 171.843 384.633V383.44C171.843 382.796 172.166 382.57 172.81 382.764L175.066 383.537C176.162 384.117 177.601 384.311 179.384 384.117C179.9 384.117 180.48 383.838 181.125 383.279C181.877 382.656 182.543 382.538 183.123 382.925C183.853 383.354 184.584 383.816 185.314 384.311C185.787 384.568 186.131 384.88 186.345 385.245C186.388 385.396 186.249 385.61 185.926 385.89C185.561 386.126 185.379 386.502 185.379 387.018V406.934C185.379 407.578 185.056 407.965 184.412 408.094C183.338 408.223 182.263 408.384 181.189 408.577C180.545 408.642 180.222 408.352 180.222 407.707V405.387C180.222 404.85 179.964 404.581 179.449 404.581H177.644C177.107 404.581 176.839 404.839 176.839 405.354V407.353C176.839 407.997 176.516 408.384 175.872 408.513L172.971 408.964C172.219 409.05 171.843 408.771 171.843 408.126V397.137C171.843 396.6 171.586 396.331 171.07 396.331H166.784C166.268 396.331 165.935 396.632 165.785 397.233C165.677 397.835 165.967 398.318 166.655 398.684C168.803 399.758 170.221 401.101 170.909 402.712C171.446 404.173 171.553 405.462 171.231 406.579C170.737 407.524 170.2 408.04 169.62 408.126C168.395 408.427 167.439 407.868 166.752 406.45C166.451 405.72 166.279 404.86 166.236 403.872C166.214 402.991 165.989 401.949 165.559 400.746C165.301 400.188 165.065 400.252 164.85 400.939C163.411 404.57 160.865 407.524 157.213 409.802C156.568 410.188 156.192 410.296 156.085 410.124C156.02 409.952 156.235 409.533 156.729 408.867C159.372 405.193 160.822 401.272 161.08 397.104C161.101 396.589 160.854 396.331 160.339 396.331H157.857C157.213 396.331 156.826 396.213 156.697 395.977C156.568 395.633 156.794 395.461 157.374 395.461H160.403C160.919 395.461 161.209 395.139 161.273 394.494C161.423 392.926 161.499 390.971 161.499 388.629C161.499 388.113 161.23 388.156 160.693 388.758C159.855 389.811 158.684 391.035 157.18 392.432C156.536 392.99 156.16 393.227 156.052 393.141C155.945 393.055 156.031 392.689 156.31 392.045C157.9 388.457 158.985 384.697 159.565 380.766ZM180.222 385.89C180.222 385.31 179.986 385.02 179.513 385.02H177.644C177.107 385.02 176.839 385.277 176.839 385.793V402.905C176.839 403.442 177.096 403.711 177.612 403.711H179.417C179.954 403.711 180.222 403.453 180.222 402.938V385.89ZM171.843 386.889C171.843 386.309 171.768 386.094 171.618 386.244C171.467 386.438 171.07 386.534 170.425 386.534H167.493C166.977 386.534 166.698 386.856 166.655 387.501C166.655 389.306 166.494 391.68 166.172 394.623C166.129 395.182 166.193 395.461 166.365 395.461C166.58 395.418 166.956 395.074 167.493 394.43L168.266 393.463C168.76 392.904 169.362 392.915 170.071 393.495L171.07 394.301C171.586 394.709 171.843 394.655 171.843 394.14V386.889ZM198.847 380.798C199.405 380.175 199.996 380.1 200.619 380.572L201.586 381.346C202.166 381.818 202.392 382.194 202.263 382.474C202.048 382.774 201.618 382.925 200.974 382.925H194.625C193.98 382.925 193.594 382.807 193.465 382.57C193.314 382.248 193.54 382.087 194.142 382.087H196.945C197.525 382.345 198.159 381.915 198.847 380.798ZM205.131 380.83C205.131 380.186 205.442 379.885 206.065 379.928L209.61 380.186C210.448 380.336 210.899 380.486 210.964 380.637C211.093 380.895 210.878 381.152 210.319 381.41C209.997 381.582 209.836 381.926 209.836 382.441V383.118C209.836 383.784 210.029 383.892 210.416 383.44C210.76 382.968 211.125 382.925 211.512 383.312C211.92 383.72 212.124 383.602 212.124 382.957L212.06 380.83C212.06 380.186 212.382 379.885 213.026 379.928L217.216 380.379C217.517 380.379 217.731 380.551 217.86 380.895C217.882 381.26 217.656 381.507 217.184 381.636C216.861 381.829 216.7 382.098 216.7 382.441C216.7 382.785 216.743 382.925 216.829 382.86C216.937 382.731 217.312 382.785 217.957 383.021C218.881 383.365 219.729 383.752 220.503 384.182C221.878 385.449 222.104 386.717 221.18 387.984C220.213 389.145 219.289 389.327 218.408 388.532C218.043 388.146 217.86 387.587 217.86 386.856C217.796 385.868 217.603 385.009 217.28 384.278C216.894 383.591 216.7 383.634 216.7 384.407V391.014C216.7 391.572 216.829 391.852 217.087 391.852C217.345 391.852 217.764 391.529 218.344 390.885L218.602 390.562C219.225 389.875 219.837 389.768 220.438 390.24L221.47 391.046C222.136 391.583 222.394 391.991 222.243 392.271C222.05 392.571 221.631 392.722 220.986 392.722H217.57C217.055 392.722 216.797 393.044 216.797 393.688L216.99 395.558C217.119 396.073 217.227 396.299 217.312 396.234C217.57 395.633 217.774 395.031 217.925 394.43C218.14 393.721 218.548 393.581 219.149 394.011L221.341 395.59C222.093 396.17 222.479 396.535 222.501 396.686C222.458 397.051 222.211 397.201 221.76 397.137C221.502 397.137 221.212 397.459 220.89 398.104C220.353 399.221 219.762 400.37 219.117 401.552C218.494 402.067 218.612 402.884 219.472 404.001C219.794 404.474 220.127 404.345 220.471 403.614C220.664 403.163 220.89 402.701 221.147 402.229C221.491 401.605 221.749 401.337 221.921 401.423C222.136 401.487 222.179 401.853 222.05 402.519C221.448 404.538 221.362 406.139 221.792 407.32C222.071 408.029 221.91 408.749 221.309 409.479C220.492 410.296 219.633 410.468 218.73 409.995C217.828 409.587 216.894 408.749 215.927 407.481C215.519 406.88 214.981 406.826 214.315 407.32C212.382 408.545 209.804 409.426 206.581 409.963C205.872 410.07 205.475 410.038 205.389 409.866C205.346 409.759 205.679 409.533 206.388 409.189C209.353 407.75 211.684 406.053 213.381 404.098C213.789 403.582 213.896 403.002 213.703 402.357C213.252 400.682 212.94 398.705 212.769 396.428C212.726 395.891 212.564 395.783 212.285 396.105C211.963 396.363 211.802 396.75 211.802 397.266V403.969C211.802 404.613 211.479 404.979 210.835 405.064L209.224 405.258C208.45 405.322 208.063 405.064 208.063 404.484C208.063 403.861 207.881 403.55 207.516 403.55C207.107 403.55 206.903 403.808 206.903 404.323V405.645C206.903 406.289 206.581 406.654 205.937 406.74L204.261 406.934C203.616 406.998 203.294 406.708 203.294 406.063V394.397C203.294 393.753 203.616 393.57 204.261 393.85C204.583 393.957 204.905 394.097 205.228 394.269C206.216 394.827 206.914 395.053 207.322 394.945C207.816 394.945 208.3 394.688 208.772 394.172C209.224 393.656 209.793 393.613 210.48 394.043L211.77 394.849C212.35 395.257 212.64 395.203 212.64 394.688L212.543 393.495C212.479 392.979 212.188 392.722 211.673 392.722H202.359C201.715 392.722 201.328 392.604 201.199 392.367C201.07 392.023 201.296 391.852 201.876 391.852H203.552C204.089 391.852 204.239 391.519 204.003 390.853C204.003 389.349 203.799 388.07 203.391 387.018C203.068 386.373 202.972 385.965 203.101 385.793C203.208 385.6 203.595 385.653 204.261 385.954C206.581 386.749 207.666 388.103 207.516 390.015C207.451 390.337 207.333 390.691 207.161 391.078C206.796 391.594 206.817 391.852 207.226 391.852C207.634 391.852 207.913 391.529 208.063 390.885L208.901 386.18C208.987 385.643 208.772 385.374 208.257 385.374H203.004C202.359 385.374 201.962 385.224 201.812 384.923C201.704 384.622 201.973 384.472 202.617 384.472H204.325C204.862 384.472 205.131 384.214 205.131 383.698V380.83ZM198.75 384.762C199.373 384.096 199.985 383.988 200.587 384.439L201.489 385.148C202.241 385.75 202.531 386.201 202.359 386.502C202.209 386.781 201.812 386.921 201.167 386.921H194.109C193.465 386.921 193.089 386.803 192.981 386.566C192.831 386.223 193.046 386.051 193.626 386.051H196.849C197.429 386.309 198.062 385.879 198.75 384.762ZM212.221 385.954C212.178 385.567 211.909 385.374 211.415 385.374H210.577C209.868 385.374 209.814 385.503 210.416 385.761C210.738 385.847 211.061 385.965 211.383 386.115C211.941 386.33 212.221 386.276 212.221 385.954ZM198.879 388.758C199.416 388.156 199.996 388.092 200.619 388.564L201.554 389.306C202.155 389.778 202.392 390.165 202.263 390.466C202.048 390.767 201.618 390.917 200.974 390.917H194.496C193.852 390.917 193.465 390.799 193.336 390.562C193.186 390.219 193.4 390.047 193.98 390.047H196.978C197.558 390.305 198.191 389.875 198.879 388.758ZM212.317 389.112C212.296 388.532 212.027 388.554 211.512 389.177L209.965 391.078C209.578 391.594 209.643 391.852 210.158 391.852H211.641C212.156 391.852 212.403 391.529 212.382 390.885L212.317 389.112ZM199.008 392.883C199.545 392.281 200.114 392.206 200.716 392.657L201.618 393.366C202.263 393.882 202.521 394.29 202.392 394.591C202.198 394.892 201.779 395.042 201.135 395.042H194.496C193.852 395.042 193.465 394.924 193.336 394.688C193.186 394.344 193.4 394.172 193.98 394.172H197.106C197.687 394.43 198.32 394 199.008 392.883ZM208.063 396.686C208.063 396.127 207.881 395.848 207.516 395.848C207.107 395.848 206.903 396.105 206.903 396.621V397.878C206.903 398.415 207.086 398.684 207.451 398.684C207.859 398.684 208.063 398.426 208.063 397.91V396.686ZM193.239 397.233C193.239 396.567 193.551 396.374 194.174 396.653L196.397 397.62C196.827 397.813 197.278 397.91 197.751 397.91C198.245 397.91 198.696 397.652 199.104 397.137C199.513 396.643 200.061 396.61 200.748 397.04L202.037 397.846C202.918 398.189 203.165 398.63 202.778 399.167C202.521 399.468 202.392 399.844 202.392 400.295V407.997C202.392 408.642 202.069 409.007 201.425 409.093C200.78 409.114 200.136 409.168 199.491 409.254C198.847 409.297 198.524 408.985 198.524 408.319C198.524 407.632 198.288 407.288 197.815 407.288C197.321 407.288 197.074 407.621 197.074 408.287C197.074 408.975 196.752 409.372 196.107 409.479L194.206 409.737C193.562 409.802 193.239 409.512 193.239 408.867V397.233ZM198.524 399.65C198.524 399.113 198.288 398.845 197.815 398.845C197.321 398.845 197.074 399.103 197.074 399.618V405.612C197.074 406.149 197.311 406.418 197.783 406.418C198.277 406.418 198.524 406.16 198.524 405.645V399.65ZM208.063 400.392C208.063 399.833 207.881 399.554 207.516 399.554C207.107 399.554 206.903 399.812 206.903 400.327V401.874C206.903 402.411 207.086 402.68 207.451 402.68C207.859 402.68 208.063 402.422 208.063 401.906V400.392ZM231.328 380.733C231.436 379.981 231.769 379.67 232.327 379.799C233.96 380.121 235.593 380.486 237.226 380.895C237.527 380.959 237.785 381.066 237.999 381.217C238.214 381.625 238.01 381.958 237.387 382.216C237.108 382.323 236.893 382.527 236.743 382.828C236.614 383.172 236.796 383.344 237.29 383.344H242.962C243.499 383.344 243.768 383.086 243.768 382.57V380.604C243.768 379.96 244.09 379.648 244.735 379.67L248.924 379.928C249.569 380.164 249.902 380.336 249.923 380.443C249.923 380.701 249.708 380.927 249.279 381.12C249.042 381.228 248.924 381.614 248.924 382.28C248.924 382.989 249.182 383.344 249.698 383.344H251.341C251.921 383.623 252.641 383.097 253.5 381.765C254.037 381.142 254.639 381.088 255.305 381.604L256.304 382.377C257.12 383.021 257.432 383.473 257.239 383.73C257.002 384.053 256.583 384.214 255.982 384.214H249.73C249.193 384.214 248.924 384.536 248.924 385.181C248.924 385.868 249.182 386.212 249.698 386.212H250.407C250.922 386.212 251.502 385.9 252.147 385.277C252.813 384.676 253.468 384.601 254.113 385.052C254.865 385.524 255.617 386.029 256.369 386.566C257.335 386.996 257.486 387.479 256.82 388.017C256.519 388.188 256.369 388.532 256.369 389.048V393.785C256.369 394.43 256.25 394.784 256.014 394.849C255.692 394.913 255.874 395.085 256.562 395.364C258.281 396.524 258.42 397.856 256.981 399.36C256.465 399.726 256.476 400.123 257.013 400.553C257.701 401.111 257.958 401.53 257.786 401.81C257.615 402.11 257.206 402.261 256.562 402.261H253.597C253.06 402.261 252.791 402.519 252.791 403.034V408.19C252.641 409.007 252.201 409.576 251.47 409.898C250.783 410.178 249.837 410.339 248.634 410.382C247.818 410.382 247.345 410.06 247.216 409.415C247.001 408.513 246.496 407.793 245.702 407.256C244.993 406.934 244.649 406.676 244.67 406.482C244.692 406.354 245.025 406.289 245.669 406.289H246.829C247.367 406.289 247.635 406.031 247.635 405.516V403.066C247.635 402.529 247.377 402.261 246.862 402.261H240.159C239.686 402.261 239.729 402.379 240.287 402.615C241.018 402.83 241.748 403.088 242.479 403.389C243.703 403.926 244.251 404.774 244.122 405.935C243.714 407.417 242.887 408.18 241.641 408.223C240.889 408.201 240.309 407.804 239.901 407.03C239.75 405.569 239.471 404.495 239.063 403.808C238.418 403.056 238.15 402.604 238.257 402.454C238.322 402.325 238.096 402.261 237.58 402.261H236.904C236.259 402.261 235.883 402.143 235.776 401.906C235.604 401.562 235.808 401.391 236.388 401.391H237.097C237.634 401.391 237.731 401.058 237.387 400.392L236.13 397.846C235.829 397.201 236.001 396.868 236.646 396.847H241.512L242.962 396.814C243.499 396.814 243.768 396.557 243.768 396.041V394.945C243.768 394.408 243.51 394.14 242.994 394.14H242.221C241.684 394.14 241.415 394.279 241.415 394.559C241.415 394.859 241.093 395.074 240.449 395.203C239.482 395.332 238.515 395.493 237.548 395.687C236.904 395.772 236.581 395.493 236.581 394.849V385.503C236.581 384.858 236.904 384.644 237.548 384.858C238.3 385.095 239.052 385.363 239.804 385.664C240.814 386.094 241.534 386.276 241.963 386.212H242.962C243.499 386.212 243.768 385.89 243.768 385.245C243.768 384.558 243.51 384.214 242.994 384.214H237.806C237.161 384.214 236.775 384.096 236.646 383.859C236.517 383.602 236.302 383.806 236.001 384.472C235.357 385.997 234.551 387.522 233.584 389.048C233.241 389.563 233.412 389.886 234.1 390.015C234.422 390.058 234.777 390.144 235.163 390.272C235.636 390.466 235.561 390.745 234.938 391.11C234.787 391.153 234.712 391.433 234.712 391.948V408.771C234.712 409.415 234.39 409.78 233.745 409.866C232.779 409.931 231.801 410.027 230.813 410.156C230.168 410.199 229.846 409.898 229.846 409.254V394.913C229.846 394.354 229.556 394.397 228.976 395.042L228.686 395.364C227.998 396.073 227.601 396.406 227.494 396.363C227.365 396.277 227.418 395.912 227.655 395.268C229.481 390.842 230.705 385.997 231.328 380.733ZM243.768 387.855C243.768 387.318 243.51 387.05 242.994 387.05H242.221C241.684 387.05 241.415 387.308 241.415 387.823V388.983C241.415 389.521 241.673 389.789 242.189 389.789H242.962C243.499 389.789 243.768 389.531 243.768 389.016V387.855ZM251.244 387.855C251.244 387.318 250.987 387.05 250.471 387.05H249.73C249.193 387.05 248.924 387.308 248.924 387.823V388.983C248.924 389.521 249.182 389.789 249.698 389.789H250.439C250.976 389.789 251.244 389.531 251.244 389.016V387.855ZM243.768 391.529C243.768 390.949 243.532 390.659 243.059 390.659H242.221C241.684 390.659 241.415 390.917 241.415 391.433V392.464C241.415 393.001 241.673 393.27 242.189 393.27H242.962C243.499 393.27 243.768 393.012 243.768 392.496V391.529ZM251.244 391.529C251.244 390.949 251.008 390.659 250.536 390.659H249.73C249.193 390.659 248.924 390.917 248.924 391.433V392.464C248.924 393.001 249.182 393.27 249.698 393.27H250.439C250.976 393.27 251.244 393.012 251.244 392.496V391.529ZM251.244 394.881C251.244 394.387 250.987 394.14 250.471 394.14H249.73C249.193 394.14 248.924 394.397 248.924 394.913V395.977C248.924 396.514 249.182 396.782 249.698 396.782H252.791C253.328 396.782 253.457 396.546 253.178 396.073C252.877 395.321 252.319 395.139 251.502 395.525C251.33 395.547 251.244 395.332 251.244 394.881ZM254.177 398.619C253.984 398.018 253.533 397.781 252.824 397.91C251.857 398.104 250.879 398.329 249.891 398.587C249.397 398.737 249.418 398.855 249.955 398.941L252.147 399.07C252.534 399.07 252.952 399.146 253.404 399.296C253.812 399.64 253.747 399.951 253.21 400.23C252.931 400.402 252.791 400.617 252.791 400.875C252.791 401.197 252.877 401.369 253.049 401.391C253.2 401.391 253.522 401.122 254.016 400.585C254.553 399.962 254.607 399.307 254.177 398.619ZM246.572 399.328C244.788 399.672 242.576 400.134 239.933 400.714C239.417 400.821 239.138 400.939 239.095 401.068C239.031 401.283 239.235 401.391 239.707 401.391H246.829C247.367 401.391 247.635 401.133 247.635 400.617V399.908C247.635 399.393 247.281 399.199 246.572 399.328ZM283.63 380.862C284.317 380.175 284.983 380.067 285.628 380.54L289.237 383.021C289.624 383.236 289.806 383.591 289.785 384.085C289.549 384.472 289.14 384.601 288.56 384.472C288.066 384.364 287.368 384.525 286.466 384.955C285.198 385.406 283.93 385.89 282.663 386.405C282.061 386.62 281.836 386.771 281.986 386.856C282.351 387.114 282.255 387.426 281.696 387.791C281.417 387.92 281.277 388.242 281.277 388.758V389.563C281.277 390.079 281.46 390.165 281.825 389.821C282.169 389.456 282.598 389.456 283.114 389.821C283.651 390.208 283.877 390.079 283.791 389.435C283.705 388.94 283.651 388.436 283.63 387.92C283.565 387.275 283.673 386.953 283.952 386.953C284.231 386.953 284.446 387.275 284.596 387.92C284.811 388.973 285.155 390.154 285.628 391.465C285.907 392.131 286.251 392.152 286.659 391.529C287.325 390.498 288.034 389.209 288.786 387.662C289.13 386.953 289.592 386.813 290.172 387.243C291.31 388.167 292.481 389.08 293.684 389.982C294.028 390.219 294.114 390.498 293.942 390.82C293.835 390.885 293.609 390.917 293.265 390.917C292.922 390.917 292.535 391.024 292.105 391.239C290.623 391.991 289.13 392.7 287.626 393.366C287.024 393.624 286.831 393.968 287.046 394.397C288.528 396.718 290.537 398.565 293.072 399.94C293.717 400.327 294.039 400.639 294.039 400.875C294.039 401.111 293.717 401.498 293.072 402.035C291.912 403.367 291.278 404.796 291.171 406.321C291.085 406.944 290.719 406.923 290.075 406.257C288.592 404.624 287.411 402.905 286.53 401.101C286.229 400.456 286.047 400.198 285.982 400.327C285.875 400.499 285.509 400.585 284.886 400.585H282.083C281.546 400.585 281.277 400.843 281.277 401.358V407.417C281.492 408.813 280.761 409.737 279.086 410.188C277.968 410.425 276.765 410.532 275.476 410.511C274.832 410.511 274.445 410.188 274.316 409.544C274.144 408.255 273.371 407.148 271.996 406.225C271.158 405.859 270.739 405.591 270.739 405.419C270.76 405.226 271.093 405.129 271.738 405.129H275.347C275.884 405.129 276.153 404.871 276.153 404.355V401.391C276.153 400.854 275.895 400.585 275.38 400.585H271.061C270.546 400.585 270.051 400.907 269.579 401.552C268.118 403.464 266.356 405.086 264.294 406.418C263.606 406.848 263.187 406.987 263.037 406.837C262.843 406.644 262.972 406.225 263.424 405.58C265.4 402.766 266.732 399.436 267.42 395.59C267.72 394 267.967 392.399 268.161 390.788C268.204 390.272 267.967 390.015 267.452 390.015H264.39C263.746 390.015 263.359 389.896 263.23 389.66C263.08 389.316 263.295 389.145 263.875 389.145H267.581C268.096 389.145 268.644 388.822 269.224 388.178C269.804 387.533 270.417 387.415 271.061 387.823L273.317 389.306C274.112 389.649 274.477 390.079 274.413 390.595C274.327 390.745 274.585 390.82 275.186 390.82C275.831 390.82 276.153 390.562 276.153 390.047V387.34C276.153 386.695 276.529 386.384 277.281 386.405C277.603 386.384 277.968 386.395 278.377 386.438C278.892 386.459 279.429 386.169 279.988 385.567C280.525 384.923 281.094 384.278 281.696 383.634C282.147 383.075 282.136 382.796 281.664 382.796H268.258C267.613 382.796 267.216 382.646 267.065 382.345C266.958 382.044 267.226 381.894 267.871 381.894H281.825C282.341 381.894 282.942 381.55 283.63 380.862ZM273.51 391.594C273.425 391.422 273.317 391.68 273.188 392.367L272.737 394.301C272.63 394.816 272.834 395.074 273.349 395.074H275.347C275.884 395.074 276.153 394.816 276.153 394.301V392.528C276.153 391.991 275.895 391.723 275.38 391.723H274.574C273.929 391.723 273.575 391.68 273.51 391.594ZM284.21 392.528C284.145 391.991 283.855 391.723 283.34 391.723H282.083C281.546 391.723 281.277 391.98 281.277 392.496V393.817C281.277 394.376 281.503 394.43 281.954 393.979C282.384 393.527 282.888 393.506 283.468 393.914L283.887 394.236C284.382 394.602 284.564 394.43 284.435 393.721C284.328 393.334 284.253 392.937 284.21 392.528ZM284.758 395.848C284.672 395.934 284.306 395.977 283.662 395.977H282.083C281.546 395.977 281.277 396.234 281.277 396.75V398.909C281.277 399.425 281.374 399.693 281.567 399.715C281.739 399.715 282.115 399.371 282.695 398.684C283.318 397.91 283.941 397.771 284.564 398.265C285.509 399.188 285.81 399.167 285.467 398.2C285.338 397.856 285.241 397.502 285.176 397.137C285.069 396.535 284.929 396.105 284.758 395.848ZM276.153 396.847C276.153 396.267 275.917 395.977 275.444 395.977H273.059C272.544 395.977 272.168 396.299 271.931 396.943L271.126 398.941C270.889 399.457 271.029 399.715 271.545 399.715H275.347C275.884 399.715 276.153 399.457 276.153 398.941V396.847ZM309.956 391.271C310.128 390.971 310.493 390.863 311.052 390.949C312.728 391.207 314.371 391.723 315.982 392.496C317.938 393.742 318.647 395.343 318.109 397.298C317.422 398.995 316.273 399.629 314.661 399.199C314.146 399.07 313.673 398.641 313.243 397.91C313.05 397.48 312.781 396.621 312.438 395.332C312.051 394.172 311.503 393.194 310.794 392.399C310.128 391.862 309.849 391.486 309.956 391.271ZM57.2548 424.282C57.7489 423.681 58.3182 423.638 58.9628 424.153L60.5741 425.475C61.1327 425.99 61.3153 426.377 61.1219 426.635C60.9071 426.914 60.4774 427.054 59.8329 427.054H44.5253C43.9882 427.054 43.6659 427.387 43.5585 428.053C43.1932 429.707 42.8602 431.361 42.5594 433.016C42.495 433.531 42.7206 433.789 43.2362 433.789H50.1971C50.7128 433.789 51.2821 433.467 51.9052 432.822C52.163 432.5 52.453 432.178 52.7753 431.855C53.3553 431.275 53.9891 431.211 54.6766 431.662L57.2548 433.338C57.9637 433.725 58.4149 434.111 58.6083 434.498C58.7157 434.799 58.4471 435.067 57.8026 435.304C57.3729 435.476 57.0936 435.884 56.9647 436.528C56.1913 441.534 55.4501 446.54 54.7411 451.546C54.6552 452.062 54.6981 452.341 54.87 452.384C55.0419 452.384 55.3964 452.04 55.9335 451.353L57.2548 449.677C57.7704 449.075 58.3612 449.064 59.0272 449.645L61.2509 451.546C61.8739 452.083 62.078 452.48 61.8632 452.738C61.6053 453.061 61.1757 453.222 60.5741 453.222H32.827C32.1825 453.222 31.7958 453.104 31.6669 452.867C31.5165 452.545 31.7421 452.384 32.3436 452.384H47.5868C48.1024 452.384 48.4247 452.062 48.5536 451.417L49.4237 446.067C49.5096 445.53 49.2948 445.262 48.7792 445.262H40.9159C40.3788 445.262 40.0458 445.595 39.9169 446.261L39.7235 447.195C39.5731 447.904 39.1757 448.259 38.5311 448.259H34.8895C34.245 448.259 33.9764 447.937 34.0839 447.292C35.3729 440.804 36.6942 434.315 38.0477 427.827C38.1337 427.312 37.9188 427.054 37.4032 427.054H33.2137C32.5692 427.054 32.1825 426.936 32.0536 426.699C31.9032 426.377 32.1288 426.216 32.7303 426.216H54.87C55.3856 426.216 55.912 425.894 56.4491 425.249C56.6854 424.927 56.954 424.604 57.2548 424.282ZM51.2284 435.529C51.3143 434.949 51.121 434.659 50.6483 434.659H43.0106C42.4735 434.659 42.1512 434.992 42.0438 435.658L40.4325 443.554C40.3251 444.091 40.5292 444.359 41.0448 444.359H48.9081C49.4237 444.359 49.746 444.037 49.8749 443.393C50.369 440.771 50.8202 438.15 51.2284 435.529ZM84.0002 424.766C84.0002 424.078 84.301 423.756 84.9026 423.799C86.2776 423.863 87.6526 423.96 89.0276 424.089C89.6721 424.218 90.0373 424.336 90.1233 424.443C90.2737 424.68 90.134 424.97 89.7043 425.313C89.4035 425.464 89.2532 425.797 89.2532 426.312L89.2209 430.502C89.2209 431.039 89.511 431.308 90.091 431.308C90.6926 431.308 91.2834 430.985 91.8635 430.341C91.9924 430.233 92.0891 430.126 92.1535 430.019C92.8196 429.31 93.4748 429.181 94.1194 429.632L97.2453 431.823C97.8039 432.36 97.761 432.779 97.1164 433.08C96.7727 433.316 96.6008 433.692 96.6008 434.208C96.6223 441.19 96.2571 446.755 95.5051 450.901C95.1614 452.04 94.6028 452.846 93.8293 453.318C92.8625 453.834 91.5627 454.146 89.9299 454.253C89.178 454.253 88.7805 453.931 88.7375 453.286C88.6731 452.577 88.5227 451.825 88.2864 451.03C88.0715 450.3 87.6096 449.752 86.9006 449.387C86.2561 449.172 85.9338 448.936 85.9338 448.678C85.9338 448.398 86.2561 448.259 86.9006 448.259H89.6721C90.1877 448.259 90.4993 447.937 90.6067 447.292C91.1008 442.78 91.3479 438.021 91.3479 433.016C91.3479 432.479 91.0901 432.21 90.5744 432.21H89.9621C89.4465 432.21 89.1672 432.532 89.1243 433.177C89.0598 437.409 88.6516 440.793 87.8996 443.328C86.9114 447.539 84.0002 451.03 79.1662 453.802C78.4573 454.188 78.0383 454.317 77.9094 454.188C77.759 453.995 77.9739 453.63 78.5539 453.093C80.7883 451.073 82.1741 449.021 82.7112 446.938C82.8616 446.357 82.6037 446.25 81.9377 446.615L70.7229 452.674C70.508 452.846 70.3577 453.039 70.2717 453.254C69.9924 453.834 69.6702 454.124 69.3049 454.124C69.0686 454.017 68.886 453.791 68.7571 453.447L67.1457 448.291C66.9524 447.646 67.178 447.271 67.8225 447.163C67.9299 447.185 68.0373 447.174 68.1448 447.131C68.6604 447.066 68.9182 446.776 68.9182 446.261V425.346C68.9182 424.701 69.2405 424.508 69.885 424.766L72.1409 425.765C73.3225 426.366 74.1711 426.624 74.6868 426.538H75.4924C76.1155 426.796 76.7063 426.366 77.2649 425.249C77.716 424.669 78.2961 424.594 79.0051 425.023L81.5832 426.603C82.2707 426.903 82.3567 427.301 81.841 427.795C81.4543 428.16 81.261 428.601 81.261 429.116V430.502C81.261 431.039 81.5188 431.308 82.0344 431.308H83.1623C83.6994 431.308 83.968 431.05 83.968 430.534L84.0002 428.729V424.766ZM76.3948 428.311C76.3948 427.752 76.1477 427.473 75.6535 427.473H74.4934C73.9563 427.473 73.6877 427.73 73.6877 428.246V432.339C73.6877 432.876 73.9455 433.145 74.4612 433.145H75.5891C76.1262 433.145 76.3948 432.887 76.3948 432.371V428.311ZM83.9358 433.016C83.9358 432.479 83.678 432.21 83.1623 432.21H82.0666C81.5295 432.21 81.261 432.468 81.261 432.983V444.682C81.261 445.197 81.5725 445.434 82.1955 445.391C82.8186 445.348 83.2053 444.993 83.3557 444.327C83.7209 442.05 83.9143 438.279 83.9358 433.016ZM76.3948 434.885C76.3948 434.305 76.1584 434.015 75.6858 434.015H74.4934C73.9563 434.015 73.6877 434.272 73.6877 434.788V438.784C73.6877 439.321 73.9455 439.59 74.4612 439.59H75.5891C76.1262 439.59 76.3948 439.332 76.3948 438.816V434.885ZM76.3948 441.33C76.3948 440.75 76.1584 440.46 75.6858 440.46H74.4934C73.9563 440.46 73.6877 440.718 73.6877 441.233V445.616C73.6877 446.132 74.01 446.368 74.6545 446.325L75.5569 446.196C76.1155 446.11 76.3948 445.82 76.3948 445.326V441.33ZM126.698 425.185C127.428 424.476 128.105 424.304 128.728 424.669L131.5 426.345C132.552 426.731 132.703 427.215 131.951 427.795C131.671 428.01 131.532 428.354 131.532 428.826V451.417C131.467 452.255 131.027 453.018 130.211 453.705C129.093 454.264 127.6 454.532 125.731 454.511C125.087 454.511 124.7 454.188 124.571 453.544C124.549 452.212 123.722 451.062 122.089 450.096C121.445 449.838 121.123 449.612 121.123 449.419C121.144 449.226 121.477 449.129 122.122 449.129H125.087C125.624 449.129 125.892 448.871 125.892 448.355V427.859C125.892 427.322 125.634 427.054 125.119 427.054H109.811C109.274 427.054 109.005 427.312 109.005 427.827V452.771C109.005 453.415 108.683 453.791 108.039 453.898C106.964 454.027 105.89 454.188 104.816 454.382C104.171 454.446 103.849 454.156 103.849 453.512V425.507C103.849 424.862 104.171 424.637 104.816 424.83L107.072 425.571C108.275 426.087 109.145 426.302 109.682 426.216H124.893C125.409 426.216 126.01 425.872 126.698 425.185ZM121.187 429.503C121.746 428.858 122.337 428.772 122.96 429.245L124.249 430.276C124.872 430.813 125.087 431.222 124.893 431.501C124.678 431.802 124.249 431.952 123.604 431.952H111.294C110.649 431.952 110.262 431.834 110.133 431.598C109.983 431.254 110.198 431.082 110.778 431.082H119.028C119.608 431.361 120.328 430.835 121.187 429.503ZM119.608 435.014C120.253 434.455 120.897 434.369 121.542 434.756C122.294 435.207 123.046 435.69 123.797 436.206C124.399 436.743 124.711 437.055 124.732 437.141C124.603 437.463 124.388 437.656 124.087 437.721C123.83 437.85 123.701 438.172 123.701 438.688V445.938C123.701 446.583 123.379 446.959 122.734 447.066L119.834 447.389C119.06 447.475 118.673 447.195 118.673 446.551V445.648C118.673 445.111 118.416 444.843 117.9 444.843H116.514C115.977 444.843 115.709 445.101 115.709 445.616V446.422C115.709 447.066 115.386 447.453 114.742 447.582L112.035 448.033C111.304 448.184 110.939 447.958 110.939 447.356V435.304C110.939 434.659 111.261 434.434 111.906 434.627L114.162 435.4C115 435.852 116.235 436.002 117.868 435.852C118.383 435.852 118.963 435.572 119.608 435.014ZM118.673 437.527C118.673 436.99 118.416 436.722 117.9 436.722H116.514C115.977 436.722 115.709 436.979 115.709 437.495V443.167C115.709 443.704 115.966 443.973 116.482 443.973H117.868C118.405 443.973 118.673 443.715 118.673 443.199V437.527ZM143.453 424.766C143.625 424.078 144.012 423.799 144.613 423.928L149.383 424.991C149.748 425.034 149.995 425.206 150.124 425.507C150.21 425.851 149.952 426.119 149.351 426.312C149.179 426.355 148.975 426.506 148.738 426.764C148.115 427.666 147.191 428.74 145.967 429.986C145.408 430.48 145.397 430.803 145.935 430.953C147.116 431.232 148.33 431.555 149.576 431.92C150.113 432.006 150.478 432.135 150.672 432.307C150.951 432.629 150.801 432.908 150.221 433.145C149.812 433.316 149.565 433.488 149.479 433.66C149.351 433.918 149.533 434.047 150.027 434.047H161.887C162.402 434.047 162.939 433.725 163.498 433.08L164.561 431.791C165.142 431.168 165.754 431.125 166.398 431.662L168.01 433.016C168.805 433.703 169.084 434.187 168.848 434.466C168.611 434.767 168.182 434.917 167.559 434.917H165.045C164.508 434.917 164.239 435.175 164.239 435.69V450.998C164.39 451.879 164.164 452.631 163.562 453.254C162.617 454.049 160.984 454.425 158.664 454.382C158.019 454.382 157.633 454.06 157.504 453.415C157.268 451.718 156.183 450.375 154.249 449.387C153.519 449.086 153.153 448.893 153.153 448.807C153.153 448.592 153.476 448.484 154.12 448.484H157.762C158.299 448.484 158.567 448.227 158.567 447.711V435.723C158.567 435.186 158.31 434.917 157.794 434.917H150.253C149.608 434.917 149.243 434.831 149.157 434.659C149.093 434.53 148.824 434.82 148.352 435.529L147.61 436.528C147.159 437.087 147.019 437.398 147.191 437.463C147.686 437.57 147.718 437.85 147.288 438.301C147.052 438.494 146.934 438.849 146.934 439.364V452.867C146.934 453.512 146.611 453.877 145.967 453.963C145 454.027 144.033 454.124 143.066 454.253C142.314 454.317 141.938 454.027 141.938 453.383V442.394C141.938 441.856 141.605 441.76 140.939 442.104L139.36 442.845C138.673 443.146 138.286 443.253 138.2 443.167C138.093 443.017 138.34 442.641 138.941 442.039C141.691 439.031 143.41 435.819 144.098 432.403C144.248 431.759 144.087 431.63 143.614 432.017C142.368 432.962 141.176 433.778 140.037 434.466C139.393 434.853 139.006 435.003 138.877 434.917C138.812 434.81 139.006 434.434 139.457 433.789C141.519 430.695 142.852 427.688 143.453 424.766ZM162.177 425.023C162.864 424.164 163.509 423.992 164.11 424.508L165.947 426.119C166.57 426.678 166.796 427.086 166.624 427.344C166.409 427.666 166.001 427.827 165.399 427.827H152.734C152.09 427.827 151.714 427.709 151.606 427.473C151.435 427.129 151.639 426.957 152.219 426.957H159.824C160.34 426.957 160.866 426.635 161.403 425.99L162.177 425.023ZM187.859 436.142C189.513 435.433 190.963 435.884 192.209 437.495C193.477 440.181 192.392 442.694 188.954 445.036C188.31 445.423 187.869 445.509 187.633 445.294C187.354 445.015 187.515 444.596 188.117 444.037C188.976 443.199 189.287 442.533 189.051 442.039C188.944 441.824 188.675 441.663 188.245 441.556C186.699 441.104 186.011 440.095 186.183 438.526C186.312 437.517 186.87 436.722 187.859 436.142ZM224.788 424.604C224.788 423.917 225.099 423.595 225.722 423.638C227.656 423.788 229.59 423.971 231.523 424.186C232.232 424.529 232.178 424.97 231.362 425.507C230.932 425.786 230.717 426.184 230.717 426.699V429.084C230.717 429.621 230.975 429.89 231.491 429.89H232.619C233.134 429.89 233.661 429.567 234.198 428.923L235.487 427.312C236.003 426.667 236.583 426.613 237.227 427.15L239.483 429.052C240.128 429.61 240.342 430.04 240.128 430.341C239.87 430.642 239.419 430.792 238.774 430.792H231.523C230.986 430.792 230.717 431.05 230.717 431.565V450.837C230.245 452.899 228.881 454.017 226.625 454.188L224.659 454.382C223.907 454.382 223.488 454.06 223.402 453.415C223.381 452.835 223.198 452.083 222.854 451.159C222.403 450.407 221.823 449.87 221.114 449.548C220.469 449.226 220.147 448.968 220.147 448.774C220.169 448.581 220.502 448.484 221.146 448.484H223.982C224.519 448.484 224.788 448.227 224.788 447.711V438.075C224.788 437.517 224.541 437.603 224.047 438.333C222.715 440.116 221.211 441.695 219.535 443.07C216.72 445.24 213.949 446.895 211.22 448.033C210.576 448.312 210.2 448.334 210.092 448.098C210.007 447.861 210.286 447.485 210.93 446.97C214.626 444.091 217.419 440.825 219.309 437.173C220.34 435.175 221.2 433.306 221.887 431.565C222.059 431.05 221.887 430.792 221.372 430.792H211.51C210.866 430.792 210.468 430.642 210.318 430.341C210.189 430.04 210.447 429.89 211.091 429.89H223.982C224.519 429.89 224.788 429.632 224.788 429.116V424.604ZM249.729 424.637C249.879 423.949 250.255 423.681 250.856 423.831L253.08 424.347C253.897 424.54 254.713 424.766 255.529 425.023C255.916 425.432 255.669 425.808 254.788 426.151C254.616 426.28 254.444 426.474 254.272 426.731C253.542 427.956 252.511 429.191 251.179 430.438C250.642 430.91 250.76 431.125 251.533 431.082L256.077 430.856C256.679 430.792 256.926 430.545 256.818 430.115L256.464 429.052C256.056 428.257 255.905 427.773 256.013 427.602C256.142 427.451 256.528 427.526 257.173 427.827C259.558 428.923 260.879 430.319 261.137 432.017C261.416 433.026 261.276 433.961 260.718 434.82C260.138 435.551 259.515 435.895 258.849 435.852C258.548 435.873 258.258 435.723 257.979 435.4C257.506 434.734 257.259 433.896 257.237 432.887C257.173 432.371 256.808 432.242 256.142 432.5L249.084 435.368C248.482 435.626 248.397 435.83 248.826 435.98C250.287 436.582 251.286 436.84 251.823 436.754H253.821C254.337 436.754 254.874 436.475 255.433 435.916C256.034 435.357 256.679 435.282 257.366 435.69L259.3 436.851C259.987 437.366 260.342 437.667 260.363 437.753C259.654 438.269 259.386 438.784 259.558 439.3V451.578C259.472 452.588 258.913 453.34 257.882 453.834C257.28 454.07 256.378 454.221 255.175 454.285C254.53 454.285 254.165 453.963 254.079 453.318C254.144 452.609 253.789 451.857 253.016 451.062C252.586 450.762 252.371 450.536 252.371 450.386C252.393 450.235 252.726 450.16 253.37 450.16H253.886C254.423 450.16 254.691 449.902 254.691 449.387V446.809C254.691 446.271 254.434 446.003 253.918 446.003H252.113C251.576 446.003 251.308 446.261 251.308 446.776V452.674C251.308 453.318 250.985 453.694 250.341 453.802L247.666 454.221C246.936 454.328 246.57 454.092 246.57 453.512V436.689C246.635 436.174 246.495 435.486 246.151 434.627L245.539 432.693C245.26 431.877 245.464 431.447 246.151 431.404L247.15 431.34C247.645 431.297 248.021 430.921 248.278 430.212C248.923 428.515 249.406 426.656 249.729 424.637ZM261.781 424.83C261.781 424.186 262.093 423.885 262.716 423.928C263.897 424.014 265.079 424.132 266.261 424.282C266.712 424.282 267.088 424.422 267.389 424.701C267.561 424.98 267.432 425.271 267.002 425.571C266.701 425.808 266.551 426.184 266.551 426.699V428.407C266.551 428.966 266.809 428.987 267.324 428.472C268.27 427.505 269.161 426.527 269.999 425.539C270.536 424.852 271.116 424.755 271.739 425.249L273.963 427.021C274.758 427.688 275.166 428.085 275.188 428.214C275.123 428.622 274.844 428.74 274.35 428.568C274.027 428.504 273.759 428.525 273.544 428.633C271.481 429.471 269.408 430.266 267.324 431.018C266.809 431.211 266.551 431.565 266.551 432.081V432.887C266.314 433.789 266.733 434.219 267.808 434.176C269.14 434.197 270.504 434.176 271.9 434.111C272.416 433.811 272.685 433.467 272.706 433.08L273.061 431.469C273.189 430.803 273.372 430.47 273.608 430.47C273.888 430.47 274.038 430.792 274.06 431.437C273.888 432.704 274.36 433.682 275.478 434.369C275.886 434.52 276.015 434.917 275.864 435.562C275.714 437.108 274.79 438.064 273.093 438.43H264.649C263.919 438.559 263.274 438.397 262.716 437.946C262.007 437.28 261.695 436.41 261.781 435.336V424.83ZM254.691 438.462C254.691 437.903 254.444 437.624 253.95 437.624H252.113C251.576 437.624 251.308 437.882 251.308 438.397V440.073C251.308 440.61 251.565 440.879 252.081 440.879H253.886C254.423 440.879 254.691 440.621 254.691 440.105V438.462ZM261.523 439.815C261.523 439.171 261.846 438.859 262.49 438.881L264.746 439.074C265.928 439.139 266.733 439.257 267.163 439.429C267.636 439.772 267.518 440.202 266.809 440.718C266.637 440.804 266.551 441.083 266.551 441.556V443.264C266.551 443.779 266.841 443.79 267.421 443.296C268.624 442.136 269.612 441.072 270.386 440.105C270.923 439.504 271.524 439.472 272.19 440.009L274.769 442.071C275.327 442.394 275.596 442.727 275.574 443.07C275.488 443.221 275.123 443.264 274.479 443.199C274.285 443.178 273.974 443.274 273.544 443.489C271.481 444.37 269.408 445.197 267.324 445.971C266.809 446.186 266.551 446.551 266.551 447.066C266.529 447.625 266.551 448.184 266.615 448.742C266.83 449.086 267.228 449.215 267.808 449.129H271.159C272.233 449.172 272.803 448.581 272.867 447.356C272.91 446.927 272.985 446.497 273.093 446.067C273.222 445.272 273.404 444.875 273.641 444.875C273.898 444.875 274.027 445.24 274.027 445.971C273.963 447.668 274.554 448.807 275.8 449.387C276.144 449.516 276.251 449.902 276.122 450.547L275.735 451.771C275.327 452.781 274.532 453.404 273.351 453.641H264.424C263.285 453.877 262.404 453.394 261.781 452.19C261.609 451.696 261.523 451.138 261.523 450.515V439.815ZM254.691 442.619C254.691 442.039 254.455 441.749 253.982 441.749H252.113C251.576 441.749 251.308 442.007 251.308 442.522V444.327C251.308 444.864 251.565 445.133 252.081 445.133H253.886C254.423 445.133 254.691 444.875 254.691 444.359V442.619ZM297.905 424.83C297.905 424.186 298.216 423.885 298.839 423.928C300.451 424.035 302.062 424.175 303.673 424.347C304.103 424.325 304.49 424.476 304.833 424.798C304.898 424.97 304.694 425.26 304.221 425.668C303.705 425.969 303.448 426.377 303.448 426.893V429.89C303.448 430.405 303.534 430.674 303.705 430.695C303.877 430.695 304.243 430.352 304.801 429.664L305.671 428.601C306.337 427.763 306.982 427.602 307.605 428.117L309.667 429.857C310.333 430.416 310.537 430.846 310.28 431.146C310 431.447 309.538 431.598 308.894 431.598H304.253C303.716 431.598 303.448 431.855 303.448 432.371V440.847C303.448 441.384 303.652 441.652 304.06 441.652C304.49 441.652 304.962 441.33 305.478 440.686L306.735 439.074C307.293 438.387 307.873 438.29 308.475 438.784L310.795 440.782C311.483 441.362 311.698 441.792 311.44 442.071C311.161 442.394 310.699 442.555 310.054 442.555H282.017C281.372 442.555 280.975 442.404 280.825 442.104C280.717 441.803 280.986 441.652 281.63 441.652H286.271C286.808 441.652 287.077 441.395 287.077 440.879V432.403C287.077 431.866 286.819 431.598 286.303 431.598H283.693C283.048 431.598 282.662 431.447 282.533 431.146C282.404 430.846 282.662 430.695 283.306 430.695H286.271C286.808 430.695 287.077 430.438 287.077 429.922V424.991C287.077 424.347 287.399 424.035 288.043 424.057L292.877 424.443C293.157 424.465 293.404 424.615 293.619 424.895C293.64 425.002 293.447 425.26 293.038 425.668C292.566 425.969 292.329 426.377 292.329 426.893V429.89C292.329 430.427 292.587 430.695 293.103 430.695H297.099C297.636 430.695 297.905 430.438 297.905 429.922V424.83ZM297.905 432.468C297.905 431.888 297.668 431.598 297.196 431.598H293.135C292.598 431.598 292.329 431.855 292.329 432.371V440.847C292.329 441.384 292.587 441.652 293.103 441.652H297.099C297.636 441.652 297.905 441.395 297.905 440.879V432.468ZM287.753 445.004C288.247 444.145 288.795 443.844 289.397 444.102L292.877 445.648C293.758 445.928 294.263 446.336 294.392 446.873C294.37 447.023 294.016 447.195 293.329 447.389C293.157 447.432 292.856 447.636 292.426 448.001C289.053 450.622 285.723 452.685 282.436 454.188C281.791 454.468 281.405 454.532 281.276 454.382C281.19 454.231 281.437 453.812 282.017 453.125C283.886 450.977 285.798 448.27 287.753 445.004ZM298.162 444.714C298.248 444.628 298.7 444.671 299.516 444.843C302.996 445.595 305.575 446.357 307.25 447.131C308.002 447.41 308.84 448.033 309.764 449C311.204 450.848 310.978 452.534 309.087 454.06C307.369 454.769 305.822 454.242 304.447 452.48C303.995 451.621 303.587 450.762 303.222 449.902C302.427 448.441 301.031 447.034 299.033 445.681C298.281 445.208 297.991 444.886 298.162 444.714ZM340.731 424.669C341.376 424.024 342.02 423.917 342.665 424.347C343.846 425.142 345.028 425.969 346.21 426.828C346.596 427.021 346.854 427.344 346.983 427.795C347.005 428.439 346.607 428.665 345.791 428.472C345.211 428.472 344.706 428.622 344.276 428.923L340.409 431.501C339.721 431.952 339.689 432.21 340.312 432.274C340.957 432.489 341.29 432.661 341.311 432.79C341.311 432.919 341.107 433.155 340.699 433.499C340.248 433.778 340.022 434.154 340.022 434.627V436.851C340.022 437.366 340.13 437.635 340.344 437.656C340.559 437.635 340.935 437.302 341.472 436.657C341.816 436.206 342.192 435.755 342.6 435.304C343.137 434.659 343.728 434.605 344.373 435.143L346.306 436.754C347.015 437.355 347.252 437.796 347.015 438.075C346.736 438.397 346.274 438.559 345.63 438.559H340.828C340.291 438.559 340.022 438.816 340.022 439.332V451.32C339.872 452.416 339.345 453.222 338.443 453.737C337.498 454.167 336.348 454.425 334.995 454.511C334.286 454.511 333.878 454.188 333.77 453.544C333.727 452.062 333.136 450.934 331.998 450.16C331.181 449.752 330.773 449.451 330.773 449.258C330.795 449.086 331.128 449 331.772 449H333.835C334.372 449 334.64 448.742 334.64 448.227V439.364C334.64 438.827 334.383 438.559 333.867 438.559H330.967C330.451 438.559 330.129 438.881 330 439.525C329.613 441.545 329.097 443.317 328.453 444.843C328.238 445.358 328.421 445.938 329.001 446.583C330.182 448.001 330.515 449.419 330 450.837C329.248 452.233 328.249 452.609 327.003 451.965C326.509 451.771 325.982 451.288 325.424 450.515C325.209 450.042 324.758 450.096 324.07 450.676C322.287 452.072 320.214 453.179 317.85 453.995C317.098 454.253 316.669 454.285 316.561 454.092C316.497 453.963 316.798 453.662 317.464 453.189C319.805 451.557 321.642 449.419 322.974 446.776C323.211 446.261 323.082 445.681 322.588 445.036C322.072 444.478 321.76 444.553 321.653 445.262C321.567 445.863 321.17 446.11 320.461 446.003L317.689 445.681C316.959 445.595 316.658 445.187 316.787 444.456C317.367 440.675 317.979 436.894 318.624 433.112C318.688 432.597 318.42 432.339 317.818 432.339C317.195 432.339 316.83 432.221 316.722 431.984C316.551 431.641 316.755 431.469 317.335 431.469H318.14C318.656 431.469 318.978 431.146 319.107 430.502C319.386 428.568 319.698 426.635 320.042 424.701C320.149 424.057 320.525 423.799 321.17 423.928L325.037 424.733C325.681 425.013 326.036 425.195 326.1 425.281C326.122 425.668 325.885 425.937 325.391 426.087C325.048 426.237 324.801 426.635 324.65 427.279C324.435 428.418 324.253 429.557 324.102 430.695C324.038 431.211 324.253 431.469 324.747 431.469C325.305 431.727 325.961 431.297 326.713 430.18C327.336 429.514 327.959 429.396 328.582 429.825C329.441 430.427 330.301 431.061 331.16 431.727C331.912 432.07 331.976 432.5 331.353 433.016C330.945 433.273 330.719 433.714 330.677 434.337L330.419 436.883C330.376 437.398 330.612 437.656 331.128 437.656H333.835C334.372 437.656 334.64 437.398 334.64 436.883V432.854C334.64 432.21 334.963 431.898 335.607 431.92L336.51 431.984C337.068 432.07 337.476 431.791 337.734 431.146C338.164 430.008 338.636 428.858 339.152 427.698C339.388 427.097 339.281 426.796 338.83 426.796H331.385C330.741 426.796 330.354 426.646 330.225 426.345C330.096 426.044 330.354 425.894 330.999 425.894H338.733C339.249 425.894 339.764 425.636 340.28 425.12L340.731 424.669ZM325.681 433.145C325.703 432.607 325.402 432.339 324.779 432.339C324.156 432.339 323.78 432.661 323.651 433.306L322.008 442.78C322.051 442.866 322.416 443.006 323.103 443.199C323.769 443.436 324.188 443.231 324.36 442.587C325.048 439.901 325.488 436.754 325.681 433.145ZM365.608 435.046C366.811 434.315 368.196 434.229 369.765 434.788C372.193 436.12 372.987 438.107 372.15 440.75C371.204 442.791 369.614 443.726 367.38 443.554C365.446 443.489 364.125 442.275 363.416 439.912C363.029 437.979 363.76 436.356 365.608 435.046ZM369.571 437.463C368.218 436.432 367.004 436.475 365.93 437.592C365.135 438.838 365.328 439.998 366.51 441.072C367.906 441.674 369.013 441.427 369.829 440.331C370.345 439.364 370.259 438.408 369.571 437.463Z" fill="white"/>
</g>
<defs>
<clipPath id="clip0_4649_5799">
<rect width="414" height="7721" fill="white" transform="translate(0 -83)"/>
</clipPath>
</defs>
</svg>
