<svg width="1440" height="514" viewBox="0 0 1440 514" fill="none" xmlns="http://www.w3.org/2000/svg">
<g clip-path="url(#clip0_4649_5373)">
<path fill-rule="evenodd" clip-rule="evenodd" d="M596.276 109.5H336.276V108.5H596.276V109.5Z" fill="url(#paint0_linear_4649_5373)"/>
<path d="M648.94 109.952V105.416H644.712V96.1198H647.54V98.0238H651.936V100.768H647.54V102.812H650.648V102.868H651.712V109.952C651.712 111.1 651.488 111.576 650.732 111.94C650.004 112.276 648.912 112.276 647.54 112.276C647.428 111.632 647.092 110.82 646.812 110.232C647.54 110.288 648.352 110.288 648.604 110.26C648.856 110.26 648.94 110.204 648.94 109.952ZM645.104 106.088L647.596 106.508C647.4 108.328 646.952 110.176 646.168 111.352C645.748 110.988 644.656 110.344 644.068 110.036C644.768 109 644.992 107.572 645.104 106.088ZM660.952 112.528V115.608H653.056C655.688 116.84 658.488 118.296 660.196 119.36L657.984 121.908C656.192 120.676 653.112 118.884 650.34 117.54L651.824 115.608H643.508L645.86 117.54C643.452 119.136 639.952 120.9 637.208 121.992C636.788 121.292 635.976 120.2 635.36 119.5C637.824 118.576 641.044 116.98 642.92 115.608H635.276V112.528H637.796L637.32 98.0798C639.084 97.5198 641.24 96.6798 642.668 96.0078L644.096 98.7238C642.92 99.1438 641.604 99.4798 640.344 99.8158L640.428 102.336H643.62V105.052H640.512L640.596 107.46H643.704V110.176H640.68L640.764 112.528H655.38C655.436 111.8 655.464 111.072 655.52 110.26H652.692V107.516H655.632C655.66 106.732 655.688 105.92 655.716 105.108H652.888V102.364H655.8C655.8 101.552 655.8 100.768 655.828 99.9558H652.608V97.0998H658.88C658.88 102.084 658.74 108.328 658.516 112.528H660.952Z" fill="white"/>
<path d="M672.072 106.956L674.312 107.908C672.968 113.704 670.056 118.044 666.64 120.34C666.08 119.64 664.764 118.352 663.952 117.848C666.584 116.28 668.796 113.536 670.084 110.232H664.652V107.096H671.484L672.072 106.956ZM686.436 103.736L689.488 106.004C687.36 107.908 684.812 110.008 682.684 111.436C684.644 114.124 687.192 116.196 690.468 117.484C689.684 118.128 688.648 119.5 688.144 120.396C684.084 118.576 681.2 115.58 679.1 111.744V118.156C679.1 119.976 678.736 120.872 677.532 121.432C676.384 121.964 674.676 121.992 672.324 121.992C672.184 121.04 671.652 119.556 671.204 118.66C672.604 118.744 674.34 118.744 674.844 118.716C675.348 118.688 675.516 118.548 675.516 118.1V104.744H668.516V101.552H678.904C676.524 100.488 673.276 99.3958 670.7 98.7238L672.352 96.0078C675.6 96.7078 680.276 98.1918 682.656 99.4238L680.864 102.532C680.388 102.252 679.772 101.944 679.1 101.636V103.96C679.632 105.724 680.304 107.376 681.088 108.888C682.992 107.376 685.092 105.416 686.436 103.736Z" fill="white"/>
<path d="M709.652 100.138V99.1862H702.988V97.0582H709.652V95.8542H712.9V97.0582H719.228V99.1862H712.9V100.138H718.36V102.126H704.024V100.138H709.652ZM705.816 104.926V106.606H707.832V104.926H705.816ZM716.344 106.606V104.926H714.552V106.606H716.344ZM710.296 106.606H712.116V104.926H710.296V106.606ZM703.1 108.622V102.91H719.2V108.622H703.1ZM703.632 112.71L701.28 113.466C701.224 113.074 701.168 112.626 701.084 112.122C696.128 112.85 695.204 113.102 694.616 113.382C694.448 112.822 694 111.422 693.664 110.666C694.336 110.526 694.896 109.854 695.736 108.79C696.072 108.37 696.688 107.502 697.444 106.326C695.4 106.578 694.812 106.718 694.392 106.914C694.252 106.354 693.776 105.01 693.468 104.31C693.972 104.17 694.42 103.61 694.952 102.742C695.484 101.958 697.108 98.7662 698.004 95.8262L700.72 96.8902C699.796 99.1862 698.564 101.65 697.276 103.694L699.068 103.554C699.712 102.35 700.356 101.062 700.888 99.7742L703.408 101.286C701.924 104.282 699.992 107.362 697.976 109.91L700.552 109.602C700.356 108.846 700.16 108.09 699.936 107.446L702.148 106.858C702.792 108.762 703.436 111.226 703.632 112.71ZM694.672 114.25L697.192 114.642C696.968 117.274 696.52 120.074 695.932 121.866C695.372 121.558 694.168 121.194 693.496 121.026C694.14 119.262 694.504 116.686 694.672 114.25ZM697.612 114.586L699.796 114.194C700.132 116.266 700.384 118.87 700.44 120.634L698.088 121.054C698.088 119.29 697.864 116.658 697.612 114.586ZM700.216 114.054L702.26 113.466C702.792 115.034 703.408 117.106 703.632 118.478L701.504 119.206C701.28 117.806 700.72 115.678 700.216 114.054ZM707.048 115.286V116.182H715.168V115.286H707.048ZM707.048 113.242V114.082H715.168V113.242H707.048ZM707.048 111.17V112.01H715.168V111.17H707.048ZM718.276 117.862H714.636C716.512 118.478 718.416 119.206 719.676 119.71L718.36 122.034C716.876 121.334 714.44 120.326 712.312 119.542L713.236 117.862H709.092L710.772 119.514C708.56 120.466 705.76 121.502 703.716 122.174C703.464 121.558 702.96 120.55 702.568 119.878C704.108 119.374 706.264 118.618 707.86 117.862H704.108V109.462H718.276V117.862Z" fill="white"/>
<path d="M735.864 101.818V104.366H737.404C738.468 103.554 739.476 102.714 740.428 101.818H735.864ZM741.968 114.054V112.262H732.336V114.054H741.968ZM732.336 118.478H741.968V116.574H732.336V118.478ZM748.66 107.306H738.58C737.488 108.09 736.424 108.818 735.276 109.546H745.44V121.978H741.968V121.25H732.336V122.09H729.004V112.934C727.604 113.55 726.148 114.166 724.72 114.698C724.3 113.97 723.32 112.626 722.676 111.954C726.344 110.806 729.872 109.21 733.092 107.306H723.572V104.366H732.56V101.818H725.98V98.9342H732.56V95.9102H735.864V98.9342H741.94V100.306C743.004 99.1582 743.956 97.9822 744.824 96.7502L747.68 98.2062C746.084 100.418 744.208 102.49 742.164 104.366H748.66V107.306Z" fill="white"/>
<path d="M766.136 109.392H760.9V113.256H766.136V109.392ZM769.216 116H760.9V117.848H757.82V106.648H769.216V116ZM770.476 101.692V104.492H756.504V101.692H770.476ZM775.404 96.5684V117.568C775.404 119.304 775.04 120.256 773.976 120.788C772.912 121.348 771.344 121.432 769.02 121.432C768.88 120.508 768.376 118.996 767.872 118.128C769.356 118.212 770.98 118.212 771.456 118.184C771.932 118.156 772.128 117.988 772.128 117.54V99.7324H754.908V121.404H751.66V96.5684H775.404Z" fill="white"/>
<path d="M804.024 97.5062V100.67H790.416V97.5062H804.024ZM785.04 95.9102L788.26 97.2262C786.244 99.8582 783.22 102.742 780.56 104.59C780.14 103.862 779.3 102.518 778.712 101.874C781.036 100.39 783.696 97.8702 785.04 95.9102ZM786.104 101.958L789.296 103.19C788.456 104.618 787.42 106.074 786.3 107.474V122.09H782.968V111.142C782.184 111.898 781.428 112.598 780.672 113.214C780.196 112.542 779.076 111.03 778.404 110.33C781.26 108.37 784.312 105.122 786.104 101.958ZM804.724 105.206V108.37H800.888V118.198C800.888 119.99 800.552 120.914 799.32 121.418C798.144 121.922 796.352 121.978 793.86 121.978C793.72 120.998 793.3 119.542 792.852 118.59C794.448 118.674 796.296 118.674 796.8 118.646C797.304 118.646 797.5 118.534 797.5 118.114V108.37H789.24V105.206H804.724Z" fill="white"/>
<path fill-rule="evenodd" clip-rule="evenodd" d="M1103.72 109.5L843.724 109.5L843.724 108.5L1103.72 108.5L1103.72 109.5Z" fill="url(#paint1_linear_4649_5373)"/>
</g>
<defs>
<linearGradient id="paint0_linear_4649_5373" x1="336.276" y1="110" x2="596.276" y2="110" gradientUnits="userSpaceOnUse">
<stop stop-color="#FFFEFE" stop-opacity="0"/>
<stop offset="1" stop-color="white"/>
</linearGradient>
<linearGradient id="paint1_linear_4649_5373" x1="843.724" y1="110" x2="1103.72" y2="110" gradientUnits="userSpaceOnUse">
<stop stop-color="white"/>
<stop offset="1" stop-color="#FFFEFE" stop-opacity="0"/>
</linearGradient>
<clipPath id="clip0_4649_5373">
<rect width="1440" height="3044" fill="white" transform="translate(0 -756)"/>
</clipPath>
</defs>
</svg>
