<svg width="414" height="612" viewBox="0 0 414 612" fill="none" xmlns="http://www.w3.org/2000/svg">
<g clip-path="url(#clip0_4649_5799)">
<path d="M224.258 557.177C224.258 555.665 225.5 554.441 226.994 554.441C228.506 554.441 229.73 555.665 229.73 557.177C229.73 558.689 228.506 559.913 226.994 559.913C225.5 559.913 224.258 558.689 224.258 557.177ZM225.176 557.177C225.176 558.185 226.004 558.995 226.994 558.995C228.002 558.995 228.812 558.185 228.812 557.177C228.812 556.169 228.002 555.359 226.994 555.359C226.004 555.359 225.176 556.169 225.176 557.177Z" fill="white"/>
<path d="M215.114 550.032V551.292H206.33V550.032H215.114ZM203.324 548.934L204.602 549.438C203.432 551.022 201.596 552.768 199.994 553.902C199.796 553.614 199.436 553.092 199.202 552.84C200.696 551.832 202.424 550.212 203.324 548.934ZM204.062 552.768L205.304 553.236C204.746 554.154 204.062 555.072 203.324 555.954V565.422H201.992V557.43C201.308 558.132 200.624 558.78 199.958 559.302C199.76 559.032 199.292 558.456 199.022 558.186C200.876 556.872 202.82 554.802 204.062 552.768ZM215.636 554.946V556.224H212.918V563.658C212.918 564.486 212.72 564.9 212.126 565.116C211.514 565.314 210.506 565.314 208.742 565.314C208.688 564.954 208.508 564.396 208.31 564.018C209.588 564.054 210.776 564.054 211.118 564.036C211.46 564.018 211.568 563.946 211.568 563.64V556.224H205.556V554.946H215.636Z" fill="white"/>
<path d="M190.418 557.196H185.702V560.598H190.418V557.196ZM191.678 561.75H185.702V563.046H184.46V556.062H191.678V561.75ZM192.632 553.02V554.19H183.56V553.02H192.632ZM195.458 549.87V563.694C195.458 564.522 195.26 564.918 194.72 565.152C194.162 565.368 193.262 565.404 191.714 565.404C191.66 565.026 191.444 564.45 191.228 564.09C192.362 564.126 193.406 564.126 193.712 564.108C194.036 564.09 194.144 563.982 194.144 563.694V551.148H181.994V565.422H180.698V549.87H195.458Z" fill="white"/>
<path d="M349.52 521.986H345.416V526.108H349.52V521.986ZM349.718 533.452H346.37C344.66 533.452 344.12 533.002 344.12 531.292V520.798H350.816V527.296H345.416V531.292C345.416 532.066 345.578 532.228 346.478 532.228H349.664C350.438 532.228 350.564 531.778 350.672 529.726C350.978 529.96 351.5 530.176 351.878 530.248C351.68 532.696 351.302 533.452 349.718 533.452ZM340.448 530.482V534.1C341.51 534.496 342.842 534.622 344.552 534.622C345.416 534.64 350.888 534.64 351.986 534.586C351.77 534.91 351.518 535.522 351.428 535.918H344.57C340.772 535.918 338.63 535.306 337.316 532.858C337.1 534.298 336.776 535.522 336.236 536.53C336.002 536.368 335.426 536.026 335.12 535.882C336.164 534.082 336.362 531.238 336.416 528.034L337.676 528.124C337.658 528.988 337.622 529.834 337.568 530.626C337.964 531.886 338.486 532.768 339.206 533.38V526.63H335.516V525.424H338.882V523.156H335.966V521.968H338.882V519.97H340.16V521.968H342.752V523.156H340.16V525.424H343.184V526.63H340.448V529.294H343.022V530.482H340.448Z" fill="white"/>
<path d="M316.004 527.26H332.348V528.718H316.004V527.26Z" fill="white"/>
<path d="M299.93 520.042L301.172 520.384C300.776 521.572 300.308 522.76 299.768 523.894V536.368H298.49V526.288C297.95 527.188 297.392 527.998 296.798 528.7C296.672 528.376 296.312 527.674 296.096 527.35C297.644 525.55 299.066 522.814 299.93 520.042ZM305.186 522.04H302.684V523.678H305.186V522.04ZM302.684 526.432H305.186V524.686H302.684V526.432ZM306.248 520.978V527.476H302.684V536.332H301.442V520.978H306.248ZM308.426 526.432H311.072V524.686H308.426V526.432ZM311.072 522.04H308.426V523.678H311.072V522.04ZM312.332 520.978V534.622C312.332 535.486 312.134 535.9 311.54 536.116C310.928 536.332 309.884 536.35 308.192 536.35C308.12 536.008 307.904 535.414 307.742 535.072C309.02 535.108 310.262 535.108 310.604 535.09C310.946 535.072 311.072 534.964 311.072 534.604V527.476H307.328V520.978H312.332Z" fill="white"/>
<path d="M292.802 523.408L291.722 524.182C291.164 523.336 289.958 522.04 288.896 521.122L289.922 520.42C290.966 521.302 292.208 522.562 292.802 523.408ZM291.182 527.332L292.37 527.818C291.56 529.348 290.498 530.77 289.238 532.048C289.922 533.938 290.732 535.09 291.632 535.09C292.118 535.09 292.334 534.172 292.442 531.868C292.73 532.156 293.198 532.462 293.576 532.588C293.324 535.558 292.856 536.422 291.506 536.422C290.084 536.422 289.004 535.162 288.176 533.056C287.006 534.1 285.728 535 284.378 535.702C284.18 535.378 283.802 534.928 283.46 534.64C284.972 533.902 286.448 532.912 287.726 531.724C287.294 530.23 286.952 528.448 286.718 526.504H282.488V529.384C283.55 529.15 284.648 528.916 285.71 528.682L285.8 529.888C284.702 530.158 283.586 530.41 282.488 530.662V534.658C282.488 535.522 282.272 535.918 281.714 536.134C281.156 536.35 280.184 536.386 278.726 536.386C278.654 536.026 278.42 535.414 278.222 535.036C279.374 535.09 280.436 535.072 280.742 535.054C281.066 535.054 281.174 534.964 281.174 534.64V530.986C279.824 531.274 278.528 531.58 277.448 531.814L277.07 530.464C278.15 530.284 279.608 529.978 281.174 529.654V526.504H277.322V525.226H281.174V522.364C280.058 522.58 278.924 522.76 277.862 522.904C277.79 522.58 277.61 522.112 277.43 521.788C279.95 521.41 282.848 520.798 284.54 520.168L285.494 521.266C284.63 521.572 283.586 521.86 282.488 522.094V525.226H286.61C286.448 523.588 286.376 521.86 286.358 520.096H287.726C287.726 521.896 287.798 523.624 287.942 525.226H293.234V526.504H288.086C288.266 528.034 288.518 529.42 288.824 530.608C289.778 529.582 290.57 528.484 291.182 527.332Z" fill="white"/>
<path d="M264.344 531.616L263.948 530.662C265.334 530.086 266.126 529.24 266.216 528.016C266.108 528.034 266.018 528.034 265.91 528.034C265.172 528.034 264.56 527.602 264.56 526.756C264.56 525.91 265.19 525.46 265.928 525.46C266.918 525.46 267.458 526.27 267.458 527.53C267.458 529.474 266.234 530.95 264.344 531.616Z" fill="white"/>
<path d="M252.32 521.986H248.216V526.108H252.32V521.986ZM252.518 533.452H249.17C247.46 533.452 246.92 533.002 246.92 531.292V520.798H253.616V527.296H248.216V531.292C248.216 532.066 248.378 532.228 249.278 532.228H252.464C253.238 532.228 253.364 531.778 253.472 529.726C253.778 529.96 254.3 530.176 254.678 530.248C254.48 532.696 254.102 533.452 252.518 533.452ZM243.248 530.482V534.1C244.31 534.496 245.642 534.622 247.352 534.622C248.216 534.64 253.688 534.64 254.786 534.586C254.57 534.91 254.318 535.522 254.228 535.918H247.37C243.572 535.918 241.43 535.306 240.116 532.858C239.9 534.298 239.576 535.522 239.036 536.53C238.802 536.368 238.226 536.026 237.92 535.882C238.964 534.082 239.162 531.238 239.216 528.034L240.476 528.124C240.458 528.988 240.422 529.834 240.368 530.626C240.764 531.886 241.286 532.768 242.006 533.38V526.63H238.316V525.424H241.682V523.156H238.766V521.968H241.682V519.97H242.96V521.968H245.552V523.156H242.96V525.424H245.984V526.63H243.248V529.294H245.822V530.482H243.248Z" fill="white"/>
<path d="M218.804 527.26H235.148V528.718H218.804V527.26Z" fill="white"/>
<path d="M210.578 529.636V534.694H215.33V535.954H204.512V534.694H209.246V529.636H205.214V528.376H209.246V524.938H210.578V528.376H214.628V529.636H210.578ZM206.06 522.724H215.33V524.002H205.52C204.89 525.298 204.188 526.522 203.342 527.674V536.314H202.028V529.258C201.398 529.942 200.696 530.536 199.94 531.076C199.814 530.716 199.472 530.158 199.256 529.87C201.308 528.412 202.892 526.288 204.008 524.002H199.688V522.724H204.602C204.98 521.806 205.304 520.852 205.556 519.934L206.924 520.276C206.69 521.086 206.384 521.914 206.06 522.724Z" fill="white"/>
<path d="M184.676 522.706L183.47 523.12C183.254 522.382 182.75 521.23 182.282 520.384L183.398 520.042C183.938 520.87 184.46 521.968 184.676 522.706ZM184.964 532.12L186.908 531.652L187.034 532.876C184.658 533.488 182.156 534.118 180.284 534.586L179.96 533.272C181.004 533.038 182.372 532.75 183.848 532.39C184.316 530.482 184.784 527.332 185.018 525.154L186.278 525.388C185.918 527.494 185.432 530.23 184.964 532.12ZM180.878 525.568L181.958 525.37C182.372 527.422 182.768 530.014 182.876 531.778L181.742 531.994C181.67 530.23 181.292 527.602 180.878 525.568ZM180.176 524.542V523.3H187.124V524.542H180.176ZM194.162 534.262V529.744H188.762V534.262H194.162ZM196.268 524.938H191.732V528.484H195.512V536.296H194.162V535.522H188.762V536.368H187.466V528.484H190.382V519.934H191.732V523.66H196.268V524.938Z" fill="white"/>
<path d="M167.144 531.616L166.748 530.662C168.134 530.086 168.926 529.24 169.016 528.016C168.908 528.034 168.818 528.034 168.71 528.034C167.972 528.034 167.36 527.602 167.36 526.756C167.36 525.91 167.99 525.46 168.728 525.46C169.718 525.46 170.258 526.27 170.258 527.53C170.258 529.474 169.034 530.95 167.144 531.616Z" fill="white"/>
<path d="M148.694 525.694H149.954C150.926 524.974 151.844 524.2 152.69 523.39H148.694V525.694ZM153.572 531.688V529.906H146.282V531.688H153.572ZM146.282 534.622H153.572V532.75H146.282V534.622ZM157.136 526.9H150.404C149.468 527.566 148.496 528.196 147.506 528.772H154.94V536.296H153.572V535.792H146.282V536.368H144.968V530.14C143.888 530.662 142.772 531.148 141.674 531.562C141.512 531.274 141.08 530.734 140.828 530.464C143.438 529.546 145.958 528.358 148.226 526.9H141.224V525.694H147.38V523.39H142.79V522.202H147.38V519.952H148.694V522.202H153.14V522.94C153.896 522.184 154.58 521.392 155.192 520.564L156.326 521.176C155.066 522.832 153.59 524.344 151.952 525.694H157.136V526.9Z" fill="white"/>
<path d="M137.354 521.032V522.292H128.57V521.032H137.354ZM125.564 519.934L126.842 520.438C125.672 522.022 123.836 523.768 122.234 524.902C122.036 524.614 121.676 524.092 121.442 523.84C122.936 522.832 124.664 521.212 125.564 519.934ZM126.302 523.768L127.544 524.236C126.986 525.154 126.302 526.072 125.564 526.954V536.422H124.232V528.43C123.548 529.132 122.864 529.78 122.198 530.302C122 530.032 121.532 529.456 121.262 529.186C123.116 527.872 125.06 525.802 126.302 523.768ZM137.876 525.946V527.224H135.158V534.658C135.158 535.486 134.96 535.9 134.366 536.116C133.754 536.314 132.746 536.314 130.982 536.314C130.928 535.954 130.748 535.396 130.55 535.018C131.828 535.054 133.016 535.054 133.358 535.036C133.7 535.018 133.808 534.946 133.808 534.64V527.224H127.796V525.946H137.876Z" fill="white"/>
<path d="M114.062 534.82H116.348C116.996 534.82 117.104 534.442 117.176 532.12C117.482 532.354 118.04 532.588 118.418 532.678C118.274 535.396 117.878 536.098 116.456 536.098H113.9C112.316 536.098 111.92 535.648 111.92 534.19V528.916H108.518C108.158 532.426 107.15 535.054 103.064 536.476C102.92 536.134 102.524 535.594 102.218 535.342C106.016 534.172 106.826 531.868 107.132 528.916H102.47V527.62H109.634V524.02H105.926C105.494 525.046 104.954 526 104.36 526.756C104.054 526.54 103.532 526.27 103.19 526.126C104.432 524.614 105.332 522.238 105.764 520.366L107.114 520.636C106.934 521.32 106.7 522.022 106.448 522.742H109.634V519.952H110.966V522.742H116.87V524.02H110.966V527.62H118.166V528.916H113.252V534.19C113.252 534.73 113.378 534.82 114.062 534.82Z" fill="white"/>
<path d="M90.3741 525.694H91.6341C92.6061 524.974 93.5241 524.2 94.3701 523.39H90.3741V525.694ZM95.2521 531.688V529.906H87.9621V531.688H95.2521ZM87.9621 534.622H95.2521V532.75H87.9621V534.622ZM98.8161 526.9H92.0841C91.1481 527.566 90.1761 528.196 89.1861 528.772H96.6201V536.296H95.2521V535.792H87.9621V536.368H86.6481V530.14C85.5681 530.662 84.4521 531.148 83.3541 531.562C83.1921 531.274 82.7601 530.734 82.5081 530.464C85.1181 529.546 87.6381 528.358 89.9061 526.9H82.9041V525.694H89.0601V523.39H84.4701V522.202H89.0601V519.952H90.3741V522.202H94.8201V522.94C95.5761 522.184 96.2601 521.392 96.8721 520.564L98.0061 521.176C96.7461 522.832 95.2701 524.344 93.6321 525.694H98.8161V526.9Z" fill="white"/>
<path d="M73.6339 522.832V521.86H69.0439V520.924H73.6339V519.952H74.9479V520.924H79.3399V521.86H74.9479V522.832H78.6199V523.732H69.7999V522.832H73.6339ZM70.3039 525.37V526.846H72.3379V525.37H70.3039ZM78.0079 526.846V525.37H76.2979V526.846H78.0079ZM73.3819 526.846H75.2539V525.37H73.3819V526.846ZM69.1699 527.764V524.47H79.1959V527.764H69.1699ZM69.2059 530.59L68.1979 530.878C68.1619 530.59 68.1079 530.212 68.0179 529.834C64.5259 530.374 63.9679 530.482 63.6619 530.662C63.6079 530.392 63.4099 529.816 63.2659 529.492C63.6259 529.42 64.0039 528.97 64.5079 528.286C64.7779 527.98 65.3179 527.206 65.9479 526.216C64.1659 526.432 63.7879 526.486 63.5539 526.612C63.4819 526.378 63.2839 525.802 63.1579 525.496C63.4459 525.424 63.7339 525.028 64.0759 524.488C64.4359 523.966 65.6059 521.878 66.2539 519.916L67.4059 520.402C66.6859 522.094 65.7859 523.858 64.8499 525.208L66.6139 525.064C67.0819 524.29 67.4959 523.444 67.8739 522.634L68.9359 523.264C67.8739 525.352 66.5419 527.458 65.1739 529.132L67.7659 528.808C67.6039 528.196 67.4419 527.566 67.2439 527.026L68.1979 526.792C68.6479 528.034 69.0799 529.636 69.2059 530.59ZM63.9859 531.436L65.0659 531.616C64.8499 533.272 64.5259 535.09 64.1299 536.242C63.8959 536.134 63.3739 535.972 63.0859 535.882C63.5359 534.712 63.8239 532.984 63.9859 531.436ZM65.6779 531.526L66.6499 531.364C66.8659 532.678 67.0819 534.37 67.1359 535.504L66.1099 535.684C66.0919 534.55 65.8939 532.84 65.6779 531.526ZM67.2979 531.202L68.1619 530.932C68.5579 531.994 68.9719 533.38 69.1519 534.262L68.2159 534.568C68.0539 533.65 67.6399 532.264 67.2979 531.202ZM70.9519 532.192V533.02H77.3599V532.192H70.9519ZM70.9519 530.77V531.544H77.3599V530.77H70.9519ZM70.9519 529.366V530.122H77.3599V529.366H70.9519ZM78.6199 533.83H75.9019C77.2339 534.316 78.6379 534.946 79.5559 535.378L78.9979 536.332C78.0439 535.864 76.5499 535.162 75.2179 534.622L75.6679 533.83H72.5899L73.5439 534.64C72.1759 535.27 70.4659 535.972 69.2419 536.458C69.1159 536.17 68.8819 535.774 68.6839 535.504C69.8539 535.072 71.5639 534.352 72.5359 533.83H69.7459V528.556H78.6199V533.83Z" fill="white"/>
<path d="M346.892 493.292L346.208 494.534C344.75 493.706 341.852 492.626 339.62 492.068L340.268 490.97C342.464 491.492 345.38 492.464 346.892 493.292ZM340.736 498.044L341.618 498.44C340.7 502.112 338.63 504.776 336.326 506.252C336.128 505.964 335.588 505.46 335.282 505.244C337.262 504.074 339.026 502.004 339.926 499.376H335.642V498.098H340.502L340.736 498.044ZM350.042 495.92L351.248 496.784C349.844 498.098 348.008 499.646 346.514 500.69C347.846 502.67 349.628 504.2 351.86 505.046C351.572 505.316 351.14 505.838 350.942 506.216C347.918 504.902 345.758 502.472 344.336 499.286V505.658C344.336 506.468 344.138 506.882 343.562 507.098C342.986 507.314 342.032 507.332 340.538 507.332C340.484 506.972 340.268 506.378 340.052 506C341.15 506.054 342.212 506.054 342.5 506.036C342.824 506.018 342.932 505.928 342.932 505.64V495.92H337.982V494.624H344.336V495.956C344.732 497.288 345.236 498.548 345.884 499.7C347.306 498.62 348.998 497.09 350.042 495.92Z" fill="white"/>
<path d="M317.912 492.878V496.01H321.368V492.878H317.912ZM322.754 503.57L322.898 504.74C320.504 505.37 318.002 506.054 316.148 506.558L315.824 505.298L316.76 505.082V498.872H317.876V504.812L319.28 504.47V497.18H316.742V491.708H322.592V497.18H320.486V499.664H322.682V500.852H320.486V504.146C321.224 503.966 321.98 503.768 322.754 503.57ZM324.734 496.19V498.422H330.008V496.19H324.734ZM330.008 492.932H324.734V495.074H330.008V492.932ZM331.394 500.168L332.24 501.104C331.34 501.842 330.134 502.652 329.144 503.228C329.99 504.506 331.106 505.514 332.51 506.108C332.204 506.36 331.808 506.882 331.628 507.242C328.928 505.91 327.326 503.156 326.462 499.61H324.734V505.514L327.92 504.74C327.92 505.136 327.938 505.676 327.992 505.964C324.302 506.972 323.744 507.152 323.402 507.386C323.294 507.098 323.006 506.558 322.79 506.288C323.078 506.144 323.456 505.766 323.456 505.028V491.744H331.232V499.61H327.578C327.83 500.564 328.154 501.464 328.586 502.274C329.558 501.662 330.674 500.834 331.394 500.168Z" fill="white"/>
<path d="M307.256 501.23H302.306V503.768H307.256V501.23ZM308.534 504.848H302.306V505.838H301.064V500.15H308.534V504.848ZM305.384 497.738H310.154V495.848H305.384V497.738ZM299.732 497.576V497.738H304.106V495.848H299.732V497.576ZM304.106 493.058H299.732V494.75H304.106V493.058ZM310.154 494.75V493.058H305.384V494.75H310.154ZM311.486 491.798V505.766C311.486 506.594 311.252 506.936 310.694 507.152C310.136 507.368 309.182 507.386 307.598 507.386C307.526 507.044 307.31 506.522 307.13 506.198C308.282 506.234 309.398 506.234 309.704 506.216C310.046 506.198 310.154 506.09 310.154 505.784V498.872H299.714C299.624 501.68 299.156 505.118 297.41 507.494C297.194 507.224 296.654 506.792 296.348 506.63C298.238 504.038 298.418 500.366 298.418 497.576V491.798H311.486Z" fill="white"/>
<path d="M287.384 502.003H283.1V504.091H287.384V502.003ZM288.5 505.081H283.1V505.909H281.93V500.995H288.5V505.081ZM292.136 496.621V505.891C292.136 506.593 291.956 506.899 291.434 507.097C290.894 507.259 289.994 507.277 288.464 507.277C288.392 506.953 288.23 506.539 288.05 506.251C289.166 506.287 290.21 506.269 290.498 506.251C290.786 506.233 290.894 506.161 290.894 505.873V497.737H287.258V498.907C287.258 499.303 287.312 499.447 287.6 499.447H289.22C289.49 499.447 289.958 499.429 290.21 499.375C290.228 499.681 290.264 500.041 290.3 500.329C290.084 500.419 289.652 500.419 289.256 500.419H287.366C286.268 500.419 286.052 499.951 286.052 498.889V497.737H284.018C283.748 499.609 282.902 500.599 280.418 501.157C280.31 500.869 280.022 500.437 279.77 500.221C281.876 499.843 282.578 499.123 282.83 497.737H279.734V507.349H278.456V496.621H286.772C287.24 495.901 287.798 494.893 288.086 494.173L289.436 494.479C289.004 495.199 288.518 495.991 288.05 496.621H292.136ZM281.246 494.461L282.38 494.083C282.776 494.713 283.28 495.559 283.514 496.081L282.362 496.549C282.11 496.027 281.624 495.127 281.246 494.461ZM286.25 492.877H293.126V494.029H277.43V492.877H284.864C284.684 492.337 284.45 491.689 284.234 491.185L285.476 490.861C285.728 491.491 286.052 492.283 286.25 492.877Z" fill="white"/>
<path d="M264.344 502.616L263.948 501.662C265.334 501.086 266.126 500.24 266.216 499.016C266.108 499.034 266.018 499.034 265.91 499.034C265.172 499.034 264.56 498.602 264.56 497.756C264.56 496.91 265.19 496.46 265.928 496.46C266.918 496.46 267.458 497.27 267.458 498.53C267.458 500.474 266.234 501.95 264.344 502.616Z" fill="white"/>
<path d="M245.66 495.631L246.866 496.027C245.228 499.195 242.456 501.733 239.45 503.335C239.306 503.083 238.874 502.525 238.604 502.273C240.494 501.373 242.258 500.095 243.662 498.529C240.188 498.745 239.666 498.799 239.324 498.943C239.27 498.673 239.054 498.025 238.91 497.683C239.234 497.629 239.558 497.359 239.954 496.945C240.242 496.639 241.16 495.577 241.934 494.407H238.406V493.183H243.032C242.834 492.571 242.456 491.815 242.042 491.185L243.266 490.861C243.77 491.581 244.274 492.535 244.454 493.165L244.4 493.183H248.144V494.407H243.482C242.708 495.541 241.826 496.639 240.926 497.539L244.598 497.377C244.994 496.819 245.372 496.243 245.66 495.631ZM246.83 499.033L248.054 499.501C247.316 500.743 246.452 501.895 245.462 502.939C246.47 503.821 247.73 504.937 248.342 505.675L247.37 506.575C246.776 505.819 245.624 504.703 244.598 503.785C243.014 505.225 241.214 506.431 239.342 507.349C239.18 507.061 238.766 506.485 238.496 506.215C241.952 504.739 245.066 502.201 246.83 499.033ZM250.718 493.021V502.975H249.44V493.021H250.718ZM252.662 491.185H253.976V505.639C253.976 506.503 253.76 506.863 253.22 507.097C252.662 507.295 251.762 507.331 250.232 507.331C250.178 506.971 249.998 506.413 249.8 506.053C250.898 506.089 251.924 506.089 252.212 506.071C252.536 506.053 252.662 505.963 252.662 505.639V491.185Z" fill="white"/>
<path d="M223.214 493.346H220.604V497.324H223.214V493.346ZM220.604 502.652H223.214V498.512H220.604V502.652ZM224.474 492.122V503.876H220.604V505.316H219.362V492.122H224.474ZM225.95 502.22L227.066 501.59C227.912 502.508 228.92 503.822 229.388 504.65L228.218 505.37C227.786 504.506 226.814 503.192 225.95 502.22ZM235.094 494.3H230.594V496.622H234.518V497.81H232.952V499.772H235.04V500.96H232.952V505.784C232.952 506.558 232.754 506.936 232.214 507.134C231.638 507.35 230.756 507.368 229.298 507.368C229.244 506.99 229.046 506.468 228.866 506.108C229.964 506.144 230.972 506.144 231.26 506.126C231.548 506.108 231.638 506.036 231.638 505.766V500.96H224.87V499.772H231.638V497.81H225.59V496.622H229.28V494.3H224.798V493.094H229.28V490.934H230.594V493.094H235.094V494.3Z" fill="white"/>
<path d="M213.764 493.472H212.234V494.84H213.764V493.472ZM213.764 497.288V495.884H212.234V497.288H213.764ZM211.172 494.84V493.472H208.886V492.446H211.172V490.952H212.234V492.446H214.754V494.84H215.708V495.884H214.754V498.314H212.234V499.628H214.988V500.726H212.234V502.13H215.384V503.228H212.234V505.388H211.172V503.228H208.436V502.13H211.172V500.726H208.85V499.628H211.172V498.314H208.886V497.288H211.172V495.884H208.454V494.84H211.172ZM204.89 504.2L204.962 505.298C203.072 505.82 201.074 506.378 199.652 506.756L199.382 505.55C200.084 505.406 200.984 505.19 201.956 504.938V499.772H199.526V498.602H201.956V496.658H200.336V495.956C200.138 496.208 199.904 496.442 199.688 496.658C199.634 496.352 199.364 495.632 199.22 495.308C200.372 494.246 201.578 492.608 202.28 490.844L203.126 491.312C203.018 491.546 202.928 491.798 202.802 492.05C203.738 492.788 204.692 493.688 205.268 494.372L204.746 495.488C204.17 494.75 203.234 493.814 202.334 493.022C201.83 493.922 201.29 494.768 200.732 495.488H204.332V496.658H202.91V498.602H204.782V499.772H202.91V504.686C203.558 504.542 204.242 504.38 204.89 504.2ZM200.03 500.96L200.822 500.708C201.092 501.752 201.326 503.12 201.416 504.002L200.588 504.29C200.534 503.39 200.3 502.004 200.03 500.96ZM204.008 504.11L203.288 503.786C203.522 502.904 203.828 501.482 203.99 500.51L204.872 500.87C204.584 501.968 204.296 503.282 204.008 504.11ZM207.842 497.45L208.472 497.54C208.31 500.042 207.986 502.022 207.446 503.588C208.904 505.604 210.974 506.018 213.188 506.018C213.602 506.018 215.204 506.018 215.798 506C215.618 506.288 215.438 506.81 215.384 507.134H213.098C210.686 507.134 208.58 506.666 206.996 504.722C206.456 505.856 205.772 506.72 204.908 507.404C204.764 507.116 204.494 506.702 204.26 506.504C205.106 505.874 205.79 504.938 206.294 503.678C205.844 502.868 205.43 501.842 205.124 500.618L206.024 500.24C206.204 501.068 206.456 501.77 206.744 502.364C207.032 501.284 207.266 500.006 207.392 498.548H204.998C205.592 497.198 206.366 495.2 206.96 493.418H205.232V492.248H208.508C207.932 493.886 207.158 495.938 206.528 497.486H207.662L207.842 497.45Z" fill="white"/>
<path d="M181.958 494.93V496.208H185.972V494.93H181.958ZM185.972 492.68H181.958V494.03H185.972V492.68ZM186.206 500.312L186.926 500.078C187.286 500.708 187.718 501.536 187.898 502.04L187.25 502.292H187.43V503.894C187.43 505.244 187.106 506.468 184.874 507.26C184.748 507.026 184.442 506.648 184.226 506.468C185.378 506.108 185.954 505.622 186.224 505.082H183.83V502.562H184.748V504.236H186.44C186.458 504.11 186.458 504.002 186.458 503.876V502.292H187.142C187.088 502.148 186.998 501.95 186.926 501.734C184.082 502.004 183.65 502.094 183.38 502.184C183.362 502.004 183.218 501.536 183.11 501.302C183.38 501.284 183.704 501.086 184.082 500.798C184.28 500.654 184.694 500.33 185.162 499.862C183.956 499.952 183.65 500.006 183.488 500.078C183.416 499.862 183.308 499.412 183.182 499.16C183.38 499.124 183.56 499.034 183.776 498.836C183.956 498.656 184.64 497.936 185.054 497.198H181.958V507.386H180.68V491.708H187.232V497.198H185.36L185.972 497.522C185.558 498.134 185.054 498.71 184.568 499.16L185.9 499.106C186.188 498.8 186.458 498.494 186.692 498.17L187.484 498.692C186.62 499.61 185.684 500.492 184.766 501.176L186.584 501.032C186.458 500.78 186.332 500.528 186.206 500.312ZM192.272 505.64H191.318V505.082H189.59V507.116H188.582V502.292H189.59V504.236H191.318V502.58H192.272V505.64ZM190.112 496.208H194.252V494.93H190.112V496.208ZM194.252 492.68H190.112V494.03H194.252V492.68ZM195.548 491.708V505.694C195.548 506.432 195.404 506.846 194.918 507.062C194.45 507.296 193.694 507.332 192.578 507.332C192.506 506.972 192.344 506.342 192.164 506C192.956 506.036 193.712 506.036 193.946 506.018C194.18 506.018 194.252 505.928 194.252 505.694V497.198H190.22L190.886 497.54C190.454 498.152 189.95 498.71 189.482 499.178L190.814 499.106C191.102 498.8 191.354 498.494 191.606 498.17L192.38 498.674C191.534 499.61 190.598 500.492 189.662 501.176L191.462 501.032C191.336 500.78 191.21 500.528 191.084 500.312L191.768 500.078C192.164 500.69 192.596 501.536 192.812 502.022L192.092 502.346C192.02 502.166 191.93 501.968 191.804 501.734C188.978 502.022 188.528 502.076 188.294 502.202C188.258 502.004 188.114 501.554 188.024 501.302C188.294 501.266 188.6 501.104 188.978 500.816C189.176 500.672 189.572 500.312 190.076 499.862C188.834 499.952 188.546 500.006 188.384 500.096C188.33 499.88 188.186 499.43 188.06 499.178C188.276 499.142 188.456 499.052 188.654 498.854C188.852 498.656 189.518 497.954 189.95 497.198H188.834V491.708H195.548Z" fill="white"/>
<path d="M166.244 498.781V495.019H162.464V498.781H166.244ZM162.464 504.289H166.244V499.969H162.464V504.289ZM163.976 490.897L165.416 491.167C165.11 492.049 164.786 493.039 164.48 493.813H167.468V505.495H162.464V506.917H161.24V493.813H163.256C163.526 492.949 163.85 491.743 163.976 490.897ZM176.27 493.759V494.443C175.982 502.651 175.748 505.423 175.028 506.305C174.632 506.809 174.218 506.971 173.606 507.025C172.976 507.097 171.95 507.061 170.942 507.007C170.906 506.611 170.744 506.071 170.492 505.693C171.662 505.801 172.742 505.801 173.156 505.801C173.516 505.801 173.714 505.765 173.894 505.531C174.488 504.901 174.758 502.165 174.992 495.001H170.42C169.916 496.207 169.358 497.305 168.728 498.151C168.494 497.935 167.918 497.575 167.63 497.395C168.836 495.811 169.808 493.327 170.384 490.861L171.662 491.167C171.446 492.049 171.194 492.913 170.888 493.759H176.27ZM173.426 501.859L172.292 502.561C171.752 501.481 170.546 499.699 169.556 498.403L170.6 497.791C171.608 499.069 172.85 500.797 173.426 501.859Z" fill="white"/>
<path d="M156.2 491.06V499.07C156.2 499.808 156.056 500.15 155.516 500.366C154.976 500.564 154.112 500.582 152.834 500.582C152.78 500.222 152.582 499.718 152.384 499.358C153.41 499.394 154.31 499.394 154.58 499.358C154.85 499.358 154.922 499.286 154.922 499.034V491.06H156.2ZM152.834 491.96V497.954H151.592V491.96H152.834ZM144.968 495.218V495.326H147.182V492.86H144.968V495.218ZM147.182 496.514H144.878C144.662 498.062 143.996 499.664 142.178 500.816C141.998 500.564 141.548 500.078 141.296 499.88C142.862 498.926 143.42 497.72 143.636 496.514H141.458V495.326H143.726V495.182V492.86H142.052V491.672H150.116V492.86H148.442V495.326H150.476V496.514H148.442V500.366H147.182V496.514ZM149.954 505.514H157.262V506.774H141.098V505.514H148.604V503.246H142.952V502.022H148.604V500.006H149.954V502.022H155.39V503.246H149.954V505.514Z" fill="white"/>
<path d="M133.898 498.962V500.114L135.824 500.078C135.572 499.808 135.302 499.52 135.032 499.286L135.662 498.962H133.898ZM130.55 498.134H132.728V497.018H130.55V498.134ZM130.55 495.11V496.208H132.728V495.11H130.55ZM136.202 495.11H133.898V496.208H136.202V495.11ZM136.202 498.134V497.018H133.898V498.134H136.202ZM128.948 501.212L128.858 500.186C129.902 500.168 131.252 500.168 132.728 500.132V498.962H129.452V494.282H132.728V493.31H129.038V492.248H132.728V490.952H133.898V492.248H137.75V493.31H133.898V494.282H137.318V498.962H136.058C136.868 499.646 137.66 500.564 138.074 501.194L137.138 501.77C137.012 501.554 136.832 501.284 136.616 501.014C133.79 501.104 130.928 501.176 128.948 501.212ZM129.902 504.02L130.802 503.48C131.522 504.074 132.242 504.938 132.584 505.55L131.594 506.198C131.27 505.55 130.568 504.632 129.902 504.02ZM123.134 498.962V500.6H124.808V498.962H123.134ZM123.134 496.406V498.008H124.808V496.406H123.134ZM127.436 498.008V496.406H125.762V498.008H127.436ZM127.436 500.6V498.962H125.762V500.6H127.436ZM135.788 501.302V502.256H137.966V503.318H135.788V506.072C135.788 506.72 135.644 507.044 135.158 507.206C134.636 507.404 133.862 507.404 132.674 507.404C132.62 507.062 132.44 506.612 132.278 506.288C133.178 506.324 133.988 506.324 134.24 506.306C134.492 506.288 134.546 506.252 134.546 506.054V503.318H128.912V504.254H125.87V507.386H124.682V504.254H121.496V503.066H124.682V501.608H122.144V495.398H124.682V494.066H121.73V492.896H124.682V490.952H125.87V492.896H128.66V494.066H125.87V495.398H128.462V501.608H125.87V503.066H128.84V502.256H134.546V501.302H135.788Z" fill="white"/>
<path d="M114.512 502.183L114.728 502.111L115.574 502.669C114.71 503.767 113.198 504.937 111.902 505.729C112.478 506.017 113 506.269 113.396 506.467L112.838 507.457C111.524 506.719 108.914 505.513 106.97 504.703L107.528 503.875C108.464 504.253 109.562 504.703 110.624 505.171C111.56 504.667 112.676 503.911 113.504 503.209H104.342V502.183H114.512ZM106.97 500.473H113.54C112.226 499.969 111.074 499.393 110.228 498.853C109.238 499.447 108.122 499.987 106.97 500.473ZM110.534 497.449L111.542 497.953C111.398 498.043 111.272 498.151 111.146 498.259C112.766 499.195 115.826 500.185 118.616 500.617C118.346 500.905 118.004 501.391 117.824 501.697C116.528 501.463 115.196 501.067 113.954 500.635V501.355H106.7V500.581C105.494 501.067 104.27 501.499 103.136 501.823C102.884 501.553 102.398 501.085 102.074 500.869C105.044 500.167 108.302 498.943 110.264 497.449H109.652V494.623H103.946V496.837H102.722V493.687H109.652V492.679H103.766V491.653H116.834V492.679H110.948V493.687H117.896V496.837H116.636V494.623H110.948V497.449H110.534ZM104.576 498.493L104.162 497.485C105.332 497.269 107.024 496.873 108.734 496.495L108.824 497.323C107.33 497.755 105.836 498.151 104.576 498.493ZM104.792 495.577L105.17 494.857C106.304 495.055 107.852 495.415 108.662 495.703L108.302 496.531C107.474 496.225 105.944 495.829 104.792 495.577ZM111.758 497.179L112.1 496.405L112.298 496.441L111.848 495.775C112.892 495.577 114.458 495.109 115.358 494.821L115.934 495.577C114.908 495.991 113.396 496.279 112.352 496.459C113.738 496.729 115.52 497.215 116.51 497.611L116.168 498.475C115.142 498.043 113.216 497.503 111.758 497.179Z" fill="white"/>
<path d="M96.764 491.042L97.7 491.996C95.126 492.716 91.166 493.184 87.836 493.418C87.8 493.112 87.638 492.662 87.512 492.392C90.77 492.122 94.64 491.636 96.764 491.042ZM96.116 496.136L95.036 495.794C95.522 495.056 96.134 493.832 96.458 492.986L97.682 493.382C97.178 494.372 96.602 495.434 96.116 496.136ZM93.578 495.848L92.516 496.208C92.39 495.542 92.012 494.516 91.634 493.724L92.642 493.418C93.038 494.174 93.434 495.2 93.578 495.848ZM90.158 495.974L89.114 496.424C89.006 495.794 88.592 494.858 88.16 494.156L89.114 493.778C89.564 494.444 89.978 495.362 90.158 495.974ZM87.224 493.148L86.504 494.228C85.856 493.562 84.524 492.68 83.408 492.122L84.074 491.15C85.19 491.672 86.54 492.5 87.224 493.148ZM86.324 497.882L85.64 498.98C84.956 498.368 83.606 497.54 82.49 497.054L83.138 496.046C84.236 496.496 85.604 497.252 86.324 497.882ZM83.894 507.134L82.868 506.234C83.75 504.92 85.046 502.634 86.018 500.69L86.918 501.554C86.036 503.39 84.866 505.514 83.894 507.134ZM96.422 502.058V500.42H93.38V502.058H96.422ZM93.38 497.648V499.25H96.422V497.648H93.38ZM99.068 499.25V500.42H97.592V503.174H93.38V505.676C93.38 506.468 93.218 506.81 92.696 507.008C92.156 507.224 91.256 507.224 89.906 507.224C89.834 506.864 89.672 506.36 89.474 506C90.536 506.036 91.49 506.018 91.76 506.018C92.048 506 92.12 505.928 92.12 505.658V503.174H88.034V502.058H92.12V500.42H87.026V499.25H92.12V497.648H88.124V496.532H97.592V499.25H99.068Z" fill="white"/>
<path d="M74.498 500.636V505.694H79.25V506.954H68.432V505.694H73.166V500.636H69.134V499.376H73.166V495.938H74.498V499.376H78.548V500.636H74.498ZM69.98 493.724H79.25V495.002H69.44C68.81 496.298 68.108 497.522 67.262 498.674V507.314H65.948V500.258C65.318 500.942 64.616 501.536 63.86 502.076C63.734 501.716 63.392 501.158 63.176 500.87C65.228 499.412 66.812 497.288 67.928 495.002H63.608V493.724H68.522C68.9 492.806 69.224 491.852 69.476 490.934L70.844 491.276C70.61 492.086 70.304 492.914 69.98 493.724Z" fill="white"/>
</g>
<defs>
<clipPath id="clip0_4649_5799">
<rect width="414" height="7721" fill="white" transform="translate(0 -83)"/>
</clipPath>
</defs>
</svg>
