<svg width="53" height="30" viewBox="0 0 53 30" fill="none" xmlns="http://www.w3.org/2000/svg">
<path d="M53 0H0V30H53V0Z" fill="white"/>
<path d="M50.8071 2.12659H26.3771V28.0385H50.8071V2.12659Z" fill="#4A4A4A"/>
<path d="M48.2451 6.83411L46.2161 5.14106C46.0317 4.91395 45.7857 5.14106 45.7857 5.14106L44.9659 5.96694H32.7304C32.7304 5.96694 31.6852 5.22365 31.0294 5.05848C30.7424 4.99654 30.4555 4.91395 30.4555 5.32689C30.4555 6.35923 30.4555 16.373 30.4555 16.373C30.4555 20.0688 30.6195 22.2574 29.2053 25.5402C29.2053 25.5402 29.1643 25.6022 29.1848 25.6228C29.1848 25.6228 29.2053 25.6641 29.2668 25.6228C29.8612 25.2925 31.5827 24.2808 32.4435 22.5877C33.0584 21.3902 32.9969 19.9656 32.9764 15.0309L32.9559 13.6889L33.3863 14.5354C33.5093 14.8038 33.7757 14.7625 33.7757 14.7625C33.7757 14.7625 35.4563 14.7625 37.5468 14.7625L37.5673 16.3936C37.5673 16.3936 39.8422 16.2698 40.0267 15.3819V15.0722V14.7625C42.4451 14.7625 44.7405 14.7625 45.1299 14.7625V22.9181C45.1299 23.2484 44.9659 23.4136 44.6585 23.4136H43.2034C43.2034 21.8031 43.2034 18.5822 43.2034 18.5822V18.3758L43.7567 17.777C43.9617 17.5499 43.7362 17.3641 43.7362 17.3641L41.8507 15.7949C41.6663 15.5884 41.4613 15.7949 41.4613 15.7949L40.703 16.5588H38.5305C38.5305 16.5588 38.4485 16.5588 38.3256 16.5588H37.0754C36.8909 16.4556 35.9891 15.9394 35.1489 15.7742C34.657 15.6917 34.6775 16.1459 34.6775 16.1459V23.9917C34.6775 23.9917 34.657 24.1569 34.8414 24.1156C35.2718 24.0743 36.481 23.8885 37.0549 23.3517C37.8337 23.3517 40.785 23.3517 40.785 23.3517C40.785 23.3517 41.4408 24.2808 43.0394 24.2808C43.2034 24.2808 43.1829 24.1156 43.1829 24.1156C43.1829 24.0743 43.1829 24.033 43.1829 23.9917C44.0847 24.3221 44.8225 25.1067 45.0889 25.5196C45.0889 25.5196 45.3144 25.9325 45.7653 25.8706C46.8105 25.7261 47.5893 24.9208 47.6098 23.2897V7.84581L48.2246 7.2677C48.4911 7.06123 48.2451 6.83411 48.2451 6.83411ZM40.8055 21.7619H37.1574V18.2106H40.8055V21.7619ZM33.0789 13.1521C33.0789 13.1521 33.0379 13.1521 32.9969 13.1727L32.9559 9.14657V7.63934H37.5673V9.86921H33.5707C33.5707 9.86921 33.2838 9.84857 33.3658 10.1789L33.8987 11.1906C34.0216 11.4797 34.2471 11.4797 34.2471 11.4797C34.2471 11.4797 35.7227 11.4797 37.5673 11.4797V12.7804V13.1521H33.0789ZM43.9002 12.574C43.5313 12.2643 43.1214 12.8424 42.814 13.1521H40.0472V11.459C42.3221 11.459 44.4126 11.459 44.5151 11.459C44.72 11.459 44.7815 11.2939 44.679 11.108C44.556 10.9016 43.5723 9.6008 43.2034 9.2911C42.8345 8.98139 42.4246 9.55951 42.1171 9.86921H40.0676V9.58016V9.10528C40.0676 9.10528 40.4571 8.75428 40.7645 8.40328C40.9284 8.21746 40.867 7.94905 40.3956 7.6187H45.1299H45.1504V14.0812C44.8225 13.627 44.1871 12.8217 43.9002 12.574Z" fill="white"/>
<path d="M24.512 9.4563L23.4257 7.7426C23.1183 7.32966 22.7699 7.66002 22.7699 7.66002L22.1346 8.19684H5.43115C5.43115 8.19684 5.10323 8.19684 5.2262 8.50654L5.6361 9.64212C5.6361 9.64212 5.71808 9.82794 5.92303 9.84859H9.65311C9.67361 9.86924 9.6941 9.88988 9.73509 9.91053C9.73509 9.91053 10.6984 10.6745 11.1083 11.8101C9.3252 11.8101 8.03401 11.8101 8.03401 11.8101C8.03401 11.8101 6.64035 11.3352 6.00501 11.2732C5.6361 11.2319 5.67709 11.7275 5.67709 11.7275V25.6229C5.67709 25.6229 5.65659 25.9532 6.00501 25.85C6.59936 25.6435 7.76758 25.1067 8.0955 24.2602C8.0955 24.2602 8.15698 24.1569 8.15698 23.8472C8.15698 22.2987 8.15698 18.1074 8.15698 18.1074C8.15698 18.1074 8.99728 18.19 9.85806 17.8183C9.85806 17.8183 9.94004 17.777 10.063 17.7151V24.1156C10.063 24.1156 10.0425 24.2808 10.227 24.2395C10.6574 24.1982 11.8666 24.0124 12.4404 23.4756C13.2192 23.4756 16.396 23.4756 16.396 23.4756C16.396 23.4756 17.0518 24.4047 18.6504 24.4047C18.8144 24.4047 18.7939 24.2395 18.7939 24.2395C18.7939 24.1363 18.7939 24.0124 18.7939 23.8679C19.8596 24.095 20.7614 25.0241 21.0893 25.5196C21.0893 25.5196 21.3148 25.9326 21.7656 25.8706C22.8109 25.7261 23.5897 24.9209 23.6102 23.2897V19.3668V13.6683L24.0611 13.3379C24.225 13.1315 24.0201 12.8837 24.0201 12.8837C24.0201 12.8837 22.7084 11.3971 22.401 11.17C22.0936 10.9429 21.4992 11.7481 21.1918 11.7894C21.1098 11.7894 20.9254 11.8101 20.6794 11.8101C20.6794 11.8101 19.4907 11.8101 17.8306 11.8101C18.3225 11.3352 18.6709 10.9016 18.6709 10.9016C18.8963 10.6538 18.6914 10.4474 18.6914 10.4474C18.5684 10.2615 18.343 10.0344 18.138 9.82794H24.3685C24.6759 9.766 24.512 9.4563 24.512 9.4563ZM8.13649 17.6738V13.4205H11.0468C10.9443 14.6593 9.63262 16.8066 8.13649 17.6738ZM16.355 21.8445H12.4814V19.0778H16.355V21.8445ZM16.2935 17.4673H14.0185C14.0185 17.4673 13.9366 17.4673 13.8136 17.4673H12.4404C12.297 17.4054 11.8051 17.1163 11.2312 16.8892C12.3175 15.9188 12.7888 14.9897 13.4447 13.3999H15.5762V15.1755C15.5762 16.373 15.6172 17.0544 16.6829 17.0337L16.2935 17.4673ZM21.1713 19.3668V22.8562C21.1713 23.1865 21.0073 23.3517 20.6999 23.3517H18.7939C18.7939 21.8858 18.7939 19.4701 18.7939 19.4701V19.2429L19.3472 18.6648C19.5522 18.479 19.3267 18.2519 19.3267 18.2519L17.8716 17.0337H21.1713V19.3668ZM21.1713 13.4205V15.4026H18.3225C17.8101 15.4026 17.7486 15.32 17.7486 14.7626V13.4205H21.1713ZM15.8426 11.7894C14.7154 11.7894 13.5267 11.7894 12.4199 11.7894C12.7274 11.4797 12.9528 11.1287 12.9528 11.1287C13.1168 10.8603 12.8503 10.6951 12.8503 10.6951C12.5224 10.3854 12.1535 10.0757 11.8051 9.82794H16.8673L15.8426 11.7894Z" fill="#4A4A4A"/>
<path d="M8.17747 6.8961C8.17747 6.8961 8.25945 7.08192 8.4644 7.10257H21.7041C22.0116 7.04063 21.8271 6.73092 21.8271 6.73092L20.7409 5.05852C20.4335 4.64558 20.085 4.97593 20.085 4.97593L19.4497 5.51275H7.95202C7.95202 5.51275 7.6241 5.51275 7.74707 5.82246L8.17747 6.8961Z" fill="#4A4A4A"/>
<path d="M1.39368 1.3833V28.6373H51.5859V1.3833H1.39368ZM49.9258 26.9855H3.07426V3.03506H49.9258V26.9855Z" fill="#4A4A4A"/>
</svg>
