<svg width="93" height="123" viewBox="0 0 93 123" fill="none" xmlns="http://www.w3.org/2000/svg">
<path d="M0 30C0 13.4315 13.4315 0 30 0H93V123H0V30Z" fill="#26D4A4"/>
<path d="M44.992 67.792H38.656C39.844 71.302 42.022 74.128 45.388 75.496C44.848 75.946 44.146 76.9 43.804 77.512C40.546 75.982 38.458 73.354 37.054 69.88C36.082 72.886 34.138 75.694 30.322 77.53C29.98 76.936 29.35 76.162 28.72 75.712C32.842 73.876 34.552 70.888 35.254 67.792H29.062V65.578H35.614C35.794 63.886 35.776 62.248 35.794 60.772H38.134C38.116 62.248 38.098 63.904 37.918 65.578H44.992V67.792ZM58.69 72.814H52.408V73.534H58.69V72.814ZM52.408 75.658H58.69V74.938H52.408V75.658ZM50.302 77.548V71.41H60.886V77.494H58.69V77.062H52.408V77.548H50.302ZM50.212 65.938H61.156C60.31 65.632 59.5 65.254 58.708 64.84V65.308H52.39V64.948C51.688 65.308 50.968 65.65 50.212 65.938ZM59.896 69.52V67.252H58.024L59.428 67.594C59.068 68.314 58.726 69.016 58.438 69.52H59.896ZM51.076 69.52H52.336C52.246 68.962 52.012 68.224 51.724 67.648L53.11 67.252H51.076V69.52ZM54.604 69.52V67.252H53.2C53.524 67.864 53.812 68.638 53.92 69.16L52.768 69.52H54.604ZM57.628 67.252H56.332V69.52H58.006L56.926 69.214C57.178 68.674 57.466 67.846 57.628 67.252ZM54.154 63.922H57.196C56.656 63.544 56.134 63.148 55.684 62.752C55.216 63.148 54.694 63.544 54.154 63.922ZM55.18 60.61L57.07 61.276C56.98 61.384 56.89 61.51 56.8 61.618C58.456 63.058 61.408 64.3 64.27 64.858C63.82 65.236 63.208 65.992 62.92 66.496C62.56 66.406 62.182 66.28 61.804 66.172V70.816H49.294V66.28C48.916 66.406 48.538 66.532 48.178 66.622C47.962 66.226 47.386 65.362 47.026 64.966C50.338 64.192 53.542 62.698 55.18 60.61ZM45.244 96.97V99.058H38.134V101.992C38.134 103.27 37.81 103.828 36.964 104.17C36.1 104.494 34.804 104.548 32.968 104.53C32.842 103.918 32.428 102.982 32.086 102.406C33.418 102.46 34.93 102.46 35.326 102.46C35.74 102.442 35.902 102.316 35.902 101.956V99.058H28.792V96.97H35.902V94.864H30.016V92.812H35.902V90.706C34.03 90.868 32.14 90.976 30.376 91.048C30.322 90.49 30.052 89.626 29.836 89.158C34.174 88.978 39.106 88.492 42.058 87.718L43.606 89.5C42.004 89.914 40.114 90.22 38.134 90.454V92.812H44.182V94.864H38.134V96.97H45.244ZM58.402 95.206H60.238V90.868H58.402V95.206ZM54.64 95.206H56.404V90.868H54.64V95.206ZM50.968 95.206H52.66V90.868H50.968V95.206ZM63.964 95.206V97.312H62.362V102.226C62.362 103.18 62.218 103.774 61.66 104.116C61.102 104.476 60.364 104.548 59.338 104.548C59.266 103.954 58.978 103.018 58.69 102.46C59.23 102.496 59.788 102.478 59.986 102.478C60.184 102.478 60.238 102.388 60.238 102.19V97.312H58.402V104.296H56.404V97.312H54.64V104.296H52.66V97.312H50.968V104.584H48.862V97.312H47.152V95.206H48.862V88.762H62.362V95.206H63.964Z" fill="white"/>
<path d="M56.4877 20C57.261 20.2032 57.8691 20.7191 57.9931 21.5432C57.9655 30.932 58.0481 40.3335 57.9518 49.7153C57.7108 50.4656 57.1291 50.9319 56.3397 51H38.7014C36.7279 50.8707 35.1744 49.3863 35 47.3987L35.0103 23.4282C35.1973 22.0858 36.028 20.9269 37.2488 20.352L38.4329 20H56.4877ZM47.0392 21.4532H38.8241C37.6355 21.4532 36.4468 22.6433 36.4468 23.8448V43.9752C36.8415 43.8113 37.18 43.5377 37.5919 43.4015C37.7537 43.3484 38.3308 43.188 38.4639 43.188H56.5485V21.7256C56.5485 21.6621 56.4005 21.5132 56.3374 21.5132H54.3215V29.293C54.3215 29.6081 53.8763 30.1229 53.5929 30.2556C52.1083 30.9482 51.3889 28.59 50.6809 27.7509C49.942 28.6027 49.4498 30.58 48.0363 30.3491C47.6118 30.2799 47.0392 29.6566 47.0392 29.2329V21.4532ZM52.8162 21.4532H48.5434V28.2945L50.1876 25.7713C50.5421 25.5416 50.8886 25.5381 51.2179 25.8175L52.8173 28.2957V21.4532H52.8162ZM56.5474 46.3368V44.9136C56.5474 44.8963 56.4544 44.7485 56.4269 44.7324L38.4673 44.707C35.5519 45.358 35.9672 49.4441 38.9446 49.5445L56.0988 49.5479C56.2456 49.5906 56.5474 49.4094 56.5474 49.2732V47.85H39.4265C39.36 47.85 39.1018 47.6503 39.0444 47.5684C38.7266 47.1148 38.9756 46.4511 39.5458 46.3957L56.0391 46.4003L56.5474 46.3368Z" fill="white"/>
</svg>
