<svg width="93" height="61" viewBox="0 0 93 61" fill="none" xmlns="http://www.w3.org/2000/svg">
<path d="M0 31C0 47.5685 13.4315 61 30 61H93V0H0V31Z" fill="#00A19B"/>
<path d="M39 22L46.75 14L55 22" stroke="white" stroke-width="3"/>
<path d="M34.68 45V35.464H31.464V33.096H40.776V35.464H37.544V45H34.68ZM47.4711 45.224C44.2231 45.224 42.0151 42.888 42.0151 38.984C42.0151 35.08 44.2231 32.872 47.4711 32.872C50.7191 32.872 52.9271 35.096 52.9271 38.984C52.9271 42.888 50.7191 45.224 47.4711 45.224ZM47.4711 42.76C49.0391 42.76 50.0151 41.304 50.0151 38.984C50.0151 36.68 49.0391 35.32 47.4711 35.32C45.9031 35.32 44.9431 36.68 44.9431 38.984C44.9431 41.304 45.9031 42.76 47.4711 42.76ZM55.6172 45V33.096H59.7932C62.4172 33.096 64.5772 34.024 64.5772 36.968C64.5772 39.8 62.3852 41.048 59.8732 41.048H58.4812V45H55.6172ZM58.4812 38.792H59.7292C61.1212 38.792 61.7932 38.136 61.7932 36.968C61.7932 35.768 61.0252 35.352 59.6492 35.352H58.4812V38.792Z" fill="white"/>
</svg>
