<svg width="141" height="113" viewBox="0 0 141 113" fill="none" xmlns="http://www.w3.org/2000/svg">
<path d="M0 30C0 13.4315 13.4315 0 30 0H141V113H0V30Z" fill="#26D4A4"/>
<path d="M90.6379 39.2357H82.1899C83.7739 43.9157 86.6779 47.6837 91.1659 49.5077C90.4459 50.1077 89.5099 51.3797 89.0539 52.1957C84.7099 50.1557 81.9259 46.6517 80.0539 42.0197C78.7579 46.0277 76.1659 49.7717 71.0779 52.2197C70.6219 51.4277 69.7819 50.3957 68.9419 49.7957C74.4379 47.3477 76.7179 43.3637 77.6539 39.2357H69.3979V36.2837H78.1339C78.3739 34.0277 78.3499 31.8437 78.3739 29.8757H81.4939C81.4699 31.8437 81.4459 34.0517 81.2059 36.2837H90.6379V39.2357ZM108.902 45.9317H100.526V46.8917H108.902V45.9317ZM100.526 49.7237H108.902V48.7637H100.526V49.7237ZM97.7179 52.2437V44.0597H111.83V52.1717H108.902V51.5957H100.526V52.2437H97.7179ZM97.5979 36.7637H112.19C111.062 36.3557 109.982 35.8517 108.926 35.2997V35.9237H100.502V35.4437C99.5659 35.9237 98.6059 36.3797 97.5979 36.7637ZM110.51 41.5397V38.5157H108.014L109.886 38.9717C109.406 39.9317 108.95 40.8677 108.566 41.5397H110.51ZM98.7499 41.5397H100.43C100.31 40.7957 99.9979 39.8117 99.6139 39.0437L101.462 38.5157H98.7499V41.5397ZM103.454 41.5397V38.5157H101.582C102.014 39.3317 102.398 40.3637 102.542 41.0597L101.006 41.5397H103.454ZM107.486 38.5157H105.758V41.5397H107.99L106.55 41.1317C106.886 40.4117 107.27 39.3077 107.486 38.5157ZM102.854 34.0757H106.91C106.19 33.5717 105.494 33.0437 104.894 32.5157C104.27 33.0437 103.574 33.5717 102.854 34.0757ZM104.222 29.6597L106.742 30.5477C106.622 30.6917 106.502 30.8597 106.382 31.0037C108.59 32.9237 112.526 34.5797 116.342 35.3237C115.742 35.8277 114.926 36.8357 114.542 37.5077C114.062 37.3877 113.558 37.2197 113.054 37.0757V43.2677H96.3739V37.2197C95.8699 37.3877 95.3659 37.5557 94.8859 37.6757C94.5979 37.1477 93.8299 35.9957 93.3499 35.4677C97.7659 34.4357 102.038 32.4437 104.222 29.6597ZM90.9739 78.1397V80.9237H81.4939V84.8357C81.4939 86.5397 81.0619 87.2837 79.9339 87.7397C78.7819 88.1717 77.0539 88.2437 74.6059 88.2197C74.4379 87.4037 73.8859 86.1557 73.4299 85.3877C75.2059 85.4597 77.2219 85.4597 77.7499 85.4597C78.3019 85.4357 78.5179 85.2677 78.5179 84.7877V80.9237H69.0379V78.1397H78.5179V75.3317H70.6699V72.5957H78.5179V69.7877C76.0219 70.0037 73.5019 70.1477 71.1499 70.2437C71.0779 69.4997 70.7179 68.3477 70.4299 67.7237C76.2139 67.4837 82.7899 66.8357 86.7259 65.8037L88.7899 68.1797C86.6539 68.7317 84.1339 69.1397 81.4939 69.4517V72.5957H89.5579V75.3317H81.4939V78.1397H90.9739ZM108.518 75.7877H110.966V70.0037H108.518V75.7877ZM103.502 75.7877H105.854V70.0037H103.502V75.7877ZM98.6059 75.7877H100.862V70.0037H98.6059V75.7877ZM115.934 75.7877V78.5957H113.798V85.1477C113.798 86.4197 113.606 87.2117 112.862 87.6677C112.118 88.1477 111.134 88.2437 109.766 88.2437C109.67 87.4517 109.286 86.2037 108.902 85.4597C109.622 85.5077 110.366 85.4837 110.63 85.4837C110.894 85.4837 110.966 85.3637 110.966 85.0997V78.5957H108.518V87.9077H105.854V78.5957H103.502V87.9077H100.862V78.5957H98.6059V88.2917H95.7979V78.5957H93.5179V75.7877H95.7979V67.1957H113.798V75.7877H115.934Z" fill="white"/>
<path d="M50.9709 36.0273C51.9445 36.2831 52.7101 36.9326 52.866 37.9702C52.8314 49.79 52.9354 61.6257 52.814 73.4368C52.5107 74.3813 51.7784 74.9684 50.7846 75.0541H28.5792C26.0948 74.8914 24.139 73.0227 23.9194 70.5204L23.9324 40.3431C24.1679 38.6532 25.2137 37.1942 26.7505 36.4705L28.2412 36.0273H50.9709ZM39.076 37.8568H28.7338C27.2373 37.8568 25.7409 39.355 25.7409 40.8677V66.2104C26.2378 66.004 26.6639 65.6596 27.1824 65.4882C27.3861 65.4213 28.1126 65.2193 28.2802 65.2193H51.0475V38.1998C51.0475 38.1199 50.8612 37.9324 50.7817 37.9324H48.2438V47.7265C48.2438 48.1232 47.6834 48.7713 47.3266 48.9384C45.4575 49.8103 44.5518 46.8416 43.6606 45.7851C42.7304 46.8575 42.1107 49.3468 40.3312 49.0561C39.7967 48.9689 39.076 48.1843 39.076 47.651V37.8568ZM46.3487 37.8568H40.9696V46.4696L43.0395 43.293C43.4858 43.0038 43.9221 42.9995 44.3366 43.3511L46.3502 46.471V37.8568H46.3487ZM51.0461 69.1835V67.3918C51.0461 67.37 50.9291 67.184 50.8944 67.1636L28.2845 67.1317C24.6142 67.9512 25.1371 73.0953 28.8854 73.2217L50.4813 73.2261C50.6662 73.2799 51.0461 73.0517 51.0461 72.8802V71.0885H29.4921C29.4083 71.0885 29.0833 70.8371 29.0111 70.734C28.611 70.1629 28.9244 69.3273 29.6423 69.2576L50.4062 69.2634L51.0461 69.1835Z" fill="white"/>
</svg>
