<svg width="141" height="77" viewBox="0 0 141 77" fill="none" xmlns="http://www.w3.org/2000/svg">
<path d="M0 57C0 68.0457 8.95431 77 20 77H141V0.796768H20C8.95431 0.796768 0 9.75107 0 20.7968V57Z" fill="#00A19B"/>
<path d="M64.2051 29.3995L73.9618 19.4323L84.3479 29.3995" stroke="white" stroke-width="3"/>
<path d="M58.7338 57.9733V46.0533H54.7138V43.0933H66.3538V46.0533H62.3138V57.9733H58.7338ZM74.7227 58.2533C70.6627 58.2533 67.9027 55.3333 67.9027 50.4533C67.9027 45.5733 70.6627 42.8133 74.7227 42.8133C78.7827 42.8133 81.5427 45.5933 81.5427 50.4533C81.5427 55.3333 78.7827 58.2533 74.7227 58.2533ZM74.7227 55.1733C76.6827 55.1733 77.9027 53.3533 77.9027 50.4533C77.9027 47.5733 76.6827 45.8733 74.7227 45.8733C72.7627 45.8733 71.5627 47.5733 71.5627 50.4533C71.5627 53.3533 72.7627 55.1733 74.7227 55.1733ZM84.9054 57.9733V43.0933H90.1254C93.4054 43.0933 96.1054 44.2533 96.1054 47.9333C96.1054 51.4733 93.3654 53.0333 90.2254 53.0333H88.4854V57.9733H84.9054ZM88.4854 50.2133H90.0454C91.7854 50.2133 92.6254 49.3933 92.6254 47.9333C92.6254 46.4333 91.6654 45.9133 89.9454 45.9133H88.4854V50.2133Z" fill="white"/>
</svg>
