<svg width="141" height="77" viewBox="0 0 141 77" fill="none" xmlns="http://www.w3.org/2000/svg">
<path d="M0 47C0 63.5685 13.4315 77 30 77H141V0H0V47Z" fill="#00A19B"/>
<path d="M64.2053 27.6973L73.962 17.6258L84.3482 27.6973" stroke="white" stroke-width="3"/>
<path d="M58.7339 55.7324V43.8124H54.7139V40.8524H66.3539V43.8124H62.3139V55.7324H58.7339ZM74.7228 56.0124C70.6628 56.0124 67.9028 53.0924 67.9028 48.2124C67.9028 43.3324 70.6628 40.5724 74.7228 40.5724C78.7828 40.5724 81.5428 43.3524 81.5428 48.2124C81.5428 53.0924 78.7828 56.0124 74.7228 56.0124ZM74.7228 52.9324C76.6828 52.9324 77.9028 51.1124 77.9028 48.2124C77.9028 45.3324 76.6828 43.6324 74.7228 43.6324C72.7628 43.6324 71.5628 45.3324 71.5628 48.2124C71.5628 51.1124 72.7628 52.9324 74.7228 52.9324ZM84.9055 55.7324V40.8524H90.1255C93.4055 40.8524 96.1055 42.0124 96.1055 45.6924C96.1055 49.2324 93.3655 50.7924 90.2255 50.7924H88.4855V55.7324H84.9055ZM88.4855 47.9724H90.0455C91.7855 47.9724 92.6255 47.1524 92.6255 45.6924C92.6255 44.1924 91.6655 43.6724 89.9455 43.6724H88.4855V47.9724Z" fill="white"/>
</svg>
